<svg width="1270" height="1270" viewBox="0 0 1270 1270" fill="none" xmlns="http://www.w3.org/2000/svg">
<g transform="translate(0.000000,1280.000000) scale(0.100000,-0.100000)">
	<path d="M7655 12794 c-420 -64 -739 -215 -1003 -476 -117 -115 -200 -230 -283 -391 -105 -204 -142 -325 -158 -512 -22 -257 31 -513 160 -765 152 -297 394 -541 674 -679 488 -241 1036 -248 1515 -20 276 131 531 364 682 622 78 134 154 347 190 532 23 119 16 301 -16 439 -72 310 -184 525 -381 734 -247 261 -553 426 -915 492 -111 20 -392 35 -465 24z" fill="red" />
	<path d="M2245 11636 c-107 -46 -47 -126 96 -126 101 0 163 46 131 97 -24 38 -165 56 -227 29z" fill="red" />
	<path d="M3470 10934 c-316 -39 -461 -103 -662 -292 -165 -156 -248 -250 -390 -442 -319 -433 -558 -901 -798 -1565 -87 -241 -353 -1055 -385 -1177 -26 -101 -28 -158 -5 -158 18 0 149 167 330 420 209 291 185 261 670 845 583 701 855 1041 1104 1378 47 64 91 117 98 117 16 0 141 -70 378 -210 113 -67 255 -146 315 -175 310 -151 708 -279 1045 -336 114 -20 170 -23 360 -23 213 0 230 1 325 27 187 51 326 136 415 255 51 68 120 211 148 304 l20 67 -76 77 c-199 203 -513 383 -902 518 -354 124 -993 275 -1440 342 -158 23 -461 39 -550 28z" fill="red" />
	<path d="M12690 10664 c-25 -21 -173 -164 -330 -319 -188 -186 -424 -403 -695 -640 -653 -571 -863 -761 -1229 -1112 l-190 -181 -55 38 c-31 20 -141 105 -246 187 -244 192 -305 235 -445 318 -540 320 -1085 492 -1441 455 -219 -22 -332 -70 -457 -192 -64 -63 -115 -136 -166 -237 l-38 -74 39 -56 c57 -83 231 -259 339 -343 265 -205 621 -385 1189 -598 319 -120 632 -220 796 -255 229 -50 480 -60 644 -26 217 45 475 220 801 546 506 505 795 955 1424 2215 106 212 124 258 113 288 -9 22 -9 22 -53 -14z" fill="red" />
	<path d="M4590 6992 c-327 -220 -485 -420 -498 -632 -8 -145 51 -319 162 -474 l55 -76 -192 -243 c-401 -503 -437 -550 -1187 -1558 -206 -277 -707 -945 -1114 -1484 -667 -885 -995 -1321 -1515 -2020 -162 -217 -232 -331 -280 -452 l-21 -53 55 25 c82 36 174 98 345 235 379 303 1484 1276 2260 1990 135 124 445 408 690 630 828 753 1294 1199 1724 1648 156 163 314 332 352 374 l68 77 30 -14 c17 -7 90 -40 161 -73 176 -82 312 -131 705 -257 338 -108 548 -181 563 -195 5 -4 -61 -95 -145 -201 -380 -481 -638 -836 -1421 -1954 -411 -587 -438 -623 -690 -928 -214 -258 -328 -404 -406 -519 l-51 -78 47 6 c72 10 272 136 738 464 105 74 285 200 400 280 999 693 1529 1119 2030 1631 474 484 797 940 917 1291 57 169 38 322 -65 523 -148 285 -498 599 -1252 1122 -762 528 -1371 810 -1997 923 -88 16 -349 50 -378 50 -3 0 -43 -26 -90 -58z" fill="red" />
</g>
</svg>