<svg width="32" height="32" viewBox="0 0 32 32" fill="none" xmlns="http://www.w3.org/2000/svg">
<path d="M16 27C15.748 27 15.496 26.905 15.302 26.717L5.062 16.742C3.732 15.447 3 13.717 3 11.871C3 10.024 3.731 8.29301 5.062 6.99801C7.8 4.33201 12.252 4.33001 14.991 6.99801L16 7.98101L17.01 6.99801C19.748 4.33201 24.201 4.33101 26.938 6.99701C28.269 8.29301 29 10.024 29 11.871C29 13.717 28.268 15.447 26.937 16.742L16.698 26.717C16.504 26.905 16.252 27 16 27ZM10.026 6.99301C8.733 6.99301 7.441 7.47201 6.457 8.43101C5.518 9.34601 5 10.568 5 11.87C5 13.173 5.518 14.393 6.457 15.308L16 24.604L25.542 15.309H25.543C26.482 14.394 27 13.173 27 11.87C27 10.568 26.482 9.34601 25.542 8.43001C23.575 6.51401 20.373 6.51401 18.406 8.43001L16.698 10.094C16.309 10.473 15.69 10.473 15.302 10.094L13.594 8.43001C12.61 7.47201 11.318 6.99301 10.026 6.99301Z" fill="black"/>
</svg>
