<svg width="25" height="24" viewBox="0 0 25 24" fill="none" xmlns="http://www.w3.org/2000/svg">
<path d="M12.5 19.75L13.25 21V3.05357C13.25 2.51786 12.8434 2.25 12.4367 2.25H2L2.45 3H12.4367C12.457 3 12.4743 3.00346 12.4868 3.00782C12.4908 3.00923 12.4938 3.01058 12.4961 3.0117C12.4978 3.01877 12.5 3.03213 12.5 3.05357V19.75Z" fill="red" />
<path d="M7.21681 4.5C9.02256 4.5 10.5727 5.76684 10.925 7.5C10.9742 7.74166 11 7.99238 11 8.25H3.5C3.5 7.9939 3.52616 7.74299 3.57599 7.5C3.923 5.80791 5.41766 4.5 7.21681 4.5ZM7.21681 5.25C8.61815 5.25 9.81723 6.19536 10.1551 7.5H7.96861L8.70761 6.53984L8.11326 6.0824L7.02219 7.5H4.34562C4.67859 6.21725 5.84207 5.25 7.21681 5.25Z" fill="red" fill-rule="evenodd" clip-rule="evenodd" />
<path d="M2.54846 24H13.4515C14.5749 24 15.5 23.0289 15.5 21.8497V2.15029C15.5 0.971098 14.5749 0 13.4515 0H2.54846C1.42511 0 0.5 0.971098 0.5 2.15029V21.8497C0.5 23.0289 1.42511 24 2.54846 24ZM2.54846 23.25H13.4515C14.1268 23.25 14.75 22.6494 14.75 21.8497V2.15029C14.75 1.35061 14.1268 0.75 13.4515 0.75H2.54846C1.8732 0.75 1.25 1.35061 1.25 2.15029V21.8497C1.25 22.6494 1.8732 23.25 2.54846 23.25Z" fill="red" clip-rule="evenodd" fill-rule="evenodd" />
<path d="M17 9.02534C17 6.79606 18.9648 3.98687 20.293 2.1403C20.3438 2.06969 20.3937 2.0005 20.4425 1.93279C20.5521 1.78066 20.6562 1.63607 20.7533 1.5L20.8745 1.66502C20.9825 1.81195 21.0983 1.9696 21.2199 2.13656C22.5275 3.93212 24.5 6.80527 24.5 9.02534C24.5 11.0843 22.823 12.75 20.75 12.75C18.6803 12.75 17 11.0843 17 9.02534ZM23.75 9.02534C23.75 10.6653 22.4136 12 20.75 12C19.0893 12 17.75 10.6649 17.75 9.02534C17.75 7.98271 18.2805 6.69339 19.0492 5.36653C19.5913 4.43082 20.2119 3.5413 20.7586 2.77797C21.2913 3.51517 21.9034 4.3977 22.4393 5.32776C23.2117 6.66805 23.75 7.9823 23.75 9.02534Z" fill="red" fill-rule="evenodd" clip-rule="evenodd" />
</svg>