<svg version="1.1" xmlns="http://www.w3.org/2000/svg" xmlns:xlink="http://www.w3.org/1999/xlink" preserveAspectRatio="xMidYMid meet" viewBox="0 0 34 34" width="34" height="34">
<path d="M15.3011 2.52707C15.7558 2.05878 16.3674 1.8002 17 1.8002C17.6326 1.8002 18.2442 2.05878 18.6989 2.52707C19.1544 2.99616 19.4143 3.63728 19.4143 4.31054V5.71729H14.5857V4.31054C14.5857 3.63728 14.8456 2.99616 15.3011 2.52707ZM13.77 7.31729L13.7857 7.31744L13.8015 7.31729H20.1986L20.2143 7.31744L20.23 7.31729H32C32.4418 7.31729 32.7999 6.95911 32.7999 6.51729C32.7999 6.07546 32.4418 5.71729 32 5.71729H21.0143V4.31054C21.0143 3.22789 20.5969 2.185 19.8468 1.41248C19.0959 0.639149 18.0724 0.200195 17 0.200195C15.9276 0.200195 14.9041 0.639149 14.1532 1.41248C13.4031 2.185 12.9857 3.22789 12.9857 4.31054V5.71729H1.99995C1.55812 5.71729 1.19995 6.07546 1.19995 6.51729C1.19995 6.95911 1.55812 7.31729 1.99995 7.31729H13.77ZM15.9286 21.9658C15.9286 22.5752 15.4489 23.0692 14.8572 23.0692C14.2655 23.0692 13.7858 22.5752 13.7858 21.9658C13.7858 21.3563 14.2655 20.8623 14.8572 20.8623C15.4489 20.8623 15.9286 21.3563 15.9286 21.9658ZM11.6429 26.3793C11.6429 26.9887 11.1632 27.4828 10.5714 27.4828C9.97969 27.4828 9.5 26.9887 9.5 26.3793C9.5 25.7699 9.97969 25.2759 10.5714 25.2759C11.1632 25.2759 11.6429 25.7699 11.6429 26.3793ZM19.1428 28.5863C19.7346 28.5863 20.2143 28.0923 20.2143 27.4828C20.2143 26.8734 19.7346 26.3794 19.1428 26.3794C18.5511 26.3794 18.0714 26.8734 18.0714 27.4828C18.0714 28.0923 18.5511 28.5863 19.1428 28.5863ZM25.5714 23.0688C25.5714 23.6782 25.0918 24.1722 24.5 24.1722C23.9083 24.1722 23.4286 23.6782 23.4286 23.0688C23.4286 22.4594 23.9083 21.9653 24.5 21.9653C25.0918 21.9653 25.5714 22.4594 25.5714 23.0688ZM4.14277 10.1309C4.5846 10.1309 4.94277 10.489 4.94277 10.9309V16.752H29.0571V10.9309C29.0571 10.489 29.4152 10.1309 29.8571 10.1309C30.2989 10.1309 30.6571 10.489 30.6571 10.9309V17.552V29.6895C30.6571 30.7721 30.2397 31.815 29.4896 32.5875C28.7387 33.3609 27.7152 33.7998 26.6428 33.7998H7.35706C6.28468 33.7998 5.26115 33.3609 4.51026 32.5875C3.76015 31.815 3.34277 30.7721 3.34277 29.6895V17.552V10.9309C3.34277 10.489 3.70095 10.1309 4.14277 10.1309ZM4.94277 18.352V29.6895C4.94277 30.3627 5.20269 31.0039 5.65817 31.4729C6.11287 31.9412 6.72448 32.1998 7.35706 32.1998H26.6428C27.2754 32.1998 27.887 31.9412 28.3417 31.4729C28.7971 31.0039 29.0571 30.3627 29.0571 29.6895V18.352H4.94277Z" fill="red"></path>
</svg>