<svg version="1.1" xmlns="http://www.w3.org/2000/svg" xmlns:xlink="http://www.w3.org/1999/xlink" viewBox="0 0 34 34" width="34" height="34">
<path d="M16.9062 19.0874C14.8179 19.0874 13.125 20.7803 13.125 22.8687C13.125 24.957 14.8179 26.6499 16.9062 26.6499C18.9946 26.6499 20.6875 24.957 20.6875 22.8687C20.6875 20.7803 18.9946 19.0874 16.9062 19.0874ZM14.725 22.8687C14.725 21.664 15.7016 20.6874 16.9062 20.6874C18.1109 20.6874 19.0875 21.664 19.0875 22.8687C19.0875 24.0733 18.1109 25.0499 16.9062 25.0499C15.7016 25.0499 14.725 24.0733 14.725 22.8687Z M8.95625 11.6343C9.39808 11.6343 9.75625 11.9924 9.75625 12.4343C9.75625 12.881 9.93371 13.3094 10.2496 13.6253C10.5655 13.9412 10.9939 14.1187 11.4406 14.1187C11.8873 14.1187 12.3158 13.9412 12.6317 13.6253C12.9475 13.3094 13.125 12.881 13.125 12.4343C13.125 11.9924 13.4832 11.6343 13.925 11.6343C14.3668 11.6343 14.725 11.9924 14.725 12.4343C14.725 13.3053 14.379 14.1407 13.763 14.7567C13.1471 15.3726 12.3117 15.7187 11.4406 15.7187C10.5696 15.7187 9.73416 15.3726 9.11822 14.7567C8.50228 14.1407 8.15625 13.3053 8.15625 12.4343C8.15625 11.9924 8.51442 11.6343 8.95625 11.6343Z M20.6875 12.4343C20.6875 11.9924 20.3294 11.6343 19.8875 11.6343C19.4457 11.6343 19.0875 11.9924 19.0875 12.4343C19.0875 13.3053 19.4336 14.1407 20.0495 14.7567C20.6654 15.3726 21.5008 15.7187 22.3719 15.7187C23.243 15.7187 24.0784 15.3726 24.6943 14.7567C25.3102 14.1407 25.6563 13.3053 25.6563 12.4343C25.6563 11.9924 25.2981 11.6343 24.8563 11.6343C24.4144 11.6343 24.0563 11.9924 24.0563 12.4343C24.0563 12.881 23.8788 13.3094 23.5629 13.6253C23.2471 13.9412 22.8186 14.1187 22.3719 14.1187C21.9252 14.1187 21.4967 13.9412 21.1809 13.6253C20.865 13.3094 20.6875 12.881 20.6875 12.4343Z M16.9062 1.2002C8.23188 1.2002 1.19995 8.23212 1.19995 16.9064C1.19995 25.5808 8.23188 32.6127 16.9062 32.6127C25.5805 32.6127 32.6124 25.5808 32.6124 16.9064C32.6124 8.23212 25.5805 1.2002 16.9062 1.2002ZM2.79995 16.9064C2.79995 9.11578 9.11553 2.8002 16.9062 2.8002C24.6969 2.8002 31.0124 9.11578 31.0124 16.9064C31.0124 24.6971 24.6969 31.0127 16.9062 31.0127C9.11553 31.0127 2.79995 24.6971 2.79995 16.9064Z" fill="green"></path>
</svg>