<svg width="450" height="313" viewBox="0 0 450 313" fill="none" xmlns="http://www.w3.org/2000/svg">
<path d="M406.38 52.41C406.37 52.4 405.45 50.77 402.62 49.87C385.05 44.91 244.54 5.23 226.97 0.27C225.68 -0.09 224.32 -0.09 223.03 0.27C205.46 5.23 64.95 44.91 47.38 49.87C47.38 49.87 44.99 50.56 43.54 52.5C42.97 53.28 1.45 108.75 1.45 108.75C0.06 110.62 -0.36 113.03 0.33 115.25C1.01 117.47 2.73 119.23 4.93 119.98C7.4 120.82 19.79 125.02 42.1 132.59C42.1 193.12 42.1 226.74 42.1 233.47C42.1 236.4 43.87 239.05 46.58 240.17C64.15 247.43 204.66 305.5 222.23 312.75C222.75 312.97 223.41 313.31 225 313.31C226.59 313.31 227.77 312.75 227.77 312.75C245.34 305.5 385.85 247.43 403.42 240.17C406.13 239.05 407.9 236.4 407.9 233.47C407.9 226.74 407.9 193.12 407.9 132.59C430.21 125.02 442.6 120.82 445.07 119.98C447.28 119.23 448.99 117.47 449.67 115.25C450.36 113.03 449.95 110.62 448.55 108.75C440.12 97.49 406.4 52.45 406.38 52.41ZM52.2 65.16L65.6 68.86L141.03 89.63L212.37 109.29L170.53 160.85L19.06 109.44L52.2 65.16ZM56.61 228.61L56.61 137.52C125.04 160.74 163.05 173.64 170.65 176.22C171.42 176.49 172.2 176.61 172.99 176.61C175.13 176.61 177.22 175.66 178.62 173.92C181.23 170.71 194.27 154.64 217.74 125.7L217.74 295.19L217.74 295.19L56.61 228.61ZM76.37 56.77L225 14.8L373.63 56.77L225 97.71L76.37 56.77ZM232.26 295.19L232.26 125.71C255.73 154.64 268.77 170.71 271.38 173.93C272.78 175.66 274.87 176.61 277.02 176.61C277.8 176.61 278.58 176.49 279.35 176.23C286.95 173.65 324.96 160.74 393.39 137.52L393.39 228.61L393.39 228.61L232.26 295.19ZM237.63 109.29L397.8 65.16L430.94 109.44L279.47 160.85L237.63 109.29Z" fill="red"/>
</svg>