<svg width="36" height="36" viewBox="0 0 36 36" fill="none" xmlns="http://www.w3.org/2000/svg">
<path d="M35.2798 15.5612V3.1662C35.2798 1.72598 34.108 0.554199 32.6678 0.554199H3.22369C1.78347 0.554199 0.611678 1.72598 0.611678 3.1662V15.5612H0.583862V19.8353H0.611678V32.6102C0.611678 34.0504 1.78347 35.2222 3.22369 35.2222H32.6678C34.108 35.2222 35.2798 34.0504 35.2798 32.6102V19.8353H35.3076V15.5612H35.2798ZM0.611678 18.4106H2.00854V16.9859H0.611678V18.4106ZM33.855 32.6102C33.855 33.2649 33.3225 33.7974 32.6678 33.7974H3.22369C2.56903 33.7974 2.03644 33.2648 2.03644 32.6102V3.1662C2.03644 2.51154 2.56903 1.97896 3.22369 1.97896H32.6678C33.3226 1.97896 33.855 2.51154 33.855 3.1662V32.6102ZM33.883 18.4106H35.2798V16.9859H33.883V18.4106Z M17.9457 7.71191C12.3341 7.71191 7.7688 12.2773 7.7688 17.8888C7.7688 23.5003 12.3341 28.0657 17.9457 28.0657C23.5573 28.0657 28.1226 23.5004 28.1226 17.8888C28.1226 12.2772 23.5573 7.71191 17.9457 7.71191ZM18.4631 8.76175C21.2964 8.92068 23.7886 10.3755 25.3562 12.5416H18.4363V13.5766H26.0048C26.6184 14.7188 26.9962 16.0054 27.0728 17.3714H21.1117C20.8909 16.0161 19.8184 14.9436 18.4631 14.7229V8.76175ZM17.4282 8.76181V12.5416H10.5353C12.1028 10.3755 14.5951 8.92068 17.4282 8.76181ZM17.4282 27.0158C14.5951 26.8569 12.1028 25.4022 10.5353 23.2359H17.4282V27.0158ZM17.4282 22.201H9.88669C9.27306 21.0589 8.8953 19.7721 8.8187 18.4063H14.7643V17.3714H8.8187C8.8953 16.0054 9.27313 14.7188 9.88669 13.5766H17.4283V14.7229C15.9044 14.9711 14.7374 16.296 14.7374 17.8889C14.7374 19.4817 15.9044 20.8067 17.4283 21.0549L17.4282 22.201ZM15.7724 17.8888C15.7724 16.6904 16.7474 15.7154 17.9457 15.7154C19.1441 15.7154 20.1191 16.6905 20.1191 17.8888C20.1191 19.0872 19.1441 20.0621 17.9457 20.0621C16.7474 20.0621 15.7724 19.0872 15.7724 17.8888ZM25.3561 23.2359C23.7886 25.4022 21.2963 26.8569 18.4632 27.0158V21.0548C19.8185 20.834 20.891 19.7615 21.1117 18.4063H27.0728C26.9962 19.7722 26.6184 21.0589 26.0048 22.201H18.4363V23.2359H25.3561Z" fill="red"/>
</svg>