<svg width="32" height="32" viewBox="0 0 32 32" fill="none" xmlns="http://www.w3.org/2000/svg">
<path fill-rule="evenodd" clip-rule="evenodd" d="M5.7664 6.84476C6.06871 5.83706 6.99621 5.14697 8.04828 5.14697H23.1296C24.1816 5.14697 25.1091 5.83706 25.4115 6.84476L27.8325 14.9151C27.878 15.0665 27.8491 15.2304 27.7548 15.3572C27.6604 15.484 27.5117 15.5587 27.3536 15.5587H3.82422C3.66617 15.5587 3.51742 15.484 3.42308 15.3572C3.32873 15.2304 3.29989 15.0665 3.34531 14.9151L5.7664 6.84476ZM8.04828 6.14697C7.43782 6.14697 6.89964 6.5474 6.72423 7.13211L4.49624 14.5587H26.6816L24.4536 7.13211C24.2782 6.5474 23.74 6.14697 23.1296 6.14697H8.04828Z" fill="#008000"/>
<path fill-rule="evenodd" clip-rule="evenodd" d="M3.43332 14.7465C3.52821 14.6279 3.67187 14.5588 3.82376 14.5588H27.3532C27.5051 14.5588 27.6487 14.6279 27.7436 14.7465L29.4068 16.8255C29.6196 17.0915 29.7355 17.422 29.7355 17.7626V24.4706C29.7355 24.7467 29.5117 24.9706 29.2355 24.9706H1.94141C1.66526 24.9706 1.44141 24.7467 1.44141 24.4706V17.7626C1.44141 17.422 1.55733 17.0915 1.7701 16.8255L3.43332 14.7465ZM4.06407 15.5588L2.55097 17.4502C2.48005 17.5389 2.44141 17.649 2.44141 17.7626V23.9706H28.7355V17.7626C28.7355 17.649 28.6969 17.5389 28.626 17.4502L27.1129 15.5588H4.06407Z" fill="#008000"/>
<path fill-rule="evenodd" clip-rule="evenodd" d="M26.4702 19.7647C26.4702 20.8367 25.6011 21.7058 24.5291 21.7058C23.457 21.7058 22.5879 20.8367 22.5879 19.7647C22.5879 18.6926 23.457 17.8235 24.5291 17.8235C25.6011 17.8235 26.4702 18.6926 26.4702 19.7647ZM24.5291 20.7058C25.0489 20.7058 25.4702 20.2845 25.4702 19.7647C25.4702 19.2449 25.0489 18.8235 24.5291 18.8235C24.0093 18.8235 23.5879 19.2449 23.5879 19.7647C23.5879 20.2845 24.0093 20.7058 24.5291 20.7058Z" fill="#008000"/>
<path fill-rule="evenodd" clip-rule="evenodd" d="M8.58743 19.7647C8.58743 20.8367 7.71834 21.7058 6.64625 21.7058C5.57417 21.7058 4.70508 20.8367 4.70508 19.7647C4.70508 18.6926 5.57417 17.8235 6.64625 17.8235C7.71834 17.8235 8.58743 18.6926 8.58743 19.7647ZM6.64625 20.7058C7.16605 20.7058 7.58743 20.2845 7.58743 19.7647C7.58743 19.2449 7.16605 18.8235 6.64625 18.8235C6.12646 18.8235 5.70508 19.2449 5.70508 19.7647C5.70508 20.2845 6.12646 20.7058 6.64625 20.7058Z" fill="#008000"/>
<path fill-rule="evenodd" clip-rule="evenodd" d="M1.94141 23.9707C2.21755 23.9707 2.44141 24.1946 2.44141 24.4707V27.2942C2.44141 27.5379 2.63893 27.7354 2.88258 27.7354H6.64729C6.89094 27.7354 7.08847 27.5379 7.08847 27.2942V24.4707C7.08847 24.1946 7.31232 23.9707 7.58847 23.9707C7.86461 23.9707 8.08847 24.1946 8.08847 24.4707V27.2942C8.08847 28.0902 7.44323 28.7354 6.64729 28.7354H2.88258C2.08664 28.7354 1.44141 28.0902 1.44141 27.2942V24.4707C1.44141 24.1946 1.66526 23.9707 1.94141 23.9707Z" fill="#008000"/>
<path fill-rule="evenodd" clip-rule="evenodd" d="M23.5879 23.9707C23.864 23.9707 24.0879 24.1946 24.0879 24.4707V27.2942C24.0879 27.5379 24.2854 27.7354 24.5291 27.7354H28.2938C28.5374 27.7354 28.7349 27.5379 28.7349 27.2942V24.4707C28.7349 24.1946 28.9588 23.9707 29.2349 23.9707C29.5111 23.9707 29.7349 24.1946 29.7349 24.4707V27.2942C29.7349 28.0902 29.0897 28.7354 28.2938 28.7354H24.5291C23.7331 28.7354 23.0879 28.0902 23.0879 27.2942V24.4707C23.0879 24.1946 23.3117 23.9707 23.5879 23.9707Z" fill="#008000"/>
<path fill-rule="evenodd" clip-rule="evenodd" d="M18.5293 11.8819C18.3341 11.6866 18.3341 11.37 18.5293 11.1748L20.6458 9.05834C20.841 8.86308 21.1576 8.86308 21.3529 9.05834C21.5481 9.25361 21.5481 9.57019 21.3529 9.76545L19.2364 11.8819C19.0412 12.0771 18.7246 12.0771 18.5293 11.8819Z" fill="#008000"/>
<path fill-rule="evenodd" clip-rule="evenodd" d="M10.0586 12.823C9.86337 12.6278 9.86337 12.3112 10.0586 12.1159L13.1162 9.05833C13.3115 8.86307 13.6281 8.86307 13.8233 9.05833C14.0186 9.25359 14.0186 9.57017 13.8233 9.76544L10.7657 12.823C10.5705 13.0183 10.2539 13.0183 10.0586 12.823Z" fill="#008000"/>
<path fill-rule="evenodd" clip-rule="evenodd" d="M1.49396 12.9529C1.57866 12.7835 1.75179 12.6765 1.94118 12.6765H4.39063C4.54878 12.6765 4.69761 12.7513 4.79195 12.8783C4.88628 13.0052 4.91499 13.1693 4.86937 13.3207L4.30228 15.2031C4.23864 15.4143 4.04412 15.5589 3.82353 15.5589H1C0.826712 15.5589 0.665778 15.4691 0.574675 15.3217C0.483572 15.1743 0.47529 14.9903 0.552787 14.8353L1.49396 12.9529ZM2.25019 13.6765L1.80902 14.5589H3.45197L3.71779 13.6765H2.25019Z" fill="#008000"/>
<path fill-rule="evenodd" clip-rule="evenodd" d="M26.3838 12.8784C26.4781 12.7514 26.627 12.6765 26.7852 12.6765H29.2358C29.4251 12.6765 29.5983 12.7835 29.683 12.9529L30.6241 14.8353C30.7016 14.9903 30.6934 15.1743 30.6023 15.3217C30.5112 15.4691 30.3502 15.5589 30.1769 15.5589H27.3534C27.1329 15.5589 26.9385 15.4144 26.8747 15.2034L26.3065 13.321C26.2608 13.1696 26.2894 13.0054 26.3838 12.8784ZM27.4584 13.6765L27.7248 14.5589H29.3679L28.9267 13.6765H27.4584Z" fill="#008000"/>
</svg>
