<svg width="32" height="32" viewBox="0 0 32 32" fill="none" xmlns="http://www.w3.org/2000/svg">
<g clip-path="url(#clip0)">
<path fill-rule="evenodd" clip-rule="evenodd" d="M23.0958 0.9375C23.0958 0.41975 23.5156 0 24.0333 0C28.4261 0 32 3.57381 32 7.96669C32 8.48444 31.5803 8.90419 31.0625 8.90419C30.5448 8.90419 30.125 8.48444 30.125 7.96669C30.125 4.60775 27.3923 1.875 24.0333 1.875C23.5156 1.875 23.0958 1.45525 23.0958 0.9375ZM23.0958 4.45215C23.0958 3.9344 23.5156 3.51465 24.0333 3.51465C26.4883 3.51465 28.4855 5.51184 28.4854 7.96671C28.4854 8.48446 28.0656 8.90421 27.5479 8.90421C27.0301 8.90421 26.6104 8.48446 26.6104 7.96671C26.6104 6.54571 25.4543 5.38965 24.0333 5.38965C23.5156 5.38965 23.0958 4.9699 23.0958 4.45215ZM24.0333 8.90417C24.5511 8.90417 24.9708 8.48444 24.9708 7.96667C24.9708 7.44891 24.5511 7.02917 24.0333 7.02917C23.5156 7.02917 23.0958 7.44891 23.0958 7.96667C23.0958 8.48444 23.5156 8.90417 24.0333 8.90417ZM4.95419 3.01257H16C18.7318 3.01257 20.9542 5.23501 20.9542 7.96676V19.0125C20.9542 21.7443 18.7318 23.9667 16 23.9667H13.925C13.925 25.4405 15.1027 26.1084 16 26.1084C18.7318 26.1084 20.9542 28.3308 20.9542 31.0626C20.9542 31.5803 20.5344 32.0001 20.0167 32.0001H0.9375C0.41975 32.0001 0 31.5803 0 31.0626C0 28.3308 2.22244 26.1084 4.95419 26.1084C5.85575 26.1084 7.02919 25.4379 7.02919 23.9668H4.95419C2.22244 23.9668 0 21.7443 0 19.0126V7.96676C0 5.23501 2.22244 3.01257 4.95419 3.01257ZM18.9333 30.1251C18.5358 28.8842 17.3711 27.9834 16 27.9834C14.1224 27.9834 12.05 26.5306 12.05 23.9667H8.90419C8.90419 26.5186 6.85119 27.9834 4.95419 27.9834C3.58306 27.9834 2.41838 28.8842 2.02087 30.1251H18.9333ZM16 22.0918C17.6979 22.0918 19.0792 20.7104 19.0792 19.0126V7.96676C19.0792 6.26889 17.6979 4.88757 16 4.88757H4.95419C3.25631 4.88757 1.875 6.26889 1.875 7.96676V19.0126C1.875 20.7104 3.25631 22.0918 4.95419 22.0918H16ZM16 8.90417C16.5178 8.90417 16.9375 8.48444 16.9375 7.96667C16.9375 7.44891 16.5178 7.02917 16 7.02917C15.4822 7.02917 15.0625 7.44891 15.0625 7.96667C15.0625 8.48444 15.4822 8.90417 16 8.90417ZM5.52295 13.4897C5.52295 10.758 7.74545 8.53552 10.4772 8.53552C13.209 8.53552 15.4314 10.758 15.4314 13.4897C15.4314 16.2215 13.209 18.4439 10.4772 18.4439C7.74545 18.4439 5.52295 16.2215 5.52295 13.4897ZM7.39795 13.4897C7.39795 15.1875 8.77932 16.5688 10.4772 16.5688C12.1751 16.5688 13.5564 15.1875 13.5564 13.4897C13.5564 11.7918 12.1751 10.4105 10.4772 10.4105C8.77932 10.4105 7.39795 11.7918 7.39795 13.4897Z" fill="black"/>
</g>
<defs>
<clipPath id="clip0">
<rect width="32" height="32" fill="white"/>
</clipPath>
</defs>
</svg>
