<svg width="25" height="24" viewBox="0 0 25 24" fill="none" xmlns="http://www.w3.org/2000/svg">
<path d="M7.25 11.25C9.32107 11.25 11 9.57107 11 7.5C11 5.42893 9.32107 3.75 7.25 3.75C5.17893 3.75 3.5 5.42893 3.5 7.5C3.5 9.57107 5.17893 11.25 7.25 11.25ZM8.81137 4.93783C8.35653 4.66006 7.82196 4.5 7.25 4.5C6.8741 4.5 6.51434 4.56914 6.18276 4.69539C5.98914 5.18234 6.01969 5.7522 6.22723 6.22955C6.37963 6.58006 6.61436 6.85446 6.89657 7.01274C7.01349 6.44769 7.31765 5.93045 7.72122 5.5493C8.02576 5.26169 8.40098 5.03951 8.81137 4.93783ZM5.309 5.21245C4.66111 5.76273 4.25 6.58336 4.25 7.5C4.25 7.62661 4.25784 7.75138 4.27307 7.87387C4.76101 8.19008 5.35065 8.24068 5.86354 8.11593C6.20427 8.03305 6.46805 7.88587 6.64091 7.72547C6.13654 7.48335 5.7594 7.03454 5.53942 6.52859C5.36464 6.12658 5.2794 5.66911 5.309 5.21245ZM4.55443 8.81832C4.99531 9.71809 5.87342 10.3647 6.91185 10.4812C7.64946 9.88127 7.78762 8.81271 7.29455 8.12794C6.9922 8.48008 6.52287 8.72742 6.0408 8.84468C5.58176 8.95634 5.05933 8.96551 4.55443 8.81832ZM7.94586 10.4189C8.62 10.2588 9.20604 9.87115 9.61838 9.34163L9.61723 9.33508C9.4849 8.54108 8.82166 7.90729 7.97942 7.7945C8.48515 8.58142 8.43513 9.62071 7.94586 10.4189ZM10.0983 8.44455C9.64462 7.58401 8.71539 7.01049 7.66515 7.02702C7.76598 6.67573 7.96863 6.34725 8.23618 6.09457C8.62566 5.72673 9.11134 5.55487 9.56817 5.65638C9.58653 5.66046 9.60487 5.66312 9.62309 5.66443C10.0161 6.17178 10.25 6.80857 10.25 7.5C10.25 7.83001 10.1967 8.14757 10.0983 8.44455Z" fill="red" fill-rule="evenodd" clip-rule="evenodd" />
<path d="M10.25 21.75H11L11 13.5H10.25L10.25 21.75Z" fill="red" />
<path d="M8.75 21.75H8L8 13.5H8.75L8.75 21.75Z" fill="red" />
<path d="M5.75 21.75H6.5L6.5 13.5H5.75L5.75 21.75Z" fill="red" />
<path d="M4.25 21.75H3.5L3.5 13.5H4.25L4.25 21.75Z" fill="red" />
<path d="M1.10674 0H13.3933C13.6966 0 14 0.222901 14 0.594418V23.4056C14 23.7028 13.6966 24 13.3933 24H1.10674C0.803371 24 0.5 23.7771 0.5 23.4056V0.594418C0.5 0.297205 0.803371 0 1.10674 0ZM1.25 23.25V0.75H13.25V23.25H1.25Z" fill="red" fill-rule="evenodd" clip-rule="evenodd" />
<path d="M19.5424 2.89035C18.4836 4.36718 17 6.53766 17 8.27027C17 9.91745 18.3443 11.25 20 11.25C21.6584 11.25 23 9.91745 23 8.27027C23 6.54602 21.5127 4.32933 20.4688 2.8871C20.3375 2.70575 20.2132 2.53665 20.0998 2.38231L20.0027 2.25C19.925 2.35886 19.8417 2.47453 19.754 2.59623L19.7536 2.59668L19.7507 2.60071C19.6836 2.69385 19.614 2.79052 19.5424 2.89035ZM20 10.5C21.249 10.5 22.25 9.49845 22.25 8.27027C22.25 7.47784 21.8373 6.45581 21.2215 5.3871C20.8364 4.71876 20.4014 4.08095 20.0073 3.52995C19.6024 4.09909 19.1602 4.74353 18.7692 5.41842C18.1564 6.47617 17.75 7.47825 17.75 8.27027C17.75 9.49802 18.7533 10.5 20 10.5Z" fill="red" fill-rule="evenodd" clip-rule="evenodd" />
<path d="M15.6796 14.9303C15.5038 14.8207 15.4502 14.5894 15.5598 14.4137C15.6694 14.2379 15.9007 14.1843 16.0764 14.2939C17.095 14.929 17.8091 15.0578 18.3612 14.9895C18.9279 14.9193 19.385 14.638 19.9085 14.3051L19.9485 14.2797C20.4417 13.9658 21.0086 13.605 21.7157 13.5233C22.4614 13.4371 23.298 13.6628 24.3404 14.379C24.511 14.4963 24.5543 14.7298 24.437 14.9005C24.3197 15.0712 24.0863 15.1145 23.9156 14.9972C22.9665 14.345 22.3097 14.2096 21.8018 14.2683C21.2747 14.3293 20.8395 14.6019 20.3109 14.938L20.3002 14.9448C19.7948 15.2662 19.2059 15.6406 18.4533 15.7338C17.6807 15.8294 16.7946 15.6255 15.6796 14.9303Z" fill="red" />
<path d="M15.5598 17.412C15.4502 17.5878 15.5038 17.8191 15.6796 17.9286C16.7946 18.6239 17.6807 18.8277 18.4533 18.7321C19.2059 18.639 19.7948 18.2645 20.3002 17.9431L20.3109 17.9364C20.8395 17.6003 21.2747 17.3276 21.8018 17.2667C22.3097 17.208 22.9665 17.3433 23.9156 17.9955C24.0863 18.1128 24.3197 18.0695 24.437 17.8988C24.5543 17.7281 24.511 17.4947 24.3404 17.3774C23.298 16.6611 22.4614 16.4354 21.7157 16.5216C21.0086 16.6034 20.4417 16.9641 19.9485 17.278L19.9085 17.3035C19.385 17.6363 18.9279 17.9177 18.3612 17.9878C17.8091 18.0561 17.095 17.9274 16.0764 17.2922C15.9007 17.1826 15.6694 17.2363 15.5598 17.412Z" fill="red" />
<path d="M15.5598 20.4124C15.4502 20.5881 15.5038 20.8194 15.6796 20.929C16.7946 21.6243 17.6807 21.8281 18.4533 21.7325C19.2059 21.6394 19.7948 21.2649 20.3002 20.9435L20.3109 20.9368C20.8395 20.6006 21.2747 20.328 21.8018 20.267C22.3097 20.2083 22.9665 20.3437 23.9156 20.9959C24.0863 21.1132 24.3197 21.0699 24.437 20.8992C24.5543 20.7285 24.511 20.495 24.3404 20.3778C23.298 19.6615 22.4614 19.4358 21.7157 19.522C21.0086 19.6038 20.4417 19.9645 19.9485 20.2784L19.9085 20.3039C19.385 20.6367 18.9279 20.918 18.3612 20.9882C17.8091 21.0565 17.095 20.9277 16.0764 20.2926C15.9007 20.183 15.6694 20.2366 15.5598 20.4124Z" fill="red" />
</svg>