<svg width="23" height="20" viewBox="0 0 23 20" fill="none" xmlns="http://www.w3.org/2000/svg">
<path d="M21 13.5C21 15.6 21 16.77 21 17C21 17.83 20.33 18.5 19.5 18.5C19.3 18.5 17.7 18.5 17.5 18.5C16.67 18.5 16 17.83 16 17C16 16.77 16 15.6 16 13.5L21 13.5ZM13 4.5L19 4.5M12 6.5L19 6.5M21 13.5L23 13.5M19 4.5L19 9.5M10.41 9.5L10.47 9.67C11.94 13.76 12.75 16.04 12.92 16.49C13.26 17.47 12.54 18.5 11.5 18.5C10.5 18.5 2.5 18.5 1.5 18.5C0.49 18.5 -0.23 17.52 0.06 16.56C0.21 16.1 0.91 13.79 2.19 9.65L2.23 9.5L2.19 9.35C0.91 5.21 0.21 2.9 0.06 2.44C-0.23 1.48 0.49 0.5 1.5 0.5C2.5 0.5 10.5 0.5 11.5 0.5C12.54 0.5 13.26 1.53 12.92 2.51C12.75 2.96 11.94 5.24 10.47 9.33L10.41 9.5ZM2 9.5L10 9.5M2 12.5L5 12.5M1 14.5L5 14.5M0.92 16.5L5.08 16.5" stroke="red"/>
</svg>