<svg width="28" height="39" viewBox="0 0 28 39" fill="none" xmlns="http://www.w3.org/2000/svg">
<path d="M27.8655 12.9183C27.86 12.7035 27.8496 12.4897 27.8338 12.2766C27.8182 12.0637 27.7971 11.8518 27.7712 11.6409C27.4199 8.7951 26.1332 6.15607 24.0615 4.08436C21.6059 1.62876 17.3951 0.276367 13.9456 0.276367C10.4964 0.276367 6.28555 1.62876 3.82996 4.08436C1.75796 6.15607 0.471617 8.7951 0.120035 11.6409C0.0940771 11.8518 0.0733111 12.0637 0.0574481 12.2766C0.0418735 12.4897 0.031202 12.7037 0.0260105 12.9183C0.0234147 13.0259 0.0219727 13.1335 0.0219727 13.2411V21.8884C0.0219727 22.1956 0.270878 22.4445 0.578043 22.4445C0.885209 22.4445 1.13411 22.1956 1.13411 21.8884V14.0048H7.47667V16.1893C7.47667 16.4962 7.72557 16.7451 8.03274 16.7451H9.63779V19.0019C9.63779 19.3091 9.88669 19.558 10.1939 19.558H12.3108V20.5585C12.3108 20.8654 12.5598 21.1145 12.8669 21.1145C13.1738 21.1145 13.4227 20.8654 13.4227 20.5585V19.558H14.7578V20.5585C14.7578 20.8654 15.0067 21.1145 15.3139 21.1145C15.6207 21.1145 15.8696 20.8654 15.8696 20.5585V19.558H17.4741C17.781 19.558 18.0299 19.3091 18.0299 19.0019V16.7451H19.6352C19.9424 16.7451 20.1913 16.4962 20.1913 16.1893V14.0048H26.7577V31.6875L17.7464 31.7042V32.8163H19.1443C19.4515 32.8163 19.7004 32.5674 19.7004 32.2602V30.8259C19.703 30.8259 19.7059 30.8265 19.7085 30.8265C21.2045 30.8265 22.4428 29.6094 22.4428 28.1134C22.4428 26.6173 21.2045 25.4002 19.7085 25.4002C19.7059 25.4002 19.703 25.4005 19.7004 25.4005V24.631C19.7004 24.3238 19.4515 24.0749 19.1443 24.0749H8.78349C8.47661 24.0749 8.22742 24.3238 8.22742 24.631V27.5319C8.22742 27.8391 8.47661 28.088 8.78349 28.088C9.09066 28.088 9.33956 27.8391 9.33956 27.5319V25.1868H18.5883V31.7042H9.33956V27.5409C9.33956 27.234 9.09066 26.9851 8.78349 26.9851C8.47661 26.9851 8.22742 27.234 8.22742 27.5409V32.2602C8.22742 32.5674 8.47661 32.8163 8.78349 32.8163H10.1448V31.7042L1.13383 31.6875V21.8974C1.13383 21.5902 0.88492 21.3413 0.578043 21.3413C0.270878 21.3413 0.0219727 21.5902 0.0219727 21.8974V37.5239C0.0219727 37.5432 0.0228379 37.5622 0.0248568 37.5807C0.0534102 37.8613 0.290202 38.08 0.578043 38.08H27.3135C27.6013 38.08 27.8381 37.861 27.8666 37.5807C27.8684 37.562 27.8695 37.5432 27.8695 37.5239V13.2411C27.8695 13.1332 27.8681 13.0256 27.8655 12.9183ZM19.7085 26.5124C20.5913 26.5124 21.3095 27.2305 21.3095 28.1134C21.3095 28.9962 20.5913 29.7144 19.7085 29.7144C19.7059 29.7144 19.703 29.715 19.7004 29.715V26.5118C19.7033 26.5121 19.7059 26.5124 19.7085 26.5124ZM16.9178 18.4459H10.7496V16.7451H16.9178V18.4459ZM19.0792 15.6332H8.58852V11.347H19.0792V15.6332ZM19.6349 10.2352H8.03245C7.72557 10.2352 7.47667 10.4841 7.47667 10.791V12.8929H1.13959C1.14075 12.8477 1.14277 12.8024 1.1445 12.7574C1.14623 12.7156 1.14738 12.6737 1.14969 12.6319C1.15228 12.5768 1.15632 12.5218 1.15978 12.467C1.16238 12.426 1.16469 12.385 1.16757 12.3444C1.1719 12.2873 1.17738 12.2304 1.18257 12.1736C1.18574 12.1353 1.18891 12.0966 1.19266 12.0583C1.19872 11.9974 1.20593 11.9366 1.21285 11.8757C1.21689 11.8417 1.22006 11.8073 1.22439 11.7733C1.23564 11.6833 1.24775 11.5933 1.26102 11.5036C1.26448 11.48 1.26852 11.4563 1.27227 11.433C1.28351 11.3586 1.29534 11.2847 1.30803 11.2109C1.31466 11.1725 1.32216 11.1345 1.32908 11.0964C1.33918 11.0413 1.34927 10.9862 1.35995 10.9311C1.36831 10.8893 1.37754 10.8478 1.38619 10.806C1.39686 10.7552 1.40725 10.7044 1.41878 10.6537C1.4283 10.6101 1.43897 10.5671 1.44907 10.5239C1.4606 10.4751 1.47185 10.4261 1.48397 10.3774C1.49493 10.3335 1.50675 10.29 1.518 10.2464C1.53069 10.1988 1.5428 10.151 1.55578 10.1037C1.5679 10.0595 1.58087 10.0157 1.59356 9.97155C1.60712 9.92483 1.62039 9.87811 1.63423 9.83167C1.6475 9.78754 1.66163 9.74342 1.67548 9.69958C1.6899 9.65372 1.70432 9.60786 1.71903 9.56229C1.73374 9.51787 1.74873 9.47403 1.76373 9.4299C1.77931 9.38462 1.79459 9.33963 1.81045 9.29464C1.82603 9.2508 1.84218 9.20725 1.85833 9.16341C1.87477 9.1187 1.8915 9.074 1.90852 9.02929C1.92496 8.98574 1.94226 8.94277 1.95928 8.89921C1.97687 8.85509 1.99447 8.81067 2.01264 8.76654C2.03023 8.72357 2.0484 8.68059 2.06657 8.63762C2.08532 8.59378 2.10406 8.54994 2.12339 8.50639C2.14214 8.4637 2.16117 8.42131 2.18021 8.37891C2.20011 8.33536 2.22001 8.29209 2.2402 8.24854C2.2601 8.20643 2.28 8.16461 2.30019 8.1225C2.32124 8.07953 2.34201 8.03655 2.36335 7.99387C2.38412 7.95205 2.40517 7.91052 2.42652 7.86898C2.44844 7.8263 2.47064 7.7839 2.49285 7.7415C2.51477 7.70026 2.5364 7.6593 2.5589 7.61864C2.58169 7.57624 2.60505 7.53384 2.6287 7.49173C2.65148 7.45135 2.67398 7.41126 2.69705 7.37117C2.72128 7.32906 2.74608 7.28724 2.77089 7.24542C2.79425 7.20562 2.8179 7.16611 2.84184 7.1266C2.86722 7.08477 2.89318 7.04324 2.91914 7.00171C2.94336 6.96277 2.96788 6.92384 2.99239 6.88519C3.01922 6.84394 3.04633 6.8027 3.07344 6.76146C3.09853 6.72339 3.12362 6.68503 3.14929 6.64724C3.17698 6.606 3.20553 6.56504 3.23409 6.52409C3.26005 6.48688 3.28571 6.44939 3.31196 6.41247C3.34138 6.37123 3.37109 6.33085 3.40079 6.29018C3.42733 6.25384 3.45357 6.21721 3.48069 6.18116C3.51155 6.1402 3.54298 6.09925 3.57442 6.05858C3.60124 6.02339 3.62778 5.98821 3.65518 5.9536C3.68777 5.91207 3.72123 5.87111 3.75439 5.82987C3.78151 5.79641 3.80833 5.76266 3.83573 5.7295C3.87034 5.68739 3.90581 5.64585 3.941 5.60432C3.96811 5.5726 3.99465 5.54058 4.02205 5.50886C4.05954 5.46559 4.09819 5.42291 4.13626 5.38022C4.16222 5.3508 4.18818 5.32138 4.21442 5.29225C4.25797 5.24438 4.3021 5.19736 4.34652 5.15035C4.36844 5.1267 4.39007 5.10305 4.41228 5.07969C4.47919 5.00932 4.54726 4.93952 4.61619 4.87087C6.86181 2.62496 10.7935 1.38822 13.9456 1.38822C17.098 1.38822 21.0297 2.62496 23.2753 4.87059C23.3442 4.93952 23.412 5.00903 23.4789 5.0794C23.5014 5.10276 23.5228 5.12641 23.545 5.15006C23.5891 5.19707 23.6335 5.24438 23.6771 5.29196C23.7033 5.32109 23.729 5.35051 23.7552 5.37993C23.7933 5.42291 23.8317 5.4653 23.8692 5.50857C23.8966 5.54029 23.9234 5.57231 23.9502 5.60403C23.9857 5.64585 24.0212 5.6871 24.0558 5.72921C24.0832 5.76237 24.11 5.79612 24.1371 5.82987C24.1703 5.87082 24.2037 5.91178 24.2363 5.95331C24.2634 5.98821 24.2903 6.02311 24.3171 6.05829C24.3485 6.09896 24.3799 6.13992 24.4108 6.18087C24.4376 6.21721 24.4642 6.25355 24.4907 6.28989C24.5204 6.33056 24.5501 6.37123 24.5795 6.41218C24.6058 6.44939 24.6314 6.48659 24.6574 6.5238C24.686 6.56476 24.7142 6.60571 24.7422 6.64695C24.7679 6.68503 24.793 6.7231 24.8181 6.76117C24.8452 6.80241 24.8723 6.84366 24.8988 6.8849C24.9236 6.92384 24.9481 6.96277 24.9724 7.00142C24.9983 7.04295 25.0243 7.08477 25.0497 7.12631C25.0736 7.16582 25.0972 7.20533 25.1206 7.24513C25.1454 7.28696 25.1699 7.32878 25.1942 7.37089C25.2172 7.41098 25.24 7.45135 25.2625 7.49173C25.2862 7.53384 25.3095 7.57595 25.3326 7.61835C25.3548 7.6593 25.3767 7.70026 25.3984 7.74121C25.4208 7.78361 25.4431 7.82601 25.465 7.8687C25.486 7.91023 25.5071 7.95176 25.5279 7.99358C25.5492 8.03627 25.5703 8.07924 25.591 8.1225C25.6112 8.16432 25.6314 8.20615 25.651 8.24825C25.6715 8.29181 25.6911 8.33507 25.711 8.37862C25.7303 8.42102 25.7494 8.4637 25.7681 8.5061C25.7871 8.54994 25.8059 8.59378 25.8246 8.63762C25.8428 8.68031 25.861 8.72328 25.8789 8.76654C25.8967 8.81067 25.9143 8.8548 25.9319 8.89921C25.9492 8.94248 25.9662 8.98574 25.983 9.029C26 9.07371 26.0164 9.11841 26.0332 9.16341C26.049 9.20696 26.0652 9.25051 26.0808 9.29435C26.0966 9.33934 26.1122 9.38462 26.1275 9.42962C26.1428 9.47374 26.1578 9.51787 26.1722 9.562C26.1872 9.60757 26.2016 9.65343 26.2157 9.69929C26.2299 9.74341 26.2437 9.78726 26.257 9.83167C26.2711 9.87782 26.2844 9.92454 26.2979 9.97127C26.3103 10.0154 26.3233 10.0592 26.3354 10.1034C26.3487 10.151 26.3608 10.1985 26.3732 10.2461C26.3847 10.2897 26.3966 10.3335 26.4072 10.3774C26.4196 10.4258 26.4306 10.4748 26.4421 10.5236C26.4522 10.5669 26.4629 10.6098 26.4727 10.6534C26.484 10.7041 26.4943 10.7549 26.505 10.806C26.5137 10.8475 26.5229 10.889 26.5313 10.9308C26.5422 10.9859 26.552 11.041 26.5621 11.0964C26.569 11.1345 26.5768 11.1722 26.5835 11.2106C26.5962 11.2844 26.6077 11.3586 26.6192 11.4327C26.623 11.4563 26.6267 11.4797 26.6305 11.5033C26.6435 11.593 26.6559 11.683 26.6671 11.773C26.6711 11.807 26.6746 11.8414 26.6786 11.8754C26.6856 11.9363 26.6928 11.9971 26.6988 12.058C26.7026 12.0963 26.7055 12.135 26.7089 12.1733C26.7141 12.2302 26.7193 12.287 26.7236 12.3441C26.7268 12.3848 26.7291 12.4257 26.7317 12.4667C26.7352 12.5218 26.7389 12.5766 26.7418 12.6316C26.7441 12.6735 26.7453 12.7153 26.747 12.7571C26.7487 12.8024 26.7507 12.8474 26.7519 12.8927H20.1913V10.791C20.191 10.4838 19.9421 10.2352 19.6349 10.2352ZM11.257 32.8163H16.6345V32.7953H11.257V32.8163ZM10.7009 32.7996H26.7574V36.9678H1.13383V32.7996H10.7009Z" stroke="red"/>
</svg>