<svg width="32" height="32" viewBox="0 0 32 32" fill="none" xmlns="http://www.w3.org/2000/svg">
<path d="M15.4513 14.2889C15.1756 14.2889 14.4972 14.3888 14.1543 15.3141C14.0408 15.6203 13.9748 15.9696 13.905 16.3393C13.84 16.6828 13.7665 17.0721 13.665 17.3146C13.5387 17.6169 13.3614 17.815 13.1562 18.0444C12.7976 18.4453 12.3064 18.9944 12.3428 19.971C12.4012 21.5373 13.6128 22.8252 15.1612 22.9669C15.2562 22.9756 15.3509 22.9799 15.4455 22.9799C16.2202 22.9799 16.9736 22.6915 17.5476 22.1677C18.192 21.5796 18.5617 20.742 18.5617 19.8699C18.5617 19.1078 18.2804 17.8394 17.8777 16.7854C17.2447 15.1288 16.4283 14.2889 15.4513 14.2889ZM16.1993 20.6903C15.9661 20.9032 15.662 21.0043 15.3435 20.9752C14.8023 20.9257 14.3622 20.4519 14.3415 19.8965C14.336 19.7505 14.3437 19.7166 14.6468 19.3778C14.903 19.0914 15.2539 18.6993 15.5102 18.0861C15.6501 17.7515 15.7382 17.3801 15.8092 17.0266C15.9068 17.2334 16.0115 17.488 16.1173 17.7981C16.4058 18.6444 16.5616 19.4972 16.5616 19.8698C16.5616 20.1858 16.433 20.4771 16.1993 20.6903ZM1.5639 8.01888H2.53365V24.7083C2.53365 25.2606 2.98134 25.7083 3.53365 25.7083H28.4663C29.0186 25.7083 29.4663 25.2606 29.4663 24.7083V8.01888H30.436C30.9883 8.01888 31.436 7.57113 31.436 7.01888V4.02832C31.436 3.47607 30.9883 3.02832 30.436 3.02832H1.5639C1.01159 3.02832 0.563901 3.47607 0.563901 4.02832V7.01888C0.563901 7.57113 1.01165 8.01888 1.5639 8.01888ZM10.4633 8.01888V10.4561H4.53365V8.01882H10.4633V8.01888ZM19.5366 8.01888V9.77326C18.4409 9.34044 17.2477 9.10257 16 9.10257C14.7523 9.10257 13.559 9.34044 12.4633 9.77326V8.01888H19.5366ZM7.10915 14.9928H4.53365V12.4561H8.69053C8.04015 13.2095 7.5039 14.0641 7.10915 14.9928ZM4.53365 16.9928H6.5069C6.40071 17.5653 6.34465 18.1551 6.34465 18.7579V19.5294H4.53365V16.9928ZM8.34465 18.7579C8.34465 14.5367 11.7788 11.1025 16 11.1025C20.2212 11.1025 23.6553 14.5367 23.6553 18.7579V23.7083H8.34465V18.7579ZM25.493 16.9928H27.4663V19.5294H25.6553V18.7579C25.6553 18.1551 25.5992 17.5653 25.493 16.9928ZM27.4663 14.9928H24.8908C24.496 14.0641 23.9598 13.2096 23.3094 12.4562H27.4663V14.9928ZM4.53365 21.5294H6.34465V23.7083H4.53365V21.5294ZM25.6553 23.7083V21.5294H27.4663V23.7083H25.6553ZM27.4663 10.4561H21.5366V8.01882H27.4663V10.4561ZM2.5639 5.02832H29.436V6.01888H20.5372C20.537 6.01888 20.5368 6.01888 20.5366 6.01888C20.5363 6.01888 20.5362 6.01888 20.536 6.01888H11.464C11.4638 6.01888 11.4636 6.01888 11.4633 6.01888C11.4631 6.01888 11.463 6.01888 11.4627 6.01888H2.5639V5.02832ZM31.9854 27.9715C31.9854 28.5238 31.5377 28.9715 30.9854 28.9715H1.01453C0.462214 28.9715 0.0145264 28.5238 0.0145264 27.9715C0.0145264 27.4192 0.462214 26.9715 1.01453 26.9715H30.9853C31.5377 26.9715 31.9854 27.4192 31.9854 27.9715Z" fill="black"/>
</svg>
