<svg width="29" height="29" viewBox="0 0 29 29" xmlns="http://www.w3.org/2000/svg">
<path d="M27.35 0C28.28 0 29 0.7 29 1.62C29 2.69 29 11.31 29 12.38C29 13.3 28.28 14 27.35 14C24.78 14 4.22 14 1.65 14C0.71 14 0 13.3 0 12.38C0 11.31 0 2.69 0 1.62C0 0.7 0.71 0 1.65 0C6.79 0 24.78 0 27.35 0ZM27.35 12.92C27.68 12.92 27.9 12.71 27.9 12.38C27.9 11.31 27.9 2.69 27.9 1.62C27.9 1.29 27.68 1.08 27.35 1.08C24.78 1.08 4.22 1.08 1.65 1.08C1.38 1.08 1.1 1.29 1.1 1.62C1.1 2.69 1.1 11.31 1.1 12.38C1.1 12.71 1.32 12.92 1.65 12.92C6.79 12.92 24.78 12.92 27.35 12.92Z M16.5 5C16.8 5 17 4.8 17 4.5C17 4.2 16.8 4 16.5 4C16.1 4 12.9 4 12.5 4C12.2 4 12 4.2 12 4.5C12 4.8 12.2 5 12.5 5C13.3 5 16.1 5 16.5 5Z M3.44 11C3.18 11 3 11.2 3 11.5C3 11.8 3.18 12 3.44 12C5.65 12 23.35 12 25.56 12C25.82 12 26 11.8 26 11.5C26 11.2 25.82 11 25.56 11C21.13 11 5.65 11 3.44 11Z M14 16.76C14 16.52 14.3 16.22 14.7 15.92C14.95 15.82 15 15.52 14.9 15.27C14.8 15.02 14.5 14.92 14.25 15.07C13.45 15.52 13 16.12 13 16.76C13 17.41 13.45 18.01 14.25 18.51C14.75 18.76 15 19.06 15 19.31C15 19.56 14.7 19.85 14.25 20.1C14 20.2 13.9 20.5 14.05 20.75C14.15 20.9 14.3 21 14.5 21C14.6 21 14.65 21 14.75 20.95C15.55 20.5 16 19.9 16 19.26C16 18.61 15.55 17.96 14.75 17.56C14.25 17.31 14 17.01 14 16.76Z M8 17.76C8 17.52 8.3 17.22 8.7 16.92C8.95 16.82 9.05 16.52 8.9 16.27C8.8 16.02 8.5 15.92 8.25 16.07C7.45 16.52 7 17.12 7 17.76C7 18.41 7.45 19.01 8.25 19.51C8.75 19.76 9 20.06 9 20.31C9 20.55 8.7 20.85 8.25 21.1C8 21.2 7.9 21.5 8.05 21.75C8.15 21.9 8.3 22 8.5 22C8.6 22 8.65 22 8.75 21.95C9.55 21.5 10 20.9 10 20.26C10 19.61 9.55 18.96 8.75 18.56C8.25 18.31 8 18.01 8 17.76Z M20 17.76C20 17.52 20.3 17.22 20.7 16.92C20.95 16.82 21 16.52 20.9 16.27C20.8 16.02 20.5 15.92 20.25 16.07C19.45 16.52 19 17.12 19 17.76C19 18.41 19.45 19.01 20.25 19.51C20.75 19.76 21 20.06 21 20.31C21 20.55 20.7 20.85 20.25 21.1C20 21.2 19.9 21.5 20.05 21.75C20.15 21.9 20.3 22 20.5 22C20.6 22 20.65 22 20.75 21.95C21.55 21.5 22 20.9 22 20.26C22 19.61 21.55 18.96 20.75 18.56C20.25 18.31 20 18.01 20 17.76Z" fill="red"/>
</svg>