<svg width="25" height="24" viewBox="0 0 25 24" fill="none" xmlns="http://www.w3.org/2000/svg">
<path d="M7.89594 0.137438C7.7615 -0.0201012 7.5248 -0.0388253 7.36726 0.0956166C7.20972 0.230058 7.191 0.466756 7.32544 0.624295C7.9501 1.35628 8.0413 1.82802 7.98592 2.15499C7.92505 2.51435 7.67718 2.81713 7.33724 3.20778L7.30095 3.24942C6.99914 3.59548 6.61686 4.0338 6.52839 4.59294C6.43011 5.21406 6.69783 5.86846 7.41308 6.62899C7.55496 6.77985 7.79229 6.78714 7.94316 6.64525C8.09402 6.50336 8.10131 6.26604 7.95942 6.11517C7.31461 5.42954 7.22342 4.99932 7.26917 4.71015C7.32115 4.38165 7.55795 4.09665 7.90302 3.70011L7.92234 3.67792C8.23143 3.32294 8.62542 2.87045 8.72539 2.28023C8.83293 1.64525 8.59356 0.954907 7.89594 0.137438Z" fill="red" />
<path d="M6.30371 10.9279C6.30371 10.7208 6.13582 10.5529 5.92871 10.5529C5.7216 10.5529 5.55371 10.7208 5.55371 10.9279V13.6423C5.55371 13.8494 5.7216 14.0173 5.92871 14.0173C6.13582 14.0173 6.30371 13.8494 6.30371 13.6423V10.9279Z" fill="red" />
<path d="M15.125 10.5529C15.3321 10.5529 15.5 10.7208 15.5 10.9279V13.6423C15.5 13.8494 15.3321 14.0173 15.125 14.0173C14.9179 14.0173 14.75 13.8494 14.75 13.6423V10.9279C14.75 10.7208 14.9179 10.5529 15.125 10.5529Z" fill="red" />
<path d="M18.5 10.9279C18.5 10.7208 18.3321 10.5529 18.125 10.5529C17.9179 10.5529 17.75 10.7208 17.75 10.9279V13.6423C17.75 13.8494 17.9179 14.0173 18.125 14.0173C18.3321 14.0173 18.5 13.8494 18.5 13.6423V10.9279Z" fill="red" />
<path d="M21.125 10.5529C21.3321 10.5529 21.5 10.7208 21.5 10.9279V13.6423C21.5 13.8494 21.3321 14.0173 21.125 14.0173C20.9179 14.0173 20.75 13.8494 20.75 13.6423V10.9279C20.75 10.7208 20.9179 10.5529 21.125 10.5529Z" fill="red" />
<path d="M9.5 10.9279C9.5 10.7208 9.33211 10.5529 9.125 10.5529C8.91789 10.5529 8.75 10.7208 8.75 10.9279V13.6423C8.75 13.8494 8.91789 14.0173 9.125 14.0173C9.33211 14.0173 9.5 13.8494 9.5 13.6423V10.9279Z" fill="red" />
<path d="M12.125 10.5529C12.3321 10.5529 12.5 10.7208 12.5 10.9279V13.6423C12.5 13.8494 12.3321 14.0173 12.125 14.0173C11.9179 14.0173 11.75 13.8494 11.75 13.6423V10.9279C11.75 10.7208 11.9179 10.5529 12.125 10.5529Z" fill="red" />
<path d="M23.775 8.25H3.475C3.1125 8.25 2.75 8.53636 2.75 8.96591V17.1962H0.5C0.292893 17.1962 0.125 17.3641 0.125 17.5712C0.125 17.7783 0.292893 17.9462 0.5 17.9462H2.75V21.4819H0.5C0.292893 21.4819 0.125 21.6498 0.125 21.8569C0.125 22.064 0.292893 22.2319 0.5 22.2319H2.75V23.2841C2.75 23.7136 3.04 24 3.475 24H23.775C24.21 24 24.5 23.7136 24.5 23.2841V8.96591C24.5 8.53636 24.21 8.25 23.775 8.25ZM3.5 9V23.25H23.75V9H3.5Z" fill="red" fill-rule="evenodd" clip-rule="evenodd" />
<path d="M19.3614 0.0956166C19.5189 -0.0388253 19.7556 -0.0201012 19.8901 0.137438C20.5877 0.954907 20.8271 1.64525 20.7195 2.28023C20.6196 2.87045 20.2256 3.32294 19.9165 3.67792L19.8972 3.70011C19.5521 4.09665 19.3153 4.38165 19.2633 4.71015C19.2176 4.99932 19.3087 5.42954 19.9536 6.11517C20.0954 6.26604 20.0882 6.50336 19.9373 6.64525C19.7864 6.78714 19.5491 6.77985 19.4072 6.62899C18.692 5.86846 18.4242 5.21406 18.5225 4.59294C18.611 4.0338 18.9933 3.59548 19.2951 3.24942L19.3314 3.20778C19.6713 2.81713 19.9192 2.51435 19.9801 2.15499C20.0354 1.82802 19.9442 1.35628 19.3196 0.624295C19.1851 0.466756 19.2039 0.230058 19.3614 0.0956166Z" fill="red" />
<path d="M16.8915 0.137438C16.7571 -0.0201012 16.5204 -0.0388253 16.3629 0.0956166C16.2053 0.230058 16.1866 0.466756 16.321 0.624295C16.9457 1.35628 17.0369 1.82802 16.9815 2.15499C16.9207 2.51435 16.6728 2.81713 16.3329 3.20778L16.2966 3.24942C15.9947 3.59548 15.6125 4.0338 15.524 4.59294C15.4257 5.21406 15.6934 5.86846 16.4087 6.62899C16.5506 6.77985 16.7879 6.78714 16.9388 6.64525C17.0896 6.50336 17.0969 6.26604 16.955 6.11517C16.3102 5.42954 16.219 4.99932 16.2648 4.71015C16.3168 4.38165 16.5536 4.09665 16.8986 3.70011L16.9179 3.67792C17.227 3.32294 17.621 2.87045 17.721 2.28023C17.8285 1.64525 17.5892 0.954907 16.8915 0.137438Z" fill="red" />
<path d="M13.3643 0.0956166C13.5219 -0.0388253 13.7586 -0.0201012 13.893 0.137438C14.5906 0.954907 14.83 1.64525 14.7225 2.28023C14.6225 2.87045 14.2285 3.32294 13.9194 3.67792L13.9001 3.70011C13.555 4.09665 13.3182 4.38165 13.2662 4.71015C13.2205 4.99932 13.3117 5.42954 13.9565 6.11517C14.0984 6.26604 14.0911 6.50336 13.9402 6.64525C13.7894 6.78714 13.552 6.77985 13.4101 6.62899C12.6949 5.86846 12.4272 5.21406 12.5255 4.59294C12.6139 4.0338 12.9962 3.59548 13.298 3.24942L13.3343 3.20778C13.6743 2.81713 13.9221 2.51435 13.983 2.15499C14.0384 1.82802 13.9472 1.35628 13.3225 0.624295C13.1881 0.466756 13.2068 0.230058 13.3643 0.0956166Z" fill="red" />
<path d="M10.8945 0.137438C10.76 -0.0201012 10.5233 -0.0388253 10.3658 0.0956166C10.2083 0.230058 10.1895 0.466756 10.324 0.624295C10.9486 1.35628 11.0398 1.82802 10.9845 2.15499C10.9236 2.51435 10.6757 2.81713 10.3358 3.20778L10.2995 3.24942C9.99767 3.59548 9.61539 4.0338 9.52692 4.59294C9.42864 5.21406 9.69636 5.86846 10.4116 6.62899C10.5535 6.77985 10.7908 6.78714 10.9417 6.64525C11.0926 6.50336 11.0998 6.26604 10.958 6.11517C10.3131 5.42954 10.222 4.99932 10.2677 4.71015C10.3197 4.38165 10.5565 4.09665 10.9016 3.70011L10.9209 3.67792C11.23 3.32294 11.624 2.87045 11.7239 2.28023C11.8315 1.64525 11.5921 0.954907 10.8945 0.137438Z" fill="red" />
</svg>