<svg width="32" height="32" viewBox="0 0 32 32" fill="none" xmlns="http://www.w3.org/2000/svg">
<path d="M16.0334 8.34663C14.5197 8.34663 13.04 8.79549 11.7814 9.63645C10.5228 10.4774 9.54184 11.6727 8.96258 13.0712C8.38331 14.4697 8.23175 16.0085 8.52706 17.4931C8.82236 18.9777 9.55128 20.3414 10.6216 21.4118C11.692 22.4821 13.0557 23.211 14.5403 23.5063C16.0249 23.8016 17.5637 23.6501 18.9622 23.0708C20.3607 22.4915 21.556 21.5106 22.3969 20.252C23.2379 18.9934 23.6868 17.5137 23.6868 16C23.6845 13.9709 22.8774 12.0256 21.4426 10.5908C20.0078 9.156 18.0625 8.34892 16.0334 8.34663ZM16.0334 21.6534C14.9152 21.6534 13.8222 21.3218 12.8925 20.7006C11.9628 20.0794 11.2382 19.1965 10.8103 18.1635C10.3824 17.1304 10.2705 15.9937 10.4886 14.8971C10.7068 13.8004 11.2452 12.7931 12.0358 12.0025C12.8265 11.2118 13.8338 10.6734 14.9305 10.4553C16.0271 10.2371 17.1638 10.3491 18.1968 10.777C19.2298 11.2049 20.1128 11.9295 20.734 12.8592C21.3552 13.7888 21.6868 14.8819 21.6868 16C21.6851 17.4988 21.0889 18.9358 20.0291 19.9957C18.9692 21.0555 17.5322 21.6517 16.0334 21.6534ZM15 5.42975V1C15 0.734784 15.1054 0.48043 15.2929 0.292893C15.4804 0.105357 15.7348 0 16 0C16.2652 0 16.5196 0.105357 16.7071 0.292893C16.8946 0.48043 17 0.734784 17 1V5.42975C17 5.69497 16.8946 5.94932 16.7071 6.13686C16.5196 6.32439 16.2652 6.42975 16 6.42975C15.7348 6.42975 15.4804 6.32439 15.2929 6.13686C15.1054 5.94932 15 5.69497 15 5.42975ZM17 26.5702V31C17 31.2652 16.8946 31.5196 16.7071 31.7071C16.5196 31.8946 16.2652 32 16 32C15.7348 32 15.4804 31.8946 15.2929 31.7071C15.1054 31.5196 15 31.2652 15 31V26.5702C15 26.305 15.1054 26.0507 15.2929 25.8631C15.4804 25.6756 15.7348 25.5702 16 25.5702C16.2652 25.5702 16.5196 25.6756 16.7071 25.8631C16.8946 26.0507 17 26.305 17 26.5702ZM20.4191 6.34587L22.634 2.50962C22.6992 2.39498 22.7864 2.29436 22.8906 2.21356C22.9949 2.13276 23.114 2.07337 23.2413 2.03882C23.3686 2.00426 23.5014 1.99522 23.6322 2.01222C23.763 2.02922 23.8891 2.07192 24.0033 2.13786C24.1175 2.2038 24.2176 2.29168 24.2977 2.39645C24.3778 2.50121 24.4364 2.62078 24.4701 2.74828C24.5038 2.87578 24.512 3.00869 24.4941 3.13935C24.4762 3.27001 24.4327 3.39585 24.366 3.50962L22.1512 7.34587C22.0186 7.57556 21.8002 7.74316 21.544 7.8118C21.2878 7.88045 21.0148 7.84451 20.7852 7.71191C20.5555 7.5793 20.3879 7.36088 20.3192 7.1047C20.2506 6.84852 20.2865 6.57556 20.4191 6.34587ZM11.5813 25.6541L9.36631 29.4904C9.30113 29.6051 9.21391 29.7057 9.10969 29.7865C9.00546 29.8673 8.88628 29.9267 8.759 29.9612C8.63173 29.9958 8.49888 30.0048 8.3681 29.9878C8.23732 29.9708 8.1112 29.9281 7.99698 29.8622C7.88277 29.7963 7.78273 29.7084 7.70263 29.6036C7.62252 29.4989 7.56392 29.3793 7.53021 29.2518C7.49651 29.1243 7.48835 28.9914 7.50621 28.8607C7.52408 28.73 7.56762 28.6042 7.63431 28.4904L9.84919 24.6541C9.91485 24.5404 10.0023 24.4407 10.1065 24.3608C10.2106 24.2808 10.3295 24.2222 10.4564 24.1882C10.5832 24.1542 10.7155 24.1455 10.8457 24.1627C10.9759 24.1798 11.1015 24.2224 11.2152 24.2881C11.3289 24.3538 11.4286 24.4412 11.5086 24.5454C11.5885 24.6495 11.6472 24.7685 11.6811 24.8953C11.7151 25.0222 11.7238 25.1544 11.7067 25.2846C11.6895 25.4148 11.6469 25.5404 11.5813 25.6541ZM24.6541 9.84888L28.4904 7.634C28.6042 7.5673 28.73 7.52377 28.8607 7.5059C28.9914 7.48804 29.1243 7.49619 29.2518 7.5299C29.3793 7.56361 29.4989 7.62221 29.6036 7.70231C29.7084 7.78242 29.7963 7.88246 29.8622 7.99667C29.9281 8.11088 29.9708 8.23701 29.9878 8.36779C30.0048 8.49857 29.9958 8.63142 29.9612 8.75869C29.9267 8.88597 29.8673 9.00515 29.7865 9.10937C29.7057 9.2136 29.6051 9.30082 29.4904 9.366L25.6541 11.5809C25.5404 11.6476 25.4145 11.6911 25.2838 11.709C25.1532 11.7268 25.0203 11.7187 24.8928 11.685C24.7653 11.6513 24.6457 11.5927 24.5409 11.5126C24.4362 11.4325 24.3483 11.3324 24.2824 11.2182C24.2164 11.104 24.1737 10.9779 24.1567 10.8471C24.1397 10.7163 24.1488 10.5835 24.1833 10.4562C24.2179 10.3289 24.2773 10.2097 24.3581 10.1055C24.4389 10.0013 24.5395 9.91406 24.6541 9.84888ZM7.34587 22.1511L3.50962 24.366C3.28007 24.4965 3.0082 24.5309 2.75336 24.4617C2.49852 24.3926 2.28139 24.2254 2.14935 23.9967C2.01731 23.768 1.98109 23.4964 2.04859 23.2411C2.11608 22.9858 2.28182 22.7676 2.50962 22.634L6.34587 20.4191C6.57556 20.2865 6.84852 20.2505 7.1047 20.3192C7.36088 20.3878 7.5793 20.5554 7.71191 20.7851C7.84451 21.0148 7.88045 21.2877 7.8118 21.5439C7.74316 21.8001 7.57556 22.0185 7.34587 22.1511ZM32 16C32 16.2652 31.8946 16.5196 31.7071 16.7071C31.5196 16.8946 31.2652 17 31 17H26.5702C26.305 17 26.0507 16.8946 25.8631 16.7071C25.6756 16.5196 25.5702 16.2652 25.5702 16C25.5702 15.7348 25.6756 15.4804 25.8631 15.2929C26.0507 15.1054 26.305 15 26.5702 15H31C31.2652 15 31.5196 15.1054 31.7071 15.2929C31.8946 15.4804 32 15.7348 32 16ZM5.42975 17H1C0.734784 17 0.48043 16.8946 0.292893 16.7071C0.105357 16.5196 0 16.2652 0 16C0 15.7348 0.105357 15.4804 0.292893 15.2929C0.48043 15.1054 0.734784 15 1 15H5.42975C5.69497 15 5.94932 15.1054 6.13686 15.2929C6.32439 15.4804 6.42975 15.7348 6.42975 16C6.42975 16.2652 6.32439 16.5196 6.13686 16.7071C5.94932 16.8946 5.69497 17 5.42975 17ZM29.8563 24C29.7906 24.1138 29.7033 24.2135 29.5991 24.2935C29.4949 24.3735 29.376 24.4322 29.2491 24.4662C29.1222 24.5001 28.9899 24.5088 28.8597 24.4916C28.7295 24.4744 28.604 24.4317 28.4902 24.366L24.6539 22.1511C24.4243 22.0185 24.2567 21.8001 24.188 21.5439C24.1194 21.2877 24.1553 21.0148 24.2879 20.7851C24.4205 20.5554 24.6389 20.3878 24.8951 20.3192C25.1513 20.2505 25.4243 20.2865 25.6539 20.4191L29.4902 22.634C29.7199 22.7666 29.8875 22.985 29.9561 23.2412C30.0248 23.4974 29.9889 23.7703 29.8563 24ZM2.14375 8C2.27636 7.77033 2.49478 7.60274 2.75095 7.5341C3.00712 7.46546 3.28007 7.5014 3.50975 7.634L7.346 9.84888C7.46065 9.91406 7.56127 10.0013 7.64207 10.1055C7.72287 10.2097 7.78226 10.3289 7.81681 10.4562C7.85136 10.5835 7.8604 10.7163 7.8434 10.8471C7.8264 10.9779 7.7837 11.104 7.71776 11.2182C7.65182 11.3324 7.56394 11.4325 7.45918 11.5126C7.35442 11.5927 7.23485 11.6513 7.10735 11.685C6.97985 11.7187 6.84694 11.7268 6.71627 11.709C6.58561 11.6911 6.45977 11.6476 6.346 11.5809L2.50975 9.366C2.28008 9.23339 2.11249 9.01497 2.04385 8.7588C1.97521 8.50263 2.01115 8.22968 2.14375 8ZM24.366 28.4904C24.4327 28.6042 24.4762 28.73 24.4941 28.8607C24.512 28.9914 24.5038 29.1243 24.4701 29.2518C24.4364 29.3793 24.3778 29.4989 24.2977 29.6036C24.2176 29.7084 24.1175 29.7963 24.0033 29.8622C23.8891 29.9281 23.763 29.9708 23.6322 29.9878C23.5014 30.0048 23.3686 29.9958 23.2413 29.9612C23.114 29.9267 22.9949 29.8673 22.8906 29.7865C22.7864 29.7057 22.6992 29.6051 22.634 29.4904L20.4191 25.6541C20.2865 25.4244 20.2506 25.1515 20.3192 24.8953C20.3879 24.6391 20.5555 24.4207 20.7852 24.2881C21.0148 24.1555 21.2878 24.1196 21.544 24.1882C21.8002 24.2568 22.0186 24.4244 22.1512 24.6541L24.366 28.4904ZM7.634 3.50962C7.5673 3.39585 7.52377 3.27001 7.5059 3.13935C7.48804 3.00869 7.49619 2.87578 7.5299 2.74828C7.56361 2.62078 7.62221 2.50121 7.70231 2.39645C7.78242 2.29168 7.88246 2.2038 7.99667 2.13786C8.11088 2.07192 8.23701 2.02922 8.36779 2.01222C8.49857 1.99522 8.63142 2.00426 8.75869 2.03882C8.88597 2.07337 9.00515 2.13276 9.10937 2.21356C9.2136 2.29436 9.30082 2.39498 9.366 2.50962L11.5809 6.34587C11.7135 6.57556 11.7495 6.84852 11.6808 7.1047C11.6122 7.36088 11.4446 7.5793 11.2149 7.71191C10.9852 7.84451 10.7123 7.88045 10.4561 7.8118C10.1999 7.74316 9.98148 7.57556 9.84888 7.34587L7.634 3.50962Z" fill="black"/>
</svg>
