<svg width="32" height="32" viewBox="0 0 32 32" fill="none" xmlns="http://www.w3.org/2000/svg">
<path fill-rule="evenodd" clip-rule="evenodd" d="M20.646 15.431H11.3542C10.1782 15.431 9.22134 16.3878 9.22134 17.5639V25.7097C9.22134 26.8858 10.1782 27.8426 11.3542 27.8426H20.646C21.8221 27.8426 22.7789 26.8858 22.7789 25.7097V17.5639C22.7789 16.3878 21.8221 15.431 20.646 15.431ZM11.2213 25.7097V17.5639C11.2213 17.4907 11.2809 17.431 11.3541 17.431H14.9926V25.8425H11.3541C11.2809 25.8426 11.2213 25.783 11.2213 25.7097ZM20.7789 25.7097C20.7789 25.783 20.7193 25.8426 20.646 25.8426H17.0076V17.431H20.646C20.7192 17.431 20.7788 17.4907 20.7788 17.5639V25.7097H20.7789ZM22.942 11.2737H9.05815C7.17171 11.2737 5.63696 12.8085 5.63696 14.6951V28.5787C5.63696 30.4652 7.17171 32 9.05815 32H22.942C24.8285 32 26.3632 30.4652 26.3632 28.5787V14.6951C26.3632 12.8085 24.8285 11.2737 22.942 11.2737ZM24.3632 28.5787C24.3632 29.3624 23.7257 30 22.942 30H9.05815C8.27446 30 7.63696 29.3624 7.63696 28.5787V14.6951C7.63696 13.9113 8.27453 13.2737 9.05815 13.2737H22.942C23.7257 13.2737 24.3632 13.9113 24.3632 14.6951V28.5787ZM14.3601 19.0283C14.3601 19.5806 13.9123 20.0284 13.3601 20.0284H12.8686C12.3163 20.0284 11.8686 19.5806 11.8686 19.0283C11.8686 18.4761 12.3163 18.0283 12.8686 18.0283H13.3601C13.9123 18.0283 14.3601 18.4761 14.3601 19.0283ZM20.1314 19.0283C20.1314 19.5806 19.6837 20.0284 19.1314 20.0284H18.6399C18.0877 20.0284 17.6399 19.5806 17.6399 19.0283C17.6399 18.4761 18.0877 18.0283 18.6399 18.0283H19.1314C19.6837 18.0283 20.1314 18.4761 20.1314 19.0283ZM9.79334 3.98146C9.40284 3.59096 9.40284 2.95777 9.79334 2.56727C13.2158 -0.855106 18.7844 -0.855106 22.2068 2.56727C22.5973 2.95777 22.5973 3.59096 22.2068 3.98146C21.8163 4.37202 21.1831 4.37202 20.7926 3.98146C18.15 1.3389 13.8502 1.33883 11.2075 3.98146C11.0123 4.17671 10.7563 4.27434 10.5005 4.27434C10.2445 4.2744 9.98865 4.17677 9.79334 3.98146ZM18.0778 6.69628C17.5228 6.14128 16.7849 5.83559 16.0002 5.83559C15.2153 5.83559 14.4775 6.14128 13.9223 6.69628C13.5318 7.08684 12.8987 7.08684 12.5082 6.69628C12.1176 6.30578 12.1176 5.67259 12.5082 5.28209C13.441 4.34927 14.6811 3.83559 16.0001 3.83559H16.0002C17.3192 3.83559 18.5593 4.34934 19.492 5.28215C19.8825 5.67271 19.8825 6.30584 19.492 6.69634C19.2968 6.89159 19.0408 6.98921 18.785 6.98921C18.5289 6.98921 18.273 6.89159 18.0778 6.69628ZM16.0002 7.59246C16.6123 7.59246 17.1115 8.09171 17.1115 8.70384C17.1115 9.31597 16.6123 9.81528 16.0002 9.81528C15.388 9.81528 14.8887 9.31603 14.8887 8.70384C14.8887 8.09178 15.388 7.59246 16.0002 7.59246Z" fill="black"/>
</svg>
