<svg width="32" height="32" viewBox="0 0 32 32" fill="none" xmlns="http://www.w3.org/2000/svg">
<path d="M24.587 6.30888C24.3882 6.06594 24.0065 6.10243 23.8573 6.37863L20.321 12.9274C19.5764 14.3062 18.1356 15.1657 16.5685 15.1657H6.34116C5.54508 15.1982 4.81281 15.0106 4.14115 14.6228C3.46247 14.231 2.91241 13.6505 2.54435 12.944C2.17657 12.238 2.00422 11.4329 2.03814 10.6114C2.06041 10.0721 2.17103 9.53703 2.36228 9.02875C2.445 8.80891 2.35742 8.61757 2.23985 8.54969C2.17211 8.51058 2.09974 8.50547 2.04271 8.52187C1.98911 8.53728 1.95103 8.56987 1.92969 8.61943C1.6405 9.29109 1.4758 10.0057 1.44624 10.7216C1.40705 11.6708 1.60677 12.5861 2.01884 13.3771C2.43063 14.1675 3.04072 14.8079 3.78589 15.2381C4.16712 15.4582 4.47881 15.5793 4.68774 15.6447C4.7923 15.6773 4.87133 15.6961 4.92068 15.7063C4.94535 15.7114 4.96261 15.7144 4.97192 15.7158L4.97968 15.717C5.23021 15.7477 5.41889 15.9605 5.41889 16.2133V30.7583H9.21033V27.4274C9.21033 26.9639 9.34553 26.5105 9.59937 26.1227L12.1668 22.2001C12.3004 21.9961 12.5617 21.9182 12.7852 22.0157L18.3639 24.4509C19.2321 24.8298 19.7932 25.6871 19.7932 26.6343V30.7583H23.5847V24.426C23.5847 24.3842 23.5899 24.3425 23.6003 24.302L26.0815 14.6146C26.3698 13.4889 27.3842 12.7016 28.5462 12.7016C29.7754 12.7016 30.7718 11.7052 30.7718 10.476V9.17165C30.7718 8.94531 30.6005 8.75568 30.3754 8.73275L26.2242 8.30994L24.587 6.30888ZM22.9774 5.90348C23.4646 5.00123 24.7116 4.88203 25.3609 5.67564L26.7366 7.35695L30.4767 7.73789C31.2123 7.81281 31.7718 8.43226 31.7718 9.17165V10.476C31.7718 12.2575 30.3277 13.7016 28.5462 13.7016C27.8409 13.7016 27.2252 14.1795 27.0502 14.8627L24.5847 24.4891V31.2583C24.5847 31.5344 24.3608 31.7583 24.0847 31.7583H19.2932C19.0171 31.7583 18.7932 31.5344 18.7932 31.2583V26.6343C18.7932 26.0847 18.4676 25.5872 17.9639 25.3674L12.7722 23.1012L10.4361 26.6703C10.2888 26.8954 10.2103 27.1585 10.2103 27.4274V31.2583C10.2103 31.5344 9.98648 31.7583 9.71033 31.7583H4.91889C4.64275 31.7583 4.41889 31.5344 4.41889 31.2583V16.6082C4.4092 16.6053 4.39937 16.6022 4.38941 16.5991C4.11429 16.5131 3.73449 16.3632 3.28589 16.1042C2.37138 15.5762 1.62918 14.7935 1.13197 13.8391C0.635025 12.8852 0.401061 11.7952 0.447091 10.6804C0.481815 9.83938 0.674945 9.00496 1.01121 8.22397C1.31468 7.51912 2.14539 7.34045 2.73985 7.68367C3.36421 8.04414 3.5172 8.79892 3.29822 9.38091C3.14354 9.792 3.05506 10.2223 3.03729 10.6526C3.01021 11.3086 3.14831 11.9389 3.43122 12.482C3.71385 13.0245 4.1318 13.4627 4.64115 13.7568C5.15439 14.0531 5.70235 14.1925 6.309 14.1662C6.31621 14.1658 6.32343 14.1657 6.33066 14.1657H16.5685C17.7681 14.1657 18.8711 13.5078 19.4411 12.4522L22.9774 5.90348Z M12.8652 2.26917C12.9389 2.03662 12.8325 1.82908 12.6834 1.75955C12.5078 1.67764 12.3531 1.76813 12.3127 1.88457C12.0231 2.72036 11.883 3.60278 11.9009 4.49119C11.924 5.63731 12.2095 6.76288 12.7355 7.78143C13.2615 8.79997 14.014 9.68439 14.9352 10.3667C15.6492 10.8956 16.4499 11.2922 17.299 11.5399C17.4173 11.5744 17.5807 11.5007 17.6156 11.31C17.6452 11.1482 17.5375 10.9413 17.3053 10.8668C16.594 10.6386 15.9229 10.295 15.3194 9.84801C14.4775 9.22441 13.7898 8.41611 13.3091 7.48523C12.8283 6.55435 12.5674 5.52565 12.5463 4.47818C12.5311 3.72737 12.6395 2.98124 12.8652 2.26917ZM13.1061 0.853268C13.7806 1.16786 14.0193 1.9375 13.8185 2.57128C13.6257 3.17948 13.5332 3.81676 13.5461 4.45802C13.5641 5.35268 13.787 6.2313 14.1976 7.02638C14.6082 7.82145 15.1956 8.51182 15.9146 9.04445C16.4301 9.42623 17.0033 9.71968 17.6108 9.9146C18.2438 10.1177 18.7332 10.7579 18.5992 11.49C18.4705 12.1933 17.7731 12.7199 17.019 12.4999C16.0566 12.2192 15.1492 11.7697 14.34 11.1703C13.296 10.397 12.4432 9.39463 11.847 8.24028C11.2509 7.08593 10.9273 5.81028 10.9011 4.51135C10.8808 3.50448 11.0396 2.5044 11.3678 1.55717C11.625 0.814901 12.4581 0.551063 13.1061 0.853268Z M19.9769 12.1922L20.4951 11.3369L26.6117 15.0428L26.0935 15.8981L19.9769 12.1922ZM19.554 12.9671L24.8026 16.1472L26.1475 16.9878L25.6175 17.8358L24.2756 16.997L19.0358 13.8224L19.554 12.9671Z" fill="#008000"/>
</svg>
