<svg width="70" height="103" viewBox="0 0 70 103" xmlns="http://www.w3.org/2000/svg">
<path d="M32.7 1.15C31.36 3.13 0 49.65 0 68.09C0 87.4 15.71 103.12 35.02 103.12C54.32 103.12 70.04 87.4 70.04 68.09C70.04 49.65 38.67 3.12 37.34 1.15C36.29 -0.38 33.73 -0.38 32.7 1.15ZM5.6 68.09C5.6 55.3 25.06 22.97 35.02 7.78C44.98 22.97 64.44 55.29 64.44 68.09C64.44 84.32 51.24 97.51 35.02 97.51C18.8 97.51 5.6 84.32 5.6 68.09ZM35.02 91.91C21.88 91.91 11.2 81.23 11.2 68.1C11.2 66.55 12.46 65.29 14.01 65.29C15.55 65.29 16.81 66.55 16.81 68.1C16.81 78.14 24.98 86.31 35.02 86.31C36.56 86.31 37.82 87.55 37.82 89.11C37.82 90.66 36.56 91.91 35.02 91.91Z" fill="red"/>
</svg>