<svg width="32" height="32" viewBox="0 0 32 32" fill="none" xmlns="http://www.w3.org/2000/svg">
<g clip-path="url(#clip0)">
<path d="M31.2116 7.28949L29.9663 6.04424L30.5613 5.4493C31.0931 4.91749 31.3919 4.19619 31.3919 3.44408C31.3919 2.69197 31.0931 1.97066 30.5613 1.43884C30.0295 0.90701 29.3082 0.608231 28.5561 0.608225C27.804 0.608219 27.0826 0.906987 26.5508 1.4388L25.9558 2.03374L24.7106 0.788429C24.2041 0.283075 23.5178 -0.000732422 22.8023 -0.000732422C22.0868 -0.000732422 21.4005 0.283075 20.8939 0.788429L19.7588 1.92368C19.5639 2.11831 19.4002 2.34176 19.2732 2.58618C18.7616 2.31219 18.1756 2.20972 17.6014 2.29388C17.0272 2.37803 16.4952 2.64435 16.0838 3.05362L14.9486 4.18868C14.4437 4.69542 14.1602 5.38161 14.1602 6.09696C14.1602 6.81231 14.4437 7.4985 14.9486 8.00524L17.4203 10.4769L10.4768 17.4202L8.0052 14.9486C7.49846 14.4437 6.81228 14.1602 6.09695 14.1602C5.38161 14.1602 4.69544 14.4437 4.1887 14.9486L3.05338 16.0838C2.64412 16.4952 2.3778 17.0272 2.29364 17.6014C2.20949 18.1756 2.31196 18.7616 2.58595 19.2732C2.34158 19.4002 2.11815 19.564 1.92345 19.7589L0.788384 20.8938C0.28349 21.4006 0 22.0867 0 22.8021C0 23.5174 0.28349 24.2036 0.788384 24.7104L2.0337 25.9556L1.4387 26.5506C0.906846 27.0824 0.608049 27.8038 0.608037 28.5559C0.608026 29.3081 0.9068 30.0294 1.43863 30.5612C1.97047 31.0931 2.6918 31.3919 3.44393 31.3919C4.19607 31.3919 4.91741 31.0931 5.44926 30.5613L6.0442 29.9664L7.28945 31.2116C7.79597 31.717 8.48225 32.0008 9.19776 32.0008C9.91326 32.0008 10.5996 31.717 11.1061 31.2116L12.2412 30.0764C12.4361 29.8817 12.5999 29.6582 12.7269 29.4139C13.2385 29.6879 13.8245 29.7903 14.3987 29.7062C14.9728 29.622 15.5048 29.3557 15.9162 28.9464L17.0514 27.8111C17.5564 27.3044 17.8399 26.6182 17.8399 25.9029C17.8399 25.1875 17.5564 24.5013 17.0514 23.9946L14.5798 21.523L21.5232 14.5799L23.9948 17.0515C24.5016 17.5564 25.1877 17.8399 25.9031 17.8399C26.6184 17.8399 27.3046 17.5564 27.8113 17.0515L28.9466 15.9162C29.3559 15.5048 29.6222 14.9728 29.7064 14.3987C29.7905 13.8245 29.6881 13.2385 29.4141 12.7269C29.6584 12.5999 29.8819 12.4361 30.0766 12.2412L31.2116 11.1063C31.7171 10.5998 32.0009 9.91346 32.0009 9.1979C32.0009 8.48234 31.7171 7.796 31.2116 7.28949ZM27.9649 2.85299C28.1218 2.69647 28.3344 2.60857 28.556 2.60857C28.7776 2.60857 28.9902 2.69647 29.1471 2.85299C29.3008 3.01131 29.3868 3.22332 29.3868 3.44402C29.3868 3.66472 29.3008 3.87674 29.1471 4.03505L28.5521 4.62999L27.37 3.44793L27.9649 2.85299ZM4.03507 29.1471C3.87832 29.3039 3.66571 29.392 3.44402 29.392C3.22233 29.392 3.00971 29.3039 2.85295 29.1472C2.69618 28.9904 2.6081 28.7778 2.60809 28.5561C2.60808 28.3344 2.69613 28.1218 2.85288 27.9651L3.44788 27.3701L4.63001 28.5522L4.03507 29.1471ZM10.8269 28.6622L9.69188 29.7974C9.55968 29.9263 9.38238 29.9983 9.19779 29.9983C9.0132 29.9983 8.83591 29.9263 8.7037 29.7974L2.20257 23.2964C2.07277 23.1647 2.00001 22.9872 2.00001 22.8023C2.00001 22.6174 2.07277 22.4399 2.20257 22.3082L3.33782 21.173C3.46902 21.0423 3.64669 20.9688 3.83191 20.9688C4.01714 20.9688 4.19481 21.0423 4.32601 21.173L10.8271 27.6741C10.9569 27.8057 11.0298 27.9832 11.0298 28.1681C11.0298 28.3531 10.9569 28.5306 10.8271 28.6622H10.8269ZM15.6375 26.3972L14.5022 27.5325C14.3705 27.6623 14.1931 27.735 14.0082 27.735C13.8233 27.735 13.6458 27.6623 13.5141 27.5325L4.46757 18.4862C4.33777 18.3545 4.26501 18.177 4.26501 17.9921C4.26501 17.8072 4.33777 17.6297 4.46757 17.4981L5.60288 16.3626C5.73402 16.2317 5.9117 16.1582 6.09695 16.1582C6.28219 16.1582 6.45987 16.2317 6.59101 16.3626L15.6375 25.4091C15.7683 25.5402 15.8418 25.7179 15.8418 25.9031C15.8418 26.0884 15.7683 26.266 15.6375 26.3972ZM13.1656 20.109L11.891 18.8344L18.8344 11.8911L20.109 13.1657L13.1656 20.109ZM27.5324 14.5021L26.3971 15.6376C26.266 15.7684 26.0883 15.8418 25.9031 15.8418C25.7178 15.8418 25.5402 15.7684 25.409 15.6376L16.3625 6.59105C16.2327 6.45937 16.16 6.28189 16.16 6.09699C16.16 5.91209 16.2327 5.73462 16.3625 5.60293L17.4978 4.46762C17.6289 4.33681 17.8066 4.26335 17.9918 4.26335C18.1771 4.26335 18.3547 4.33681 18.4859 4.46762L19.758 5.73968L19.7585 5.74024L26.2598 12.2413L26.2606 12.242L27.5325 13.5139C27.6633 13.6451 27.7368 13.8228 27.7367 14.008C27.7367 14.1932 27.6633 14.3709 27.5324 14.5021ZM29.7974 9.69187L28.6625 10.8271C28.5308 10.9569 28.3533 11.0297 28.1684 11.0297C27.9835 11.0297 27.806 10.9569 27.6743 10.8271L21.1729 4.32605C21.0421 4.19493 20.9685 4.01723 20.9685 3.83196C20.9685 3.64669 21.0421 3.46899 21.1729 3.33787L22.3081 2.20268C22.4403 2.07388 22.6176 2.0018 22.8021 2.0018C22.9867 2.0018 23.164 2.07388 23.2962 2.20268L29.7974 8.70368C29.9282 8.83488 30.0016 9.01255 30.0016 9.19777C30.0016 9.38299 29.9282 9.56066 29.7974 9.69187Z" fill="black"/>
</g>
<defs>
<clipPath id="clip0">
<rect width="32" height="32" fill="white"/>
</clipPath>
</defs>
</svg>
