<svg width="32" height="32" viewBox="0 0 32 32" fill="none" xmlns="http://www.w3.org/2000/svg">
<path fill-rule="evenodd" clip-rule="evenodd" d="M31 16.8039H25.2213C25.1847 16.8039 25.1487 16.8062 25.1132 16.81L21.0171 13.3378C19.6903 12.2133 18.0016 11.594 16.2622 11.594H13.4459V11.2961C13.4459 10.7438 12.9982 10.2961 12.4459 10.2961C11.8937 10.2961 11.4459 10.7438 11.4459 11.2961V13.9359H7.32137C6.76912 13.9359 6.32137 14.3836 6.32137 14.9359C6.32137 15.4882 6.76912 15.9359 7.32137 15.9359H11.4459V19.6719H7.32137C6.76912 19.6719 6.32137 20.1195 6.32137 20.6719C6.32137 21.2242 6.76912 21.6719 7.32137 21.6719H11.4459V24.3119C11.4459 24.8642 11.8937 25.3119 12.4459 25.3119C12.9982 25.3119 13.4459 24.8642 13.4459 24.3119V24.014H16.2622C18.0015 24.014 19.6902 23.3946 21.0172 22.2698L25.1132 18.7978C25.1487 18.8016 25.1847 18.8039 25.2213 18.8039H29.9557C29.4482 24.4993 24.6498 28.9794 18.8248 28.9794H13.1752C7.01325 28.9794 2.00012 23.9661 2.00012 17.8039C2.00012 11.6419 7.01325 6.62872 13.1752 6.62872C13.7275 6.62872 14.1752 6.18104 14.1752 5.62872C14.1752 5.07641 13.7275 4.62872 13.1752 4.62872C5.91043 4.62872 0.00012207 10.539 0.00012207 17.8039C0.00012207 25.0689 5.91043 30.9794 13.1752 30.9794H18.8248C26.0896 30.9794 31.9999 25.0689 31.9999 17.8039C32 17.2516 31.5522 16.8039 31 16.8039ZM19.7239 20.7442C18.7578 21.5632 17.5284 22.0141 16.2622 22.0141H13.4459V13.594H16.2622C17.5286 13.594 18.758 14.0448 19.7239 14.8635L23.1927 17.8039L19.7239 20.7442ZM22.2224 2.0206C22.2224 1.46829 22.6701 1.0206 23.2224 1.0206C28.0624 1.0206 32 4.95822 32 9.79822C32 10.3505 31.5522 10.7982 31 10.7982C30.4477 10.7982 30 10.3505 30 9.79822C30 6.06104 26.9596 3.0206 23.2224 3.0206C22.6701 3.0206 22.2224 2.57291 22.2224 2.0206ZM22.2224 5.85997C22.2224 5.30766 22.6701 4.85997 23.2224 4.85997C25.9454 4.85997 28.1607 7.07529 28.1607 9.79829C28.1607 10.3506 27.7129 10.7983 27.1607 10.7983C26.6084 10.7983 26.1607 10.3506 26.1607 9.79829C26.1607 8.1781 24.8426 6.85997 23.2224 6.85997C22.6701 6.85997 22.2224 6.41229 22.2224 5.85997ZM22.1606 9.74872C22.1606 9.1366 22.6598 8.63729 23.272 8.63729C23.8842 8.63729 24.3834 9.1366 24.3834 9.74872C24.3834 10.3608 23.8842 10.8601 23.272 10.8601C22.6598 10.8601 22.1606 10.3608 22.1606 9.74872Z" fill="black"/>
</svg>
