<svg width="32" height="32" viewBox="0 0 32 32" fill="none" xmlns="http://www.w3.org/2000/svg">
<path fill-rule="evenodd" clip-rule="evenodd" d="M17.2689 9.1525H5.57837C2.50244 9.1525 0 11.6549 0 14.7309V26.4214C0 29.4974 2.50244 32 5.57837 32H17.2689C20.3448 32 22.8472 29.4974 22.8472 26.4214V14.7309C22.8472 11.6549 20.3448 9.1525 17.2689 9.1525ZM20.8472 26.4214C20.8472 28.3946 19.242 30 17.2689 30H5.57837C3.60525 30 2 28.3946 2 26.4214V14.7309C2 12.7577 3.60525 11.1525 5.57837 11.1525H17.2689C19.242 11.1525 20.8472 12.7577 20.8472 14.7309V26.4214ZM11.4236 13.701C7.63263 13.701 4.5485 16.7852 4.5485 20.5761C4.5485 24.3671 7.63269 27.4513 11.4236 27.4513C15.2146 27.4513 18.2987 24.3671 18.2987 20.5761C18.2987 16.7852 15.2146 13.701 11.4236 13.701ZM11.4236 25.4513C8.73544 25.4513 6.5485 23.2642 6.5485 20.5761C6.5485 17.888 8.7355 15.701 11.4236 15.701C14.1117 15.701 16.2987 17.888 16.2987 20.5761C16.2987 23.2643 14.1118 25.4513 11.4236 25.4513ZM10.787 20.5761C10.787 21.2646 10.2254 21.8261 9.537 21.8261C8.84856 21.8261 8.287 21.2646 8.287 20.5761C8.287 19.8876 8.8485 19.3261 9.537 19.3261C10.2255 19.3261 10.787 19.8876 10.787 20.5761ZM14.5603 20.5761C14.5603 21.2646 13.9988 21.8261 13.3103 21.8261C12.6217 21.8261 12.0603 21.2646 12.0603 20.5761C12.0603 19.8876 12.6217 19.3261 13.3103 19.3261C13.9988 19.3261 14.5603 19.8876 14.5603 20.5761ZM32 8.77763C32 9.32987 31.5522 9.77763 31 9.77763C30.4478 9.77763 30 9.32987 30 8.77763C30 5.04044 26.9596 2 23.2224 2C22.6701 2 22.2224 1.55225 22.2224 1C22.2224 0.44775 22.6701 0 23.2224 0C28.0624 0 32 3.93762 32 8.77763ZM28.1607 8.77763C28.1607 9.32987 27.7129 9.77763 27.1607 9.77763C26.6084 9.77763 26.1607 9.32987 26.1607 8.77763C26.1607 7.15744 24.8426 5.83931 23.2224 5.83931C22.6701 5.83931 22.2224 5.39156 22.2224 4.83931C22.2224 4.28706 22.6701 3.83931 23.2224 3.83931C25.9454 3.83931 28.1607 6.05469 28.1607 8.77763ZM24.3834 8.72812C24.3834 9.34025 23.8841 9.83956 23.272 9.83956C22.6599 9.83956 22.1606 9.34031 22.1606 8.72812C22.1606 8.116 22.6599 7.61669 23.272 7.61669C23.8841 7.61669 24.3834 8.116 24.3834 8.72812Z" fill="black"/>
</svg>
