<svg width="512" height="512" viewBox="0 0 512 512" fill="none" xmlns="http://www.w3.org/2000/svg">
<path d="M331.653,159.685V18.603H180.348v141.081L0,242.393v103.29h512v-103.29L331.653,159.685z M210.764,49.02L210.764,49.02 h90.471v105.212h-90.471V49.02z M198.875,184.65h114.248l114.022,52.291H84.854L198.875,184.65z M481.583,315.266H30.417v-47.907 h451.166V315.266z M152.285,411.409c0-6.791,1.288-9.476,3.419-13.923c2.704-5.641,6.409-13.367,6.409-27.074h-30.417 c0,6.792-1.288,9.476-3.419,13.924c-2.705,5.641-6.409,13.366-6.409,27.073c0,13.707,3.704,21.433,6.409,27.073 c2.132,4.447,3.419,7.132,3.419,13.924c0,6.79-1.288,9.474-3.419,13.92c-2.705,5.64-6.409,13.366-6.409,27.071h30.417 c0-6.79,1.288-9.474,3.419-13.92c2.705-5.64,6.409-13.365,6.409-27.071c0-13.707-3.704-21.433-6.409-27.073 C153.572,420.886,152.285,418.201,152.285,411.409z M228.292,411.409c0-6.791,1.288-9.476,3.419-13.923c2.704-5.641,6.409-13.367,6.409-27.074h-30.417 c0,6.792-1.288,9.476-3.419,13.924c-2.705,5.641-6.409,13.366-6.409,27.073c0,13.707,3.704,21.433,6.409,27.073 c2.132,4.447,3.419,7.132,3.419,13.924c0,6.79-1.288,9.474-3.419,13.92c-2.705,5.64-6.409,13.366-6.409,27.071h30.417 c0-6.79,1.288-9.474,3.419-13.92c2.705-5.64,6.409-13.365,6.409-27.071c0-13.707-3.704-21.433-6.409-27.073 C229.579,420.886,228.292,418.201,228.292,411.409z M304.297,411.409c0-6.791,1.288-9.476,3.419-13.923c2.705-5.641,6.409-13.367,6.409-27.074h-30.417 c0,6.792-1.288,9.476-3.419,13.924c-2.705,5.641-6.409,13.366-6.409,27.073c0,13.707,3.704,21.433,6.409,27.073 c2.132,4.447,3.419,7.132,3.419,13.924c0,6.79-1.288,9.474-3.419,13.92c-2.705,5.64-6.409,13.366-6.409,27.071h30.417 c0-6.79,1.288-9.474,3.419-13.92c2.705-5.64,6.409-13.365,6.409-27.071c0-13.707-3.704-21.433-6.409-27.073 C305.584,420.886,304.297,418.201,304.297,411.409z M380.305,411.409c0-6.791,1.288-9.476,3.419-13.923c2.705-5.641,6.409-13.367,6.409-27.074h-30.417 c0,6.792-1.288,9.476-3.419,13.924c-2.705,5.641-6.409,13.366-6.409,27.073c0,13.707,3.704,21.433,6.409,27.073 c2.132,4.447,3.419,7.132,3.419,13.924c0,6.79-1.288,9.474-3.419,13.92c-2.705,5.64-6.409,13.366-6.409,27.071h30.417 c0-6.79,1.288-9.474,3.419-13.92c2.705-5.64,6.409-13.365,6.409-27.071c0-13.707-3.704-21.433-6.409-27.073 C381.591,420.886,380.305,418.201,380.305,411.409z" stroke="red"/>
</svg>