<svg width="50" height="50" viewBox="0 0 50 50" fill="none" xmlns="http://www.w3.org/2000/svg">
<path d="M49.2021 0H0.797872C0.357234 0 0 0.357234 0 0.797872V4.91989C0 5.36053 0.357234 5.71777 0.797872 5.71777H2.12766V49.2021C2.12766 49.6428 2.48489 50 2.92553 50H47.0745C47.5151 50 47.8723 49.6428 47.8723 49.2021V5.71777H49.2021C49.6428 5.71777 50 5.36053 50 4.91989V0.797872C50 0.357234 49.6428 0 49.2021 0ZM48.4043 4.12202H9.30851C8.86787 4.12202 8.51064 4.47926 8.51064 4.91989C8.51085 5.36074 8.86798 5.71777 9.30851 5.71777H46.2766V13.5901H3.7234V5.71777H6.11702C6.55755 5.71777 6.91468 5.36074 6.91489 4.92021C6.91489 4.47926 6.55766 4.12202 6.11702 4.12202H1.59574V1.59574H48.4043V4.12202ZM41.2234 43.3511H36.5727C36.8593 42.8674 37.0245 42.3038 37.0245 41.7021C37.0245 39.913 35.5689 38.4574 33.7798 38.4574H30.2403C30.5279 38.2527 30.8043 38.0309 31.0661 37.7882C32.4853 36.4731 33.4588 34.6372 33.8072 32.619C33.8822 32.1848 33.591 31.772 33.1567 31.697C33.145 31.695 33.1335 31.6943 33.1218 31.6928C32.7007 31.6389 32.3077 31.9249 32.2347 32.3475C31.7481 35.1662 29.5614 38.4574 25 38.4574C22.9298 38.4574 21.1361 37.7527 19.813 36.4193C18.4193 35.0147 17.6294 33.0007 17.6456 30.8937C17.6689 27.8797 19.306 24.9735 20.2337 23.5665L21.0624 24.7381C21.4137 25.2338 21.8021 25.2169 22.0665 25.1153C22.2799 25.0333 22.4478 24.8636 22.5277 24.6494C22.5306 24.6414 22.5385 24.6192 22.5504 24.5834C22.7953 23.8496 23.6327 21.5435 25 19.8034C26.3676 21.5439 27.2048 23.8499 27.4496 24.5837C27.4614 24.619 27.4691 24.6411 27.472 24.649C27.5541 24.8698 27.7296 25.0429 27.9514 25.1221C28.2115 25.2151 28.5935 25.2237 28.9373 24.7382L29.767 23.5653C30.5422 24.7385 31.8117 26.9571 32.2221 29.423C32.2929 29.8481 32.6878 30.1376 33.1116 30.0823C33.1212 30.0811 33.1306 30.0806 33.1402 30.079C33.5749 30.0067 33.8686 29.5956 33.7963 29.161C33.1262 25.1347 30.4979 21.8264 30.3864 21.6874C30.2296 21.4922 29.9901 21.381 29.7398 21.3897C29.4895 21.3973 29.2573 21.5221 29.1128 21.7266C28.9077 22.0168 28.6664 22.3581 28.4364 22.6833C27.8695 21.3269 26.9103 19.4121 25.5723 18.0337C25.4221 17.8789 25.2155 17.7916 24.9999 17.7916C24.7843 17.7916 24.5777 17.8789 24.4274 18.0337C23.0896 19.4119 22.1303 21.3269 21.5634 22.6833C21.3334 22.3581 21.0921 22.0168 20.887 21.7266C20.7426 21.5221 20.5103 21.3974 20.26 21.3897C20.0103 21.3816 19.7703 21.4922 19.6135 21.6874C19.4696 21.8667 16.0867 26.1307 16.0499 30.8816C16.0303 33.411 16.989 35.8391 18.6802 37.5435C19.0162 37.882 19.377 38.1857 19.7582 38.4577H16.2202C14.4311 38.4577 12.9755 39.9132 12.9755 41.7023C12.9755 42.304 13.1407 42.8677 13.4273 43.3513H8.7766V15.1859H41.2234V43.3511ZM19.0131 43.3511C19.2997 42.8674 19.4649 42.3038 19.4649 41.7021C19.4649 41.1004 19.2997 40.5368 19.0131 40.0532H33.7798C34.689 40.0532 35.4287 40.7929 35.4287 41.7021C35.4287 42.6114 34.689 43.3511 33.7798 43.3511H19.0131ZM14.5713 41.7021C14.5713 40.7929 15.311 40.0532 16.2202 40.0532C17.1295 40.0532 17.8692 40.7929 17.8692 41.7021C17.8692 42.6114 17.1295 43.3511 16.2202 43.3511C15.311 43.3511 14.5713 42.6114 14.5713 41.7021ZM3.7234 15.1859H7.18085V48.4043H3.7234V15.1859ZM8.7766 44.9468H41.2234V48.4043H8.7766V44.9468ZM42.8191 15.1859H46.2766V48.4043H42.8191V15.1859Z M9.36168 10.1855C9.83094 10.1855 10.2127 9.80372 10.2127 9.33446C10.2127 8.86521 9.83094 8.4834 9.36168 8.4834C8.89243 8.4834 8.51062 8.86521 8.51062 9.33446C8.51062 9.80372 8.89243 10.1855 9.36168 10.1855Z M36.2266 11.7275C36.6958 11.7275 37.0776 11.3457 37.0776 10.8765C37.0776 10.4072 36.6958 10.0254 36.2266 10.0254C35.7573 10.0254 35.3755 10.4072 35.3755 10.8765C35.3755 11.3457 35.7573 11.7275 36.2266 11.7275Z M40.8203 10.2466C41.2896 10.2466 41.6714 9.86475 41.6714 9.3955C41.6714 8.92624 41.2896 8.54443 40.8203 8.54443C40.351 8.54443 39.9692 8.92624 39.9692 9.3955C39.9692 9.86475 40.351 10.2466 40.8203 10.2466Z" fill="red"/>
</svg>