<svg width="32" height="32" viewBox="0 0 32 32" fill="none" xmlns="http://www.w3.org/2000/svg">
<path fill-rule="evenodd" clip-rule="evenodd" d="M10.9713 14.8018C9.12081 14.8018 7.61525 16.3074 7.61525 18.158C7.61525 19.6604 8.60769 20.9353 9.97138 21.3618V24.7635C9.97138 25.3158 10.4191 25.7635 10.9714 25.7635C11.5237 25.7635 11.9714 25.3158 11.9714 24.7635V21.3618C13.335 20.9352 14.3274 19.6603 14.3274 18.1579C14.3274 16.3074 12.8218 14.8018 10.9713 14.8018ZM10.9713 19.5141C10.2236 19.5141 9.61525 18.9058 9.61525 18.158C9.61525 17.4102 10.2236 16.8019 10.9713 16.8019C11.7191 16.8019 12.3274 17.4102 12.3274 18.158C12.3274 18.9057 11.7191 19.5141 10.9713 19.5141ZM17.5838 9.64789H17.525V5.68333C17.525 3.27596 15.4691 1.31746 12.9421 1.31746H9.00075C6.47362 1.31746 4.41775 3.27602 4.41775 5.68333V9.64796H4.35894C1.95537 9.64789 0 11.6033 0 14.0068V26.5585C0 28.962 1.95537 30.9174 4.35887 30.9174H17.5838C19.9873 30.9174 21.9427 28.962 21.9427 26.5585V14.0068C21.9427 11.6033 19.9873 9.64789 17.5838 9.64789ZM6.41775 5.68333C6.41775 4.37877 7.5765 3.31746 9.00075 3.31746H12.9421C14.3663 3.31746 15.525 4.37877 15.525 5.68333V9.64796H6.41775V5.68333ZM19.9427 26.5586C19.9427 27.8593 18.8845 28.9175 17.5838 28.9175H4.35887C3.05819 28.9175 2 27.8593 2 26.5586V14.0068C2 12.7061 3.05819 11.6479 4.35887 11.6479H17.5838C18.8846 11.6479 19.9427 12.7061 19.9427 14.0068V26.5586ZM32 9.91046C32 10.4628 31.5523 10.9105 31 10.9105C30.4477 10.9105 30 10.4628 30 9.91046C30 6.14558 26.937 3.08258 23.1721 3.08258C22.6198 3.08258 22.1721 2.63489 22.1721 2.08258C22.1721 1.53027 22.6198 1.08258 23.1721 1.08258C28.0399 1.08258 32 5.04277 32 9.91046ZM28.1359 9.91046C28.1359 10.4628 27.6882 10.9105 27.1359 10.9105C26.5836 10.9105 26.1359 10.4628 26.1359 9.91046C26.1359 8.27627 24.8064 6.94671 23.1721 6.94671C22.6198 6.94671 22.1721 6.49902 22.1721 5.94671C22.1721 5.39439 22.6198 4.94671 23.1721 4.94671C25.9092 4.94671 28.1359 7.17346 28.1359 9.91046ZM24.3407 9.86064C24.3407 10.4767 23.8382 10.9792 23.2221 10.9792C22.6061 10.9792 22.1036 10.4767 22.1036 9.86064C22.1036 9.24452 22.6061 8.74208 23.2221 8.74208C23.8382 8.74208 24.3407 9.24452 24.3407 9.86064Z" fill="black"/>
</svg>
