<svg width="32" height="32" viewBox="0 0 32 32" fill="none" xmlns="http://www.w3.org/2000/svg">
<path fill-rule="evenodd" clip-rule="evenodd" d="M29.2757 19.0769L29.282 19.082L29.2841 19.0837C30.0487 19.6994 31 20.4654 31 22C31 23.4541 29.837 24.6719 28.7124 25.8494L28.708 25.854L28.7071 25.855C27.9843 26.6107 27.1699 27.4623 27 28.108V30C27 30.321 26.846 30.623 26.585 30.81C26.323 30.998 25.986 31.049 25.684 30.948C24.502 30.555 22.578 30 22.001 30C21.7399 30 21.3479 30.1946 20.9638 30.3852L20.9638 30.3852L20.942 30.396L20.9417 30.3961C20.3748 30.6791 19.7319 31 19 31H18.999C18.2683 31 17.6263 30.6801 17.059 30.3975L17.059 30.3975L17.0589 30.3975L17.056 30.396C16.667 30.201 16.264 30 16 30C15.736 30 15.333 30.201 14.943 30.396L14.9427 30.3962L14.9427 30.3962C14.3758 30.6791 13.7329 31 13 31C12.2671 31 11.6242 30.6791 11.0573 30.3962L11.0573 30.3962L11.057 30.396C10.667 30.201 10.265 30 10 30C9.422 30 7.498 30.555 6.317 30.949C6.011 31.049 5.677 30.999 5.416 30.811C5.154 30.623 5 30.321 5 30V28.108C4.83 27.463 4.015 26.61 3.292 25.854L3.28764 25.8494C2.16299 24.6719 1 23.4541 1 22C1 20.4666 1.94975 19.7006 2.71409 19.0842L2.718 19.081C3.254 18.65 3.761 18.242 4.106 17.552C4.484 16.796 4.858 13.805 5.003 11.923C5 5.935 9.935 1 16 1C22.065 1 27 5.935 27 12C27.142 13.806 27.517 16.797 27.894 17.553C28.2376 18.2403 28.742 18.6468 29.2757 19.0769ZM27.2593 24.4748L27.261 24.473L27.2613 24.4727C28.0762 23.6198 29 22.6529 29 22C29 21.467 28.763 21.231 28.029 20.641L28.0273 20.6397C27.4116 20.1439 26.6455 19.527 26.106 18.448C25.417 17.071 25.066 12.899 25.003 12.077C25 7.038 20.962 3 16 3C11.038 3 7 7.038 7 12C6.934 12.899 6.583 17.07 5.895 18.447C5.35549 19.526 4.58939 20.1429 3.97368 20.6386L3.972 20.64C3.237 21.231 3 21.467 3 22C3 22.6529 3.92376 23.6198 4.73869 24.4727L4.739 24.473L4.74073 24.4748C5.72919 25.5093 6.75114 26.5787 6.983 27.816C6.994 27.876 7 27.938 7 28V28.638C8.01 28.34 9.311 28 10 28C10.7347 28 11.3788 28.3209 11.9481 28.6045L11.951 28.606C12.338 28.8 12.739 29 13 29C13.261 29 13.663 28.8 14.05 28.606L14.0503 28.6058C14.6192 28.3219 15.2641 28 16 28C16.7359 28 17.379 28.321 17.9474 28.6047L17.95 28.606C18.337 28.8 18.738 29 18.999 29C19.261 29 19.662 28.8 20.05 28.606L20.0503 28.6058C20.6192 28.3219 21.2641 28 22 28C22.689 28 23.99 28.34 25 28.638V28C25 27.938 25.006 27.876 25.017 27.816C25.2489 26.5787 26.2708 25.5093 27.2593 24.4748L27.2593 24.4748ZM12 7C13.654 7 15 8.346 15 10C15 11.654 13.654 13 12 13C10.346 13 9 11.654 9 10C9 8.346 10.346 7 12 7ZM12 9C11.449 9 11 9.449 11 10C11 10.551 11.449 11 12 11C12.551 11 13 10.551 13 10C13 9.449 12.551 9 12 9ZM20 7C18.346 7 17 8.346 17 10C17 11.654 18.346 13 20 13C21.654 13 23 11.654 23 10C23 8.346 21.654 7 20 7ZM20 11C19.449 11 19 10.551 19 10C19 9.449 19.449 9 20 9C20.551 9 21 9.449 21 10C21 10.551 20.551 11 20 11ZM11 18C11 15.243 13.243 13 16 13C18.682 13 20.878 15.124 20.995 17.777C21.011 17.849 21.02 17.923 21.02 18C21.02 18.552 20.572 19 20.02 19H20H12C11.448 19 11 18.552 11 18ZM16 15C14.696 15 13.584 15.836 13.171 17H18.829C18.416 15.836 17.304 15 16 15Z" fill="black"/>
</svg>
