<svg version="1.1" xmlns="http://www.w3.org/2000/svg" xmlns:xlink="http://www.w3.org/1999/xlink" fill="none" viewBox="0 0 34 34" width="36" height="36">
<path d="M4.99995 1.2002C4.55812 1.2002 4.19995 1.55837 4.19995 2.0002V11.8439C4.19995 18.6889 9.49367 24.2412 16.2312 24.6509V31.8252H9.37495C8.93312 31.8252 8.57495 32.1834 8.57495 32.6252C8.57495 33.067 8.93312 33.4252 9.37495 33.4252H24.6875C25.1293 33.4252 25.4874 33.067 25.4874 32.6252C25.4874 32.1834 25.1293 31.8252 24.6875 31.8252H17.8312V24.6509C24.5687 24.2412 29.8624 18.6889 29.8624 11.8439V2.0002C29.8624 1.55837 29.5043 1.2002 29.0625 1.2002H4.99995ZM28.2625 11.8439C28.2625 18.074 23.2612 23.0752 17.0312 23.0752C10.8012 23.0752 5.79995 18.074 5.79995 11.8439V11.5502H28.2625V11.8439ZM28.2625 9.9502V2.8002H5.79995V9.9502H28.2625Z" stroke="green"></path>
</svg>