<svg width="32" height="32" viewBox="0 0 32 32" fill="none" xmlns="http://www.w3.org/2000/svg">
<g clip-path="url(#clip0)">
<path fill-rule="evenodd" clip-rule="evenodd" d="M24.0601 0C23.5423 0 23.1226 0.41975 23.1226 0.9375C23.1226 1.45525 23.5423 1.875 24.0601 1.875C27.4042 1.875 30.125 4.59569 30.125 7.93994C30.125 8.45769 30.5447 8.87744 31.0625 8.87744C31.5802 8.87744 32 8.45769 32 7.93994C32 3.56181 28.4382 0 24.0601 0ZM23.1226 4.34729C23.1226 3.82954 23.5423 3.40979 24.0601 3.40979C26.558 3.40979 28.5902 5.44198 28.5902 7.93992C28.5902 8.45767 28.1704 8.87742 27.6527 8.87742C27.1349 8.87742 26.7152 8.45767 26.7152 7.93992C26.7152 6.47592 25.5241 5.28479 24.0601 5.28479C23.5423 5.28479 23.1226 4.86504 23.1226 4.34729ZM22.7833 12.8075H25.541C26.0588 12.8075 26.4785 13.2273 26.4785 13.7449V17.1393C26.4785 17.6571 26.0588 18.0768 25.541 18.0768H22.7833V23.3788H25.541C26.0588 23.3788 26.4785 23.7985 26.4785 24.3163V27.7106C26.4785 28.2284 26.0588 28.6481 25.541 28.6481H22.7833V28.9116C22.7833 30.6146 21.3978 32.0001 19.6947 32.0001C18.8576 32.0001 18.0977 31.6648 17.5409 31.1221C16.9841 31.6648 16.2241 32.0001 15.387 32.0001C14.5518 32.0001 13.7935 31.6663 13.2369 31.1258C12.6804 31.6664 11.9221 32.0001 11.0869 32.0001C10.2508 32.0001 9.49175 31.6656 8.93506 31.124C8.37844 31.6656 7.61931 32.0001 6.78319 32.0001C5.08012 32.0001 3.69462 30.6146 3.69462 28.9116V28.6482H0.9375C0.41975 28.6482 0 28.2284 0 27.7107V24.3163C0 23.7986 0.41975 23.3788 0.9375 23.3788H3.69462V18.0769H0.9375C0.41975 18.0769 0 17.6571 0 17.1394V13.745C0 13.2273 0.41975 12.8075 0.9375 12.8075H3.69462V12.5441C3.69462 10.8411 5.08012 9.45557 6.78319 9.45557C7.61931 9.45557 8.37838 9.79007 8.93506 10.3316C9.49169 9.79007 10.2508 9.45557 11.0869 9.45557C11.9221 9.45557 12.6804 9.78938 13.2369 10.3299C13.7934 9.78938 14.5517 9.45557 15.3869 9.45557C16.2241 9.45557 16.9841 9.79088 17.5409 10.3336C18.0977 9.79088 18.8576 9.45557 19.6947 9.45557C21.3978 9.45557 22.7833 10.8411 22.7833 12.5441V12.8075ZM1.875 14.6825V16.2019H3.69462V14.6825H1.875ZM1.875 25.2538V26.7731H3.69462V25.2538H1.875ZM6.78319 30.1251C7.45231 30.1251 7.99669 29.5807 7.99669 28.9116V12.5441C7.99669 11.8749 7.45231 11.3306 6.78319 11.3306C6.114 11.3306 5.56962 11.8749 5.56962 12.5441C5.57056 17.4224 5.57056 24.0206 5.56962 28.9116C5.56962 29.5807 6.114 30.1251 6.78319 30.1251ZM9.8735 28.9116C9.8735 29.5807 10.4179 30.1251 11.087 30.1251C11.7473 30.1251 12.2851 29.5946 12.2992 28.9376L12.2989 28.9263C12.2987 28.9214 12.2985 28.9165 12.2985 28.9116V12.5441C12.2985 12.5353 12.2991 12.5268 12.2992 12.518C12.2851 11.861 11.7473 11.3306 11.087 11.3306C10.4179 11.3306 9.8735 11.8749 9.8735 12.5441V28.9116ZM15.387 30.1251C16.0561 30.1251 16.6005 29.5807 16.6005 28.9116V12.5441C16.6005 11.8749 16.0561 11.3306 15.387 11.3306C14.7267 11.3306 14.1889 11.861 14.1748 12.518L14.1754 12.536L14.1755 12.5441V28.9116C14.1755 28.9203 14.1749 28.9289 14.1748 28.9376C14.1889 29.5946 14.7267 30.1251 15.387 30.1251ZM18.4813 28.9116C18.4813 29.5807 19.0257 30.1251 19.6948 30.1251C20.3639 30.1251 20.9083 29.5807 20.9084 28.9116C20.9079 24.0376 20.9079 17.4308 20.9084 12.5441C20.9084 11.8749 20.364 11.3306 19.6948 11.3306C19.0257 11.3306 18.4813 11.8749 18.4813 12.5441V28.9116ZM24.6035 26.7732V25.2538H22.7833V26.7732H24.6035ZM22.7833 16.2019H24.6035V14.6825H22.7833V16.2019ZM24.9976 7.93994C24.9976 8.45771 24.5778 8.87744 24.0601 8.87744C23.5423 8.87744 23.1226 8.45771 23.1226 7.93994C23.1226 7.42217 23.5423 7.00244 24.0601 7.00244C24.5778 7.00244 24.9976 7.42217 24.9976 7.93994Z" fill="black"/>
</g>
<defs>
<clipPath id="clip0">
<rect width="32" height="32" fill="white"/>
</clipPath>
</defs>
</svg>
