<svg width="37" height="35" viewBox="0 0 37 35" fill="none" xmlns="http://www.w3.org/2000/svg">
<path d="M17.1 34.4H3.10002C2.20002 34.4 1.40002 33.6 1.40002 32.7V3C1.40002 2.1 2.20002 1.29999 3.10002 1.29999H17.1C18 1.29999 18.8 2.1 18.8 3V32.7C18.8 33.7 18 34.4 17.1 34.4Z M10.1 31.9C13.1376 31.9 15.6 29.4376 15.6 26.4C15.6 23.3625 13.1376 20.9 10.1 20.9C7.06247 20.9 4.60004 23.3625 4.60004 26.4C4.60004 29.4376 7.06247 31.9 10.1 31.9Z M10.1 17.8C11.5359 17.8 12.7 16.6359 12.7 15.2C12.7 13.764 11.5359 12.6 10.1 12.6C8.66406 12.6 7.5 13.764 7.5 15.2C7.5 16.6359 8.66406 17.8 10.1 17.8Z M10.1 9.5C11.5359 9.5 12.7 8.33593 12.7 6.89999C12.7 5.46405 11.5359 4.29999 10.1 4.29999C8.66406 4.29999 7.5 5.46405 7.5 6.89999C7.5 8.33593 8.66406 9.5 10.1 9.5Z M18.8 14.7H34C34.9 14.7 35.7 13.9 35.7 13V10.6C35.7 9.70004 34.9 8.90002 34 8.90002H18.8 M18.8 20.5001H34C34.9 20.5001 35.7 19.7 35.7 18.8V16.4001C35.7 15.5001 34.9 14.7001 34 14.7001H18.8 M16.5 34.4H34C34.9 34.4 35.7 33.6 35.7 32.7V22.2C35.7 21.3 34.9 20.5 34 20.5H18.8 M31.4 23.9H23.2V30.3H31.4V23.9Z M23.8 11.8H30.7" stroke="red"/>
</svg>