<svg width="64" height="64" viewBox="0 0 64 64" fill="none" xmlns="http://www.w3.org/2000/svg">
<path d="M32.098 8C34.3139 8 36.1104 6.20914 36.1104 4C36.1104 1.79086 34.3139 0 32.098 0C29.8821 0 28.0859 1.79086 28.0859 4C28.0859 6.20914 29.8821 8 32.098 8ZM34.1104 4C34.1104 5.09874 33.2152 6 32.098 6C30.981 6 30.0859 5.09891 30.0859 4C30.0859 2.90109 30.981 2 32.098 2C33.2152 2 34.1104 2.90126 34.1104 4Z" fill="red" fill-rule="evenodd" clip-rule="evenodd" />
<path d="M36.1104 16C36.1104 18.2091 34.3139 20 32.098 20C29.8821 20 28.0859 18.2091 28.0859 16C28.0859 13.7909 29.8821 12 32.098 12C34.3139 12 36.1104 13.7909 36.1104 16ZM32.098 18C33.2152 18 34.1104 17.0987 34.1104 16C34.1104 14.9013 33.2152 14 32.098 14C30.981 14 30.0859 14.9011 30.0859 16C30.0859 17.0989 30.981 18 32.098 18Z" fill="red" fill-rule="evenodd" clip-rule="evenodd" />
<path d="M35.2097 40.1538V36.8718C35.2097 35.4359 33.8731 34 32.0909 34C30.3088 34 28.9721 35.2308 28.9721 36.8718V40.1538C24.9623 41.3846 22.0664 44.6667 22.0664 48.7692C22.0664 53.8974 26.5218 58 32.0909 58C37.6601 58 42.1155 53.8974 42.1155 48.7692C42.3382 44.6667 39.4423 41.1795 35.2097 40.1538ZM33.2097 40.1538C33.2097 41.077 33.8416 41.8802 34.7387 42.0976C38.1773 42.9308 40.2813 45.6602 40.1184 48.6608C40.1165 48.6969 40.1155 48.7331 40.1155 48.7692C40.1155 52.6407 36.7141 56 32.0909 56C27.4678 56 24.0664 52.6407 24.0664 48.7692C24.0664 45.7134 26.2164 43.0918 29.559 42.0658C30.3988 41.808 30.9721 41.0324 30.9721 40.1538V36.8718C30.9721 36.6198 31.0653 36.4324 31.218 36.2918C31.3784 36.1441 31.6634 36 32.0909 36C32.4307 36 32.7204 36.1342 32.9285 36.3353C33.1514 36.5508 33.2097 36.7689 33.2097 36.8718V40.1538Z" fill="red" fill-rule="evenodd" clip-rule="evenodd" />
<path d="M1.76352 64C1.27012 64 0.848216 63.6245 0.777911 63.1361C-3.58839 32.8064 11.7617 23.2047 13.7253 22.1093C13.8589 22.0348 14.0093 22 14.1622 22H49.9032C50.058 22 50.2093 22.0352 50.344 22.1114C52.2973 23.2168 67.4277 32.8242 63.2852 63.1291C63.218 63.6206 62.795 64 62.2989 64H1.76352ZM61.4164 62C63.2186 47.7076 60.5614 38.4293 57.3514 32.6403C54.339 27.2077 50.7593 24.7044 49.6094 24H44.1319V26.9091C44.1319 29.8182 42.6778 32 40.9006 32H23.2898C21.5126 32 20.0586 29.5757 20.0586 26.9091V24H14.4521C13.2956 24.6976 9.66319 27.1976 6.62372 32.6356C3.39067 38.42 0.733252 47.6974 2.6395 62H61.4164ZM22.0586 24H42.1319V26.9091C42.1319 28.0515 41.8432 28.9318 41.5014 29.4623C41.3331 29.7235 41.1752 29.8656 41.0685 29.9347C40.971 29.9978 40.9196 30 40.9006 30H23.3039L23.3026 29.9997C23.2774 29.9928 23.0361 29.9276 22.7049 29.3965C22.3355 28.8038 22.0586 27.9045 22.0586 26.9091V24Z" fill="red" fill-rule="evenodd" clip-rule="evenodd" />
<path d="M26.0791 9.99998C26.0791 12.2091 24.2828 14 22.0669 14C19.851 14 18.0547 12.2091 18.0547 9.99998C18.0547 7.79084 19.851 6 22.0669 6C24.2828 6 26.0791 7.79084 26.0791 9.99998ZM22.0669 12C23.184 12 24.0791 11.0988 24.0791 9.99998C24.0791 8.90116 23.184 8 22.0669 8C20.9498 8 20.0547 8.90116 20.0547 9.99998C20.0547 11.0988 20.9498 12 22.0669 12Z" fill="red" fill-rule="evenodd" clip-rule="evenodd" />
<path d="M42.1294 14C44.3452 14 46.1416 12.2091 46.1416 9.99998C46.1416 7.79084 44.3452 6 42.1294 6C39.9136 6 38.1172 7.79084 38.1172 9.99998C38.1172 12.2091 39.9136 14 42.1294 14ZM44.1416 9.99998C44.1416 11.0988 43.2464 12 42.1294 12C41.0124 12 40.1172 11.0988 40.1172 9.99998C40.1172 8.90119 41.0124 8 42.1294 8C43.2464 8 44.1416 8.90119 44.1416 9.99998Z" fill="red" fill-rule="evenodd" clip-rule="evenodd" />
</svg>