<svg width="35" height="33" viewBox="0 0 35 33" fill="none" xmlns="http://www.w3.org/2000/svg">
<path d="M35.2 6.6C35.2 9 35.2 28.2 35.2 30.6C35.2 32.04 34.04 33.2 32.6 33.2C29.6 33.2 5.6 33.2 2.6 33.2C1.16 33.2 0 32.04 0 30.6C0 28.2 0 9 0 6.6C0 5.16 1.16 4 2.6 4C2.8 4 4.4 4 4.6 4C4.93 4 5.2 4.27 5.2 4.6C5.2 4.93 4.93 5.2 4.6 5.2C4.4 5.2 2.8 5.2 2.6 5.2C1.83 5.2 1.2 5.83 1.2 6.6C1.2 9 1.2 28.2 1.2 30.6C1.2 31.37 1.83 32 2.6 32C5.6 32 29.6 32 32.6 32C33.37 32 34 31.37 34 30.6C34 28.2 34 9 34 6.6C34 5.83 33.37 5.2 32.6 5.2C30.7 5.2 15.5 5.2 13.6 5.2C13.27 5.2 13 4.93 13 4.6C13 4.27 13.27 4 13.6 4C14.87 4 21.2 4 32.6 4C34.33 4.78 35.2 5.64 35.2 6.6ZM14.2 2.6C14.2 5 14.2 24.2 14.2 26.6C14.2 28.04 13.04 29.2 11.6 29.2C11.1 29.2 7.1 29.2 6.6 29.2C5.16 29.2 4 28.04 4 26.6C4 24.2 4 5 4 2.6C4 1.16 5.16 0 6.6 0C6.93 0 8.6 0 11.6 0C13.33 0.78 14.2 1.64 14.2 2.6ZM11.6 1.2C11.1 1.2 7.1 1.2 6.6 1.2C5.83 1.2 5.2 1.83 5.2 2.6C5.2 5 5.2 24.2 5.2 26.6C5.2 27.37 5.83 28 6.6 28C7.1 28 11.1 28 11.6 28C12.37 28 13 27.37 13 26.6C13 25 13 17 13 2.6C12.58 1.67 12.12 1.2 11.6 1.2ZM28.4 9.8L28.4 14.4L18.8 14.4L18.8 9.8L28.4 9.8ZM18.6 8.6C19.6 8.6 27.6 8.6 28.6 8.6C29.15 8.6 29.6 9.05 29.6 9.6C29.6 10.1 29.6 14.1 29.6 14.6C29.6 15.15 29.15 15.6 28.6 15.6C27.6 15.6 19.6 15.6 18.6 15.6C18.05 15.6 17.6 15.15 17.6 14.6C17.6 14.27 17.6 12.6 17.6 9.6C17.9 8.93 18.23 8.6 18.6 8.6ZM19.6 19.6C20.15 19.6 20.6 19.15 20.6 18.6C20.6 18.05 20.15 17.6 19.6 17.6C19.05 17.6 18.6 18.05 18.6 18.6C18.6 19.15 19.05 19.6 19.6 19.6ZM19.6 23.6C20.15 23.6 20.6 23.15 20.6 22.6C20.6 22.05 20.15 21.6 19.6 21.6C19.05 21.6 18.6 22.05 18.6 22.6C18.6 23.15 19.05 23.6 19.6 23.6ZM19.6 27.6C20.15 27.6 20.6 27.15 20.6 26.6C20.6 26.05 20.15 25.6 19.6 25.6C19.05 25.6 18.6 26.05 18.6 26.6C18.6 27.15 19.05 27.6 19.6 27.6ZM23.6 19.6C24.15 19.6 24.6 19.15 24.6 18.6C24.6 18.05 24.15 17.6 23.6 17.6C23.05 17.6 22.6 18.05 22.6 18.6C22.6 19.15 23.05 19.6 23.6 19.6ZM23.6 23.6C24.15 23.6 24.6 23.15 24.6 22.6C24.6 22.05 24.15 21.6 23.6 21.6C23.05 21.6 22.6 22.05 22.6 22.6C22.6 23.15 23.05 23.6 23.6 23.6ZM23.6 27.6C24.15 27.6 24.6 27.15 24.6 26.6C24.6 26.05 24.15 25.6 23.6 25.6C23.05 25.6 22.6 26.05 22.6 26.6C22.6 27.15 23.05 27.6 23.6 27.6ZM27.6 19.6C28.15 19.6 28.6 19.15 28.6 18.6C28.6 18.05 28.15 17.6 27.6 17.6C27.05 17.6 26.6 18.05 26.6 18.6C26.6 19.15 27.05 19.6 27.6 19.6ZM27.6 23.6C28.15 23.6 28.6 23.15 28.6 22.6C28.6 22.05 28.15 21.6 27.6 21.6C27.05 21.6 26.6 22.05 26.6 22.6C26.6 23.15 27.05 23.6 27.6 23.6ZM27.6 27.6C28.15 27.6 28.6 27.15 28.6 26.6C28.6 26.05 28.15 25.6 27.6 25.6C27.05 25.6 26.6 26.05 26.6 26.6C26.6 27.15 27.05 27.6 27.6 27.6Z" fill="red"/>
</svg>