<svg width="39" height="30" viewBox="0 0 39 30" fill="none" xmlns="http://www.w3.org/2000/svg">
<path d="M29.5 25.5H2V28.5H29.5V25.5Z M0 28.5H32 M0.700073 25.5C0.700073 25.5 9.10011 4.69996 32.8001 6.49996C33.8001 8.89996 37.9001 19.4 37.9001 19.4C37.9001 19.4 38.7001 21.6999 35.5001 21.7999C32.2001 21.8999 30.6 25.5 30.6 25.5H0.700073V25.5Z M25.1 15.3C29.4 13.9 29.7 11.8 29.1 10.9C28.6 10.2 27.8 9.90001 26.9 10.1C22.7 10.6 19.2 11.9 16.1 13.5C15.7 13.7 15.4 14.2 15.3 14.7V14.8C15.3 16.9 19.9 17 25.1 15.3Z M32.8 6.49995C32.8 6.49995 34.1 4.79996 37.6 2.09996C37.4 1.39996 36.7 0.89994 35.5 1.29994C34.2 1.89994 32.7001 2.59996 29.7001 6.19996" stroke="red"/>
</svg>