<svg width="32" height="32" viewBox="0 0 32 32" fill="none" xmlns="http://www.w3.org/2000/svg">
<path fill-rule="evenodd" clip-rule="evenodd" d="M11.0435 3.92963C11.2834 3.92963 11.5232 3.83811 11.7061 3.65513C14.0698 1.29159 17.9156 1.29159 20.2793 3.65513C20.6452 4.02102 21.2386 4.02102 21.6045 3.65513C21.9705 3.28924 21.9705 2.69588 21.6045 2.32993C18.5101 -0.764466 13.4752 -0.764404 10.3809 2.32993C10.015 2.69582 10.015 3.28917 10.3809 3.65513C10.564 3.83817 10.8038 3.92963 11.0435 3.92963ZM19.1943 6.06515C19.0114 6.24813 18.7716 6.33965 18.5318 6.33965C18.2919 6.33965 18.0521 6.24813 17.8691 6.06515C16.8344 5.03056 15.1507 5.03044 14.1159 6.06515C13.75 6.43104 13.1566 6.43104 12.7907 6.06515C12.4247 5.69919 12.4247 5.10584 12.7907 4.73995C14.5561 2.97432 17.4289 2.97444 19.1943 4.73995C19.5603 5.1059 19.5603 5.69925 19.1943 6.06515ZM31.0629 10.4666C31.5804 10.4666 32 10.8861 32 11.4036V15.5037C32 15.5585 31.9944 15.6119 31.9853 15.6642V29.1935C31.9853 30.7359 30.7304 31.9908 29.1879 31.9908C28.4742 31.9908 27.8224 31.7217 27.3276 31.2802C26.8329 31.7217 26.181 31.9908 25.4673 31.9908C24.7536 31.9908 24.1018 31.7217 23.607 31.2802C23.1123 31.7217 22.4605 31.9908 21.7468 31.9908C20.5329 31.9908 19.4975 31.2134 19.1114 30.1305H12.8737C12.4875 31.2134 11.4522 31.9908 10.2384 31.9908C9.52469 31.9908 8.87286 31.7217 8.37809 31.2802C7.88338 31.7217 7.23149 31.9908 6.51782 31.9908C5.80415 31.9908 5.15232 31.7217 4.65755 31.2802C4.16284 31.7217 3.51101 31.9908 2.79728 31.9908C1.25486 31.9908 0 30.7359 0 29.1935V11.4036C0 10.8861 0.419557 10.4666 0.93707 10.4666H31.0629ZM30.1259 12.3407H1.87414V14.5667H30.1259V12.3407ZM13.0358 28.2564H18.9495V16.4408H13.0358V28.2564ZM1.87414 29.1935C1.87414 29.7025 2.28826 30.1167 2.79728 30.1167C3.30636 30.1167 3.72054 29.7025 3.72054 29.1935V16.4408H1.87414V29.1935ZM5.59468 29.1935C5.59468 29.7025 6.00887 30.1167 6.51788 30.1167C7.0269 30.1167 7.44108 29.7025 7.44115 29.1935V16.4408H5.59468V29.1935ZM9.31529 29.1935C9.31529 29.7025 9.72947 30.1167 10.2385 30.1167C10.7475 30.1167 11.1616 29.7025 11.1617 29.1935V16.4408H9.31529V29.1935ZM20.8236 29.1935C20.8236 29.7025 21.2378 30.1167 21.7468 30.1167C22.2559 30.1167 22.67 29.7025 22.67 29.1935V16.4408H20.8236V29.1935ZM24.5442 29.1935C24.5442 29.7025 24.9584 30.1167 25.4674 30.1167C25.9764 30.1167 26.3906 29.7025 26.3906 29.1935V16.4408H24.5442V29.1935ZM29.188 30.1167C29.697 30.1167 30.1112 29.7025 30.1112 29.1935V16.4408H28.2648V29.1935C28.2648 29.7025 28.679 30.1167 29.188 30.1167ZM16.9296 7.94183C16.9296 8.45936 16.51 8.8789 15.9925 8.8789C15.475 8.8789 15.0554 8.45936 15.0554 7.94183C15.0554 7.4243 15.475 7.00476 15.9925 7.00476C16.51 7.00476 16.9296 7.4243 16.9296 7.94183Z" fill="black"/>
</svg>
