<svg width="32" height="32" viewBox="0 0 32 32" fill="none" xmlns="http://www.w3.org/2000/svg">
<path fill-rule="evenodd" clip-rule="evenodd" d="M21.3001 3.59997C24.6001 1.59997 28.6001 5.59997 26.3001 8.99997C27.6001 10.1 28.1001 11.7 28.0001 12.2L25.0001 29.2C24.9001 29.7 24.5001 30 24.0001 30H8.00009C7.50009 30 7.10009 29.7 7.00009 29.2L4.00009 12.2C3.90009 11.4 4.90009 8.99997 7.20009 7.99997C7.20009 4.19997 11.0001 2.09997 14.1001 3.49997C16.1001 1.39997 19.4001 1.39997 21.3001 3.59997ZM9.30009 8.49997C9.40009 8.99997 9.00009 9.49997 8.50009 9.69997C7.70009 9.89997 7.00009 10.3 6.50009 11H25.4001C25.2001 10.6 24.9001 10.3 24.5001 10.1C23.9001 9.69997 23.8001 8.69997 24.4001 8.19997C26.3001 6.49997 23.5001 3.79997 21.9001 5.69997C21.4001 6.19997 20.5001 6.09997 20.2001 5.49997C19.2001 3.49997 16.4001 3.39997 15.2001 5.29997C14.9001 5.79997 14.3001 5.89997 13.8001 5.59997C11.8001 4.19997 8.80009 5.79997 9.30009 8.49997ZM15.0001 28V13H12.0001V28H15.0001ZM20.0001 13H17.0001V28H20.0001V13ZM10.0001 13H6.20009L8.80009 28H10.0001V13ZM22.0001 28H23.2001L25.8001 13H22.0001V28ZM17 6C16.4 6 16 6.4 16 7C16 7.6 16.4 8 17 8C17.6 8 18 7.6 18 7C18 6.4 17.6 6 17 6ZM20 9C20 8.4 20.4 8 21 8C21.6 8 22 8.4 22 9C22 9.6 21.6 10 21 10C20.4 10 20 9.6 20 9ZM12 7C11.4 7 11 7.4 11 8C11 8.6 11.4 9 12 9C12.6 9 13 8.6 13 8C13 7.4 12.6 7 12 7Z" fill="black"/>
</svg>
