<svg width="32" height="32" viewBox="0 0 32 32" fill="none" xmlns="http://www.w3.org/2000/svg">
<g clip-path="url(#clip0)">
<path fill-rule="evenodd" clip-rule="evenodd" d="M20.7679 0.476312L29.3711 15.6343C30.3255 17.3159 30.83 19.2269 30.83 21.1605C30.83 27.2387 25.9123 32 19.6345 32C16.6232 32 13.8201 30.9331 11.7417 28.9957C9.61189 27.0104 8.4389 24.2802 8.4389 21.3082C8.4389 21.0582 8.449 20.7964 8.46768 20.5314L8.46072 20.5314C4.44066 20.5314 1.17004 17.2608 1.17004 13.2407C1.17004 11.815 1.58932 10.8282 2.21895 9.78511L7.8509 0.454555C8.02345 0.168644 8.33683 -0.00622577 8.6687 0.000169619C9.00264 0.00462131 9.30917 0.185887 9.47401 0.476312L14.1561 8.72567L19.1446 0.454806C19.3171 0.16877 19.6269 -0.00346697 19.9624 0.000169619C20.2964 0.00455861 20.603 0.185824 20.7679 0.476312ZM3.05104 13.2407C3.05104 16.2236 5.47777 18.6504 8.46066 18.6504C11.4435 18.6504 13.8703 16.2236 13.8704 13.2407C13.8704 12.4816 13.71 11.8382 13.3262 11.0889C13.3033 11.0516 13.2832 11.0131 13.2658 10.9733C13.2336 10.9132 13.2004 10.8526 13.1654 10.7909L8.63114 2.80191L3.82933 10.7571C3.25469 11.7091 3.05104 12.3589 3.05104 13.2407ZM19.6344 30.119C22.1541 30.119 24.4991 29.2076 26.2374 27.5527C27.986 25.8879 28.949 23.6178 28.949 21.1605C28.949 19.5517 28.5292 17.9619 27.7352 16.5627L19.9253 2.80248L15.1968 10.6422C15.5809 11.5051 15.7513 12.3181 15.7513 13.2407C15.7513 16.5973 13.4711 19.4308 10.3785 20.2749C10.3405 20.6277 10.3198 20.9849 10.3198 21.3081C10.3198 23.7526 11.2803 25.9941 13.0243 27.6198C14.7532 29.2314 17.1008 30.119 19.6344 30.119ZM16.4209 23.1769C16.0537 22.8096 16.0537 22.2142 16.4209 21.8469C18.1929 20.075 21.076 20.075 22.8479 21.8469C23.2152 22.2142 23.2152 22.8096 22.8479 23.1769C22.6643 23.3606 22.4236 23.4524 22.1829 23.4524C21.9423 23.4524 21.7016 23.3606 21.5179 23.1769C20.4794 22.1384 18.7896 22.1384 17.751 23.1769C17.3837 23.5442 16.7882 23.5442 16.4209 23.1769ZM19.6345 17.0951C17.5068 17.0951 15.5066 17.9237 14.0022 19.4281C13.6349 19.7954 13.6349 20.3908 14.0022 20.7581C14.3694 21.1254 14.9649 21.1254 15.3322 20.7581C16.4814 19.609 18.0093 18.9761 19.6345 18.9761C21.2597 18.9761 22.7876 19.609 23.9368 20.7581C24.1204 20.9418 24.361 21.0336 24.6018 21.0336C24.8424 21.0336 25.0832 20.9418 25.2667 20.7581C25.634 20.3909 25.634 19.7954 25.2667 19.4281C23.7623 17.9237 21.7621 17.0951 19.6345 17.0951ZM20.5749 25.0604C20.5749 25.5798 20.1538 26.0009 19.6344 26.0009C19.115 26.0009 18.6939 25.5798 18.6939 25.0604C18.6939 24.541 19.115 24.1199 19.6344 24.1199C20.1538 24.1199 20.5749 24.541 20.5749 25.0604Z" fill="black"/>
</g>
<defs>
<clipPath id="clip0">
<rect width="32" height="32" fill="white"/>
</clipPath>
</defs>
</svg>
