<svg width="32" height="32" viewBox="0 0 32 32" fill="none" xmlns="http://www.w3.org/2000/svg">
<path d="M22.294 8.63681C22.6846 9.02731 22.6846 9.6605 22.294 10.051C21.9035 10.4416 21.2704 10.4416 20.8798 10.051C19.5787 8.74987 17.8456 8.03331 15.9999 8.03337C14.1542 8.03344 12.4213 8.74994 11.1203 10.051C10.925 10.2463 10.6691 10.3439 10.4131 10.3439C10.1572 10.3439 9.90133 10.2463 9.70608 10.0511C9.31551 9.6605 9.31551 9.02738 9.70608 8.63688C11.3848 6.95813 13.62 6.0335 15.9999 6.03344C18.3798 6.03331 20.6151 6.95787 22.294 8.63681ZM16.0001 9.92988C16.0002 9.92988 16 9.92988 16.0001 9.92988C14.6645 9.92988 13.4085 10.4501 12.4639 11.3947C12.0733 11.7852 12.0733 12.4184 12.4639 12.8089C12.8544 13.1995 13.4876 13.1995 13.8781 12.8089C14.445 12.2421 15.1986 11.9299 16.0001 11.9299C16.8015 11.9299 17.5551 12.2421 18.122 12.8089C18.3172 13.0042 18.5731 13.1019 18.829 13.1019C19.0849 13.1019 19.3408 13.0042 19.5361 12.8089C19.9266 12.4184 19.9266 11.7852 19.5361 11.3947C18.5916 10.4501 17.3358 9.92988 16.0001 9.92988ZM16.0001 13.7305C15.3782 13.7305 14.871 14.2377 14.871 14.8596C14.871 15.4814 15.3782 15.9886 16.0001 15.9886C16.6219 15.9886 17.1291 15.4814 17.1291 14.8596C17.1291 14.2377 16.622 13.7305 16.0001 13.7305ZM25.5594 13.763C25.5458 13.8006 25.5298 13.8372 25.5118 13.8729C22.9231 18.9861 22.1853 21.265 21.716 24.0228C22.2546 24.5111 22.5935 25.216 22.5935 25.9986C22.5935 27.1851 21.8145 28.1927 20.7413 28.5379C20.8198 28.7891 20.8623 29.0561 20.8623 29.3329C20.8623 30.8035 19.6658 32 18.1951 32H13.8048C12.3341 32 11.1377 30.8035 11.1377 29.3329C11.1377 29.0561 11.1801 28.7891 11.2587 28.5379C10.1855 28.1927 9.40645 27.1851 9.40645 25.9986C9.40645 25.216 9.74533 24.5111 10.284 24.0228C9.81464 21.265 9.07683 18.9861 6.4882 13.8729C6.47014 13.8372 6.45426 13.8006 6.44058 13.763C5.85108 12.1419 5.67714 10.4646 5.92364 8.77738C6.15501 7.19344 6.76614 5.65837 7.69095 4.338C8.60445 3.03375 9.81764 1.94981 11.1993 1.20325C12.6771 0.404875 14.2923 0 16 0C17.7078 0 19.323 0.404875 20.8006 1.20325C22.1823 1.94975 23.3955 3.03375 24.309 4.338C25.2338 5.65837 25.845 7.1935 26.0763 8.77738C26.3228 10.4645 26.1489 12.1419 25.5594 13.763ZM12.0736 25.3315C11.712 25.3315 11.4065 25.637 11.4065 25.9986C11.4065 26.3603 11.712 26.6658 12.0736 26.6658H19.9265C20.2881 26.6658 20.5936 26.3603 20.5936 25.9986C20.5936 25.637 20.2881 25.3315 19.9265 25.3315H12.0736ZM18.8623 29.3329C18.8623 28.9712 18.5568 28.6657 18.1952 28.6657H13.8049C13.4433 28.6657 13.1378 28.9712 13.1378 29.3329C13.1378 29.6945 13.4432 30 13.8048 30H18.1951C18.5568 30 18.8623 29.6945 18.8623 29.3329ZM22.6709 5.48537C21.1195 3.27038 18.688 2 16 2C13.312 2 10.8806 3.27038 9.32914 5.48537C7.7862 7.68819 7.40339 10.5023 8.30051 13.0247C10.8758 18.1173 11.6901 20.5394 12.1936 23.3314H19.8063C20.3099 20.5394 21.1242 18.1173 23.6995 13.0247C24.5966 10.5023 24.2138 7.68819 22.6709 5.48537Z" fill="black"/>
</svg>
