<svg width="345" height="485" viewBox="0 0 345 485" fill="none" xmlns="http://www.w3.org/2000/svg">
<path d="M275 102.5C275 45.98 229.02 0 172.5 0C115.98 0 70 45.98 70 102.5C70 107.33 70 131.5 70 175L0 175L0 485L345 485L345 175L275 175C275 131.5 275 107.33 275 102.5ZM172.5 30C212.48 30 245 62.52 245 102.5C245 107.33 245 131.5 245 175L100 175L100 102.5C121.68 54.17 145.85 30 172.5 30ZM30 455L30 205L315 205L315 455L30 455ZM157.5 391.62L187.5 391.62C187.5 359.47 187.5 341.62 187.5 338.05C199.31 332.42 207.5 320.36 207.5 306.43C207.5 287.13 191.8 271.43 172.5 271.43C153.2 271.43 137.5 287.13 137.5 306.43C137.5 320.37 145.69 332.42 157.5 338.05C157.5 345.19 157.5 363.05 157.5 391.62Z" fill="red"/>
</svg>