<svg width="24" height="24" viewBox="0 0 24 24" fill="none" xmlns="http://www.w3.org/2000/svg">
<path d="M3.29224 18.4941L3.29224 23.5L1.00005 23.5C0.723913 23.5 0.500056 23.2762 0.500056 23L0.500056 18.9941C0.500056 18.718 0.723913 18.4941 1.00006 18.4941L3.29224 18.4941Z M20.7078 18.4941L20.7078 23.5L22.9999 23.5C23.2761 23.5 23.4999 23.2761 23.4999 23L23.4999 18.9941C23.4999 18.718 23.2761 18.4941 22.9999 18.4941L20.7078 18.4941Z M6.53827 5.76366C6.54521 5.75571 6.55033 5.75179 6.55326 5.75H17.4546C17.4567 5.75171 17.4595 5.75446 17.4631 5.75873C17.48 5.77853 17.5002 5.81924 17.5002 5.87697V8.37303C17.5002 8.43964 17.4782 8.47818 17.4652 8.49325C17.4623 8.49666 17.4601 8.49876 17.4586 8.5H6.54958C6.54723 8.49882 6.54265 8.49571 6.53613 8.48834C6.52111 8.47137 6.50024 8.43389 6.50024 8.37303V5.87697C6.50024 5.82499 6.51928 5.78541 6.53827 5.76366ZM17.4511 5.74754C17.4511 5.74748 17.4515 5.74766 17.4523 5.74823L17.4511 5.74754ZM17.4563 8.50158C17.4562 8.50153 17.4566 8.50127 17.4573 8.50098L17.4563 8.50158ZM6.5514 8.50062C6.55139 8.50069 6.55089 8.50061 6.54992 8.50016L6.5514 8.50062ZM6.55456 5.74926C6.55555 5.74875 6.55607 5.74862 6.55608 5.74868L6.55456 5.74926Z M10.2502 5.87697C10.2502 5.83065 10.2525 5.78805 10.2562 5.75H13.7446C13.7481 5.78809 13.7502 5.83067 13.7502 5.87697V8.37303C13.7502 8.41986 13.7482 8.46234 13.745 8.5H10.2558C10.2524 8.4624 10.2502 8.41991 10.2502 8.37303V5.87697ZM13.7093 5.57031C13.7093 5.57029 13.7095 5.57073 13.7099 5.57166L13.7093 5.57031ZM13.7107 8.67989C13.7107 8.67987 13.711 8.67925 13.7115 8.67809L13.7107 8.67989ZM10.2906 8.67606C10.2906 8.67608 10.2903 8.67553 10.2898 8.67433L10.2906 8.67606Z M20.4783 23V18.2061C18.2304 20.9398 15.2415 22.2437 11.9733 22.2437C8.74326 22.2437 5.61701 20.839 3.47827 18.2371V23C3.47827 23.2761 3.70213 23.5 3.97827 23.5H19.9783C20.2544 23.5 20.4783 23.2761 20.4783 23Z M11.9736 0.5C17.9083 0.5 22.7283 5.31352 22.7283 11.25C22.7283 17.1865 17.9083 22 11.9736 22C6.03957 22 1.22827 17.187 1.22827 11.25C1.22827 5.31299 6.03957 0.5 11.9736 0.5Z M13.7502 16.5152C13.7502 17.4713 12.9711 18.25 12.0002 18.25C11.0311 18.25 10.2502 17.471 10.2502 16.5152C10.2502 15.9037 10.5625 15.1399 11.023 14.345C11.334 13.8083 11.688 13.2971 12.0056 12.8525C12.3149 13.2824 12.6636 13.789 12.9705 14.3216C13.4332 15.1246 13.7502 15.9034 13.7502 16.5152Z" stroke="red"/>
</svg>