<svg width="34" height="34" viewBox="0 0 34 34" fill="none" xmlns="http://www.w3.org/2000/svg">
<path d="M29.1875 26L33.5 26L33.5 28.1875L29.1875 28.1875L29.1875 26Z M29.1875 30.25L33.5 30.25L33.5 32.4375L29.1875 32.4375L29.1875 30.25Z M0.5 26L4.8125 26L4.8125 28.1875L0.5 28.1875L0.5 26Z M0.5 30.25L4.8125 30.25L4.8125 32.4375L0.5 32.4375L0.5 30.25Z M19.125 15.9375L14.875 21.25H19.125L14.875 26.5625 M9.27539 7.9375H24.7392C24.7848 7.9375 24.842 7.95758 24.8978 8.02325C24.955 8.09049 25 8.1965 25 8.32571V11.8618C25 12.161 24.82 12.25 24.7392 12.25H9.27539C9.18319 12.25 9 12.1479 9 11.8618V8.32571C9 8.0499 9.18889 7.9375 9.27539 7.9375Z M14.3125 8.32571C14.3125 8.17054 14.3289 8.03654 14.3511 7.9375H19.6506C19.6719 8.03687 19.6875 8.17066 19.6875 8.32571V11.8618C19.6875 12.0205 19.6725 12.1529 19.6522 12.25H14.3495C14.3284 12.1533 14.3125 12.0207 14.3125 11.8618V8.32571Z M29.2189 33V25.1952C26.0349 29.3376 21.7099 31.3036 16.9618 31.3036C12.2574 31.3036 7.71108 29.1723 4.71887 25.2365V33C4.71887 33.2761 4.94273 33.5 5.21887 33.5H28.7189C28.995 33.5 29.2189 33.2761 29.2189 33Z M16.9623 0.5C25.4846 0.5 32.4064 7.41229 32.4064 15.9375C32.4064 24.4627 25.4846 31.375 16.9623 31.375C8.44058 31.375 1.53137 24.4632 1.53137 15.9375C1.53137 7.41175 8.44058 0.5 16.9623 0.5Z" stroke="red"/>
</svg>