<svg width="32" height="32" viewBox="0 0 32 32" fill="none" xmlns="http://www.w3.org/2000/svg">
<g clip-path="url(#clip0)">
<path fill-rule="evenodd" clip-rule="evenodd" d="M27.0458 5.02081H4.95419C2.22244 5.02081 0 7.24325 0 9.975V22.025C0 24.7568 2.22244 26.9792 4.95419 26.9792H27.0459C29.7776 26.9792 32.0001 24.7568 32.0001 22.025V9.975C32 7.24325 29.7776 5.02081 27.0458 5.02081ZM30.125 22.025C30.125 23.7229 28.7437 25.1042 27.0458 25.1042H4.95419C3.25631 25.1042 1.875 23.7228 1.875 22.025V9.975C1.875 8.27713 3.25631 6.89581 4.95419 6.89581H27.0459C28.7438 6.89581 30.1251 8.27713 30.1251 9.975V22.025H30.125ZM23.0292 12.9209H25.5396C26.0574 12.9209 26.4771 12.5011 26.4771 11.9834C26.4771 11.4656 26.0574 11.0459 25.5396 11.0459H23.0292C22.5114 11.0459 22.0917 11.4656 22.0917 11.9834C22.0917 12.5011 22.5114 12.9209 23.0292 12.9209ZM23.0291 19.0791H25.5396C26.0573 19.0791 26.4771 19.4989 26.4771 20.0166C26.4771 20.5344 26.0573 20.9541 25.5396 20.9541H23.0291C22.5114 20.9541 22.0916 20.5344 22.0916 20.0166C22.0916 19.4989 22.5114 19.0791 23.0291 19.0791ZM27.0458 15.0625H21.5229C21.0051 15.0625 20.5854 15.4823 20.5854 16C20.5854 16.5177 21.0051 16.9375 21.5229 16.9375H27.0458C27.5636 16.9375 27.9833 16.5177 27.9833 16C27.9833 15.4823 27.5636 15.0625 27.0458 15.0625ZM4.95416 9.03741H18.0083C18.526 9.03741 18.9458 9.45716 18.9459 9.97491V22.0249C18.9459 22.5427 18.5261 22.9624 18.0084 22.9624H4.95416C4.43641 22.9624 4.01666 22.5427 4.01666 22.0249V9.97491C4.01666 9.45716 4.43641 9.03741 4.95416 9.03741ZM9.90835 21.0874H13.0542H13.0542V20.5187C13.0542 19.6487 12.3506 18.9457 11.4813 18.9457C10.6114 18.9457 9.90835 19.6494 9.90835 20.5187V21.0874ZM11.4812 14.9291C10.8908 14.9291 10.4104 15.4095 10.4104 15.9999C10.4104 16.5904 10.8908 17.0707 11.4812 17.0707C12.0717 17.0707 12.552 16.5904 12.552 15.9999C12.552 15.4095 12.0717 14.9291 11.4812 14.9291ZM14.9291 21.0874H17.0708H17.0709V10.9124H5.89166V21.0874H8.03335V20.5187C8.03335 18.9362 9.05406 18.0593 9.22877 17.9092C9.23119 17.9071 9.23345 17.9052 9.23554 17.9034C8.79935 17.3895 8.53541 16.7251 8.53541 15.9999C8.53541 14.3756 9.85691 13.0542 11.4812 13.0542C13.1055 13.0542 14.427 14.3757 14.427 16C14.427 16.7252 14.1631 17.3895 13.7269 17.9034C13.729 17.9051 13.7312 17.907 13.7336 17.9091C13.9076 18.0585 14.9291 18.9358 14.9291 20.5187V21.0874Z" fill="black"/>
</g>
<defs>
<clipPath id="clip0">
<rect width="32" height="32" fill="white"/>
</clipPath>
</defs>
</svg>
