<svg version="1.1" xmlns="http://www.w3.org/2000/svg" xmlns:xlink="http://www.w3.org/1999/xlink" fill="none" viewBox="0 0 34 34" width="34" height="34">

<path d="M22.2672 2.39783C22.441 2.54974 22.5408 2.76934 22.5408 3.0002C22.5408 6.48425 25.4861 9.35576 29 9.35576C29.6424 9.35576 30.179 9.26516 30.7174 9.0857C30.9288 9.01523 31.16 9.03613 31.3554 9.14336C31.5507 9.25059 31.6925 9.43443 31.7465 9.65062C31.8745 10.1625 31.8742 10.7637 31.8741 11.1542L31.8741 11.1928C31.8741 12.7888 31.4387 14.2006 30.8117 15.4208C32.097 16.5979 32.9111 18.2926 32.9111 20.215C32.9111 23.7584 30.0735 26.7187 26.4074 26.7187H23.8148C23.3729 26.7187 23.0148 26.3606 23.0148 25.9187C23.0148 25.4769 23.3729 25.1187 23.8148 25.1187H26.4074C29.1709 25.1187 31.3111 22.8938 31.3111 20.215C31.3111 17.4515 29.0862 15.3113 26.4074 15.3113C25.4541 15.3113 24.4651 15.6615 23.6363 16.214C23.4288 16.3523 23.1688 16.386 22.9329 16.3051C22.6971 16.2241 22.5124 16.0379 22.4336 15.8013C21.5037 13.0116 18.9019 11.0595 15.8296 11.0595C13.0308 11.0595 10.5265 12.7421 9.5145 15.1341C9.4284 15.3377 9.26196 15.4965 9.05464 15.573C8.84733 15.6495 8.61761 15.6368 8.41996 15.538C7.95163 15.3038 7.36426 15.2076 6.70365 15.2076C3.94013 15.2076 1.79995 17.4325 1.79995 20.1113C1.79995 22.8749 4.02485 25.015 6.70365 25.015H9.29625C9.73808 25.015 10.0962 25.3732 10.0962 25.815C10.0962 26.2569 9.73808 26.615 9.29625 26.615H6.70365C3.16023 26.615 0.199951 23.7774 0.199951 20.1113C0.199951 16.5679 3.03756 13.6076 6.70365 13.6076C7.24418 13.6076 7.81889 13.6595 8.37625 13.8161C9.48236 11.7864 11.4588 10.2852 13.7602 9.71305C14.4851 5.83666 17.5826 2.75484 21.6336 2.20741C21.8624 2.17649 22.0934 2.24591 22.2672 2.39783ZM15.4537 9.46772C15.5785 9.46224 15.7038 9.45947 15.8296 9.45947C19.263 9.45947 22.227 11.4506 23.5944 14.3965C24.4524 13.9763 25.42 13.7113 26.4074 13.7113C27.5167 13.7113 28.5689 13.9895 29.491 14.4841C29.9676 13.4968 30.2741 12.4017 30.2741 11.1928C30.2741 11.0751 30.2738 10.9594 30.2718 10.8474C29.8678 10.9197 29.4496 10.9558 29 10.9558C24.9537 10.9558 21.4875 7.90186 20.9995 3.95594C18.2535 4.64411 16.1566 6.77936 15.4537 9.46772Z M18.0042 19.9437C18.3831 20.171 18.5059 20.6624 18.2786 21.0413L15.8945 25.0149H18.6297C18.9179 25.0149 19.1838 25.1699 19.3258 25.4207C19.4678 25.6715 19.4639 25.9793 19.3157 26.2265L16.2045 31.4117C15.9772 31.7905 15.4858 31.9134 15.107 31.6861C14.7281 31.4588 14.6052 30.9674 14.8326 30.5885L17.2167 26.6149H14.4815C14.1933 26.6149 13.9274 26.4599 13.7854 26.2091C13.6434 25.9582 13.6472 25.6504 13.7955 25.4033L16.9066 20.2181C17.134 19.8393 17.6254 19.7164 18.0042 19.9437Z" fill="yellow"></path></svg>