<svg width="32" height="32" viewBox="0 0 32 32" fill="none" xmlns="http://www.w3.org/2000/svg">
<path fill-rule="evenodd" clip-rule="evenodd" d="M1.88518 16C1.88518 20.0081 3.59887 23.8417 6.58676 26.5177C6.97454 26.8651 7.00734 27.461 6.66003 27.8487C6.47384 28.0566 6.2162 28.1625 5.95755 28.1625C5.73365 28.1625 5.50894 28.0832 5.32903 27.9221C1.94236 24.8888 0 20.5434 0 16C0 11.4566 1.94236 7.11119 5.32909 4.07793C5.71681 3.73068 6.31272 3.76348 6.66009 4.15126C7.00734 4.53905 6.97454 5.13495 6.58676 5.48226C3.59887 8.15828 1.88518 11.9919 1.88518 16ZM30.6412 9.49631C29.7705 7.52617 28.5299 5.77635 26.9538 4.29548C26.5743 3.93899 25.9778 3.95753 25.6214 4.33701C25.2649 4.71637 25.2835 5.31291 25.6629 5.6694C27.054 6.97645 28.1489 8.52048 28.9169 10.2584C29.7117 12.0569 30.1148 13.9745 30.1148 15.9581C30.1148 17.9619 29.7037 19.8975 28.8932 21.7112C28.1098 23.464 26.9946 25.0164 25.5784 26.3255C25.1961 26.6789 25.1727 27.2752 25.526 27.6575C25.7119 27.8585 25.9647 27.9603 26.2185 27.9603C26.4473 27.9603 26.6768 27.8775 26.8581 27.7099C28.4625 26.2267 29.7262 24.4674 30.6142 22.4805C31.5337 20.4233 31.9999 18.2288 31.9999 15.9581C32 13.7104 31.5428 11.5363 30.6412 9.49631ZM5.72283 15.9897C5.72283 18.9713 7.01606 21.8027 9.27093 23.7578C9.66424 24.0989 9.70665 24.6942 9.36556 25.0875C9.17924 25.3024 8.91683 25.4125 8.65303 25.4125C8.43416 25.4125 8.21428 25.3368 8.03594 25.1821C5.36785 22.8687 3.83765 19.5182 3.83765 15.9897C3.83765 12.4741 5.35855 9.13162 8.01043 6.81945C8.40286 6.47729 8.99827 6.51807 9.34036 6.91044C9.68246 7.30287 9.64174 7.89827 9.24937 8.24037C7.00821 10.1945 5.72283 13.0191 5.72283 15.9897ZM27.1364 11.0331C26.479 9.53989 25.542 8.21235 24.3513 7.0874C23.973 6.7299 23.3764 6.74681 23.0188 7.12516C22.6613 7.50352 22.6782 8.10012 23.0567 8.45767C25.1334 10.42 26.2772 13.0734 26.2772 15.9293C26.2772 18.8154 25.0524 21.5859 22.917 23.5304C22.5321 23.8809 22.5042 24.477 22.8546 24.8619C23.0406 25.0662 23.2958 25.1699 23.5518 25.1699C23.7783 25.1699 24.0055 25.0887 24.1862 24.9243C26.7131 22.6234 28.1623 19.3448 28.1623 15.9293C28.1624 14.2268 27.8172 12.5796 27.1364 11.0331ZM9.70171 15.9317C9.70171 17.8925 10.5915 19.7074 12.1428 20.9112C12.5541 21.2303 12.6288 21.8225 12.3098 22.2337C12.124 22.4731 11.8457 22.5985 11.5644 22.5985C11.3625 22.5985 11.1591 22.5339 10.9872 22.4006C8.97221 20.8371 7.81653 18.4793 7.81653 15.9317C7.81653 13.4805 8.90183 11.1789 10.7941 9.61724C11.1957 9.28589 11.7898 9.34276 12.1211 9.74424C12.4524 10.1458 12.3956 10.7399 11.9941 11.0712C10.5372 12.2735 9.70171 14.0451 9.70171 15.9317ZM21.2059 9.6855C20.8044 9.35409 20.2102 9.41102 19.879 9.8125C19.5476 10.214 19.6045 10.8081 20.006 11.1395C21.4628 12.3418 22.2983 14.1134 22.2983 15.9999C22.2983 17.8865 21.4628 19.6581 20.006 20.8604C19.6045 21.1917 19.5476 21.7858 19.879 22.1873C20.0653 22.4132 20.3349 22.53 20.6064 22.53C20.8177 22.53 21.0302 22.4593 21.2059 22.3143C23.0983 20.7527 24.1836 18.4511 24.1836 15.9999C24.1836 13.5487 23.0983 11.2472 21.2059 9.6855ZM16 11.8573C13.7157 11.8573 11.8573 13.7157 11.8573 16C11.8573 18.2844 13.7157 20.1428 16 20.1428C18.2844 20.1428 20.1428 18.2844 20.1428 16C20.1428 13.7157 18.2843 11.8573 16 11.8573ZM16 18.2576C14.7552 18.2576 13.7425 17.2448 13.7425 16C13.7425 14.7553 14.7553 13.7425 16 13.7425C17.2448 13.7425 18.2576 14.7553 18.2576 16C18.2576 17.2448 17.2448 18.2576 16 18.2576Z" fill="black"/>
</svg>
