<svg width="34" height="34" viewBox="0 0 34 34" xmlns="http://www.w3.org/2000/svg">
<path d="M16.9376 12.1821C14.9265 12.1821 13.0358 12.9656 11.6137 14.3873C10.1916 15.8089 9.40857 17.6996 9.40857 19.7112C9.40857 21.7228 10.192 23.613 11.6137 25.0351C13.0354 26.4572 14.926 27.2402 16.9376 27.2402C18.9492 27.2402 20.8394 26.4568 22.2616 25.0351C23.6837 23.6134 24.4667 21.7228 24.4667 19.7112C24.4667 17.6996 23.6832 15.8094 22.2616 14.3873C20.8399 12.9652 18.9488 12.1821 16.9376 12.1821ZM21.6349 24.4084C20.3802 25.6631 18.7118 26.3545 16.9376 26.3545C15.1634 26.3545 13.4951 25.6631 12.2404 24.4084C10.9857 23.1537 10.2943 21.4854 10.2943 19.7112C10.2943 17.937 10.9857 16.2686 12.2404 15.0139C13.4951 13.7592 15.1634 13.0679 16.9376 13.0679C18.5635 13.0679 20.0958 13.6538 21.3067 14.7159L16.6245 19.3981C16.4513 19.5712 16.4513 19.8511 16.6245 20.0243C16.7109 20.1107 16.8242 20.1541 16.9376 20.1541C17.051 20.1541 17.1644 20.1107 17.2507 20.0243L21.9329 15.3421C22.995 16.553 23.5809 18.0854 23.5809 19.7112C23.5809 21.4858 22.8896 23.1537 21.6349 24.4084Z M27.787 9.32275C27.6138 9.14958 27.3339 9.14958 27.1608 9.32275L25.2816 11.2019C25.1084 11.3751 25.1084 11.655 25.2816 11.8282C25.368 11.9145 25.4814 11.9579 25.5947 11.9579C25.7081 11.9579 25.8215 11.9145 25.9079 11.8282L27.787 9.94899C27.9602 9.77582 27.9602 9.49592 27.787 9.32275Z M6.83925 9.32275C6.66608 9.14958 6.38617 9.14958 6.21301 9.32275C6.03984 9.49592 6.03984 9.77582 6.21301 9.94899L8.09217 11.8282C8.17853 11.9145 8.29191 11.9579 8.40529 11.9579C8.51867 11.9579 8.63205 11.9145 8.71841 11.8282C8.89158 11.655 8.89158 11.3751 8.71841 11.2019L6.83925 9.32275Z M20.1469 8.61858C20.1855 8.62876 20.224 8.63363 20.2621 8.63363C20.4574 8.63363 20.6368 8.50298 20.6895 8.30546L21.3768 5.73849C21.4402 5.50243 21.2998 5.25929 21.0637 5.19596C20.8285 5.13307 20.5845 5.27302 20.5212 5.50908L19.8334 8.07604C19.7705 8.31254 19.9109 8.55569 20.1469 8.61858Z M13.1855 8.30539C13.2382 8.50336 13.4171 8.63357 13.6128 8.63357C13.6509 8.63357 13.6895 8.6287 13.728 8.61851C13.964 8.55518 14.1044 8.31248 14.0411 8.07598L13.3533 5.50901C13.29 5.27251 13.0473 5.13256 12.8108 5.19589C12.5743 5.25923 12.4343 5.50193 12.4977 5.73843L13.1855 8.30539Z M31.152 0.533447H2.24808C1.02766 0.533447 0 1.54682 0 2.75011V31.2501C0 32.4535 1.02773 33.4668 2.24808 33.4668H31.152C32.3724 33.4668 33.4001 32.4534 33.4001 31.2501V2.75011C33.4001 1.54674 32.3723 0.533447 31.152 0.533447ZM32.1154 31.2501C32.1154 31.7568 31.6659 32.2001 31.152 32.2001H2.24808C1.73421 32.2001 1.28463 31.7568 1.28463 31.2501V2.75011C1.28463 2.24342 1.73421 1.80012 2.24808 1.80012H31.152C31.6659 1.80012 32.1154 2.24342 32.1154 2.75011V31.2501Z" fill="red"/>
</svg>