<svg width="32" height="32" viewBox="0 0 32 32" fill="none" xmlns="http://www.w3.org/2000/svg">
<path fill-rule="evenodd" clip-rule="evenodd" d="M7.62392 26.8289C10.2237 28.8805 13.4383 29.9973 16.75 29.9998C19.4722 30.0067 22.1427 29.2566 24.4631 27.8333C26.7835 26.41 28.6625 24.3695 29.89 21.9398C29.9829 21.7523 30.0147 21.5404 29.9808 21.3339C29.9469 21.1274 29.8491 20.9367 29.7011 20.7888C29.5531 20.6408 29.3625 20.543 29.156 20.5091C28.9495 20.4752 28.7376 20.5069 28.55 20.5998C26.1508 21.823 23.4259 22.255 20.766 21.8341C18.106 21.4131 15.6477 20.1607 13.7434 18.2564C11.8392 16.3522 10.5868 13.8938 10.1658 11.2339C9.7448 8.57396 10.1769 5.84904 11.4 3.44981C11.4929 3.2623 11.5247 3.05037 11.4908 2.84388C11.4569 2.63738 11.3591 2.44672 11.2111 2.29875C11.0631 2.15079 10.8725 2.05296 10.666 2.01907C10.4595 1.98517 10.2476 2.01691 10.06 2.10981C7.10978 3.61434 4.75168 6.06796 3.36541 9.07561C1.97915 12.0833 1.64539 15.4699 2.41787 18.6903C3.19034 21.9107 5.02411 24.7774 7.62392 26.8289ZM5.33825 9.66628C6.09376 8.08572 7.16663 6.67766 8.49004 5.52981C8.17248 6.74117 8.00787 7.98753 8.00004 9.23981C8.00004 11.1803 8.38241 13.1017 9.1253 14.8944C9.86819 16.687 10.957 18.3157 12.3296 19.6873C13.7022 21.059 15.3316 22.1467 17.1247 22.8884C18.9179 23.6301 20.8396 24.0111 22.78 24.0098C24.0319 24.0052 25.2783 23.844 26.49 23.5298C25.3422 24.8532 23.9341 25.9261 22.3536 26.6816C20.773 27.4371 19.0538 27.8591 17.3031 27.9212C15.5523 27.9833 13.8075 27.6842 12.1774 27.0426C10.5473 26.401 9.06673 25.4306 7.82799 24.1919C6.58924 22.9531 5.61885 21.4726 4.97724 19.8424C4.33564 18.2123 4.03658 16.4675 4.09869 14.7168C4.1608 12.966 4.58275 11.2468 5.33825 9.66628ZM27 10H24C23.8143 10 23.6322 9.94829 23.4743 9.85065C23.3163 9.75302 23.1886 9.61332 23.1056 9.44721C23.0225 9.28111 22.9874 9.09516 23.004 8.91019C23.0207 8.72523 23.0886 8.54857 23.2 8.4L25 6H24C23.7348 6 23.4804 5.89464 23.2929 5.70711C23.1054 5.51957 23 5.26522 23 5C23 4.73478 23.1054 4.48043 23.2929 4.29289C23.4804 4.10536 23.7348 4 24 4H27C27.1857 4 27.3678 4.05171 27.5257 4.14935C27.6837 4.24698 27.8114 4.38668 27.8944 4.55279C27.9775 4.71889 28.0126 4.90484 27.996 5.08981C27.9793 5.27477 27.9114 5.45143 27.8 5.6L26 8H27C27.2652 8 27.5196 8.10536 27.7071 8.29289C27.8947 8.48043 28 8.73478 28 9C28 9.26522 27.8947 9.51957 27.7071 9.70711C27.5196 9.89464 27.2652 10 27 10ZM17 17H20C20.2652 17 20.5196 16.8946 20.7071 16.7071C20.8946 16.5196 21 16.2652 21 16C21 15.7348 20.8946 15.4804 20.7071 15.2929C20.5196 15.1054 20.2652 15 20 15H19L20.8 12.6C20.9114 12.4514 20.9793 12.2748 20.996 12.0898C21.0126 11.9048 20.9775 11.7189 20.8944 11.5528C20.8114 11.3867 20.6837 11.247 20.5257 11.1493C20.3678 11.0517 20.1857 11 20 11H17C16.7348 11 16.4804 11.1054 16.2929 11.2929C16.1054 11.4804 16 11.7348 16 12C16 12.2652 16.1054 12.5196 16.2929 12.7071C16.4804 12.8946 16.7348 13 17 13H18L16.2 15.45C16.0982 15.594 16.0362 15.7623 16.0204 15.9379C16.0046 16.1135 16.0355 16.2902 16.11 16.45C16.1931 16.6149 16.3202 16.7536 16.4773 16.8507C16.6344 16.9478 16.8153 16.9994 17 17Z" fill="black"/>
</svg>
