<svg width="32" height="32" viewBox="0 0 32 32" fill="none" xmlns="http://www.w3.org/2000/svg">
<path fill-rule="evenodd" clip-rule="evenodd" d="M31.0625 2.12199H10.9816C10.2084 0.851051 8.81 0.000488283 7.21675 0.000488283H4.40344C1.97538 0.000425784 0 1.97586 0 4.40386V27.5962C0 30.0242 1.97538 31.9996 4.40344 31.9996H7.21675C8.81 31.9996 10.2084 31.149 10.9816 29.8781H31.0625C31.5802 29.8781 32 29.4584 32 28.9406V3.05949C32 2.54174 31.5802 2.12199 31.0625 2.12199ZM9.74519 27.5962C9.74519 28.9904 8.61094 30.1247 7.21675 30.1247H4.40344C3.00925 30.1247 1.875 28.9904 1.875 27.5962V4.40386C1.875 3.00967 3.00925 1.87543 4.40344 1.87543H7.21675C8.61094 1.87543 9.74519 3.00967 9.74519 4.40386V27.5962ZM30.125 28.0031H11.6202V3.99699H30.125V28.0031ZM14.6846 18.6727H27.1085C27.6262 18.6727 28.046 18.253 28.046 17.7352V7.14148C28.046 6.62373 27.6262 6.20398 27.1085 6.20398H14.6846C14.1668 6.20398 13.7471 6.62373 13.7471 7.14148V17.7352C13.7471 18.253 14.1668 18.6727 14.6846 18.6727ZM18.4244 16.7977C18.7316 16.0097 19.4987 15.4498 20.3941 15.4498H21.4181C22.3135 15.4498 23.0806 16.0097 23.3877 16.7977H18.4244ZM20.9783 13.5748H20.8338C20.2002 13.5371 19.6959 13.0112 19.6959 12.3684C19.6959 11.7011 20.2388 11.1583 20.906 11.1583C21.5732 11.1583 22.1161 11.7012 22.1161 12.3684C22.1161 13.0112 21.6119 13.5371 20.9783 13.5748ZM15.6222 8.07898H26.171V16.7977H25.3316C25.1099 15.6615 24.4044 14.6968 23.4389 14.1267C23.7866 13.6275 23.9912 13.0215 23.9912 12.3684C23.9912 10.6672 22.6072 9.28329 20.9061 9.28329C19.2051 9.28329 17.8211 10.6673 17.8211 12.3684C17.8211 13.0215 18.0257 13.6275 18.3734 14.1267C17.4079 14.6968 16.7024 15.6615 16.4807 16.7977H15.6222V8.07898ZM15.6221 21.3375C15.6221 21.8553 15.2023 22.275 14.6846 22.275C14.1668 22.275 13.7471 21.8553 13.7471 21.3375C13.7471 20.8198 14.1668 20.4 14.6846 20.4C15.2023 20.4 15.6221 20.8198 15.6221 21.3375ZM18.4695 22.275C18.9872 22.275 19.407 21.8553 19.407 21.3375C19.407 20.8198 18.9872 20.4 18.4695 20.4C17.9517 20.4 17.532 20.8198 17.532 21.3375C17.532 21.8553 17.9517 22.275 18.4695 22.275ZM14.6846 24.0599H26.3954C26.9131 24.0599 27.3329 24.4797 27.3329 24.9974C27.3329 25.5152 26.9132 25.9349 26.3954 25.9349H14.6846C14.1668 25.9349 13.7471 25.5152 13.7471 24.9974C13.7471 24.4797 14.1668 24.0599 14.6846 24.0599Z" fill="black"/>
</svg>
