<svg width="32" height="32" viewBox="0 0 32 32" fill="none" xmlns="http://www.w3.org/2000/svg">
<g clip-path="url(#clip0)">
<path d="M31.7072 5.94769L31.3015 5.54201L31.6346 5.20894C31.8221 5.02141 31.9275 4.76706 31.9275 4.50185C31.9275 4.23664 31.8221 3.98229 31.6346 3.79476L28.1688 0.329257C27.9813 0.141729 27.7269 0.036377 27.4617 0.036377C27.1965 0.036377 26.9422 0.141729 26.7546 0.329257L22.0434 5.04076C21.8577 5.22652 21.7526 5.47791 21.7508 5.74056C21.749 6.00322 21.8506 6.25603 22.0338 6.44432L18.1067 10.3714C17.1053 9.95415 16.0152 9.79501 14.9363 9.90857C13.8574 10.0221 12.8243 10.4047 11.9317 11.0213C11.0391 11.6379 10.3156 12.4687 9.82754 13.4376C9.33947 14.4064 9.10247 15.4823 9.13826 16.5666C7.51188 16.2733 5.83435 16.5071 4.35006 17.2337C2.86578 17.9604 1.65229 19.142 0.88638 20.6064C0.12047 22.0708 -0.157844 23.7415 0.0919842 25.3751C0.341813 27.0087 1.10673 28.5199 2.2753 29.6885C3.44387 30.857 4.95504 31.622 6.58866 31.8718C8.22228 32.1216 9.89299 31.8433 11.3574 31.0774C12.8218 30.3115 14.0034 29.098 14.7301 27.6137C15.4567 26.1294 15.6904 24.4519 15.3972 22.8255C15.4712 22.8281 15.5453 22.8294 15.6193 22.8294C16.6867 22.8272 17.7371 22.5615 18.6773 22.056C19.6175 21.5505 20.4184 20.8208 21.0089 19.9315C21.5994 19.0423 21.9614 18.0211 22.0626 16.9584C22.1638 15.8958 22.0012 14.8246 21.5892 13.8398L25.5087 9.92032C25.6962 10.1078 25.9506 10.2132 26.2158 10.2132C26.481 10.2132 26.7354 10.1078 26.9229 9.92032L27.2563 9.58757L27.662 9.99326C27.8499 10.1789 28.1036 10.2827 28.3678 10.2819C28.632 10.2811 28.8851 10.1758 29.0719 9.98898C29.2587 9.80219 29.3639 9.54907 29.3647 9.28491C29.3655 9.02074 29.2618 8.76699 29.0761 8.57907L28.6705 8.17344L29.8876 6.95632L30.2932 7.36201C30.3861 7.45487 30.4963 7.52853 30.6176 7.57879C30.7389 7.62905 30.869 7.65491 31.0003 7.65492C31.1316 7.65492 31.2617 7.62906 31.383 7.5788C31.5043 7.52855 31.6146 7.4549 31.7074 7.36204C31.8003 7.26918 31.8739 7.15894 31.9242 7.03762C31.9745 6.91629 32.0003 6.78626 32.0003 6.65494C32.0003 6.52361 31.9745 6.39358 31.9242 6.27225C31.874 6.15092 31.8003 6.04068 31.7075 5.94782L31.7072 5.94769ZM27.462 2.45057L29.5132 4.50188L26.216 7.79913L24.1647 5.74788L27.462 2.45057ZM18.7802 19.5156C18.2038 20.0936 17.4801 20.5027 16.6876 20.6985C15.8952 20.8943 15.0642 20.8694 14.285 20.6263C14.1031 20.5699 13.9089 20.5666 13.7252 20.6168C13.5415 20.667 13.376 20.7686 13.2481 20.9097C13.1201 21.0507 13.0352 21.2254 13.0031 21.4131C12.971 21.6008 12.9932 21.7937 13.0671 21.9693C13.588 23.2028 13.6639 24.5791 13.2819 25.8624C12.8998 27.1458 12.0835 28.2564 10.9727 29.0042C9.86191 29.752 8.52573 30.0904 7.19292 29.9614C5.86011 29.8325 4.61357 29.2443 3.66671 28.2974C2.71985 27.3506 2.13157 26.1041 2.00259 24.7713C1.8736 23.4385 2.21193 22.1023 2.95965 20.9915C3.70737 19.8807 4.81797 19.0643 6.10132 18.6822C7.38467 18.3001 8.76095 18.3759 9.99451 18.8968C10.17 18.9707 10.363 18.9929 10.5507 18.9609C10.7385 18.9288 10.9131 18.8438 11.0542 18.7159C11.1953 18.588 11.2969 18.4224 11.3471 18.2387C11.3973 18.055 11.394 17.8608 11.3376 17.6789C11.1019 16.9211 11.0718 16.1142 11.2505 15.3409C11.4291 14.5677 11.8101 13.8558 12.3543 13.2781C12.8985 12.7005 13.5864 12.2779 14.3477 12.0535C15.1089 11.8291 15.9162 11.8111 16.6867 12.0012C17.4572 12.1914 18.1633 12.5829 18.7328 13.1356C19.3023 13.6884 19.7146 14.3826 19.9276 15.1471C20.1406 15.9116 20.1466 16.719 19.945 17.4866C19.7434 18.2542 19.3414 18.9544 18.7803 19.5156H18.7802ZM20.5018 12.0989C20.4035 11.9864 20.3011 11.8766 20.1945 11.7694C20.0839 11.6589 19.9703 11.5533 19.8538 11.4526L23.4476 7.85888L24.0945 8.50632L20.5018 12.0989ZM16.508 15.4559C16.6955 15.6435 16.8009 15.8978 16.8009 16.163C16.8009 16.4282 16.6955 16.6826 16.508 16.8701L16.0268 17.3514C15.8389 17.5371 15.5852 17.6409 15.321 17.6402C15.0568 17.6395 14.8037 17.5342 14.6168 17.3475C14.43 17.1607 14.3246 16.9076 14.3238 16.6435C14.3229 16.3793 14.4266 16.1255 14.6122 15.9376L15.0935 15.4563C15.1863 15.3634 15.2965 15.2897 15.4178 15.2394C15.5392 15.1891 15.6692 15.1632 15.8005 15.1632C15.9319 15.1632 16.0619 15.189 16.1833 15.2392C16.3046 15.2895 16.4149 15.3631 16.5078 15.4559H16.508ZM3.01258 12.7974C3.7392 12.7966 4.43583 12.5075 4.94962 11.9937C5.46341 11.4799 5.75241 10.7833 5.7532 10.0566V6.02913L5.94176 6.14457C6.16789 6.27998 6.43832 6.32064 6.69427 6.25771C6.95021 6.19478 7.17096 6.03335 7.30852 5.80853C7.44607 5.5837 7.48931 5.31366 7.42882 5.05713C7.36833 4.8006 7.20902 4.57832 6.98551 4.43863L5.27508 3.39182C5.1235 3.29909 4.94995 3.24842 4.77229 3.24502C4.59463 3.24163 4.41928 3.28564 4.26427 3.37252C4.10926 3.4594 3.98021 3.58601 3.89038 3.73933C3.80056 3.89264 3.7532 4.06713 3.7532 4.24482V7.41838C3.37627 7.3125 2.98103 7.28861 2.59409 7.34831C2.20714 7.40802 1.83749 7.54995 1.51001 7.76453C1.18253 7.97911 0.904825 8.26137 0.695601 8.5923C0.486377 8.92322 0.350488 9.29514 0.297084 9.683C0.24368 10.0709 0.274001 10.4657 0.386005 10.8408C0.49801 11.216 0.689097 11.5628 0.9464 11.8579C1.2037 12.153 1.52125 12.3895 1.87766 12.5516C2.23406 12.7136 2.62105 12.7975 3.01258 12.7974ZM3.01258 9.31613C3.15908 9.31614 3.30229 9.3596 3.4241 9.441C3.5459 9.5224 3.64084 9.6381 3.69689 9.77345C3.75295 9.90881 3.76761 10.0577 3.73902 10.2014C3.71043 10.3451 3.63988 10.4771 3.53628 10.5807C3.43268 10.6843 3.30069 10.7548 3.157 10.7834C3.01331 10.812 2.86438 10.7973 2.72903 10.7412C2.59368 10.6852 2.47799 10.5902 2.3966 10.4684C2.31521 10.3466 2.27176 10.2034 2.27176 10.0569C2.27193 9.86044 2.35003 9.67209 2.48891 9.53316C2.6278 9.39424 2.81613 9.3161 3.01258 9.31588V9.31613ZM10.1933 10.4013C10.92 10.4005 11.6167 10.1115 12.1305 9.59767C12.6443 9.08384 12.9333 8.38717 12.9341 7.66051V3.63301L13.1227 3.74844C13.3488 3.88385 13.6193 3.92451 13.8752 3.86158C14.1311 3.79865 14.3519 3.63723 14.4895 3.4124C14.627 3.18758 14.6702 2.91754 14.6098 2.66101C14.5493 2.40448 14.39 2.1822 14.1665 2.04251L12.4563 0.995757C12.3048 0.902994 12.1312 0.852298 11.9535 0.848887C11.7758 0.845475 11.6005 0.889472 11.4455 0.976348C11.2904 1.06322 11.1614 1.18984 11.0715 1.34317C10.9817 1.49649 10.9343 1.67099 10.9343 1.84869V5.02232C10.5574 4.91644 10.1622 4.89254 9.77523 4.95225C9.38829 5.01195 9.01864 5.15387 8.69116 5.36845C8.36368 5.58302 8.08598 5.86527 7.87675 6.19619C7.66752 6.52711 7.53163 6.89902 7.47822 7.28688C7.42481 7.67473 7.45512 8.06953 7.56711 8.44469C7.6791 8.81984 7.87017 9.16665 8.12746 9.46175C8.38475 9.75686 8.70229 9.99341 9.05868 10.1555C9.41508 10.3176 9.80206 10.4014 10.1936 10.4013H10.1933ZM10.1933 6.92007C10.3398 6.92006 10.4831 6.9635 10.6049 7.04489C10.7268 7.12629 10.8217 7.24199 10.8778 7.37736C10.9339 7.51272 10.9486 7.66168 10.92 7.80539C10.8914 7.9491 10.8208 8.08111 10.7172 8.18472C10.6136 8.28832 10.4816 8.35888 10.3379 8.38746C10.1942 8.41605 10.0452 8.40137 9.90986 8.34529C9.77449 8.28921 9.6588 8.19425 9.5774 8.07242C9.496 7.95058 9.45256 7.80734 9.45258 7.66082C9.45272 7.46438 9.53081 7.27602 9.66968 7.13708C9.80856 6.99815 9.99688 6.91999 10.1933 6.91976V6.92007ZM7.78608 20.4014C7.16504 20.4014 6.55358 20.5545 6.00587 20.8473C5.45816 21.14 4.9911 21.5633 4.64607 22.0797C4.30103 22.596 4.08867 23.1895 4.02779 23.8076C3.96691 24.4256 4.0594 25.0491 4.29705 25.6229C4.53471 26.1967 4.91021 26.703 5.39027 27.0969C5.87034 27.4909 6.44016 27.7604 7.04927 27.8816C7.65837 28.0027 8.28795 27.9718 8.88225 27.7915C9.47654 27.6112 10.0172 27.2872 10.4563 26.848C10.9844 26.3199 11.3441 25.647 11.4898 24.9144C11.6355 24.1819 11.5607 23.4226 11.2749 22.7326C10.9891 22.0426 10.505 21.4528 9.88403 21.0378C9.26301 20.6229 8.5329 20.4014 7.78601 20.4014H7.78608ZM9.04233 25.4338C8.75173 25.7244 8.36937 25.9052 7.9604 25.9455C7.55143 25.9858 7.14115 25.883 6.79946 25.6547C6.45776 25.4264 6.2058 25.0866 6.08651 24.6934C5.96721 24.3001 5.98795 23.8777 6.14521 23.498C6.30246 23.1183 6.58649 22.8049 6.94891 22.6112C7.31132 22.4175 7.7297 22.3554 8.13276 22.4355C8.53582 22.5157 8.89862 22.7331 9.15935 23.0507C9.42007 23.3684 9.5626 23.7666 9.56264 24.1776C9.56241 24.6487 9.37521 25.1006 9.04214 25.4338H9.04233Z" fill="black"/>
</g>
<defs>
<clipPath id="clip0">
<rect width="32" height="32" fill="white"/>
</clipPath>
</defs>
</svg>
