<svg width="32" height="32" viewBox="0 0 32 32" fill="none" xmlns="http://www.w3.org/2000/svg">
<g clip-path="url(#clip0)">
<path fill-rule="evenodd" clip-rule="evenodd" d="M18.1364 13.5321C17.7703 13.166 17.7703 12.5725 18.1364 12.2064C18.8752 11.4675 19.9185 11.612 20.6643 11.7511C20.5251 11.0053 20.3806 9.96218 21.1195 9.22328C21.8583 8.48439 22.9013 8.62901 23.6472 8.76819C23.5081 8.02242 23.3634 6.9793 24.1023 6.2404C24.8412 5.50145 25.8844 5.64613 26.6301 5.78524C26.4909 5.03948 26.3464 3.99635 27.0853 3.25746C27.8242 2.51863 28.8672 2.66318 29.613 2.80236C29.4738 2.05659 29.3293 1.01347 30.0682 0.274577C30.4343 -0.0915257 31.0278 -0.0915257 31.3939 0.274577C31.7581 0.638868 31.7601 1.22827 31.3995 1.59475C31.3115 1.77173 31.3777 2.08691 31.4553 2.45627L31.4553 2.45631L31.4553 2.45635L31.4553 2.45637C31.589 3.09245 31.7565 3.88919 31.2283 4.41751C30.7027 4.94285 29.9144 4.77897 29.278 4.64666C28.9142 4.57105 28.6001 4.50574 28.413 4.58532C28.3332 4.77314 28.3987 5.0876 28.4745 5.4515C28.607 6.08763 28.771 6.8748 28.2452 7.40052C27.7198 7.92591 26.9338 7.76216 26.2979 7.62968C25.9336 7.55379 25.6186 7.48816 25.4301 7.56826C25.3503 7.75608 25.4158 8.07055 25.4916 8.43444C25.6241 9.07057 25.7881 9.85775 25.2623 10.3835C24.7368 10.9089 23.9503 10.7451 23.3144 10.6126C22.9501 10.5367 22.6353 10.4711 22.4471 10.5512C22.3673 10.739 22.4328 11.0535 22.5086 11.4174C22.6411 12.0535 22.805 12.8406 22.2794 13.3663C21.7516 13.894 20.9571 13.7269 20.3216 13.5932C19.9512 13.5154 19.6349 13.4488 19.4566 13.5376C19.0885 13.8996 18.4991 13.8949 18.1364 13.5321ZM14.822 10.2177C15.1881 10.5838 15.7817 10.5838 16.1478 10.2177C20.4848 5.88061 19.0874 1.48875 19.0258 1.30389C18.8621 0.812731 18.3311 0.547185 17.84 0.710987C17.3488 0.874727 17.0834 1.40563 17.2471 1.89679C17.2585 1.9311 18.3488 5.36521 14.822 8.89199C14.4559 9.25803 14.4559 9.85162 14.822 10.2177ZM8.34731 9.5195C8.58686 8.88079 9.40712 8.70499 9.8879 9.18583L23.1454 22.4433C23.6286 22.9266 23.4474 23.7456 22.8116 23.9839L1.59972 31.9384C0.846889 32.2208 0.110996 31.4829 0.392791 30.7315L8.34731 9.5195ZM13.4439 15.3933L9.59155 11.541L8.6996 13.9195C8.29188 18.245 9.82266 22.6073 12.8222 25.7275L16.8324 24.2237C14.8972 21.6767 13.7104 18.597 13.4439 15.3933ZM4.77078 24.3964C5.37018 25.666 6.13932 26.8365 7.06407 27.8868L10.929 26.4374C8.98377 24.2095 7.59692 21.4472 7.03464 18.3593L4.77078 24.3964ZM5.20112 28.5855C4.7244 27.9959 4.28881 27.3759 3.89658 26.7276L2.87245 29.4587L5.20112 28.5855ZM15.7186 17.668C16.26 19.8102 17.2691 21.8222 18.6751 23.5327L20.7901 22.7396L15.7186 17.668ZM23.4393 17.5093C23.0732 17.8755 22.4797 17.8755 22.1136 17.5093C21.7474 17.1433 21.7475 16.5497 22.1136 16.1836C26.4507 11.8465 30.8426 13.244 31.0274 13.3056C31.5186 13.4693 31.7841 14.0004 31.6203 14.4914C31.4566 14.9826 30.9257 15.248 30.4345 15.0843C30.4002 15.0729 26.9661 13.9826 23.4393 17.5093ZM23.4393 4.25192C23.8054 3.88582 23.8054 3.29229 23.4393 2.92619C23.0732 2.56009 22.4797 2.56009 22.1136 2.92619C21.7475 3.29229 21.7475 3.88582 22.1136 4.25192C22.4796 4.61802 23.0732 4.61802 23.4393 4.25192ZM30.3426 10.2177C30.3426 10.7355 29.9228 11.1552 29.4051 11.1552C28.8874 11.1552 28.4677 10.7355 28.4677 10.2177C28.4677 9.69998 28.8874 9.28027 29.4051 9.28027C29.9228 9.28027 30.3426 9.69998 30.3426 10.2177ZM27.4164 18.8351C27.0503 19.2012 27.0503 19.7948 27.4164 20.1609C27.7825 20.527 28.376 20.527 28.7422 20.1609C29.1083 19.7948 29.1083 19.2012 28.7422 18.8351C28.3761 18.469 27.7825 18.469 27.4164 18.8351ZM14.159 4.25187C14.5251 4.61798 14.5251 5.2115 14.159 5.57761C13.7929 5.94371 13.1993 5.94371 12.8332 5.57761C12.4671 5.2115 12.4671 4.61791 12.8332 4.25187C13.1993 3.88577 13.7929 3.88577 14.159 4.25187Z" fill="black"/>
</g>
<defs>
<clipPath id="clip0">
<rect width="32" height="32" fill="white"/>
</clipPath>
</defs>
</svg>
