<svg width="36" height="34" viewBox="0 0 36 34" fill="none" xmlns="http://www.w3.org/2000/svg">
<path d="M31.5998 32.6564H4.08525C2.32275 32.6564 0.854004 31.1876 0.854004 29.4251V12.4855C0.854004 10.723 2.32275 9.25427 4.08525 9.25427H31.5998C33.3623 9.25427 34.8311 10.723 34.8311 12.4855V29.523C34.7332 31.1876 33.3623 32.6564 31.5998 32.6564Z M8.49137 18.6543C9.84332 18.6543 10.9393 17.5583 10.9393 16.2063C10.9393 14.8544 9.84332 13.7584 8.49137 13.7584C7.13943 13.7584 6.04346 14.8544 6.04346 16.2063C6.04346 17.5583 7.13943 18.6543 8.49137 18.6543Z M8.49137 28.1522C9.84332 28.1522 10.9393 27.0562 10.9393 25.7043C10.9393 24.3523 9.84332 23.2563 8.49137 23.2563C7.13943 23.2563 6.04346 24.3523 6.04346 25.7043C6.04346 27.0562 7.13943 28.1522 8.49137 28.1522Z M28.8579 17.2834H16.2267C15.835 17.2834 15.4434 16.9897 15.4434 16.5001V14.4439C15.4434 14.0522 15.7371 13.6605 16.2267 13.6605H28.8579C29.2496 13.6605 29.6413 13.9543 29.6413 14.4439V16.5001C29.5434 16.9897 29.2496 17.2834 28.8579 17.2834Z M23.9619 27.8584V20.6125 M21.1226 27.8584V20.6125 M26.7036 26.6834V21.8855 M29.5435 25.5083V23.0604 M15.4434 25.5083V23.0604 M18.2827 26.6834V21.8855 M31.0122 3.77087C31.8234 3.77087 32.481 3.11329 32.481 2.30212C32.481 1.49096 31.8234 0.833374 31.0122 0.833374C30.201 0.833374 29.5435 1.49096 29.5435 2.30212C29.5435 3.11329 30.201 3.77087 31.0122 3.77087Z M7.80615 9.25425L29.5437 2.79175" stroke="red"/>
</svg>