<svg width="16" height="28" viewBox="0 0 16 28" fill="none" xmlns="http://www.w3.org/2000/svg">
<path d="M1.85 0C0.83 0 0 0.86 0 1.92C0 4.2 0 22.46 0 24.74C0 25.79 0.83 26.65 1.85 26.65C1.86 26.65 1.91 26.65 2 26.65C2 27.13 2 27.4 2 27.46C2 28.18 3.09 28.18 3.09 27.46C3.09 27.4 3.09 27.13 3.09 26.65L12.98 26.65C12.98 27.13 12.98 27.4 12.98 27.46C12.98 28.18 14.07 28.18 14.07 27.46C14.07 27.4 14.07 27.13 14.07 26.65C14.12 26.65 14.14 26.65 14.15 26.65C15.17 26.65 16 25.79 16 24.74C16 22.46 16 4.2 16 1.92C16 0.86 15.17 0 14.15 0C11.69 0 3.08 0 1.85 0ZM14.15 1.13C14.57 1.13 14.91 1.48 14.91 1.92C14.91 2.45 14.91 5.1 14.91 9.87L1.09 9.87C1.09 5.1 1.09 2.45 1.09 1.92C1.09 1.48 1.43 1.13 1.85 1.13C4.31 1.13 12.92 1.13 14.15 1.13ZM14.15 25.53C14.57 25.53 14.91 25.17 14.91 24.74C14.91 23.82 14.91 19.24 14.91 11L1.09 11C1.09 19.24 1.09 23.82 1.09 24.74C1.09 25.17 1.43 25.53 1.85 25.53C4.31 25.53 12.92 25.53 14.15 25.53ZM2 16.48C2 17.17 3 17.18 3 16.48C3 15.49 3 14.51 3 13.52C3 12.83 2 12.82 2 13.52C2 14.51 2 15.49 2 16.48ZM3 4.52C3 3.83 2 3.82 2 4.52C2 5.51 2 6.49 2 7.48C2 8.17 3 8.18 3 7.48C3 6.49 3 5.51 3 4.52Z" stroke="red"/>
</svg>