<svg version="1.1" xmlns="http://www.w3.org/2000/svg" xmlns:xlink="http://www.w3.org/1999/xlink" fill="none" viewBox="0 0 23 28" width="23" height="28">

<path d="M18.9372 2.8C17.0575 2.80315 15.4726 4.20193 15.236 6.06667H14.0638L15.5543 0.933333H17.0705V0H15.2038C14.9963 5.83333e-05 14.8138 0.137142 14.7558 0.336467L13.0922 6.06667H1.20384C0.946127 6.06661 0.737119 6.2755 0.737061 6.53322C0.737061 6.63845 0.772586 6.74059 0.837977 6.82313L9.60384 17.8957V27.0667H5.87051V28H14.2705V27.0667H10.5372V17.8957L17.0108 9.7188C17.5893 10.0774 18.2565 10.2671 18.9372 10.2667C20.999 10.2667 22.6705 8.59518 22.6705 6.53333C22.6705 4.47148 20.999 2.8 18.9372 2.8ZM17.9726 7L15.3863 10.2667H12.8444L13.7931 7H17.9726ZM11.4518 15.0635L12.5737 11.2H14.6476L10.0705 16.9815L5.49344 11.2H11.6021L10.5558 14.8031L11.4518 15.0635ZM12.821 7L11.8728 10.2667H4.75471L2.16844 7H12.821ZM18.9372 9.33333C18.4657 9.33584 18.0015 9.21673 17.5894 8.98753L19.303 6.82313C19.4631 6.62113 19.4291 6.32759 19.2271 6.16758C19.1446 6.10225 19.0425 6.06667 18.9372 6.06667H16.1759C16.4336 4.54189 17.8787 3.51476 19.4034 3.77247C20.9282 4.03019 21.9553 5.47522 21.6976 7C21.4699 8.34703 20.3033 9.3331 18.9372 9.33333Z" fill="yellow"></path>
</svg>