<svg width="34" height="35" viewBox="0 0 34 35" fill="none" xmlns="http://www.w3.org/2000/svg">
<path d="M24.2652 14.9719C24.1542 14.7433 23.9223 14.5981 23.6678 14.5981H16.5279L18.1616 5.73023C18.2205 5.41117 18.0399 5.09626 17.7349 4.98549C17.4298 4.87525 17.0895 5.00106 16.9299 5.28354L9.75365 18.0058C9.6377 18.2115 9.63952 18.4631 9.75858 18.667C9.87765 18.8709 10.0958 18.9962 10.3321 18.9962H16.4135L13.7954 26.7953C13.6926 27.1016 13.8249 27.4373 14.1092 27.5909C14.2091 27.6448 14.3173 27.6707 14.4247 27.6707C14.6226 27.6707 14.8171 27.582 14.9468 27.4173L24.1898 15.6727C24.3472 15.4728 24.3763 15.2006 24.2652 14.9719ZM16.275 23.5824L17.9665 18.5435C18.0342 18.3409 18.0007 18.1178 17.876 17.9443C17.7512 17.771 17.5504 17.668 17.3369 17.668H11.4691L16.1359 9.3945L15.0773 15.1418C15.0415 15.3355 15.0939 15.5355 15.22 15.687C15.346 15.8385 15.5331 15.9262 15.7305 15.9262H22.3003L16.275 23.5824Z M3.99449 20.6982H1.32812V13.5264H3.99449C4.28165 13.5264 4.53638 13.3417 4.62561 13.0685C5.9099 9.13629 9.02399 6.0222 12.9562 4.73792C13.2294 4.64868 13.4141 4.39395 13.4141 4.1068V1.44043H20.5859V4.1068C20.5859 4.39395 20.7706 4.64868 21.0438 4.73792C22.1439 5.09718 23.188 5.60146 24.1553 6.23958C23.981 6.60326 23.8832 7.01051 23.8832 7.44008C23.8832 8.9778 25.1345 10.2291 26.6722 10.2291C28.2102 10.2291 29.4613 8.9778 29.4613 7.44008C29.4613 5.9021 28.2102 4.65102 26.6722 4.65102C26.0463 4.65102 25.4678 4.85828 25.002 5.20769C24.038 4.55841 23.0028 4.03053 21.9141 3.63365V0.776367C21.9141 0.409576 21.6168 0.112305 21.25 0.112305H12.75C12.3832 0.112305 12.0859 0.409576 12.0859 0.776367V3.63365C8.1205 5.08032 4.96802 8.2328 3.52135 12.1982H0.664062C0.297272 12.1982 0 12.4955 0 12.8623V21.3623C0 21.7291 0.297272 22.0264 0.664062 22.0264H3.99449C4.36102 22.0264 4.65855 21.7291 4.65855 21.3623C4.65855 20.9955 4.36128 20.6982 3.99449 20.6982ZM28.1332 7.44008C28.1332 8.24551 27.4779 8.90102 26.6722 8.90102C25.8668 8.90102 25.2113 8.24551 25.2113 7.44008C25.2113 6.63438 25.8668 5.97914 26.6722 5.97914C27.4779 5.97914 28.1332 6.63438 28.1332 7.44008Z M33.3359 12.1982H30.0055C29.639 12.1982 29.3414 12.4955 29.3414 12.8623C29.3414 13.2291 29.639 13.5264 30.0055 13.5264H32.6719V20.6982H30.0055C29.7183 20.6982 29.4636 20.8829 29.3744 21.1561C28.0901 25.0883 24.976 28.2024 21.0438 29.4867C20.7706 29.5759 20.5859 29.8307 20.5859 30.1178V32.7842H13.414V30.1178C13.414 29.8307 13.2294 29.5759 12.9562 29.4867C11.8569 29.1277 10.812 28.6229 9.84497 27.9848C10.019 27.6211 10.1168 27.2141 10.1168 26.7845C10.1168 25.2468 8.86548 23.9955 7.32776 23.9955C5.78978 23.9955 4.5387 25.2468 4.5387 26.7845C4.5387 28.3225 5.78978 29.5736 7.32776 29.5736C7.95421 29.5736 8.53319 29.3658 8.99933 29.0159C9.96326 29.6649 10.998 30.1943 12.0859 30.591V33.4482C12.0859 33.815 12.3832 34.1123 12.75 34.1123H21.25C21.6165 34.1123 21.914 33.815 21.914 33.4482V30.591C25.8795 29.1443 29.032 25.9918 30.4786 22.0264H33.3359C33.7027 22.0264 34 21.7291 34 21.3623V12.8623C34 12.4955 33.7027 12.1982 33.3359 12.1982ZM7.32776 28.2455C6.52206 28.2455 5.86682 27.5902 5.86682 26.7845C5.86682 25.9791 6.52206 25.3236 7.32776 25.3236C8.13319 25.3236 8.7887 25.9791 8.7887 26.7845C8.7887 27.5902 8.13319 28.2455 7.32776 28.2455Z" fill="red"/>
</svg>