<svg width="34" height="35" viewBox="0 0 34 35" fill="none" xmlns="http://www.w3.org/2000/svg">
<path d="M16.8001 33.5C25.7471 33.5 33.0001 26.247 33.0001 17.3C33.0001 8.35294 25.7471 1.09998 16.8001 1.09998C7.8531 1.09998 0.600098 8.35294 0.600098 17.3C0.600098 26.247 7.8531 33.5 16.8001 33.5Z M19.3 4.50003C19.2 5.80003 18.1 6.80002 16.8 6.80002C15.5 6.80002 14.3 5.80002 14.3 4.40002 M16.8 30.6C24.1454 30.6 30.1 24.6454 30.1 17.3C30.1 9.9546 24.1454 4 16.8 4C9.4546 4 3.5 9.9546 3.5 17.3C3.5 24.6454 9.4546 30.6 16.8 30.6Z M11.1001 13.4C10.2001 14.6 9.6001 16.1 9.6001 17.8C9.6001 21.8 12.8001 25 16.8001 25C20.8001 25 24.0001 21.8 24.0001 17.8C24.0001 16.1 23.4001 14.6 22.5001 13.4H11.1001Z M5.30008 31.9V28.8H2.20007 M31.3001 28.8H28.2001V31.9" stroke="red"/>
</svg>