<svg width="32" height="32" viewBox="0 0 32 32" fill="none" xmlns="http://www.w3.org/2000/svg">
<path fill-rule="evenodd" clip-rule="evenodd" d="M28.1656 4.95106C28.722 5.50744 29.0284 6.24719 29.0284 7.034C29.0284 7.82094 28.722 8.56069 28.1656 9.117L17.515 19.7677C16.9585 20.3242 16.2187 20.6306 15.4319 20.6306C14.645 20.6306 13.9052 20.3241 13.3489 19.7677C12.4224 18.8412 12.2438 17.4461 12.8121 16.3382C11.5536 14.8228 10.8684 12.9337 10.8684 10.9392C10.8684 9.69881 11.1338 8.49931 11.6369 7.40494L10.1236 5.89169H6.25637V31.0625C6.25637 31.5802 5.83662 32 5.31887 32H1.30212C0.784374 32 0.364624 31.5802 0.364624 31.0625V2.94587C0.364624 1.3215 1.68612 0 3.31044 0H11.3437C12.1312 0 12.8713 0.306813 13.4278 0.864L15.8027 3.23887C16.8971 2.73587 18.0965 2.47044 19.3369 2.47044C21.3311 2.47044 23.2199 3.15544 24.7353 4.41356C25.1471 4.20125 25.6061 4.08813 26.0826 4.08813C26.8695 4.08813 27.6092 4.39456 28.1656 4.95106ZM10.5119 4.01662C10.7605 4.01662 10.9989 4.11544 11.1747 4.29125L12.6389 5.75531C12.8568 5.47481 13.0936 5.20606 13.3488 4.95081C13.604 4.69562 13.8727 4.45888 14.1532 4.24094L12.1016 2.18937C11.899 1.9865 11.6299 1.875 11.3437 1.875H3.31044C2.72 1.875 2.23962 2.35537 2.23962 2.94587V30.125H4.38137V4.95412C4.38137 4.43637 4.80112 4.01662 5.31887 4.01662H10.5119ZM13.5941 7.69438L13.5883 7.704C13.0369 8.68044 12.7434 9.78725 12.7432 10.9392C12.7432 12.384 13.2047 13.7578 14.0581 14.8923L23.2902 5.66044C22.1556 4.807 20.7816 4.34544 19.3368 4.34544C18.1835 4.34544 17.0754 4.63963 16.0981 5.19244L16.0865 5.19931L16.0865 5.19932C16.0761 5.20553 16.0657 5.21175 16.0551 5.21731C15.5564 5.50437 15.0924 5.85881 14.6746 6.27663C14.2571 6.69413 13.9029 7.15788 13.6159 7.65606C13.6093 7.66907 13.6017 7.68172 13.5941 7.69436L13.5941 7.69438ZM16.1892 18.4419L26.8398 7.79112C27.0421 7.58887 27.1534 7.32006 27.1534 7.03406C27.1534 6.74806 27.042 6.47913 26.8397 6.27688C26.6374 6.0745 26.3686 5.96313 26.0826 5.96313C25.7967 5.96313 25.5278 6.0745 25.3256 6.27681L25.3255 6.27688L14.6746 16.9275C14.2572 17.3451 14.2571 18.0244 14.6746 18.4419C14.8769 18.6442 15.1458 18.7556 15.4318 18.7556C15.7179 18.7556 15.9869 18.6442 16.1892 18.4419ZM25.0175 17.5573C24.4998 17.5573 24.08 17.1375 24.08 16.6198C24.08 16.102 24.4998 15.6821 25.0175 15.6821C25.5353 15.6821 25.955 16.1018 25.955 16.6196V16.6198C25.955 17.1375 25.5353 17.5573 25.0175 17.5573ZM27.1943 13.1162C27.0199 13.2912 26.9199 13.5324 26.9199 13.7793C26.9199 14.0262 27.0199 14.268 27.1943 14.4424C27.3694 14.6168 27.6105 14.7168 27.8574 14.7168C28.1043 14.7168 28.3462 14.6168 28.5205 14.4424C28.6949 14.268 28.7949 14.0262 28.7949 13.7793C28.7949 13.5324 28.6949 13.2912 28.5205 13.1162C28.3462 12.9418 28.1043 12.8418 27.8574 12.8418C27.6105 12.8418 27.3694 12.9418 27.1943 13.1162ZM22.84 18.7968C23.015 18.9712 23.115 19.2131 23.115 19.46C23.115 19.7062 23.015 19.9481 22.84 20.1225C22.6656 20.2975 22.4244 20.3975 22.1775 20.3975C21.9306 20.3975 21.6887 20.2975 21.5144 20.1225C21.34 19.9481 21.24 19.7068 21.24 19.46C21.24 19.2131 21.34 18.9712 21.5144 18.7968C21.6887 18.6225 21.9306 18.5225 22.1775 18.5225C22.4244 18.5225 22.6656 18.6225 22.84 18.7968ZM27.375 20.8801C27.375 20.6333 27.2749 20.392 27.1006 20.217C26.9256 20.0426 26.6844 19.9426 26.4375 19.9426C26.1906 19.9426 25.9493 20.0426 25.7744 20.217C25.6 20.392 25.5 20.6333 25.5 20.8801C25.5 21.127 25.6 21.3683 25.7744 21.5433C25.9494 21.7176 26.1912 21.8176 26.4375 21.8176C26.6844 21.8176 26.9256 21.7176 27.1006 21.5433C27.2749 21.3683 27.375 21.127 27.375 20.8801ZM29.9406 17.3769C30.115 17.5513 30.2156 17.7932 30.2156 18.04C30.2156 18.2863 30.115 18.5282 29.9406 18.7025C29.7662 18.8775 29.5244 18.9775 29.2775 18.9775C29.0312 18.9775 28.7894 18.8775 28.615 18.7025C28.4406 18.5282 28.34 18.2863 28.34 18.04C28.34 17.7932 28.4406 17.5513 28.615 17.3769C28.7894 17.2025 29.0313 17.1025 29.2775 17.1025C29.5244 17.1025 29.7662 17.2025 29.9406 17.3769ZM24.436 23.3011L24.4359 23.3008C24.2044 22.8378 23.6414 22.6501 23.1782 22.8816C22.7151 23.1132 22.5275 23.6764 22.7591 24.1395C22.9233 24.4681 23.2544 24.6579 23.5983 24.6579C23.7392 24.6579 23.8822 24.6261 24.0168 24.5588C24.4799 24.3273 24.6676 23.7642 24.436 23.3011ZM27.1944 24.4774C27.3694 24.303 27.6106 24.2024 27.8575 24.2024C28.1044 24.2024 28.3462 24.303 28.5206 24.4774C28.695 24.6518 28.795 24.8936 28.795 25.1399C28.795 25.3868 28.695 25.6286 28.5206 25.803C28.3462 25.9774 28.1044 26.0774 27.8575 26.0774C27.6106 26.0774 27.3694 25.9774 27.1944 25.803C27.02 25.6286 26.92 25.3868 26.92 25.1399C26.92 24.8936 27.02 24.6518 27.1944 24.4774ZM30.6979 21.3625C30.1801 21.3625 29.7604 21.7824 29.7604 22.3001C29.7604 22.8179 30.1801 23.2376 30.6979 23.2376C31.2156 23.2376 31.6354 22.8179 31.6354 22.3001V22.3C31.6354 21.7822 31.2156 21.3625 30.6979 21.3625ZM24.3549 27.3176C24.5293 27.1432 24.7706 27.0432 25.0175 27.0432C25.2643 27.0432 25.5056 27.1432 25.6805 27.3176C25.8549 27.4926 25.955 27.7338 25.955 27.9807C25.955 28.2276 25.8549 28.4688 25.6805 28.6432C25.5062 28.8182 25.2643 28.9182 25.0175 28.9182C24.7705 28.9182 24.5293 28.8182 24.3549 28.6432C24.18 28.4695 24.08 28.2276 24.08 27.9807C24.08 27.7338 24.1799 27.492 24.3549 27.3176Z" fill="black"/>
</svg>
