<svg width="33" height="29" viewBox="0 0 33 29" fill="none" xmlns="http://www.w3.org/2000/svg">
<path d="M4.50001 8.82669C4.50001 8.30046 4.77079 7.83454 5.21101 7.60509C7.16498 6.58662 11.7634 4.5 16.5676 4.5C21.3717 4.5 25.9702 6.58662 27.9241 7.60509C28.3644 7.83454 28.6351 8.30046 28.6351 8.82669V27C28.6351 27.8284 27.9636 28.5 27.1351 28.5H6.00001C5.17158 28.5 4.50001 27.8284 4.50001 27V8.82669Z M1.41892 10.5H31.5811 M16.5 21C17.8807 21 19 19.8807 19 18.5C19 17.1193 17.8807 16 16.5 16C15.1193 16 14 17.1193 14 18.5C14 19.8807 15.1193 21 16.5 21Z M16.5 4C17.3284 4 18 3.32843 18 2.5C18 1.67157 17.3284 1 16.5 1C15.6716 1 15 1.67157 15 2.5C15 3.32843 15.6716 4 16.5 4Z M13.5 11C13.5 10.7239 13.7239 10.5 14 10.5H19C19.2761 10.5 19.5 10.7239 19.5 11V12C19.5 12.2761 19.2761 12.5 19 12.5H14C13.7239 12.5 13.5 12.2761 13.5 12V11Z" stroke="red"/>
</svg>