<svg width="32" height="32" viewBox="0 0 32 32" fill="none" xmlns="http://www.w3.org/2000/svg">
<path d="M28.0681 25.8779C28.0668 26.4293 27.6193 26.8754 27.0681 26.8754C27.0673 26.8754 27.0665 26.8754 27.0656 26.8754L26.7243 26.8746L26.622 27.7583C26.563 28.2679 26.1306 28.6434 25.6298 28.6434C25.5914 28.6434 25.5527 28.6412 25.5136 28.6367C24.965 28.5731 24.5717 28.0769 24.6352 27.5283L24.8403 25.7575C24.8987 25.253 25.326 24.8725 25.8337 24.8725H25.8361L27.0705 24.8755C27.6228 24.8768 28.0695 25.3256 28.0681 25.8779ZM6.24253 24.8402L4.47171 24.6352C3.92328 24.5717 3.42684 24.9649 3.36334 25.5136C3.29984 26.0622 3.69309 26.5584 4.24171 26.6219L5.1254 26.7242L5.12459 27.0656C5.12328 27.6179 5.5699 28.0667 6.12215 28.0681H6.12465C6.67578 28.0681 7.12328 27.6219 7.12459 27.0705L7.12759 25.8361C7.12878 25.3273 6.7479 24.8987 6.24253 24.8402ZM4.92953 7.12449L6.16396 7.12749H6.16646C6.67409 7.12749 7.10134 6.74705 7.15984 6.24249L7.3649 4.47168C7.4284 3.92305 7.03515 3.4268 6.48653 3.3633C5.93809 3.30005 5.44165 3.69299 5.37815 4.24168L5.27584 5.12537L4.93446 5.12455C4.93365 5.12455 4.93284 5.12455 4.93196 5.12455C4.38084 5.12455 3.93334 5.57068 3.93203 6.12212C3.93059 6.6743 4.37721 7.12312 4.92953 7.12449ZM25.7575 7.15968L27.5283 7.36474C27.5674 7.3693 27.6062 7.37149 27.6446 7.37149C28.1455 7.37149 28.5778 6.99599 28.6368 6.48643C28.7003 5.9378 28.3071 5.44155 27.7585 5.37805L26.8747 5.27568L26.8755 4.9343C26.8768 4.38205 26.4302 3.93324 25.878 3.93187C25.8771 3.93187 25.8763 3.93187 25.8755 3.93187C25.3243 3.93187 24.8768 4.37799 24.8755 4.92943L24.8725 6.16387C24.8713 6.67262 25.2521 7.10118 25.7575 7.15968ZM31.8836 17.5404C31.7101 17.8951 31.3546 18.1012 30.9846 18.1012C30.8372 18.1012 30.6873 18.0684 30.5459 17.9992L28.5035 17H26.3098L27.9552 19.3858C28.2688 19.8404 28.1544 20.4632 27.6998 20.7767C27.5265 20.8963 27.3287 20.9536 27.1329 20.9536C26.8152 20.9536 26.5028 20.8026 26.3088 20.5213L23.8802 17H20.6952V18.0282C20.6952 18.3974 20.6196 18.7492 20.4835 19.0692L22.3568 20.9426C22.7473 21.3331 22.7473 21.9662 22.3568 22.3567C22.1616 22.552 21.9057 22.6496 21.6498 22.6496C21.3938 22.6496 21.138 22.552 20.9426 22.3567L19.0693 20.4834C18.7493 20.6196 18.3975 20.6951 18.0283 20.6951H17V23.8801L20.5213 26.3086C20.976 26.6222 21.0903 27.2449 20.7768 27.6996C20.5828 27.9808 20.2703 28.1319 19.9527 28.1319C19.7569 28.1319 19.5592 28.0746 19.3858 27.955L17 26.3097V28.5034L17.9993 30.5459C18.242 31.042 18.0366 31.6409 17.5405 31.8836C17.3991 31.9528 17.2493 31.9856 17.1018 31.9856C16.7318 31.9856 16.3763 31.7795 16.2028 31.4248L16 31.0104L15.7973 31.4248C15.6238 31.7795 15.2682 31.9856 14.8983 31.9856C14.7508 31.9856 14.601 31.9528 14.4595 31.8836C13.9634 31.6409 13.758 31.042 14.0007 30.5459L15 28.5035V26.3097L12.6142 27.9551C12.4409 28.0747 12.2431 28.132 12.0473 28.132C11.7297 28.132 11.4173 27.9809 11.2232 27.6997C10.9097 27.2451 11.024 26.6223 11.4787 26.3087L15 23.8801V20.6951H13.9718C13.6027 20.6951 13.2508 20.6196 12.9308 20.4834L11.0575 22.3567C10.8622 22.5521 10.6063 22.6497 10.3504 22.6497C10.0945 22.6497 9.83859 22.5521 9.64334 22.3567C9.25278 21.9662 9.25278 21.3331 9.64334 20.9426L11.5167 19.0692C11.3805 18.7492 11.305 18.3974 11.305 18.0282V17H8.11996L5.6914 20.5213C5.4974 20.8026 5.18496 20.9536 4.86728 20.9536C4.67153 20.9536 4.47378 20.8963 4.3004 20.7767C3.84578 20.4632 3.7314 19.8404 4.04496 19.3858L5.69034 17H3.49659L1.45415 17.9992C1.31278 18.0684 1.1629 18.1012 1.0154 18.1012C0.645464 18.1012 0.289964 17.8951 0.116402 17.5404C-0.126286 17.0443 0.0790893 16.4454 0.575214 16.2027L0.989589 16L0.575152 15.7972C0.0790268 15.5546 -0.126348 14.9556 0.116402 14.4595C0.359089 13.9634 0.958027 13.7579 1.45415 14.0007L3.49659 15H5.69034L4.0449 12.6142C3.73134 12.1596 3.84571 11.5368 4.30034 11.2232C4.75503 10.9097 5.37771 11.0241 5.69128 11.4787L8.1199 15H11.3049V13.9717C11.3049 13.6026 11.3804 13.2507 11.5166 12.9307L9.64328 11.0574C9.25271 10.6669 9.25271 10.0337 9.64328 9.64324C10.0338 9.25268 10.667 9.25268 11.0575 9.64324L12.9308 11.5166C13.2508 11.3804 13.6027 11.3049 13.9718 11.3049H15V8.11993L11.4787 5.69137C11.0241 5.3778 10.9097 4.75505 11.2233 4.30043C11.5368 3.8458 12.1596 3.73143 12.6142 4.04499L15 5.6903V3.49655L14.0008 1.45412C13.7581 0.957992 13.9635 0.359117 14.4596 0.116429C14.9557 -0.126258 15.5547 0.0791166 15.7973 0.575242L16 0.989617L16.2028 0.575179C16.4455 0.0790541 17.0443 -0.126383 17.5405 0.116429C18.0367 0.359117 18.242 0.958054 17.9993 1.45418L17 3.49655V5.6903L19.3858 4.04487C19.8406 3.73137 20.4633 3.84574 20.7768 4.3003C21.0903 4.75493 20.976 5.37768 20.5213 5.69124L17 8.11987V11.3049H18.0283C18.3974 11.3049 18.7493 11.3804 19.0693 11.5166L20.9426 9.64324C21.3331 9.25268 21.9663 9.25268 22.3568 9.64324C22.7473 10.0337 22.7473 10.6669 22.3568 11.0574L20.4835 12.9307C20.6196 13.2507 20.6952 13.6026 20.6952 13.9717V15H23.8802L26.3088 11.4787C26.6223 11.0241 27.245 10.9097 27.6997 11.2232C28.1543 11.5368 28.2687 12.1596 27.9552 12.6142L26.3097 15H28.5035L30.5459 14.0007C31.042 13.7581 31.641 13.9635 31.8836 14.4595C32.1263 14.9556 31.921 15.5546 31.4249 15.7972L31.0105 16L31.4248 16.2027C31.921 16.4454 32.1263 17.0443 31.8836 17.5404ZM18.0283 18.6951C18.396 18.6951 18.6952 18.3959 18.6952 18.0282V13.9717C18.6952 13.6041 18.396 13.3049 18.0283 13.3049H13.9718C13.6041 13.3049 13.3049 13.6041 13.3049 13.9717V18.0282C13.3049 18.3959 13.6041 18.6951 13.9718 18.6951H18.0283ZM7.3784 8.79255L7.44365 8.8578C7.6389 9.05312 7.89484 9.15074 8.15071 9.15074C8.40659 9.15074 8.66253 9.05312 8.85778 8.8578C9.24834 8.4673 9.24834 7.83412 8.85778 7.44362L8.79253 7.37837C8.40203 6.9878 7.76884 6.9878 7.37834 7.37837C6.9879 7.76887 6.9879 8.40205 7.3784 8.79255ZM23.8493 9.15074C24.1052 9.15074 24.3611 9.05312 24.5563 8.8578L24.6216 8.79255C25.0121 8.40205 25.0121 7.76887 24.6216 7.37837C24.2311 6.9878 23.5979 6.9878 23.2074 7.37837L23.1421 7.44362C22.7516 7.83412 22.7516 8.4673 23.1421 8.8578C23.3374 9.05312 23.5933 9.15074 23.8493 9.15074ZM24.6217 23.2074L24.5564 23.1422C24.1659 22.7516 23.5327 22.7516 23.1422 23.1422C22.7516 23.5327 22.7516 24.1659 23.1422 24.5564L23.2075 24.6216C23.4027 24.8169 23.6586 24.9146 23.9145 24.9146C24.1704 24.9146 24.4263 24.8169 24.6216 24.6216C25.0121 24.2311 25.0122 23.5979 24.6217 23.2074ZM7.44371 23.1421L7.37846 23.2074C6.9879 23.5979 6.9879 24.2311 7.37846 24.6216C7.57371 24.8169 7.82965 24.9145 8.08553 24.9145C8.3414 24.9145 8.59734 24.8169 8.79259 24.6216L8.85784 24.5563C9.2484 24.1658 9.2484 23.5326 8.85784 23.1421C8.4674 22.7516 7.83421 22.7516 7.44371 23.1421Z" fill="black"/>
</svg>
