<svg width="32" height="33" viewBox="0 0 32 33" fill="none" xmlns="http://www.w3.org/2000/svg">
<path d="M27.4286 0.00830078C29.72 0.00830078 31.5828 2.14665 31.9386 5.0083C31.979 5.33301 32 5.66703 32 6.0083H0C0 5.66703 0.0209766 5.33301 0.0613546 5.0083C0.417205 2.14665 2.27993 0.00830078 4.57141 0.00830078H27.4286ZM27.4286 1.0083C28.9919 1.0083 30.5898 2.52777 30.9327 5.0083H1.06728C1.41019 2.52776 3.00811 1.0083 4.57141 1.0083H27.4286Z" fill="red" fill-rule="evenodd" clip-rule="evenodd" />
<path d="M9.78397 10.1037C9.55592 9.94801 9.24481 10.0066 9.08909 10.2347C8.93336 10.4627 8.99199 10.7738 9.22004 10.9296C10.3267 11.6853 10.8715 12.6504 10.9904 13.5807C11.1098 14.5156 10.8054 15.4557 10.1369 16.1785C9.94938 16.3813 9.96173 16.6976 10.1645 16.8851C10.3672 17.0726 10.6835 17.0603 10.871 16.8575C11.7337 15.9248 12.1405 14.692 11.9823 13.454C11.8235 12.2114 11.1017 11.0036 9.78397 10.1037Z" fill="red" />
<path d="M22.212 10.1038C22.44 9.94803 22.7512 10.0066 22.9069 10.2346C23.0627 10.4626 23.0042 10.7737 22.7761 10.9295C21.6699 11.6853 21.1248 12.6504 21.0054 13.581C20.8855 14.5159 21.1893 15.4559 21.8573 16.1786C22.0448 16.3814 22.0324 16.6977 21.8296 16.8852C21.6268 17.0726 21.3105 17.0602 21.123 16.8574C20.2606 15.9246 19.8547 14.6917 20.0135 13.4537C20.1729 12.2113 20.895 11.0036 22.212 10.1038Z" fill="red" />
<path d="M24.0173 16.8866C24.0835 16.6185 24.3546 16.4549 24.6227 16.5212C26.8537 17.0726 28.5 18.9055 28.5 21.5673C28.5 23.0612 28.0511 24.4309 27.206 25.4361C26.3543 26.4492 25.1202 27.0659 23.6234 27.0659H23.3211C22.0873 29.9663 19.3676 32.0015 16.0627 32.0015C12.7641 32.0015 9.90255 29.8847 8.65549 27.0739C5.66299 27.0559 3.5 24.589 3.5 21.5673C3.5 18.8983 5.12814 17.0609 7.37936 16.5204C7.64787 16.4559 7.91781 16.6213 7.98228 16.8899C8.04675 17.1584 7.88134 17.4283 7.61282 17.4928C5.79953 17.9281 4.5 19.3726 4.5 21.5673C4.5 24.1225 6.30297 26.074 8.6885 26.074H8.98822C9.19372 26.074 9.3783 26.1997 9.45352 26.391C10.4844 29.0119 13.0899 31.0015 16.0627 31.0015C19.0307 31.0015 21.4827 29.1125 22.5159 26.3886C22.5896 26.1944 22.7757 26.0659 22.9834 26.0659H23.6234C24.8242 26.0659 25.7784 25.5803 26.4406 24.7926C27.1094 23.997 27.5 22.8674 27.5 21.5673C27.5 19.3856 26.1873 17.938 24.3827 17.492C24.1146 17.4257 23.951 17.1547 24.0173 16.8866Z" fill="red" />
<path d="M15.0059 10.5166C15.0059 10.2405 14.782 10.0166 14.5059 10.0166C14.2297 10.0166 14.0059 10.2405 14.0059 10.5166V20.5045C14.0059 20.7807 14.2297 21.0045 14.5059 21.0045C14.782 21.0045 15.0059 20.7807 15.0059 20.5045V10.5166Z" fill="red" />
<path d="M17.498 10.0166C17.7742 10.0166 17.998 10.2405 17.998 10.5166V20.5045C17.998 20.7807 17.7742 21.0045 17.498 21.0045C17.2219 21.0045 16.998 20.7807 16.998 20.5045V10.5166C16.998 10.2405 17.2219 10.0166 17.498 10.0166Z" fill="red" />
</svg>