<svg width="38" height="36" viewBox="0 0 38 36" fill="none" xmlns="http://www.w3.org/2000/svg">
<path d="M6.40002 25.5V35.4 M4.59998 35.4H8.20001 M26.5 22.1H37.1 M36.1 25.5H27.4C26.9 25.5 26.5 25.1 26.5 24.6V1.99997C26.5 1.49997 26.9 1.09998 27.4 1.09998H36.1C36.6 1.09998 37 1.49997 37 1.99997V24.5C37.1 25 36.7 25.5 36.1 25.5Z M1.09998 22.1H11.7 M10.7 25.5H2C1.5 25.5 1.09998 25.1 1.09998 24.6V1.99997C1.09998 1.49997 1.5 1.09998 2 1.09998H10.7C11.2 1.09998 11.6 1.49997 11.6 1.99997V24.5C11.7 25 11.2 25.5 10.7 25.5Z M31.8 25.5V35.4 M30 35.4H33.6 M26.9999 29.8H11.2V35.4001H26.9999V29.8Z" stroke="red"/>
</svg>