<svg width="32" height="32" viewBox="0 0 32 32" fill="none" xmlns="http://www.w3.org/2000/svg">
<path fill-rule="evenodd" clip-rule="evenodd" d="M11.8497 6.60915C11.6905 6.51013 11.5624 6.36839 11.48 6.20009L10.2 3.44009C10.0833 3.2014 10.0662 2.92612 10.1525 2.67482C10.2387 2.42352 10.4213 2.21679 10.66 2.10009C10.8987 1.98339 11.1739 1.9663 11.4252 2.05257C11.6765 2.13883 11.8833 2.3214 12 2.56009L13.28 5.42009C13.3918 5.65953 13.4064 5.93303 13.3206 6.18298C13.2348 6.43294 13.0553 6.63984 12.82 6.76009C12.6749 6.79028 12.5251 6.79028 12.38 6.76009C12.1926 6.76047 12.0088 6.70816 11.8497 6.60915ZM22 14H31C31.2652 14 31.5196 14.1054 31.7071 14.2929C31.8946 14.4804 32 14.7348 32 15C32 15.2652 31.8946 15.5196 31.7071 15.7071C31.5196 15.8946 31.2652 16 31 16H1C0.734784 16 0.48043 15.8946 0.292893 15.7071C0.105357 15.5196 0 15.2652 0 15C0 14.7348 0.105357 14.4804 0.292893 14.2929C0.48043 14.1054 0.734784 14 1 14H10C10 12.4087 10.6321 10.8826 11.7574 9.75736C12.8826 8.63214 14.4087 8 16 8C17.5913 8 19.1174 8.63214 20.2426 9.75736C21.3679 10.8826 22 12.4087 22 14ZM13.1716 11.1716C12.4214 11.9217 12 12.9391 12 14H20C20 12.9391 19.5786 11.9217 18.8284 11.1716C18.0783 10.4214 17.0609 10 16 10C14.9391 10 13.9217 10.4214 13.1716 11.1716ZM19.18 6.66009C19.4217 6.75358 19.6887 6.7587 19.9339 6.67454C20.1791 6.59038 20.3866 6.42235 20.52 6.20009L22 3.44009C22.1167 3.2014 22.1338 2.92612 22.0475 2.67482C21.9612 2.42352 21.7787 2.21679 21.54 2.10009C21.3013 1.98339 21.026 1.9663 20.7747 2.05257C20.5234 2.13883 20.3167 2.3214 20.2 2.56009L18.72 5.32009C18.662 5.43824 18.6278 5.56667 18.6196 5.69804C18.6113 5.8294 18.629 5.96111 18.6718 6.0856C18.7145 6.2101 18.7814 6.32493 18.8686 6.42351C18.9558 6.5221 19.0616 6.60249 19.18 6.66009ZM27.44 10.0002L24.68 11.2802C24.4515 11.3956 24.1884 11.4227 23.9411 11.3563C23.6939 11.2899 23.4798 11.1346 23.34 10.9202C23.2819 10.802 23.2478 10.6736 23.2395 10.5422C23.2313 10.4109 23.249 10.2792 23.2917 10.1547C23.3345 10.0302 23.4014 9.91535 23.4886 9.81677C23.5758 9.71818 23.6816 9.63779 23.8 9.58019L26.56 8.20019C26.7987 8.08349 27.0739 8.0664 27.3252 8.15266C27.5765 8.23893 27.7833 8.42149 27.9 8.66019C28.0167 8.89888 28.0338 9.17416 27.9475 9.42546C27.8612 9.67676 27.6787 9.88349 27.44 10.0002ZM4.56003 9.79999L7.32003 11.18C7.55946 11.2919 7.83297 11.3064 8.08292 11.2206C8.33288 11.1348 8.53978 10.9553 8.66003 10.72C8.77188 10.4806 8.78644 10.2071 8.70063 9.9571C8.61483 9.70714 8.43536 9.50025 8.20003 9.37999L5.44003 7.99999C5.20133 7.8833 4.92606 7.8662 4.67476 7.95247C4.42346 8.03874 4.21672 8.2213 4.10003 8.45999C3.98333 8.69869 3.96624 8.97396 4.05251 9.22526C4.13877 9.47656 4.32133 9.6833 4.56003 9.79999ZM8.29289 18.2929C8.48043 18.1054 8.73478 18 9 18H23C23.2652 18 23.5196 18.1054 23.7071 18.2929C23.8946 18.4804 24 18.7348 24 19C24 19.2652 23.8946 19.5196 23.7071 19.7071C23.5196 19.8946 23.2652 20 23 20H9C8.73478 20 8.48043 19.8946 8.29289 19.7071C8.10536 19.5196 8 19.2652 8 19C8 18.7348 8.10536 18.4804 8.29289 18.2929ZM11 22C10.7348 22 10.4804 22.1054 10.2929 22.2929C10.1054 22.4804 10 22.7348 10 23C10 23.2652 10.1054 23.5196 10.2929 23.7071C10.4804 23.8946 10.7348 24 11 24H21C21.2652 24 21.5196 23.8946 21.7071 23.7071C21.8946 23.5196 22 23.2652 22 23C22 22.7348 21.8946 22.4804 21.7071 22.2929C21.5196 22.1054 21.2652 22 21 22H11ZM14.2929 26.2929C14.4804 26.1054 14.7348 26 15 26H17C17.2652 26 17.5196 26.1054 17.7071 26.2929C17.8946 26.4804 18 26.7348 18 27C18 27.2652 17.8946 27.5196 17.7071 27.7071C17.5196 27.8946 17.2652 28 17 28H15C14.7348 28 14.4804 27.8946 14.2929 27.7071C14.1054 27.5196 14 27.2652 14 27C14 26.7348 14.1054 26.4804 14.2929 26.2929Z" fill="black"/>
</svg>
