<svg width="32" height="32" viewBox="0 0 32 32" fill="none" xmlns="http://www.w3.org/2000/svg">
<path d="M15.7257 27.1491C15.8207 27.6932 15.4567 28.2113 14.9126 28.3062C14.4757 28.3825 14.0278 28.4212 13.5814 28.4212C13.0292 28.4212 12.5814 27.9734 12.5814 27.4212C12.5814 26.8689 13.0292 26.4212 13.5814 26.4212C13.9128 26.4212 14.245 26.3926 14.5686 26.336C15.1127 26.2411 15.6307 26.6051 15.7257 27.1491ZM20.3008 19.7018C19.7485 19.7018 19.3008 20.1496 19.3008 20.7018C19.3008 22.4491 18.514 24.0791 17.1423 25.1739C16.7106 25.5184 16.64 26.1477 16.9845 26.5793C17.182 26.8268 17.473 26.9556 17.7667 26.9556C17.9854 26.9556 18.2057 26.8841 18.3899 26.7371C20.2398 25.2606 21.3008 23.0608 21.3008 20.7018C21.3008 20.1495 20.8531 19.7018 20.3008 19.7018ZM29.1316 17.3896V20.0823C29.1316 22.3677 27.2723 24.2271 24.9869 24.2271H23.698C22.8415 26.6776 21.119 28.7251 18.8982 29.9999H23.1525C23.7048 29.9999 24.1525 30.4477 24.1525 30.9999C24.1525 31.5522 23.7048 31.9999 23.1525 31.9999H4.01035C3.4581 31.9999 3.01035 31.5522 3.01035 30.9999C3.01035 30.4477 3.4581 29.9999 4.01035 29.9999H8.26466C5.04304 28.1506 2.86829 24.6754 2.86829 20.7017V10.3089C2.86829 9.75663 3.31604 9.30888 3.86829 9.30888H23.2945C23.8468 9.30888 24.2945 9.75663 24.2945 10.3089V13.2449H24.9868C27.2723 13.2449 29.1316 15.1042 29.1316 17.3896ZM22.2946 20.7018V15.2449H10.5712C10.0189 15.2449 9.57116 14.7972 9.57116 14.2449C9.57116 13.6927 10.0189 13.2449 10.5712 13.2449H22.2946V11.3089H4.86835V20.7018C4.86835 25.5063 8.77704 29.4149 13.5815 29.4149C18.3859 29.4149 22.2946 25.5063 22.2946 20.7018ZM27.1316 17.3896C27.1316 16.2071 26.1695 15.2449 24.9869 15.2449H24.2946V20.7018C24.2946 21.2196 24.2569 21.7288 24.1855 22.2271H24.9869C26.1695 22.2271 27.1316 21.265 27.1316 20.0824V17.3896ZM7.49422 13.2449H6.95366C6.40141 13.2449 5.95366 13.6927 5.95366 14.2449C5.95366 14.7972 6.40141 15.2449 6.95366 15.2449H7.49422C8.04647 15.2449 8.49422 14.7972 8.49422 14.2449C8.49422 13.6927 8.04654 13.2449 7.49422 13.2449ZM8.43479 7.77019C8.98704 7.77019 9.43478 7.32244 9.43478 6.77019V2.60775C9.43478 2.0555 8.98704 1.60775 8.43479 1.60775C7.88254 1.60775 7.43479 2.0555 7.43479 2.60775V6.77019C7.43479 7.32244 7.88247 7.77019 8.43479 7.77019ZM13.4527 7.77019C14.0049 7.77019 14.4527 7.32244 14.4527 6.77019V1C14.4527 0.44775 14.0049 0 13.4527 0C12.9004 0 12.4527 0.44775 12.4527 1V6.77012C12.4527 7.32244 12.9003 7.77019 13.4527 7.77019ZM18.4705 7.77019C19.0228 7.77019 19.4705 7.32244 19.4705 6.77019V2.60775C19.4705 2.0555 19.0228 1.60775 18.4705 1.60775C17.9183 1.60775 17.4705 2.0555 17.4705 2.60775V6.77019C17.4705 7.32244 17.9183 7.77019 18.4705 7.77019Z" fill="black"/>
</svg>
