<svg width="32" height="32" viewBox="0 0 32 32" fill="none" xmlns="http://www.w3.org/2000/svg">
<path fill-rule="evenodd" clip-rule="evenodd" d="M12.1556 23.1685V10.8344C12.1556 10.2821 12.6034 9.83444 13.1556 9.83444C13.7079 9.83444 14.1556 10.2821 14.1556 10.8344V23.1686C14.1556 23.7209 13.7079 24.1686 13.1556 24.1686C12.6034 24.1686 12.1556 23.7208 12.1556 23.1685ZM24.3349 12.418C25.849 15.4777 25.7532 20.32 24.1377 22.382C23.9405 22.6338 23.6466 22.7653 23.3499 22.7654C23.1341 22.7654 22.9168 22.6959 22.7338 22.5525C22.299 22.2119 22.2227 21.5833 22.5634 21.1486C23.4941 19.9606 23.9044 16.0573 22.5424 13.3051C22.0086 12.2264 21.2925 11.5487 20.4065 11.2815L20.8939 28.8221C20.914 29.5454 20.6472 30.2292 20.1428 30.7478C19.6609 31.2432 19.0222 31.526 18.3352 31.5502C16.6165 31.8487 14.8859 31.998 13.1555 31.998C11.4251 31.998 9.69454 31.8487 7.97592 31.5502C7.28898 31.526 6.65023 31.2432 6.16829 30.7478C5.66392 30.2292 5.39717 29.5454 5.41717 28.8222L5.82935 13.9881L2.4351 9.1465C2.22098 8.84106 2.1946 8.44188 2.36679 8.111C2.53892 7.78006 2.88092 7.5725 3.25392 7.5725H6.48679C6.96954 6.92238 7.74292 6.50562 8.62054 6.50562H17.6905C19.1392 6.50562 20.3054 7.64 20.3455 9.08813L20.3492 9.22087C22.0444 9.49819 23.4387 10.6069 24.3349 12.418ZM7.96485 9.14338L7.4896 26.2471C9.38267 26.4648 11.2862 26.5765 13.1557 26.5765C15.0252 26.5765 16.9287 26.4648 18.8217 26.2471L18.3464 9.1435C18.3365 8.78569 18.0484 8.5055 17.6906 8.5055H8.6206C8.26279 8.5055 7.97473 8.78569 7.96485 9.14338ZM5.92254 10.6368L5.9521 9.57238H5.17629L5.92254 10.6368ZM18.8947 28.8776L18.8774 28.2542C16.9657 28.4676 15.0442 28.5765 13.1555 28.5765C11.267 28.5765 9.34548 28.4676 7.43373 28.2542L7.41642 28.8776C7.41148 29.0562 7.47735 29.2251 7.60198 29.3532C7.7266 29.4813 7.89367 29.5519 8.07248 29.5519C8.13067 29.5519 8.18879 29.5569 8.2461 29.5671C11.5037 30.1414 14.8073 30.1414 18.065 29.5671C18.1223 29.5569 18.1804 29.5519 18.2386 29.5519C18.4174 29.5519 18.5845 29.4813 18.7091 29.3532C18.8337 29.2252 18.8997 29.0562 18.8947 28.8776ZM22.1269 0C21.5746 0 21.1269 0.447688 21.1269 1C21.1269 1.55231 21.5746 2 22.1269 2C25.2254 2 27.7462 4.52081 27.7462 7.61931C27.7462 8.17163 28.194 8.61931 28.7462 8.61931C29.2985 8.61931 29.7462 8.17163 29.7462 7.61931C29.7462 3.418 26.3282 0 22.1269 0ZM22.1269 3.2675C21.5746 3.2675 21.1269 3.71519 21.1269 4.2675C21.1269 4.81981 21.5746 5.2675 22.1269 5.2675C23.4237 5.2675 24.4787 6.3225 24.4787 7.61931C24.4787 8.17163 24.9264 8.61931 25.4787 8.61931C26.0309 8.61931 26.4787 8.17163 26.4787 7.61931C26.4787 5.21975 24.5264 3.2675 22.1269 3.2675ZM23.3254 7.57719C23.3254 6.94037 22.8059 6.42094 22.1691 6.42094C21.5323 6.42094 21.0129 6.94037 21.0129 7.57719C21.0129 8.214 21.5323 8.73344 22.1691 8.73344C22.8059 8.73344 23.3254 8.214 23.3254 7.57719Z" fill="black"/>
</svg>
