<svg width="27" height="36" viewBox="0 0 27 36" fill="none" xmlns="http://www.w3.org/2000/svg">
<path d="M25.4 9.3C25.4 23.22 25.4 30.95 25.4 32.5C25.4 33.4 24.6 34.1 23.5 34.1C21.49 34.1 5.41 34.1 3.4 34.1C2.4 34.1 1.5 33.4 1.5 32.5C1.5 30.95 1.5 23.22 1.5 9.3M17.8 29.5C17.8 27.94 17.8 15.46 17.8 13.9C17.8 12.8 18.7 12 19.7 12C20.8 12 21.6 12.9 21.6 13.9C21.6 15.45 21.6 27.85 21.6 29.4C21.6 30.5 20.8 31.4 19.7 31.4C18.6 31.4 17.8 30.5 17.8 29.5ZM1.7 9.3C0.8 9.3 0 8.5 0 7.6C0 7.01 0 2.29 0 1.7C0 0.8 0.8 0 1.7 0C4.06 0 22.94 0 25.3 0C26.2 0 27 0.8 27 1.7C27 2.29 27 7.01 27 7.6C27 8.5 26.2 9.3 25.3 9.3C20.58 9.3 4.06 9.3 1.7 9.3ZM12.4 9.3C12.4 10.32 12.4 10.89 12.4 11C12.4 11.8 11.7 12.5 10.9 12.5C10.62 12.5 8.38 12.5 8.1 12.5C7.3 12.5 6.6 11.8 6.6 11C6.6 10.89 6.6 10.32 6.6 9.3M17.8 16.8L21.6 16.8" stroke="red"/>
</svg>