<svg width="26" height="37" viewBox="0 0 26 37" fill="none" xmlns="http://www.w3.org/2000/svg">
<path d="M8.87 27.55C6.34 29.35 7.08 31.15 8.66 32.21C10.35 33.37 10.25 35.6 8.56 36.87M13.62 27.55C11.09 29.35 11.83 31.15 13.41 32.21C15.1 33.37 15 35.6 13.31 36.87M18.27 27.55C15.73 29.35 16.47 31.15 18.06 32.21C19.75 33.37 19.64 35.6 17.95 36.87M4.84 0C6.44 0 19.24 0 20.84 0C23.27 0 25.24 1.97 25.24 4.4C25.24 6 25.24 18.8 25.24 20.4C25.24 22.83 23.27 24.8 20.84 24.8C19.24 24.8 6.44 24.8 4.84 24.8C2.41 24.8 0.44 22.83 0.44 20.4C0.44 19.33 0.44 14 0.44 4.4C1.75 1.47 3.22 0 4.84 0ZM0.68 18.4C0.68 18.4 0.68 18.4 0.68 18.4C0.68 18.4 0.68 18.4 0.68 18.39C0.68 18.39 0.68 18.39 0.68 18.39C0.69 18.39 0.7 18.38 0.71 18.38C0.73 18.36 0.76 18.34 0.79 18.32C0.87 18.26 0.98 18.19 1.13 18.09C1.41 17.9 1.82 17.62 2.32 17.29C3.31 16.62 4.64 15.72 5.99 14.82C7.34 13.92 8.71 13.02 9.8 12.33C10.34 11.98 10.8 11.69 11.16 11.48C11.33 11.37 11.48 11.29 11.58 11.23C11.71 11.16 11.74 11.16 11.72 11.16C11.68 11.05 11.42 10.12 11.39 10.01C11.27 10.04 11.13 10.12 11.02 10.17C10.88 10.25 10.72 10.34 10.54 10.45C10.17 10.67 9.7 10.97 9.15 11.32C8.06 12.01 6.68 12.92 5.32 13.83C3.97 14.73 2.64 15.62 1.65 16.29C1.15 16.63 0.74 16.9 0.45 17.1C0.31 17.2 0.2 17.27 0.12 17.32C0.08 17.35 0.05 17.37 0.03 17.38C0.02 17.39 0.02 17.4 0.01 17.4C0.01 17.4 0.01 17.4 0 17.4C0 17.4 0 17.4 0 17.4C0 17.4 0 17.4 0 17.4C0 17.4 0 17.4 0.34 17.9C0.68 18.4 0.68 18.4 0.68 18.4ZM12.9 11C13.33 10.99 13.68 11.05 13.89 11.14C13.94 11.03 14.31 10.14 14.36 10.03C13.93 9.85 13.38 9.79 12.88 9.8C12.37 9.81 11.83 9.88 11.39 10.01C11.41 10.08 11.52 10.47 11.72 11.16C12.23 11.06 12.62 11 12.9 11ZM14.05 11.23C14.16 11.29 14.3 11.38 14.48 11.49C14.82 11.7 15.28 12 15.82 12.35C16.9 13.04 18.28 13.95 19.64 14.85C21.01 15.74 22.35 16.63 23.35 17.3C23.85 17.63 24.26 17.9 24.55 18.1C24.7 18.19 24.81 18.27 24.89 18.32C24.93 18.35 24.96 18.37 24.98 18.38C24.99 18.39 24.99 18.39 25 18.39C25 18.4 25 18.4 25.01 18.4C25.01 18.4 25.01 18.4 25.01 18.4C25.01 18.4 25.01 18.4 25.01 18.4C25.01 18.4 25.01 18.4 25.34 17.9C25.67 17.4 25.67 17.4 25.67 17.4C25.67 17.4 25.67 17.4 25.67 17.4C25.67 17.4 25.67 17.4 25.67 17.4C25.67 17.4 25.67 17.4 25.67 17.4C25.66 17.39 25.65 17.39 25.64 17.38C25.62 17.37 25.59 17.35 25.55 17.32C25.48 17.27 25.36 17.19 25.22 17.1C24.93 16.9 24.51 16.63 24.01 16.3C23.01 15.63 21.67 14.74 20.3 13.84C18.94 12.95 17.56 12.04 16.48 11.34C15.93 10.99 15.47 10.69 15.11 10.47C14.93 10.36 14.78 10.27 14.66 10.2C14.56 10.13 14.44 10.07 14.36 10.03C14.33 10.11 14.17 10.47 13.89 11.14C13.92 11.15 13.97 11.18 14.05 11.23Z" fill="red"/>
</svg>