<svg width="32" height="32" viewBox="0 0 32 32" fill="none" xmlns="http://www.w3.org/2000/svg">
<g clip-path="url(#clip0)">
<path fill-rule="evenodd" clip-rule="evenodd" d="M23.0958 0.9375C23.0958 0.41975 23.5156 0 24.0333 0C28.4262 0 32 3.57387 32 7.96669C32 8.48444 31.5803 8.90419 31.0625 8.90419C30.5448 8.90419 30.125 8.48444 30.125 7.96669C30.125 4.60775 27.3923 1.875 24.0333 1.875C23.5156 1.875 23.0958 1.45525 23.0958 0.9375ZM23.0958 4.45203C23.0958 3.93428 23.5156 3.51453 24.0333 3.51453C26.4883 3.51453 28.4855 5.51178 28.4854 7.96659C28.4854 8.48434 28.0656 8.90409 27.5479 8.90409C27.0301 8.90409 26.6104 8.48434 26.6104 7.96659C26.6104 6.54559 25.4543 5.38953 24.0333 5.38953C23.5156 5.38953 23.0958 4.96978 23.0958 4.45203ZM24.0333 8.90417C24.5511 8.90417 24.9708 8.48444 24.9708 7.96667C24.9708 7.44891 24.5511 7.02917 24.0333 7.02917C23.5156 7.02917 23.0958 7.44891 23.0958 7.96667C23.0958 8.48444 23.5156 8.90417 24.0333 8.90417ZM18.0084 2.0083C18.4553 2.0083 18.8401 2.32374 18.9277 2.76199L21.9401 17.8245C21.9951 18.0999 21.9239 18.3854 21.7458 18.6027C21.5677 18.8199 21.3016 18.9458 21.0208 18.9458H11.9166V26.1083H12.9875C15.7192 26.1083 17.9416 28.3307 17.9416 31.0625C17.9416 31.5802 17.5219 32 17.0041 32H4.95414C4.43639 32 4.01664 31.5802 4.01664 31.0625C4.01664 28.3307 6.23908 26.1083 8.97083 26.1083H10.0417V18.9458H0.937515C0.656577 18.9458 0.390577 18.8199 0.212452 18.6027C0.0344523 18.3855 -0.0368602 18.0999 0.0182023 17.8245L3.0307 2.76199C3.11833 2.32374 3.50314 2.0083 3.95001 2.0083H18.0084ZM15.9208 30.125C15.5233 28.8841 14.3586 27.9833 12.9875 27.9833H8.97089C7.59976 27.9833 6.43508 28.8841 6.03758 30.125H15.9208ZM4.71858 3.88336L2.08108 17.0709H19.8773L17.2398 3.88336H4.71858Z" fill="black"/>
</g>
<defs>
<clipPath id="clip0">
<rect width="32" height="32" fill="white"/>
</clipPath>
</defs>
</svg>
