<svg width="32" height="32" viewBox="0 0 32 32" fill="none" xmlns="http://www.w3.org/2000/svg">
<path fill-rule="evenodd" clip-rule="evenodd" d="M28.2768 1.39169H3.72319C1.67025 1.39169 0 3.06188 0 5.11488V21.3305C0 23.3835 1.67025 25.0537 3.72319 25.0537H8.31544L7.44844 28.6082H5.99925C5.447 28.6082 4.99925 29.0559 4.99925 29.6082C4.99925 30.1604 5.447 30.6082 5.99925 30.6082H26.0008C26.5531 30.6082 27.0008 30.1604 27.0008 29.6082C27.0008 29.0559 26.5531 28.6082 26.0008 28.6082H24.6179L24.0451 25.0537H28.2768C30.3298 25.0537 32 23.3834 32 21.3305V5.11488C32 3.06188 30.3298 1.39169 28.2768 1.39169ZM22.5921 28.6082H9.50712L10.3741 25.0537H22.0193L22.5921 28.6082ZM30 21.3305C30 22.2807 29.227 23.0537 28.2768 23.0537H3.72319C2.773 23.0537 2 22.2807 2 21.3305V5.11488C2 4.16469 2.773 3.39169 3.72319 3.39169H28.2768C29.2269 3.39169 29.9999 4.16469 29.9999 5.11488V21.3305H30ZM22.6968 10.4694C23.0874 10.8599 23.0874 11.4931 22.6968 11.8836C22.3063 12.2742 21.6731 12.2742 21.2826 11.8836C19.8741 10.4751 17.9979 9.69938 15.9998 9.69944C14.0018 9.69951 12.1258 10.4752 10.7173 11.8836C10.522 12.0789 10.2661 12.1766 10.0102 12.1766C9.75425 12.1766 9.49837 12.0789 9.30313 11.8837C8.91256 11.4931 8.91256 10.86 9.30313 10.4695C11.0893 8.68332 13.4676 7.69957 15.9998 7.69951C18.5321 7.69932 20.9105 8.68307 22.6968 10.4694ZM19.7401 13.4262C20.1306 13.8167 20.1306 14.4499 19.7401 14.8404C19.5448 15.0357 19.2889 15.1333 19.033 15.1333C18.7771 15.1333 18.5212 15.0357 18.3259 14.8404C17.7046 14.2191 16.8786 13.8769 16.0001 13.8768C15.1216 13.8768 14.2955 14.219 13.6741 14.8404C13.2836 15.2309 12.6504 15.2309 12.2599 14.8404C11.8694 14.4499 11.8694 13.8167 12.2599 13.4262C14.3222 11.3639 17.6779 11.3639 19.7401 13.4262ZM17.2106 17.0899C17.2106 17.7566 16.6668 18.3003 16.0001 18.3003C15.3334 18.3003 14.7897 17.7566 14.7897 17.0899C14.7897 16.4232 15.3334 15.8794 16.0001 15.8794C16.6668 15.8794 17.2106 16.4232 17.2106 17.0899Z" fill="black"/>
</svg>
