<svg version="1.1" xmlns="http://www.w3.org/2000/svg" xmlns:xlink="http://www.w3.org/1999/xlink" fill="none" viewBox="0 0 34 34" width="34" height="34">

<path d="M4.29765 25.3403C4.56963 25.1539 4.92814 25.1534 5.20059 25.3392C5.57165 25.5921 6.05887 25.8107 6.63696 25.9648C7.21331 26.1185 7.84999 26.2001 8.49995 26.2001C9.14991 26.2001 9.78659 26.1185 10.3629 25.9648C10.941 25.8107 11.4282 25.5921 11.7993 25.3392C12.0724 25.153 12.4318 25.1539 12.7039 25.3414C13.0712 25.5946 13.5566 25.8137 14.1345 25.9678C14.7106 26.1214 15.3477 26.2021 15.9975 26.2001C16.4394 26.1988 16.7986 26.5559 16.7999 26.9977C16.8013 27.4395 16.4442 27.7988 16.0024 27.8001C15.221 27.8025 14.4431 27.706 13.7223 27.5138C13.1917 27.3723 12.6927 27.1791 12.2481 26.9363C11.8032 27.1773 11.3048 27.3696 10.7752 27.5108C10.0557 27.7026 9.2799 27.8001 8.49995 27.8001C7.72001 27.8001 6.94415 27.7026 6.22474 27.5108C5.69471 27.3695 5.19599 27.177 4.7509 26.9357C4.30593 27.1779 3.80688 27.3708 3.2764 27.5123C2.55628 27.7043 1.77939 27.8013 0.998751 27.8001C0.556924 27.7995 0.199289 27.4407 0.199952 26.9989C0.200615 26.5571 0.559324 26.1995 1.00115 26.2001C1.65105 26.2011 2.28794 26.12 2.86415 25.9663C3.44215 25.8122 3.92845 25.5934 4.29765 25.3403Z M12.7537 29.3727C13.0439 29.1431 13.4537 29.1426 13.7446 29.3714C14.0539 29.6147 14.4597 29.8248 14.942 29.9732C15.4232 30.1212 15.9557 30.2001 16.5 30.2001C17.0442 30.2001 17.5767 30.1212 18.0579 29.9732C18.5402 29.8248 18.946 29.6147 19.2553 29.3714C19.5468 29.1421 19.9576 29.1432 20.2479 29.374C20.554 29.6174 20.958 29.8279 21.4399 29.9762C21.9206 30.1241 22.4532 30.202 22.9972 30.2001C23.439 30.1986 23.7984 30.5555 23.7999 30.9973C23.8015 31.4391 23.4446 31.7986 23.0027 31.8001C22.3063 31.8025 21.6126 31.7033 20.9693 31.5054C20.5325 31.371 20.12 31.1913 19.748 30.9686C19.376 31.1897 18.9643 31.3683 18.5284 31.5024C17.8866 31.6999 17.1949 31.8001 16.5 31.8001C15.805 31.8001 15.1133 31.6999 14.4715 31.5024C14.0353 31.3682 13.6232 31.1893 13.2509 30.968C12.8787 31.1902 12.4662 31.3696 12.0295 31.5039C11.387 31.7016 10.6943 31.8013 9.99857 31.8001C9.55674 31.7994 9.19919 31.4406 9.19995 30.9987C9.20072 30.5569 9.55951 30.1994 10.0013 30.2001C10.5454 30.2011 11.078 30.1227 11.559 29.9747C12.041 29.8264 12.446 29.6161 12.7537 29.3727Z M19.2977 25.3403C19.5696 25.1539 19.9281 25.1534 20.2006 25.3392C20.5717 25.5921 21.0589 25.8107 21.637 25.9648C22.2133 26.1185 22.85 26.2001 23.5 26.2001C24.1499 26.2001 24.7866 26.1185 25.3629 25.9648C25.941 25.8107 26.4282 25.5921 26.7993 25.3392C27.0724 25.153 27.4318 25.1539 27.7039 25.3414C28.0712 25.5946 28.5566 25.8137 29.1345 25.9678C29.7106 26.1214 30.3477 26.2021 30.9975 26.2001C31.4394 26.1988 31.7986 26.5559 31.7999 26.9977C31.8013 27.4395 31.4442 27.7988 31.0024 27.8001C30.221 27.8025 29.4431 27.706 28.7223 27.5138C28.1917 27.3723 27.6927 27.1791 27.2481 26.9363C26.8032 27.1773 26.3048 27.3696 25.7752 27.5108C25.0557 27.7026 24.2799 27.8001 23.5 27.8001C22.72 27.8001 21.9442 27.7026 21.2247 27.5108C20.6947 27.3695 20.196 27.177 19.7509 26.9357C19.3059 27.1779 18.8069 27.3708 18.2764 27.5123C17.5563 27.7043 16.7794 27.8013 15.9988 27.8001C15.5569 27.7995 15.1993 27.4407 15.2 26.9989C15.2006 26.5571 15.5593 26.1995 16.0012 26.2001C16.6511 26.2011 17.2879 26.12 17.8642 25.9663C18.4422 25.8122 18.9284 25.5934 19.2977 25.3403Z M17.7841 14.5626C17.1999 16.4538 16.9216 18.4172 16.7991 21.0375L15.2008 20.9628C15.3269 18.2654 15.6173 16.1561 16.2554 14.0904C16.8925 12.0276 17.8646 10.0465 19.3108 7.59381L20.6891 8.4065C19.2728 10.8084 18.3692 12.6684 17.7841 14.5626Z M20.0718 14.8441C19.8816 16.8038 20.0053 18.772 20.4142 21.3486L18.8339 21.5994C18.4129 18.9461 18.2713 16.832 18.4792 14.6896C18.6868 12.5504 19.239 10.4229 20.1601 7.74035L21.6734 8.25996C20.7714 10.8867 20.2622 12.8812 20.0718 14.8441Z M27.4788 26.6815C27.1395 26.9644 26.635 26.9187 26.3521 26.5794C25.1634 25.1537 23.6689 23.9988 21.9729 23.1969C20.2769 22.395 18.4212 21.966 16.5367 21.9407C14.6522 21.9154 12.7857 22.2944 11.0688 23.0505C9.35189 23.8066 7.82692 24.921 6.60044 26.3142C6.30849 26.6459 5.80298 26.678 5.47135 26.3861C5.13972 26.0942 5.10755 25.5886 5.39949 25.257C6.78099 23.6877 8.49629 22.4351 10.4239 21.5862C12.3516 20.7374 14.4454 20.3125 16.5582 20.3408C18.6711 20.3692 20.7527 20.8501 22.6568 21.7504C24.561 22.6508 26.2421 23.9489 27.5809 25.5547C27.8639 25.8941 27.8182 26.3986 27.4788 26.6815Z M10.4023 9.38553C11.2051 8.37514 12.4507 7.16842 14.1433 6.61025C15.9289 6.0214 17.4777 6.57564 18.5239 7.21908C19.0482 7.54156 19.4643 7.89607 19.7493 8.16907C19.8925 8.30627 20.0046 8.4248 20.0827 8.51125C20.1218 8.55453 20.1526 8.58993 20.1746 8.6158C20.1856 8.62874 20.1944 8.63932 20.201 8.64732L20.2092 8.65737L20.2121 8.66091L20.2132 8.66229C20.2135 8.66257 20.2141 8.66342 19.5907 9.16479L20.2141 8.66342C20.4013 8.89615 20.4433 9.21375 20.3229 9.48708C20.2026 9.76042 19.9401 9.94399 19.642 9.96314C15.9331 10.2015 13.9025 10.7676 10.2113 12.3946C9.90663 12.5289 9.55062 12.4605 9.31748 12.2228C9.08433 11.985 9.02281 11.6278 9.163 11.3258L9.88863 11.6626C9.163 11.3258 9.16289 11.326 9.163 11.3258L9.16411 11.3234L9.1658 11.3198L9.1709 11.309L9.18802 11.2736C9.20251 11.244 9.22316 11.2025 9.24996 11.1507C9.30352 11.0472 9.38182 10.9017 9.48475 10.7257C9.69009 10.3745 9.99612 9.89682 10.4023 9.38553ZM12.0659 9.89863C13.9739 9.18154 15.598 8.77454 17.6118 8.53733C16.8117 8.06341 15.7899 7.752 14.6444 8.12976C13.5993 8.47438 12.734 9.16841 12.0659 9.89863ZM10.6137 12.0006C10.6136 12.0008 10.6136 12.0008 10.6137 12.0006V12.0006Z M17.7413 1.28216C18.8802 1.77845 20.317 2.63437 21.3082 4.05802C22.3514 5.5564 22.3209 7.12504 22.0537 8.26694C21.9204 8.83708 21.7259 9.31466 21.565 9.65011C21.4842 9.81865 21.4108 9.95361 21.3559 10.049C21.3285 10.0967 21.3055 10.1347 21.2885 10.1623C21.28 10.176 21.273 10.1872 21.2676 10.1957L21.2607 10.2063L21.2582 10.2101L21.2572 10.2116C21.257 10.212 21.2564 10.2129 20.5882 9.77307L21.2564 10.2129C21.0917 10.4631 20.801 10.6004 20.5031 10.5685C20.2052 10.5367 19.9501 10.3411 19.842 10.0617C18.5339 6.67988 17.4287 4.93423 14.8891 1.91185C14.6725 1.65398 14.6405 1.28803 14.8092 0.99651C14.9779 0.704993 15.3111 0.55036 15.6426 0.609738L15.5016 1.39721C15.6426 0.609738 15.6424 0.60969 15.6426 0.609738L15.6438 0.609939L15.6452 0.610199L15.649 0.610895L15.6603 0.61301L15.6973 0.620238C15.7283 0.626429 15.7715 0.635431 15.8258 0.64757C15.9343 0.671834 16.0875 0.708725 16.2751 0.760907C16.6495 0.865034 17.1658 1.03134 17.7413 1.28216ZM17.9337 3.16356C18.6897 3.59295 19.4443 4.18107 19.9951 4.97222C20.6203 5.87024 20.6886 6.80811 20.5546 7.60955C19.8054 5.95004 19.0183 4.62569 17.9337 3.16356Z M21.8774 8.74654C23.3893 9.09397 25.3325 9.81106 26.8574 11.3121C28.4471 12.8769 28.7658 14.7676 28.7013 16.2113C28.669 16.9323 28.5416 17.5558 28.4227 17.9994C28.3629 18.2221 28.3047 18.4019 28.2602 18.5289C28.238 18.5924 28.2191 18.6429 28.2051 18.6791C28.1981 18.6973 28.1923 18.7118 28.1879 18.7227L28.1824 18.7362L28.1805 18.7408L28.1798 18.7426C28.1797 18.7429 28.1792 18.744 27.4414 18.4347L28.1792 18.744C28.0634 19.0203 27.8029 19.2087 27.5042 19.2322C27.2056 19.2557 26.9188 19.1104 26.7612 18.8557C24.3328 14.9319 22.5352 13.0016 18.6594 9.82301C18.399 9.60943 18.3002 9.25561 18.4124 8.93802C18.5246 8.62044 18.8236 8.40712 19.1604 8.40446L19.1667 9.20444C19.1604 8.40446 19.1602 8.40446 19.1604 8.40446L19.1632 8.40444L19.1676 8.40443L19.1811 8.40442L19.2266 8.40477C19.2649 8.40525 19.3192 8.40634 19.3879 8.40874C19.5253 8.41352 19.7206 8.42353 19.9621 8.4444C20.4442 8.48604 21.1149 8.57133 21.8774 8.74654ZM21.7706 10.3666C23.9649 12.3162 25.472 14.007 27.0855 16.404C27.0929 16.3179 27.0988 16.2297 27.1029 16.1398C27.1545 14.9853 26.9006 13.5997 25.735 12.4523C24.5793 11.3147 23.0787 10.6971 21.7706 10.3666Z M20.914 6.96602C21.7517 5.95698 23.0392 4.75456 24.7682 4.16956C26.5835 3.55538 28.1563 4.04367 29.2319 4.64777C29.769 4.94942 30.1949 5.28585 30.4869 5.54665C30.6336 5.67766 30.7484 5.79129 30.8285 5.87447C30.8686 5.91611 30.9002 5.95027 30.9229 5.97535C30.9342 5.98789 30.9434 5.99818 30.9502 6.00601L30.9589 6.01589L30.9619 6.0194L30.9631 6.0208C30.9633 6.02107 30.9641 6.02195 30.3557 6.54144L30.9641 6.02194C31.1586 6.24976 31.2096 6.56718 31.0961 6.84444C30.9826 7.1217 30.7238 7.31233 30.4253 7.33841C26.5928 7.67331 24.4859 8.28507 20.6585 9.97997C20.3505 10.1163 19.9901 10.0452 19.7571 9.80208C19.524 9.55894 19.4681 9.19586 19.6174 8.89393L20.3346 9.24848C19.6174 8.89393 19.6173 8.89418 19.6174 8.89393L19.6179 8.89291L19.6186 8.89158L19.6204 8.88801L19.6257 8.87734L19.6438 8.84225C19.659 8.81291 19.6808 8.77188 19.709 8.72052C19.7653 8.61788 19.8475 8.47364 19.9554 8.29889C20.1708 7.95013 20.4909 7.47567 20.914 6.96602ZM22.6596 7.41608C24.5986 6.68033 26.2557 6.24635 28.3021 5.96371C27.4976 5.54591 26.4597 5.28635 25.281 5.68516C24.2274 6.04164 23.3476 6.71169 22.6596 7.41608ZM21.0511 9.60418C21.051 9.60438 21.051 9.60437 21.0511 9.60418V9.60418Z" fill="yellow"></path></svg>