<svg width="35" height="35" viewBox="0 0 35 35" fill="none" xmlns="http://www.w3.org/2000/svg">
<path d="M25.84 10.45C25.37 10.45 24.91 10.52 24.43 10.71C23.87 11.01 19.43 13.44 18.87 13.74C18.26 13.96 17.82 14.3 17.55 14.71C17.31 14.28 16.94 13.92 16.48 13.72C16.78 13.55 17.06 13.3 17.31 12.99C17.92 12.23 22.81 6.16 23.42 5.41C24.02 4.66 24.25 3.79 24.06 2.95C23.87 2.11 23.29 1.43 22.43 1.02C22.35 0.98 20.41 0 17.62 0C17.58 0 17.31 0 17.27 0C14.26 0.09 12.23 1.72 12.2 1.75C10.6 2.74 9.83 4.98 10.5 6.81C10.81 7.37 13.23 11.81 13.53 12.37C13.77 13.01 14.14 13.47 14.59 13.74C14.09 13.97 13.69 14.37 13.46 14.88C13.33 14.72 13.17 14.56 12.99 14.41C12.23 13.8 6.17 8.91 5.41 8.3C4.84 7.84 4.19 7.6 3.53 7.6C2.46 7.6 1.52 8.24 1.02 9.29C0.98 9.38 -0.08 11.48 0 14.45C0.09 17.46 1.72 19.49 1.75 19.53C2.49 20.71 3.92 21.48 5.4 21.48C5.87 21.48 6.33 21.4 6.81 21.22C7.37 20.92 11.81 18.49 12.37 18.19C13 17.96 13.46 17.6 13.73 17.17C14.03 17.57 14.47 17.87 14.97 18C14.85 18.12 14.73 18.23 14.62 18.37C14.01 19.13 9.12 25.2 8.5 25.96C7.9 26.7 7.68 27.57 7.87 28.41C8.06 29.25 8.64 29.94 9.49 30.34C9.58 30.39 11.52 31.36 14.31 31.36C14.35 31.36 14.62 31.36 14.65 31.36C17.67 31.27 19.7 29.64 19.73 29.61C21.33 28.62 22.1 26.38 21.43 24.55C21.12 24 18.7 19.55 18.39 19C18.11 18.23 17.65 17.7 17.09 17.48C17.3 17.28 17.47 17.05 17.6 16.8C17.77 17.05 17.97 17.29 18.25 17.52C19.01 18.13 25.07 23.02 25.83 23.63C26.4 24.09 27.05 24.33 27.71 24.33C28.77 24.33 29.72 23.69 30.22 22.64C30.26 22.55 31.32 20.45 31.23 17.48C31.15 14.47 29.52 12.44 29.49 12.4C28.75 11.22 27.32 10.45 25.84 10.45ZM12.78 2.56C12.8 2.55 14.63 1.08 17.3 1C17.33 1 17.58 1 17.61 1C20.15 1 21.96 1.9 21.99 1.92C22.57 2.19 22.96 2.64 23.08 3.17C23.21 3.71 23.05 4.28 22.64 4.78C22.03 5.54 17.14 11.6 16.53 12.36C15.78 13.3 14.92 13.23 14.44 11.95C14.24 11.58 13.23 9.73 11.41 6.4C11.48 4.37 11.93 3.09 12.78 2.56ZM6.4 20.31C6.09 20.42 5.76 20.48 5.4 20.48C4.28 20.48 3.15 19.88 2.56 18.95C2.55 18.93 1.08 17.1 1.01 14.42C0.93 11.72 1.9 9.76 1.92 9.73C2.26 9.01 2.85 8.6 3.53 8.6C3.96 8.6 4.39 8.76 4.78 9.08C5.54 9.69 11.61 14.58 12.36 15.19C12.83 15.57 13.07 16 13.01 16.35C12.95 16.72 12.59 17.04 11.96 17.28C10.85 17.89 6.96 20 6.4 20.31ZM15.55 14.51C16.26 14.51 16.84 15.09 16.84 15.8C16.84 16.51 16.26 17.09 15.55 17.09C14.84 17.09 14.26 16.51 14.26 15.8C14.26 15.09 14.84 14.51 15.55 14.51ZM19.15 28.8C19.13 28.81 17.3 30.28 14.63 30.36C14.59 30.36 14.34 30.36 14.31 30.36C11.78 30.36 9.97 29.46 9.94 29.45C9.35 29.17 8.97 28.72 8.84 28.19C8.72 27.65 8.88 27.08 9.28 26.58C9.9 25.82 14.78 19.76 15.4 19C15.74 18.58 16.11 18.34 16.45 18.34C16.86 18.34 17.22 18.7 17.49 19.4C17.69 19.77 18.7 21.63 20.51 24.96C20.45 26.99 20 28.27 19.15 28.8ZM27.71 23.33C27.28 23.33 26.85 23.16 26.46 22.85C25.7 22.24 19.64 17.35 18.88 16.74C18.41 16.36 18.17 15.93 18.23 15.57C18.29 15.21 18.65 14.89 19.29 14.65C19.84 14.34 24.28 11.92 24.84 11.62C25.15 11.5 25.49 11.45 25.84 11.45C26.96 11.45 28.09 12.04 28.67 12.98C28.69 13 30.16 14.83 30.24 17.51C30.31 20.21 29.34 22.16 29.32 22.19C28.98 22.92 28.39 23.33 27.71 23.33Z" stroke="red"/>
</svg>