<svg width="36" height="35" viewBox="0 0 36 35" fill="none" xmlns="http://www.w3.org/2000/svg">
<path d="M33.4 31.8H3.4C2.3 31.8 1.5 30.9 1.5 29.9V22.2C1.5 21.1 2.4 20.3 3.4 20.3H33.4C34.5 20.3 35.3 21.2 35.3 22.2V29.9C35.3 31 34.5 31.8 33.4 31.8Z M5.10004 24.2H21.3 M28.6 28.9C30.1464 28.9 31.4 27.6464 31.4 26.1001C31.4 24.5537 30.1464 23.3 28.6 23.3C27.0537 23.3 25.8 24.5537 25.8 26.1001C25.8 27.6464 27.0537 28.9 28.6 28.9Z M14.6 20.3C19.8467 20.3 24.1 16.0468 24.1 10.8C24.1 5.55334 19.8467 1.30005 14.6 1.30005C9.35333 1.30005 5.10004 5.55334 5.10004 10.8C5.10004 16.0468 9.35333 20.3 14.6 20.3Z M14.6 12.8C15.7046 12.8 16.6 11.9046 16.6 10.8C16.6 9.69548 15.7046 8.80005 14.6 8.80005C13.4955 8.80005 12.6 9.69548 12.6 10.8C12.6 11.9046 13.4955 12.8 14.6 12.8Z M10.4 31.8H6.10004V34.4001H10.4V31.8Z M30.8 31.8H26.5V34.4001H30.8V31.8Z M9.40002 5.80005L11.4 7.70004 M17.9 14L19.7 15.7" stroke="red"/>
</svg>