<svg width="32" height="32" viewBox="0 0 32 32" fill="none" xmlns="http://www.w3.org/2000/svg">
<path fill-rule="evenodd" clip-rule="evenodd" d="M15.7251 4.98C15.7251 2.234 13.4911 0 10.745 0C9.41435 0 8.16403 0.518375 7.22585 1.45837C6.28453 2.39794 5.76616 3.64862 5.76616 4.98V20.0195C4.46035 21.3311 3.71997 23.1119 3.71997 24.9746C3.71997 28.8484 6.87135 32 10.745 32C14.6187 32 17.7702 28.8484 17.7702 24.9746C17.7702 23.1124 17.0301 21.3317 15.725 20.0198V4.98H15.7251ZM15.7702 24.9746C15.7702 27.7456 13.5159 30 10.745 30C7.97422 30 5.71997 27.7456 5.71997 24.9746C5.71997 23.5309 6.34197 22.1559 7.42653 21.2022C7.64247 21.0123 7.76622 20.7388 7.76622 20.4513V12.9129H9.31372C9.86603 12.9129 10.3137 12.4652 10.3137 11.9129C10.3137 11.3607 9.86603 10.9129 9.31372 10.9129H7.76622V8.39394H9.31372C9.86603 8.39394 10.3137 7.94619 10.3137 7.39394C10.3137 6.84169 9.86603 6.39394 9.31372 6.39394H7.76622V4.98C7.76622 4.1835 8.0761 3.43556 8.6401 2.87256C9.20172 2.30988 9.94922 2 10.745 2C12.3882 2 13.7251 3.33681 13.7251 4.98V20.4513C13.7251 20.7386 13.8487 21.0121 14.0644 21.2019C15.1484 22.156 15.7702 23.5311 15.7702 24.9746ZM11.745 22.4458V16.9912C11.745 16.439 11.2973 15.9913 10.745 15.9913C10.1927 15.9913 9.74503 16.439 9.74503 16.9912V22.4458C8.68003 22.8504 7.92091 23.8811 7.92091 25.0862C7.92091 26.6434 9.18785 27.9103 10.745 27.9103C12.3023 27.9103 13.5692 26.6434 13.5692 25.0862C13.5692 23.8811 12.81 22.8504 11.745 22.4458ZM10.745 25.9103C10.2906 25.9103 9.92091 25.5406 9.92091 25.0862C9.92091 24.6319 10.2906 24.2623 10.745 24.2623C11.1995 24.2623 11.5692 24.6319 11.5692 25.0862C11.5692 25.5406 11.1995 25.9103 10.745 25.9103ZM28.28 8.77763C28.28 9.32987 27.8323 9.77763 27.28 9.77763C26.7277 9.77763 26.28 9.32987 26.28 8.77763C26.28 5.04044 23.2396 2 19.5024 2C18.9501 2 18.5024 1.55225 18.5024 1C18.5024 0.44775 18.9501 0 19.5024 0C24.3424 0 28.28 3.93762 28.28 8.77763ZM24.4407 8.77763C24.4407 9.32987 23.993 9.77763 23.4407 9.77763C22.8884 9.77763 22.4407 9.32987 22.4407 8.77763C22.4407 7.15744 21.1226 5.83931 19.5024 5.83931C18.9501 5.83931 18.5024 5.39156 18.5024 4.83931C18.5024 4.28706 18.9501 3.83931 19.5024 3.83931C22.2253 3.83931 24.4407 6.05469 24.4407 8.77763ZM20.6635 8.72812C20.6635 9.34025 20.1642 9.83956 19.552 9.83956C18.9399 9.83956 18.4406 9.34031 18.4406 8.72812C18.4406 8.116 18.9399 7.61669 19.552 7.61669C20.1642 7.61669 20.6635 8.116 20.6635 8.72812Z" fill="black"/>
</svg>
