<svg width="417" height="473" viewBox="0 0 417 473" fill="none" xmlns="http://www.w3.org/2000/svg">
<path d="M105.53 78.65C113.1 78.65 119.26 72.48 119.26 64.91C119.26 63.67 119.26 53.77 119.26 52.54C119.26 44.96 113.1 38.8 105.53 38.8C102.4 38.8 77.42 38.8 74.3 38.8C66.72 38.8 60.56 44.96 60.56 52.54C60.56 53.77 60.56 63.67 60.56 64.91C60.56 72.48 66.72 78.65 74.3 78.65C80.54 78.65 102.4 78.65 105.53 78.65ZM74.3 50.8C77.42 50.8 102.4 50.8 105.53 50.8C106.47 50.8 107.26 51.6 107.26 52.54C107.26 53.77 107.26 63.67 107.26 64.91C107.26 65.85 106.47 66.65 105.53 66.65C102.4 66.65 77.42 66.65 74.3 66.65C73.36 66.65 72.56 65.85 72.56 64.91C72.56 64.08 72.56 59.96 72.56 52.54C73.09 51.38 73.67 50.8 74.3 50.8ZM288.51 58.72C288.51 46.3 278.41 36.2 265.99 36.2C253.57 36.2 243.46 46.31 243.46 58.72C243.46 71.14 253.57 81.25 265.99 81.25C278.41 81.25 288.51 71.14 288.51 58.72ZM276.51 58.72C276.51 64.53 271.79 69.25 265.99 69.25C260.19 69.25 255.46 64.53 255.46 58.72C255.46 52.92 260.19 48.2 265.99 48.2C271.79 48.2 276.51 52.92 276.51 58.72ZM356.61 58.72C356.61 46.3 346.51 36.2 334.1 36.2C321.67 36.2 311.57 46.31 311.57 58.72C311.57 71.14 321.67 81.25 334.1 81.25C346.51 81.25 356.61 71.14 356.61 58.72ZM344.61 58.72C344.61 64.53 339.89 69.25 334.1 69.25C328.29 69.25 323.57 64.53 323.57 58.72C323.57 52.92 328.29 48.2 334.1 48.2C339.89 48.2 344.61 52.92 344.61 58.72ZM44.47 0C19.95 0 0 19.95 0 44.47C0 82.94 0 390.69 0 429.16C0 453.68 19.95 473.63 44.47 473.63C77.29 473.63 339.88 473.63 372.7 473.63C397.22 473.63 417.17 453.68 417.17 429.16C417.17 390.69 417.17 82.94 417.17 44.47C417.17 19.95 397.22 0 372.7 0C307.06 0 77.29 0 44.47 0ZM372.7 12C390.61 12 405.17 26.57 405.17 44.47C405.17 48.3 405.17 67.46 405.17 101.94L12 101.94C12 67.46 12 48.3 12 44.47C12 26.57 26.56 12 44.47 12C110.11 12 339.88 12 372.7 12ZM44.47 461.63C26.56 461.63 12 447.07 12 429.16C12 408.15 12 303.07 12 113.94L405.17 113.94C405.17 303.07 405.17 408.15 405.17 429.16C405.17 447.07 390.61 461.63 372.7 461.63C307.06 461.63 77.29 461.63 44.47 461.63ZM208.59 157.01C142.17 157.01 88.14 211.04 88.14 277.45C88.14 289.29 89.86 300.72 93.06 311.53C93.07 311.6 93.09 311.66 93.11 311.72C107.91 361.49 154.07 397.9 208.59 397.9C275 397.9 329.03 343.87 329.03 277.45C329.03 269.26 328.21 261.25 326.64 253.51C326.6 253.23 326.55 252.96 326.47 252.7C315.02 198.12 266.52 157.01 208.59 157.01ZM312.86 247.64C310.41 247.49 308.04 247.41 305.72 247.41C268.99 247.41 246.16 265.68 224.07 283.35C202.66 300.47 182.44 316.65 149.92 316.65C137.35 316.65 121.85 312.89 103.82 305.5C101.42 296.55 100.14 287.15 100.14 277.45C100.14 217.66 148.79 169.01 208.59 169.01C258.05 169.01 299.88 202.29 312.86 247.64ZM108.98 320.33C124.46 325.85 138.19 328.65 149.92 328.65C186.65 328.65 209.49 310.38 231.57 292.72C252.98 275.59 273.2 259.41 305.72 259.41C308.86 259.41 312.13 259.57 315.6 259.88C316.54 265.6 317.03 271.47 317.03 277.45C317.03 337.25 268.38 385.9 208.59 385.9C164.01 385.9 125.63 358.86 108.98 320.33Z" fill="red"/>
</svg>