<svg width="48" height="48" viewBox="0 0 48 48" fill="none" xmlns="http://www.w3.org/2000/svg">
<path d="M4.5 42C4.5 39.15 9 34.5 9 34.5C9 34.5 13.5 39.15 13.5 42C13.5 44.85 11.25 46.5 9 46.5C6.75 46.5 4.5 44.85 4.5 42Z M19.5 1.5H37.5 M28.5 9V1.5 M34.5002 12C33.1323 10.1735 30.9575 9 28.5 9C26.0423 9 23.8675 10.1733 22.4996 12H16.5C9.8833 12 4.5 17.3833 4.5 24V28.5H13.5V24C13.5 22.3455 14.8455 21 16.5 21H22.4996C23.8675 22.8267 26.0423 24 28.5 24C30.9575 24 33.1322 22.8265 34.5001 21H43.5V12H34.5002Z" stroke="red"/>
</svg>