<svg width="36" height="35" viewBox="0 0 36 35" fill="none" xmlns="http://www.w3.org/2000/svg">
<path d="M13.3157 11.25C13.3157 11.8937 12.8081 12.375 12.1907 12.375V13.125C13.2096 13.125 14.0657 12.3206 14.0657 11.25H13.3157Z" fill="red" />
<path d="M11.7351 6.24473C10.6761 7.74067 9.19067 9.94085 9.19067 11.6969C9.19067 13.3654 10.535 14.7151 12.1907 14.7151C13.8491 14.7151 15.1907 13.3654 15.1907 11.6969C15.1907 9.94933 13.7015 7.70228 12.6574 6.24151C12.5269 6.05888 12.4033 5.88853 12.2905 5.73299L12.1933 5.599C12.1157 5.70916 12.0325 5.82621 11.9449 5.94936L11.9444 5.95001C11.877 6.04476 11.8071 6.14312 11.7351 6.24473ZM12.1907 13.9651C13.4306 13.9651 14.4407 12.9554 14.4407 11.6969C14.4407 10.889 14.0258 9.85046 13.4101 8.76814C13.0256 8.09229 12.5915 7.44728 12.198 6.88986C11.7937 7.46556 11.3523 8.11734 10.9619 8.79984C10.3492 9.87108 9.94067 10.8894 9.94067 11.6969C9.94067 12.955 10.953 13.9651 12.1907 13.9651Z" fill="red" fill-rule="evenodd" clip-rule="evenodd" />
<path d="M3.94067 18.6478V2.04863C3.94067 -0.682876 20.4407 -0.682876 20.4407 2.04863V18.6478C20.4407 19.2385 19.2191 19.6634 17.4407 19.9265V21.375C17.4407 21.5821 17.2728 21.75 17.0657 21.75H15.1907V23.25H15.9407V24H13.6907V23.25H14.4407V21.75H9.94067V23.25H10.6907V24H8.44067V23.25H9.19067V21.75H7.31567C7.10857 21.75 6.94067 21.5821 6.94067 21.375V19.9075C5.16227 19.6408 3.94067 19.2195 3.94067 18.6478ZM4.95203 18.6537C4.82273 18.5968 4.74002 18.5479 4.69067 18.5129V2.06816C4.7046 2.04106 4.76885 1.94709 5.01987 1.80461C5.37581 1.60258 5.93618 1.40881 6.68045 1.24453C8.15595 0.918845 10.1599 0.75 12.1907 0.75C14.2214 0.75 16.2254 0.918845 17.7009 1.24453C18.4452 1.40881 19.0055 1.60258 19.3615 1.80461C19.6125 1.94709 19.6768 2.04106 19.6907 2.06816V18.526C19.6426 18.5617 19.5593 18.6128 19.4255 18.6727C19.0594 18.8364 18.4871 18.9908 17.7355 19.1201C16.2462 19.3761 14.2303 19.5042 12.1923 19.4999C10.1545 19.4956 8.13757 19.3589 6.64688 19.1005C5.89468 18.9702 5.32029 18.816 4.95203 18.6537ZM7.69067 20.0072V21H16.6907V20.0244C13.9979 20.3327 10.3835 20.3231 7.69067 20.0072Z" fill="red" fill-rule="evenodd" clip-rule="evenodd" />
</svg>