<svg xmlns="http://www.w3.org/2000/svg" width="12px" height="12px"> 
<path fill="#283593" d="M6.9,12h-2c-1.5,0-2.3,0-3-0.4c-0.6-0.3-1.1-0.8-1.5-1.4C0,9.5,0,8.7,0,7.2v-2c0-0.5,0-0.8,0-1
	c0.2-1.4,1.3-2.5,2.8-2.8c0.3,0,0.5,0,1,0h1c0.4,0,0.8,0.3,0.8,0.8S5.3,2.8,4.8,2.8h-1c-0.4,0-0.7,0-0.8,0C2.3,3,1.7,3.6,1.6,4.3
	c0,0.1,0,0.4,0,0.8v2c0,1.3,0,2,0.2,2.3c0.2,0.3,0.4,0.6,0.8,0.8c0.4,0.2,1.1,0.2,2.3,0.2h2c0.4,0,0.7,0,0.8,0C8.4,10.3,9,9.7,9.2,9
	c0-0.1,0-0.4,0-0.8v-1c0-0.4,0.3-0.8,0.8-0.8c0.4,0,0.8,0.3,0.8,0.8v1c0,0.5,0,0.8,0,1c-0.2,1.4-1.3,2.5-2.8,2.8
	C7.7,12,7.4,12,6.9,12z M11.8,1c-0.2-0.3-0.4-0.6-0.8-0.8C10.6,0,10.2,0,9.6,0H7.4C7,0,6.6,0.3,6.6,0.8S7,1.5,7.4,1.5h2L5.3,5.6
	C5,5.9,5,6.4,5.3,6.7c0.1,0.1,0.3,0.2,0.5,0.2s0.4-0.1,0.5-0.2l4-4v2c0,0.4,0.3,0.8,0.8,0.8S12,5,12,4.6V2.4C12,1.7,12,1.4,11.8,1z"
	/>
</svg>
