<svg width="28" height="32" viewBox="0 0 28 32" fill="none" xmlns="http://www.w3.org/2000/svg">
<path d="M13.7256 27.1491C13.8206 27.6932 13.4565 28.2113 12.9125 28.3062C12.4755 28.3825 12.0277 28.4212 11.5813 28.4212C11.029 28.4212 10.5813 27.9734 10.5813 27.4212C10.5813 26.8689 11.029 26.4212 11.5813 26.4212C11.9127 26.4212 12.2449 26.3926 12.5685 26.336C13.1125 26.2411 13.6306 26.6051 13.7256 27.1491ZM18.3007 19.7018C17.7484 19.7018 17.3007 20.1496 17.3007 20.7018C17.3007 22.4491 16.5139 24.0791 15.1422 25.1739C14.7105 25.5184 14.6398 26.1477 14.9844 26.5793C15.1819 26.8268 15.4728 26.9556 15.7666 26.9556C15.9853 26.9556 16.2055 26.8841 16.3898 26.7371C18.2397 25.2606 19.3007 23.0608 19.3007 20.7018C19.3007 20.1495 18.853 19.7018 18.3007 19.7018ZM27.1315 17.3896V20.0823C27.1315 22.3677 25.2722 24.2271 22.9868 24.2271H21.6978C20.8414 26.6776 19.1189 28.7251 16.8981 29.9999H21.1524C21.7047 29.9999 22.1524 30.4477 22.1524 30.9999C22.1524 31.5522 21.7047 31.9999 21.1524 31.9999H2.01023C1.45798 31.9999 1.01023 31.5522 1.01023 30.9999C1.01023 30.4477 1.45798 29.9999 2.01023 29.9999H6.26454C3.04291 28.1506 0.868164 24.6754 0.868164 20.7017V10.3089C0.868164 9.75663 1.31591 9.30888 1.86816 9.30888H21.2944C21.8467 9.30888 22.2944 9.75663 22.2944 10.3089V13.2449H22.9867C25.2722 13.2449 27.1315 15.1042 27.1315 17.3896ZM20.2945 20.7018V15.2449H8.57104C8.01879 15.2449 7.57104 14.7972 7.57104 14.2449C7.57104 13.6927 8.01879 13.2449 8.57104 13.2449H20.2945V11.3089H2.86823V20.7018C2.86823 25.5063 6.77691 29.4149 11.5814 29.4149C16.3858 29.4149 20.2945 25.5063 20.2945 20.7018ZM25.1315 17.3896C25.1315 16.2071 24.1693 15.2449 22.9868 15.2449H22.2945V20.7018C22.2945 21.2196 22.2568 21.7288 22.1854 22.2271H22.9868C24.1693 22.2271 25.1315 21.265 25.1315 20.0824V17.3896ZM5.4941 13.2449H4.95354C4.40129 13.2449 3.95354 13.6927 3.95354 14.2449C3.95354 14.7972 4.40129 15.2449 4.95354 15.2449H5.4941C6.04635 15.2449 6.4941 14.7972 6.4941 14.2449C6.4941 13.6927 6.04641 13.2449 5.4941 13.2449ZM6.43466 7.77019C6.98691 7.77019 7.43466 7.32244 7.43466 6.77019V2.60775C7.43466 2.0555 6.98691 1.60775 6.43466 1.60775C5.88241 1.60775 5.43466 2.0555 5.43466 2.60775V6.77019C5.43466 7.32244 5.88235 7.77019 6.43466 7.77019ZM11.4525 7.77019C12.0048 7.77019 12.4525 7.32244 12.4525 6.77019V1C12.4525 0.44775 12.0048 0 11.4525 0C10.9003 0 10.4525 0.44775 10.4525 1V6.77012C10.4525 7.32244 10.9002 7.77019 11.4525 7.77019ZM16.4704 7.77019C17.0227 7.77019 17.4704 7.32244 17.4704 6.77019V2.60775C17.4704 2.0555 17.0227 1.60775 16.4704 1.60775C15.9182 1.60775 15.4704 2.0555 15.4704 2.60775V6.77019C15.4704 7.32244 15.9182 7.77019 16.4704 7.77019Z" fill="#424242"/>
</svg>
