<svg width="16" height="12" viewBox="0 0 16 12" fill="none" xmlns="http://www.w3.org/2000/svg">
<path fill-rule="evenodd" clip-rule="evenodd" d="M14.0003 5.5292V5.64418C14.5768 5.80244 15.0852 6.1463 15.4467 6.62255C15.8082 7.09881 16.0026 7.68091 16 8.2788C15.9987 9.00764 15.7085 9.70625 15.1932 10.2216C14.6778 10.737 13.9792 11.0271 13.2504 11.0284H11.0007C10.8681 11.0284 10.7409 10.9757 10.6472 10.882C10.5534 10.7882 10.5008 10.6611 10.5008 10.5285C10.5008 10.3959 10.5534 10.2687 10.6472 10.175C10.7409 10.0812 10.8681 10.0286 11.0007 10.0286H13.2504C13.7144 10.0286 14.1595 9.84421 14.4876 9.51607C14.8158 9.18792 15.0001 8.74287 15.0001 8.2788C15.0003 7.84284 14.8363 7.42279 14.5408 7.10226C14.2453 6.78174 13.8399 6.58423 13.4053 6.54905C13.3367 6.54244 13.2702 6.5217 13.21 6.48815C13.1498 6.4546 13.0971 6.40895 13.0554 6.35408C13.0135 6.29917 12.9834 6.23617 12.9671 6.16906C12.9507 6.10194 12.9484 6.03217 12.9604 5.96414C12.9852 5.82044 12.9986 5.67501 13.0004 5.5292C13.0004 4.86625 12.737 4.23046 12.2683 3.76168C11.7995 3.29291 11.1637 3.02955 10.5008 3.02955C9.97242 3.03018 9.45787 3.1982 9.03097 3.50949C8.96897 3.55443 8.89747 3.58453 8.82199 3.59747C8.74651 3.6104 8.66907 3.60582 8.59564 3.58408C8.52221 3.56234 8.45476 3.52403 8.39848 3.47209C8.34221 3.42015 8.29862 3.35597 8.27108 3.28452C7.9795 2.52042 7.4295 1.88257 6.71661 1.48176C6.00372 1.08094 5.17296 0.94247 4.3686 1.09039C3.56424 1.23831 2.8371 1.66328 2.31345 2.2915C1.78979 2.91971 1.50271 3.7115 1.50204 4.52934C1.49988 5.10731 1.63889 5.67707 1.90699 6.1891C1.96587 6.29747 1.98262 6.42378 1.95401 6.54375C1.9254 6.66372 1.85346 6.76888 1.75201 6.83901C1.44461 7.05129 1.21323 7.35637 1.0917 7.70962C0.970184 8.06288 0.964909 8.44575 1.07665 8.80221C1.1884 9.15867 1.41129 9.47002 1.71273 9.69068C2.01416 9.91135 2.3783 10.0297 2.75187 10.0286H5.00154C5.13413 10.0286 5.26129 10.0812 5.35505 10.175C5.4488 10.2687 5.50147 10.3959 5.50147 10.5285C5.50147 10.6611 5.4488 10.7882 5.35505 10.882C5.26129 10.9757 5.13413 11.0284 5.00154 11.0284H2.75187C2.20169 11.0289 1.66404 10.8643 1.20841 10.5559C0.752791 10.2475 0.400156 9.80953 0.196106 9.29859C-0.00794494 8.78766 -0.0540275 8.22726 0.0638164 7.68986C0.18166 7.15245 0.458011 6.66276 0.857137 6.28409C0.624144 5.72834 0.503507 5.13195 0.502188 4.52934C0.503657 3.5293 0.838248 2.55825 1.45311 1.76956C2.06798 0.98088 2.92807 0.419515 3.89754 0.174138C4.86702 -0.0712399 5.8906 0.0133558 6.80664 0.414563C7.72267 0.815769 8.47894 1.51072 8.95598 2.38965C9.48947 2.12719 10.081 2.00499 10.6749 2.03457C11.2687 2.06415 11.8452 2.24453 12.3499 2.5587C12.8547 2.87286 13.2711 3.31046 13.5599 3.83019C13.8486 4.34992 14.0002 4.93464 14.0003 5.5292ZM11.1831 7.34446C11.0511 7.34446 10.9244 7.2922 10.8307 7.19908C10.4593 6.82723 10.0182 6.53224 9.53265 6.33097C9.04712 6.1297 8.52669 6.0261 8.0011 6.0261C7.47552 6.0261 6.95508 6.1297 6.46956 6.33097C5.98404 6.53224 5.54295 6.82723 5.17151 7.19908C5.07587 7.28098 4.95285 7.32378 4.82703 7.31892C4.70121 7.31406 4.58186 7.2619 4.49282 7.17287C4.40379 7.08383 4.35163 6.96448 4.34677 6.83866C4.34191 6.71284 4.38471 6.58982 4.46661 6.49418C5.40411 5.55696 6.67547 5.03046 8.0011 5.03046C9.32673 5.03046 10.5981 5.55696 11.5356 6.49418C11.6287 6.58785 11.681 6.71456 11.681 6.84663C11.681 6.97871 11.6287 7.10542 11.5356 7.19908C11.4419 7.2922 11.3152 7.34446 11.1831 7.34446ZM7.04359 7.71772C7.34725 7.59248 7.67262 7.52832 8.0011 7.52891C8.32958 7.52832 8.65495 7.59248 8.95862 7.71772C9.26228 7.84296 9.53829 8.02683 9.77085 8.2588C9.81771 8.30528 9.8549 8.36057 9.88028 8.42149C9.90566 8.48241 9.91873 8.54776 9.91873 8.61375C9.91873 8.67975 9.90566 8.74509 9.88028 8.80602C9.8549 8.86694 9.81771 8.92223 9.77085 8.9687C9.72414 9.01504 9.66874 9.05169 9.60783 9.07657C9.54692 9.10145 9.48169 9.11406 9.4159 9.11368C9.35011 9.11406 9.28488 9.10145 9.22397 9.07657C9.16306 9.05169 9.10767 9.01504 9.06095 8.9687C8.77485 8.69724 8.3955 8.5459 8.0011 8.5459C7.60671 8.5459 7.22735 8.69724 6.94125 8.9687C6.89464 9.01532 6.8393 9.05229 6.7784 9.07752C6.7175 9.10274 6.65222 9.11573 6.5863 9.11573C6.52038 9.11573 6.45511 9.10274 6.39421 9.07752C6.3333 9.05229 6.27797 9.01532 6.23136 8.9687C6.18474 8.92209 6.14777 8.86675 6.12254 8.80585C6.09731 8.74495 6.08433 8.67967 6.08433 8.61375C6.08433 8.54783 6.09731 8.48256 6.12254 8.42166C6.14777 8.36075 6.18474 8.30542 6.23136 8.2588C6.46392 8.02683 6.73992 7.84296 7.04359 7.71772ZM8.00112 11.0285C8.27722 11.0285 8.50105 10.8046 8.50105 10.5285C8.50105 10.2524 8.27722 10.0286 8.00112 10.0286C7.72501 10.0286 7.50119 10.2524 7.50119 10.5285C7.50119 10.8046 7.72501 11.0285 8.00112 11.0285Z" fill="#4CAF50"/>
</svg>
