<svg width="14" height="14" viewBox="0 0 14 14" fill="none" xmlns="http://www.w3.org/2000/svg">
<path d="M13.6605 0.285857C13.2716 -0.0952857 12.6493 -0.0952857 12.2605 0.285857L6.95046 5.58586L1.65046 0.285857C1.2537 -0.0539196 0.662266 -0.0310751 0.292897 0.338294C-0.076472 0.707663 -0.0993166 1.2991 0.24046 1.69586L5.54046 6.99586L0.24046 12.2959C-0.0993166 12.6926 -0.076472 13.2841 0.292897 13.6534C0.662266 14.0228 1.2537 14.0456 1.65046 13.7059L6.95046 8.40586L12.2505 13.7059C12.6472 14.0456 13.2387 14.0228 13.608 13.6534C13.9774 13.2841 14.0002 12.6926 13.6605 12.2959L8.36046 6.99586L13.6605 1.68586C14.0416 1.29701 14.0416 0.674701 13.6605 0.285857Z" fill="#4D4D4D"/>
</svg>
