<svg width="32" height="32" viewBox="0 0 32 32" fill="none" xmlns="http://www.w3.org/2000/svg">
<g clip-path="url(#clip0)">
<path d="M31.7073 5.94769L31.3016 5.54201L31.6347 5.20894C31.8222 5.02141 31.9276 4.76706 31.9276 4.50185C31.9276 4.23664 31.8222 3.98229 31.6347 3.79476L28.1689 0.329257C27.9814 0.141729 27.7271 0.036377 27.4619 0.036377C27.1966 0.036377 26.9423 0.141729 26.7548 0.329257L22.0435 5.04076C21.8578 5.22652 21.7527 5.47791 21.7509 5.74056C21.7491 6.00322 21.8508 6.25603 22.0339 6.44432L18.1068 10.3714C17.1054 9.95415 16.0153 9.79501 14.9364 9.90857C13.8575 10.0221 12.8244 10.4047 11.9318 11.0213C11.0392 11.6379 10.3157 12.4687 9.82766 13.4376C9.33959 14.4064 9.10259 15.4823 9.13838 16.5666C7.512 16.2733 5.83447 16.5071 4.35019 17.2337C2.8659 17.9604 1.65241 19.142 0.886502 20.6064C0.120592 22.0708 -0.157722 23.7415 0.0921063 25.3751C0.341935 27.0087 1.10685 28.5199 2.27542 29.6885C3.44399 30.857 4.95516 31.622 6.58878 31.8718C8.2224 32.1216 9.89311 31.8433 11.3575 31.0774C12.8219 30.3115 14.0035 29.098 14.7302 27.6137C15.4568 26.1294 15.6906 24.4519 15.3973 22.8255C15.4714 22.8281 15.5454 22.8294 15.6194 22.8294C16.6868 22.8272 17.7373 22.5615 18.6774 22.056C19.6176 21.5505 20.4185 20.8208 21.009 19.9315C21.5996 19.0423 21.9615 18.0211 22.0627 16.9584C22.164 15.8958 22.0013 14.8246 21.5893 13.8398L25.5088 9.92032C25.6964 10.1078 25.9507 10.2132 26.2159 10.2132C26.4811 10.2132 26.7355 10.1078 26.923 9.92032L27.2564 9.58757L27.6621 9.99326C27.85 10.1789 28.1037 10.2827 28.3679 10.2819C28.6321 10.2811 28.8852 10.1758 29.072 9.98898C29.2588 9.80219 29.3641 9.54907 29.3649 9.28491C29.3657 9.02074 29.2619 8.76699 29.0763 8.57907L28.6706 8.17344L29.8877 6.95632L30.2933 7.36201C30.3862 7.45487 30.4964 7.52853 30.6177 7.57879C30.7391 7.62905 30.8691 7.65491 31.0004 7.65492C31.1317 7.65492 31.2618 7.62906 31.3831 7.5788C31.5044 7.52855 31.6147 7.4549 31.7075 7.36204C31.8004 7.26918 31.8741 7.15894 31.9243 7.03762C31.9746 6.91629 32.0005 6.78626 32.0005 6.65494C32.0005 6.52361 31.9746 6.39358 31.9243 6.27225C31.8741 6.15092 31.8004 6.04068 31.7076 5.94782L31.7073 5.94769ZM27.4621 2.45057L29.5133 4.50188L26.2161 7.79913L24.1648 5.74788L27.4621 2.45057ZM18.7803 19.5156C18.2039 20.0936 17.4802 20.5027 16.6878 20.6985C15.8953 20.8943 15.0643 20.8694 14.2851 20.6263C14.1032 20.5699 13.909 20.5666 13.7253 20.6168C13.5416 20.667 13.3761 20.7686 13.2482 20.9097C13.1203 21.0507 13.0353 21.2254 13.0032 21.4131C12.9712 21.6008 12.9934 21.7937 13.0672 21.9693C13.5881 23.2028 13.6641 24.5791 13.282 25.8624C12.8999 27.1458 12.0836 28.2564 10.9728 29.0042C9.86203 29.752 8.52585 30.0904 7.19304 29.9614C5.86023 29.8325 4.61369 29.2443 3.66683 28.2974C2.71998 27.3506 2.1317 26.1041 2.00271 24.7713C1.87372 23.4385 2.21205 22.1023 2.95977 20.9915C3.70749 19.8807 4.8181 19.0643 6.10145 18.6822C7.3848 18.3001 8.76107 18.3759 9.99463 18.8968C10.1702 18.9707 10.3631 18.9929 10.5509 18.9609C10.7386 18.9288 10.9133 18.8438 11.0543 18.7159C11.1954 18.588 11.297 18.4224 11.3472 18.2387C11.3974 18.055 11.3941 17.8608 11.3377 17.6789C11.102 16.9211 11.072 16.1142 11.2506 15.3409C11.4292 14.5677 11.8102 13.8558 12.3544 13.2781C12.8986 12.7005 13.5866 12.2779 14.3478 12.0535C15.1091 11.8291 15.9163 11.8111 16.6868 12.0012C17.4573 12.1914 18.1634 12.5829 18.7329 13.1356C19.3024 13.6884 19.7147 14.3826 19.9277 15.1471C20.1407 15.9116 20.1467 16.719 19.9451 17.4866C19.7435 18.2542 19.3416 18.9544 18.7804 19.5156H18.7803ZM20.5019 12.0989C20.4036 11.9864 20.3012 11.8766 20.1946 11.7694C20.084 11.6589 19.9704 11.5533 19.8539 11.4526L23.4477 7.85888L24.0946 8.50632L20.5019 12.0989ZM16.5081 15.4559C16.6957 15.6435 16.801 15.8978 16.801 16.163C16.801 16.4282 16.6957 16.6826 16.5081 16.8701L16.0269 17.3514C15.839 17.5371 15.5853 17.6409 15.3211 17.6402C15.057 17.6395 14.8038 17.5342 14.617 17.3475C14.4301 17.1607 14.3248 16.9076 14.3239 16.6435C14.323 16.3793 14.4267 16.1255 14.6123 15.9376L15.0936 15.4563C15.1864 15.3634 15.2966 15.2897 15.418 15.2394C15.5393 15.1891 15.6693 15.1632 15.8007 15.1632C15.932 15.1632 16.062 15.189 16.1834 15.2392C16.3047 15.2895 16.415 15.3631 16.5079 15.4559H16.5081ZM3.0127 12.7974C3.73932 12.7966 4.43595 12.5075 4.94974 11.9937C5.46353 11.4799 5.75253 10.7833 5.75332 10.0566V6.02913L5.94188 6.14457C6.16801 6.27998 6.43845 6.32064 6.69439 6.25771C6.95033 6.19478 7.17108 6.03335 7.30864 5.80853C7.44619 5.5837 7.48943 5.31366 7.42894 5.05713C7.36845 4.8006 7.20914 4.57832 6.98563 4.43863L5.2752 3.39182C5.12362 3.29909 4.95007 3.24842 4.77241 3.24502C4.59475 3.24163 4.4194 3.28564 4.26439 3.37252C4.10939 3.4594 3.98033 3.58601 3.8905 3.73933C3.80068 3.89264 3.75333 4.06713 3.75332 4.24482V7.41838C3.37639 7.3125 2.98115 7.28861 2.59421 7.34831C2.20727 7.40802 1.83761 7.54995 1.51013 7.76453C1.18265 7.97911 0.904947 8.26137 0.695723 8.5923C0.486499 8.92322 0.35061 9.29514 0.297206 9.683C0.243802 10.0709 0.274123 10.4657 0.386127 10.8408C0.498132 11.216 0.689219 11.5628 0.946522 11.8579C1.20383 12.153 1.52137 12.3895 1.87778 12.5516C2.23418 12.7136 2.62118 12.7975 3.0127 12.7974ZM3.0127 9.31613C3.1592 9.31614 3.30241 9.3596 3.42422 9.441C3.54603 9.5224 3.64096 9.6381 3.69702 9.77345C3.75307 9.90881 3.76773 10.0577 3.73914 10.2014C3.71056 10.3451 3.64 10.4771 3.5364 10.5807C3.4328 10.6843 3.30081 10.7548 3.15713 10.7834C3.01344 10.812 2.8645 10.7973 2.72915 10.7412C2.5938 10.6852 2.47811 10.5902 2.39672 10.4684C2.31533 10.3466 2.27189 10.2034 2.27189 10.0569C2.27205 9.86044 2.35015 9.67209 2.48904 9.53316C2.62792 9.39424 2.81626 9.3161 3.0127 9.31588V9.31613ZM10.1934 10.4013C10.9201 10.4005 11.6168 10.1115 12.1306 9.59767C12.6444 9.08384 12.9334 8.38717 12.9342 7.66051V3.63301L13.1228 3.74844C13.3489 3.88385 13.6194 3.92451 13.8753 3.86158C14.1313 3.79865 14.352 3.63723 14.4896 3.4124C14.6271 3.18758 14.6704 2.91754 14.6099 2.66101C14.5494 2.40448 14.3901 2.1822 14.1666 2.04251L12.4564 0.995757C12.3049 0.902994 12.1313 0.852298 11.9536 0.848887C11.776 0.845475 11.6006 0.889472 11.4456 0.976348C11.2906 1.06322 11.1615 1.18984 11.0716 1.34317C10.9818 1.49649 10.9344 1.67099 10.9344 1.84869V5.02232C10.5575 4.91644 10.1623 4.89254 9.77535 4.95225C9.38841 5.01195 9.01876 5.15387 8.69128 5.36845C8.3638 5.58302 8.0861 5.86527 7.87687 6.19619C7.66765 6.52711 7.53175 6.89902 7.47834 7.28688C7.42493 7.67473 7.45524 8.06953 7.56723 8.44469C7.67922 8.81984 7.8703 9.16665 8.12759 9.46175C8.38488 9.75686 8.70241 9.99341 9.0588 10.1555C9.4152 10.3176 9.80218 10.4014 10.1937 10.4013H10.1934ZM10.1934 6.92007C10.34 6.92006 10.4832 6.9635 10.605 7.04489C10.7269 7.12629 10.8218 7.24199 10.8779 7.37736C10.934 7.51272 10.9487 7.66168 10.9201 7.80539C10.8915 7.9491 10.821 8.08111 10.7173 8.18472C10.6137 8.28832 10.4817 8.35888 10.338 8.38746C10.1943 8.41605 10.0454 8.40137 9.90998 8.34529C9.77462 8.28921 9.65892 8.19425 9.57752 8.07242C9.49612 7.95058 9.45269 7.80734 9.4527 7.66082C9.45285 7.46438 9.53093 7.27602 9.6698 7.13708C9.80868 6.99815 9.99701 6.91999 10.1934 6.91976V6.92007ZM7.7862 20.4014C7.16516 20.4014 6.55371 20.5545 6.006 20.8473C5.45828 21.14 4.99122 21.5633 4.64619 22.0797C4.30115 22.596 4.08879 23.1895 4.02791 23.8076C3.96703 24.4256 4.05952 25.0491 4.29718 25.6229C4.53483 26.1967 4.91033 26.703 5.3904 27.0969C5.87046 27.4909 6.44029 27.7604 7.04939 27.8816C7.65849 28.0027 8.28808 27.9718 8.88237 27.7915C9.47666 27.6112 10.0173 27.2872 10.4564 26.848C10.9846 26.3199 11.3442 25.647 11.4899 24.9144C11.6356 24.1819 11.5608 23.4226 11.275 22.7326C10.9892 22.0426 10.5052 21.4528 9.88415 21.0378C9.26313 20.6229 8.53302 20.4014 7.78613 20.4014H7.7862ZM9.04245 25.4338C8.75185 25.7244 8.3695 25.9052 7.96052 25.9455C7.55155 25.9858 7.14127 25.883 6.79958 25.6547C6.45789 25.4264 6.20593 25.0866 6.08663 24.6934C5.96733 24.3001 5.98808 23.8777 6.14533 23.498C6.30258 23.1183 6.58661 22.8049 6.94903 22.6112C7.31144 22.4175 7.72982 22.3554 8.13288 22.4355C8.53594 22.5157 8.89874 22.7331 9.15947 23.0507C9.4202 23.3684 9.56272 23.7666 9.56276 24.1776C9.56253 24.6487 9.37533 25.1006 9.04226 25.4338H9.04245Z" fill="#424242"/>
</g>
<defs>
<clipPath id="clip0">
<rect width="32" height="32" fill="white"/>
</clipPath>
</defs>
</svg>
