<svg width="32" height="30" viewBox="0 0 32 30" fill="none" xmlns="http://www.w3.org/2000/svg">
<path fill-rule="evenodd" clip-rule="evenodd" d="M30.9999 15.8038H25.2212C25.1846 15.8038 25.1486 15.8061 25.1131 15.8099L21.017 12.3378C19.6902 11.2132 18.0015 10.5939 16.2621 10.5939H13.4458V10.296C13.4458 9.7437 12.9981 9.29601 12.4458 9.29601C11.8936 9.29601 11.4458 9.7437 11.4458 10.296V12.9358H7.32125C6.769 12.9358 6.32125 13.3835 6.32125 13.9358C6.32125 14.4881 6.769 14.9358 7.32125 14.9358H11.4458V18.6718H7.32125C6.769 18.6718 6.32125 19.1194 6.32125 19.6718C6.32125 20.2241 6.769 20.6718 7.32125 20.6718H11.4458V23.3118C11.4458 23.8641 11.8936 24.3118 12.4458 24.3118C12.9981 24.3118 13.4458 23.8641 13.4458 23.3118V23.0139H16.2621C18.0014 23.0139 19.6901 22.3945 21.0171 21.2697L25.1131 17.7977C25.1486 17.8015 25.1846 17.8038 25.2212 17.8038H29.9556C29.4481 23.4993 24.6497 27.9793 18.8247 27.9793H13.1751C7.01312 27.9793 2 22.966 2 16.8038C2 10.6418 7.01312 5.62863 13.1751 5.62863C13.7274 5.62863 14.1751 5.18094 14.1751 4.62863C14.1751 4.07632 13.7274 3.62863 13.1751 3.62863C5.91031 3.62863 0 9.53895 0 16.8038C0 24.0688 5.91031 29.9793 13.1751 29.9793H18.8247C26.0895 29.9793 31.9998 24.0688 31.9998 16.8038C31.9999 16.2515 31.5521 15.8038 30.9999 15.8038ZM19.7238 19.7441C18.7577 20.5631 17.5283 21.014 16.2621 21.014H13.4458V12.5939H16.2621C17.5285 12.5939 18.7579 13.0448 19.7238 13.8634L23.1926 16.8038L19.7238 19.7441ZM22.2222 1.02051C22.2222 0.468195 22.67 0.0205078 23.2222 0.0205078C28.0623 0.0205078 31.9999 3.95813 31.9999 8.79813C31.9999 9.35045 31.5521 9.79813 30.9999 9.79813C30.4476 9.79813 29.9999 9.35045 29.9999 8.79813C29.9999 5.06095 26.9594 2.02051 23.2222 2.02051C22.6699 2.02051 22.2222 1.57282 22.2222 1.02051ZM22.2222 4.85988C22.2222 4.30757 22.67 3.85988 23.2222 3.85988C25.9452 3.85988 28.1606 6.07519 28.1606 8.79819C28.1606 9.35051 27.7128 9.79819 27.1606 9.79819C26.6083 9.79819 26.1606 9.35051 26.1606 8.79819C26.1606 7.17801 24.8424 5.85988 23.2222 5.85988C22.6699 5.85988 22.2222 5.4122 22.2222 4.85988ZM22.1604 8.74863C22.1604 8.13651 22.6597 7.6372 23.2719 7.6372C23.8841 7.6372 24.3833 8.13651 24.3833 8.74863C24.3833 9.36076 23.8841 9.86001 23.2719 9.86001C22.6597 9.86001 22.1604 9.36076 22.1604 8.74863Z" fill="#424242"/>
</svg>
