<svg width="32" height="30" viewBox="0 0 32 30" fill="none" xmlns="http://www.w3.org/2000/svg">
<path fill-rule="evenodd" clip-rule="evenodd" d="M10.9713 13.8018C9.12081 13.8018 7.61525 15.3073 7.61525 17.1579C7.61525 18.6603 8.60769 19.9353 9.97138 20.3618V23.7634C9.97138 24.3157 10.4191 24.7634 10.9714 24.7634C11.5237 24.7634 11.9714 24.3157 11.9714 23.7634V20.3617C13.335 19.9351 14.3274 18.6602 14.3274 17.1578C14.3274 15.3073 12.8218 13.8018 10.9713 13.8018ZM10.9713 18.514C10.2236 18.514 9.61525 17.9057 9.61525 17.158C9.61525 16.4101 10.2236 15.8018 10.9713 15.8018C11.7191 15.8018 12.3274 16.4101 12.3274 17.158C12.3274 17.9056 11.7191 18.514 10.9713 18.514ZM17.5838 8.64783H17.525V4.68327C17.525 2.27589 15.4691 0.317395 12.9421 0.317395H9.00075C6.47362 0.317395 4.41775 2.27596 4.41775 4.68327V8.64789H4.35894C1.95537 8.64783 0 10.6033 0 13.0068V25.5585C0 27.962 1.95537 29.9173 4.35887 29.9173H17.5838C19.9873 29.9173 21.9427 27.962 21.9427 25.5585V13.0068C21.9427 10.6033 19.9873 8.64783 17.5838 8.64783ZM6.41775 4.68327C6.41775 3.37871 7.5765 2.31739 9.00075 2.31739H12.9421C14.3663 2.31739 15.525 3.37871 15.525 4.68327V8.64789H6.41775V4.68327ZM19.9427 25.5585C19.9427 26.8593 18.8845 27.9174 17.5838 27.9174H4.35887C3.05819 27.9174 2 26.8592 2 25.5585V13.0068C2 11.706 3.05819 10.6478 4.35887 10.6478H17.5838C18.8846 10.6478 19.9427 11.7061 19.9427 13.0068V25.5585ZM32 8.91039C32 9.46271 31.5523 9.91039 31 9.91039C30.4477 9.91039 30 9.46271 30 8.91039C30 5.14552 26.937 2.08252 23.1721 2.08252C22.6198 2.08252 22.1721 1.63483 22.1721 1.08252C22.1721 0.530207 22.6198 0.0825195 23.1721 0.0825195C28.0399 0.0825195 32 4.04271 32 8.91039ZM28.1359 8.91039C28.1359 9.46271 27.6882 9.91039 27.1359 9.91039C26.5836 9.91039 26.1359 9.46271 26.1359 8.91039C26.1359 7.27621 24.8064 5.94664 23.1721 5.94664C22.6198 5.94664 22.1721 5.49896 22.1721 4.94664C22.1721 4.39433 22.6198 3.94664 23.1721 3.94664C25.9092 3.94664 28.1359 6.17339 28.1359 8.91039ZM24.3407 8.86058C24.3407 9.47664 23.8382 9.97915 23.2221 9.97915C22.6061 9.97915 22.1036 9.47664 22.1036 8.86058C22.1036 8.24446 22.6061 7.74202 23.2221 7.74202C23.8382 7.74202 24.3407 8.24446 24.3407 8.86058Z" fill="#424242"/>
</svg>
