<svg width="16" height="32" viewBox="0 0 16 32" fill="none" xmlns="http://www.w3.org/2000/svg">
<path fill-rule="evenodd" clip-rule="evenodd" d="M11.0953 12.2421H4.90425C2.72556 12.2421 0.953125 14.0145 0.953125 16.1932V28.0487C0.953125 30.2274 2.72556 31.9999 4.90425 31.9999H11.0953C13.274 31.9999 15.0465 30.2274 15.0465 28.0487V16.1932C15.0465 14.0145 13.274 12.2421 11.0953 12.2421ZM13.0465 28.0487C13.0465 29.1246 12.1713 29.9999 11.0954 29.9999H4.90432C3.82844 29.9999 2.95319 29.1246 2.95319 28.0487V16.1932C2.95319 15.1174 3.82844 14.2421 4.90432 14.2421H11.0954C12.1713 14.2421 13.0465 15.1173 13.0465 16.1932V28.0487ZM11.7381 16.6914C11.7381 17.2437 11.2904 17.6914 10.7381 17.6914H10.0736C9.52132 17.6914 9.07357 17.2437 9.07357 16.6914C9.07357 16.1391 9.52132 15.6914 10.0736 15.6914H10.7381C11.2904 15.6914 11.7381 16.1392 11.7381 16.6914ZM5.2615 17.6914C4.70925 17.6914 4.2615 17.2437 4.2615 16.6914C4.2615 16.1391 4.70925 15.6914 5.2615 15.6914H5.92607C6.47832 15.6914 6.92607 16.1391 6.92607 16.6914C6.92607 17.2437 6.47832 17.6914 5.92607 17.6914H5.2615ZM7.99982 20.546C6.24376 20.546 4.81513 21.9746 4.81513 23.7306C4.81513 25.4866 6.24376 26.9152 7.99982 26.9152C9.75582 26.9152 11.1844 25.4866 11.1844 23.7306C11.1844 21.9746 9.75582 20.546 7.99982 20.546ZM7.99982 24.9153C7.34657 24.9153 6.81513 24.3839 6.81513 23.7307C6.81513 23.0775 7.34657 22.5461 7.99982 22.5461C8.65301 22.5461 9.18445 23.0775 9.18445 23.7307C9.18445 24.3839 8.65301 24.9153 7.99982 24.9153ZM1.79306 3.98156C1.4025 3.591 1.4025 2.95788 1.79306 2.56737C3.44857 0.911812 5.65275 6.25032e-05 7.99963 3.21304e-09C10.3466 -6.24968e-05 12.5509 0.911687 14.2065 2.56731C14.5971 2.95781 14.5971 3.591 14.2065 3.9815C13.816 4.37206 13.1828 4.37206 12.7923 3.9815C11.5144 2.70369 9.81238 1.99994 7.99969 2C6.18707 2.00006 4.48507 2.70375 3.20731 3.9815C3.012 4.17681 2.75613 4.27444 2.50019 4.27444C2.24425 4.27444 1.98831 4.17681 1.79306 3.98156ZM10.0775 6.69631C8.93182 5.55069 7.06776 5.55062 5.92207 6.69631C5.53157 7.08681 4.89838 7.08681 4.50788 6.69631C4.11738 6.30575 4.11738 5.67263 4.50788 5.28212C6.43338 3.35675 9.56626 3.35662 11.4917 5.28212C11.8823 5.67263 11.8823 6.30581 11.4917 6.69631C11.2964 6.89162 11.0405 6.98925 10.7846 6.98925C10.5288 6.98925 10.2728 6.89156 10.0775 6.69631ZM7.99988 7.5925C8.61201 7.5925 9.11126 8.09175 9.11126 8.70394C9.11126 9.31606 8.61201 9.81531 7.99988 9.81531C7.38776 9.81531 6.88844 9.31606 6.88844 8.70394C6.88844 8.09175 7.38776 7.5925 7.99988 7.5925Z" fill="#424242"/>
</svg>
