<svg width="32" height="32" viewBox="0 0 32 32" fill="none" xmlns="http://www.w3.org/2000/svg">
<path fill-rule="evenodd" clip-rule="evenodd" d="M11.0435 3.92975C11.2834 3.92975 11.5232 3.83823 11.7061 3.65525C14.0698 1.29171 17.9156 1.29171 20.2793 3.65525C20.6452 4.02115 21.2386 4.02115 21.6045 3.65525C21.9705 3.28936 21.9705 2.69601 21.6045 2.33005C18.5101 -0.764344 13.4752 -0.764282 10.3809 2.33005C10.015 2.69594 10.015 3.2893 10.3809 3.65525C10.564 3.83829 10.8038 3.92975 11.0435 3.92975ZM19.1943 6.06527C19.0114 6.24825 18.7716 6.33977 18.5318 6.33977C18.2919 6.33977 18.0521 6.24825 17.8691 6.06527C16.8344 5.03068 15.1507 5.03056 14.1159 6.06527C13.75 6.43117 13.1566 6.43117 12.7907 6.06527C12.4247 5.69931 12.4247 5.10596 12.7907 4.74007C14.5561 2.97444 17.4289 2.97456 19.1943 4.74007C19.5603 5.10602 19.5603 5.69938 19.1943 6.06527ZM31.0629 10.4667C31.5804 10.4667 32 10.8862 32 11.4037V15.5039C32 15.5587 31.9944 15.6121 31.9853 15.6643V29.1936C31.9853 30.736 30.7304 31.9909 29.1879 31.9909C28.4742 31.9909 27.8224 31.7219 27.3276 31.2803C26.8329 31.7219 26.181 31.9909 25.4673 31.9909C24.7536 31.9909 24.1018 31.7219 23.607 31.2803C23.1123 31.7219 22.4605 31.9909 21.7468 31.9909C20.5329 31.9909 19.4975 31.2135 19.1114 30.1307H12.8737C12.4875 31.2135 11.4522 31.9909 10.2384 31.9909C9.52469 31.9909 8.87286 31.7219 8.37809 31.2803C7.88338 31.7219 7.23149 31.9909 6.51782 31.9909C5.80415 31.9909 5.15232 31.7219 4.65755 31.2803C4.16284 31.7219 3.51101 31.9909 2.79728 31.9909C1.25486 31.9909 0 30.736 0 29.1936V11.4037C0 10.8862 0.419557 10.4667 0.93707 10.4667H31.0629ZM30.1259 12.3408H1.87414V14.5668H30.1259V12.3408ZM13.0358 28.2565H18.9495V16.4409H13.0358V28.2565ZM1.87414 29.1936C1.87414 29.7026 2.28826 30.1168 2.79728 30.1168C3.30636 30.1168 3.72054 29.7026 3.72054 29.1936V16.4409H1.87414V29.1936ZM5.59468 29.1936C5.59468 29.7026 6.00887 30.1168 6.51788 30.1168C7.0269 30.1168 7.44108 29.7026 7.44115 29.1936V16.4409H5.59468V29.1936ZM9.31529 29.1936C9.31529 29.7026 9.72947 30.1168 10.2385 30.1168C10.7475 30.1168 11.1616 29.7026 11.1617 29.1936V16.4409H9.31529V29.1936ZM20.8236 29.1936C20.8236 29.7026 21.2378 30.1168 21.7468 30.1168C22.2559 30.1168 22.67 29.7026 22.67 29.1936V16.4409H20.8236V29.1936ZM24.5442 29.1936C24.5442 29.7026 24.9584 30.1168 25.4674 30.1168C25.9764 30.1168 26.3906 29.7026 26.3906 29.1936V16.4409H24.5442V29.1936ZM29.188 30.1168C29.697 30.1168 30.1112 29.7026 30.1112 29.1936V16.4409H28.2648V29.1936C28.2648 29.7026 28.679 30.1168 29.188 30.1168ZM16.9296 7.94195C16.9296 8.45948 16.51 8.87902 15.9925 8.87902C15.475 8.87902 15.0554 8.45948 15.0554 7.94195C15.0554 7.42442 15.475 7.00488 15.9925 7.00488C16.51 7.00488 16.9296 7.42442 16.9296 7.94195Z" fill="#424242"/>
</svg>
