<svg width="32" height="32" viewBox="0 0 32 32" fill="none" xmlns="http://www.w3.org/2000/svg">
<path fill-rule="evenodd" clip-rule="evenodd" d="M28.1653 4.95106C28.7216 5.50744 29.028 6.24719 29.028 7.034C29.028 7.82094 28.7216 8.56069 28.1652 9.117L17.5146 19.7677C16.9581 20.3242 16.2184 20.6306 15.4315 20.6306C14.6446 20.6306 13.9049 20.3241 13.3485 19.7677C12.4221 18.8412 12.2434 17.4461 12.8118 16.3382C11.5533 14.8228 10.868 12.9337 10.868 10.9392C10.868 9.69881 11.1334 8.49931 11.6365 7.40494L10.1232 5.89169H6.25601V31.0625C6.25601 31.5802 5.83626 32 5.31851 32H1.30176C0.784008 32 0.364258 31.5802 0.364258 31.0625V2.94587C0.364258 1.3215 1.68576 0 3.31007 0H11.3434C12.1309 0 12.8709 0.306813 13.4274 0.864L15.8023 3.23887C16.8967 2.73587 18.0961 2.47044 19.3365 2.47044C21.3307 2.47044 23.2195 3.15544 24.7349 4.41356C25.1467 4.20125 25.6057 4.08813 26.0823 4.08813C26.8691 4.08813 27.6089 4.39456 28.1653 4.95106ZM10.5115 4.01662C10.7601 4.01662 10.9986 4.11544 11.1744 4.29125L12.6385 5.75531C12.8564 5.47481 13.0932 5.20606 13.3484 4.95081C13.6036 4.69562 13.8724 4.45888 14.1528 4.24094L12.1013 2.18937C11.8986 1.9865 11.6296 1.875 11.3434 1.875H3.31007C2.71963 1.875 2.23926 2.35537 2.23926 2.94587V30.125H4.38101V4.95412C4.38101 4.43637 4.80076 4.01662 5.31851 4.01662H10.5115ZM13.5937 7.69438L13.5879 7.704C13.0365 8.68044 12.743 9.78725 12.7429 10.9392C12.7429 12.384 13.2044 13.7578 14.0577 14.8923L23.2898 5.66044C22.1552 4.807 20.7813 4.34544 19.3364 4.34544C18.1831 4.34544 17.075 4.63963 16.0977 5.19244L16.0861 5.19931L16.0861 5.19932C16.0758 5.20553 16.0654 5.21175 16.0547 5.21731C15.5561 5.50437 15.092 5.85881 14.6742 6.27663C14.2568 6.69413 13.9025 7.15788 13.6156 7.65606C13.6089 7.66907 13.6013 7.68172 13.5937 7.69436L13.5937 7.69438ZM16.1888 18.4419L26.8394 7.79112C27.0417 7.58887 27.153 7.32006 27.153 7.03406C27.153 6.74806 27.0416 6.47913 26.8394 6.27688C26.6371 6.0745 26.3682 5.96313 26.0823 5.96313C25.7963 5.96313 25.5274 6.0745 25.3252 6.27681L25.3251 6.27688L14.6743 16.9275C14.2568 17.3451 14.2568 18.0244 14.6743 18.4419C14.8765 18.6442 15.1454 18.7556 15.4314 18.7556C15.7175 18.7556 15.9865 18.6442 16.1888 18.4419ZM25.0172 17.5573C24.4994 17.5573 24.0797 17.1375 24.0797 16.6198C24.0797 16.102 24.4994 15.6821 25.0172 15.6821C25.5349 15.6821 25.9547 16.1018 25.9547 16.6196V16.6198C25.9547 17.1375 25.5349 17.5573 25.0172 17.5573ZM27.1939 13.1162C27.0196 13.2912 26.9196 13.5324 26.9196 13.7793C26.9196 14.0262 27.0196 14.268 27.1939 14.4424C27.369 14.6168 27.6102 14.7168 27.8571 14.7168C28.1039 14.7168 28.3458 14.6168 28.5202 14.4424C28.6946 14.268 28.7946 14.0262 28.7946 13.7793C28.7946 13.5324 28.6946 13.2912 28.5202 13.1162C28.3458 12.9418 28.1039 12.8418 27.8571 12.8418C27.6102 12.8418 27.369 12.9418 27.1939 13.1162ZM22.8396 18.7968C23.0146 18.9712 23.1146 19.2131 23.1146 19.46C23.1146 19.7062 23.0146 19.9481 22.8396 20.1225C22.6652 20.2975 22.424 20.3975 22.1771 20.3975C21.9302 20.3975 21.6884 20.2975 21.514 20.1225C21.3396 19.9481 21.2396 19.7068 21.2396 19.46C21.2396 19.2131 21.3396 18.9712 21.514 18.7968C21.6884 18.6225 21.9302 18.5225 22.1771 18.5225C22.4241 18.5225 22.6652 18.6225 22.8396 18.7968ZM27.3746 20.8801C27.3746 20.6333 27.2746 20.392 27.1002 20.217C26.9252 20.0426 26.684 19.9426 26.4371 19.9426C26.1903 19.9426 25.9489 20.0426 25.774 20.217C25.5996 20.392 25.4996 20.6333 25.4996 20.8801C25.4996 21.127 25.5996 21.3683 25.774 21.5433C25.949 21.7176 26.1909 21.8176 26.4371 21.8176C26.684 21.8176 26.9253 21.7176 27.1002 21.5433C27.2746 21.3683 27.3746 21.127 27.3746 20.8801ZM29.9403 17.3769C30.1146 17.5513 30.2153 17.7932 30.2153 18.04C30.2153 18.2863 30.1146 18.5282 29.9403 18.7025C29.7659 18.8775 29.524 18.9775 29.2771 18.9775C29.0309 18.9775 28.789 18.8775 28.6146 18.7025C28.4403 18.5282 28.3396 18.2863 28.3396 18.04C28.3396 17.7932 28.4403 17.5513 28.6146 17.3769C28.789 17.2025 29.0309 17.1025 29.2771 17.1025C29.524 17.1025 29.7659 17.2025 29.9403 17.3769ZM24.4357 23.3011L24.4356 23.3008C24.2041 22.8378 23.6411 22.6501 23.1779 22.8816C22.7148 23.1132 22.5271 23.6764 22.7587 24.1395C22.9229 24.4681 23.254 24.6579 23.5979 24.6579C23.7388 24.6579 23.8819 24.6261 24.0164 24.5588C24.4796 24.3273 24.6672 23.7642 24.4357 23.3011ZM27.194 24.4774C27.369 24.303 27.6102 24.2024 27.8571 24.2024C28.104 24.2024 28.3459 24.303 28.5202 24.4774C28.6946 24.6518 28.7946 24.8936 28.7946 25.1399C28.7946 25.3868 28.6946 25.6286 28.5202 25.803C28.3459 25.9774 28.104 26.0774 27.8571 26.0774C27.6102 26.0774 27.3691 25.9774 27.194 25.803C27.0196 25.6286 26.9196 25.3868 26.9196 25.1399C26.9196 24.8936 27.0196 24.6518 27.194 24.4774ZM30.6975 21.3625C30.1798 21.3625 29.76 21.7824 29.76 22.3001C29.76 22.8179 30.1798 23.2376 30.6975 23.2376C31.2153 23.2376 31.635 22.8179 31.635 22.3001V22.3C31.635 21.7822 31.2153 21.3625 30.6975 21.3625ZM24.3546 27.3176C24.5289 27.1432 24.7702 27.0432 25.0171 27.0432C25.2639 27.0432 25.5052 27.1432 25.6802 27.3176C25.8546 27.4926 25.9546 27.7338 25.9546 27.9807C25.9546 28.2276 25.8546 28.4688 25.6802 28.6432C25.5058 28.8182 25.2639 28.9182 25.0171 28.9182C24.7702 28.9182 24.5289 28.8182 24.3546 28.6432C24.1796 28.4695 24.0796 28.2276 24.0796 27.9807C24.0796 27.7338 24.1796 27.492 24.3546 27.3176Z" fill="#424242"/>
</svg>
