<svg width="26" height="32" viewBox="0 0 26 32" fill="none" xmlns="http://www.w3.org/2000/svg">
<path fill-rule="evenodd" clip-rule="evenodd" d="M12.7249 4.98C12.7249 2.234 10.4909 0 7.74479 0C6.4141 0 5.16379 0.518375 4.2256 1.45837C3.28429 2.39794 2.76591 3.64862 2.76591 4.98V20.0195C1.4601 21.3311 0.719727 23.1119 0.719727 24.9746C0.719727 28.8484 3.8711 32 7.74479 32C11.6185 32 14.7699 28.8484 14.7699 24.9746C14.7699 23.1124 14.0299 21.3317 12.7248 20.0198V4.98H12.7249ZM12.7699 24.9746C12.7699 27.7456 10.5157 30 7.74479 30C4.97398 30 2.71973 27.7456 2.71973 24.9746C2.71973 23.5309 3.34173 22.1559 4.42629 21.2022C4.64223 21.0123 4.76598 20.7388 4.76598 20.4513V12.9129H6.31348C6.86579 12.9129 7.31348 12.4652 7.31348 11.9129C7.31348 11.3607 6.86579 10.9129 6.31348 10.9129H4.76598V8.39394H6.31348C6.86579 8.39394 7.31348 7.94619 7.31348 7.39394C7.31348 6.84169 6.86579 6.39394 6.31348 6.39394H4.76598V4.98C4.76598 4.1835 5.07585 3.43556 5.63985 2.87256C6.20148 2.30988 6.94898 2 7.74479 2C9.38798 2 10.7249 3.33681 10.7249 4.98V20.4513C10.7249 20.7386 10.8485 21.0121 11.0642 21.2019C12.1482 22.156 12.7699 23.5311 12.7699 24.9746ZM8.74479 22.4458V16.9912C8.74479 16.439 8.2971 15.9913 7.74479 15.9913C7.19248 15.9913 6.74479 16.439 6.74479 16.9912V22.4458C5.67979 22.8504 4.92066 23.8811 4.92066 25.0862C4.92066 26.6434 6.1876 27.9103 7.74479 27.9103C9.30204 27.9103 10.569 26.6434 10.569 25.0862C10.5689 23.8811 9.80979 22.8504 8.74479 22.4458ZM7.74479 25.9103C7.29035 25.9103 6.92066 25.5406 6.92066 25.0862C6.92066 24.6319 7.29035 24.2623 7.74479 24.2623C8.19923 24.2623 8.56898 24.6319 8.56898 25.0862C8.56891 25.5406 8.19923 25.9103 7.74479 25.9103ZM25.2797 8.77763C25.2797 9.32987 24.832 9.77763 24.2797 9.77763C23.7274 9.77763 23.2797 9.32987 23.2797 8.77763C23.2797 5.04044 20.2394 2 16.5022 2C15.9499 2 15.5022 1.55225 15.5022 1C15.5022 0.44775 15.9499 0 16.5022 0C21.3422 0 25.2797 3.93762 25.2797 8.77763ZM21.4405 8.77763C21.4405 9.32987 20.9928 9.77763 20.4405 9.77763C19.8882 9.77763 19.4405 9.32987 19.4405 8.77763C19.4405 7.15744 18.1224 5.83931 16.5022 5.83931C15.9499 5.83931 15.5022 5.39156 15.5022 4.83931C15.5022 4.28706 15.9499 3.83931 16.5022 3.83931C19.2251 3.83931 21.4405 6.05469 21.4405 8.77763ZM17.6632 8.72812C17.6632 9.34025 17.1639 9.83956 16.5518 9.83956C15.9397 9.83956 15.4404 9.34031 15.4404 8.72812C15.4404 8.116 15.9397 7.61669 16.5518 7.61669C17.1639 7.61669 17.6632 8.116 17.6632 8.72812Z" fill="#424242"/>
</svg>
