<svg width="32" height="32" viewBox="0 0 32 32" fill="none" xmlns="http://www.w3.org/2000/svg">
<path d="M28.0683 25.8779C28.067 26.4293 27.6195 26.8754 27.0684 26.8754C27.0675 26.8754 27.0668 26.8754 27.0659 26.8754L26.7245 26.8746L26.6222 27.7583C26.5632 28.2679 26.1309 28.6434 25.6301 28.6434C25.5916 28.6434 25.5529 28.6412 25.5138 28.6367C24.9652 28.5731 24.572 28.0769 24.6355 27.5283L24.8405 25.7575C24.899 25.253 25.3262 24.8725 25.8339 24.8725H25.8363L27.0708 24.8755C27.6231 24.8768 28.0697 25.3256 28.0683 25.8779ZM6.24277 24.8402L4.47196 24.6352C3.92352 24.5717 3.42708 24.9649 3.36358 25.5136C3.30008 26.0622 3.69333 26.5584 4.24196 26.6219L5.12565 26.7242L5.12483 27.0656C5.12352 27.6179 5.57015 28.0667 6.1224 28.0681H6.1249C6.67602 28.0681 7.12352 27.6219 7.12483 27.0705L7.12783 25.8361C7.12902 25.3273 6.74815 24.8987 6.24277 24.8402ZM4.92977 7.12449L6.16421 7.12749H6.16671C6.67433 7.12749 7.10158 6.74705 7.16008 6.24249L7.36515 4.47168C7.42865 3.92305 7.0354 3.4268 6.48677 3.3633C5.93833 3.30005 5.4419 3.69299 5.3784 4.24168L5.27608 5.12537L4.93471 5.12455C4.9339 5.12455 4.93308 5.12455 4.93221 5.12455C4.38108 5.12455 3.93358 5.57068 3.93227 6.12212C3.93083 6.6743 4.37746 7.12312 4.92977 7.12449ZM25.7577 7.15968L27.5286 7.36474C27.5676 7.3693 27.6065 7.37149 27.6449 7.37149C28.1457 7.37149 28.578 6.99599 28.637 6.48643C28.7006 5.9378 28.3073 5.44155 27.7587 5.37805L26.875 5.27568L26.8758 4.9343C26.8771 4.38205 26.4305 3.93324 25.8782 3.93187C25.8774 3.93187 25.8766 3.93187 25.8757 3.93187C25.3246 3.93187 24.8771 4.37799 24.8758 4.92943L24.8728 6.16387C24.8715 6.67262 25.2524 7.10118 25.7577 7.15968ZM31.8839 17.5404C31.7104 17.8951 31.3548 18.1012 30.9849 18.1012C30.8374 18.1012 30.6876 18.0684 30.5461 17.9992L28.5038 17H26.31L27.9555 19.3858C28.269 19.8404 28.1546 20.4632 27.7 20.7767C27.5267 20.8963 27.3289 20.9536 27.1331 20.9536C26.8155 20.9536 26.5031 20.8026 26.309 20.5213L23.8805 17H20.6954V18.0282C20.6954 18.3974 20.6199 18.7492 20.4837 19.0692L22.3571 20.9426C22.7476 21.3331 22.7476 21.9662 22.3571 22.3567C22.1618 22.552 21.9059 22.6496 21.65 22.6496C21.3941 22.6496 21.1382 22.552 20.9429 22.3567L19.0696 20.4834C18.7496 20.6196 18.3977 20.6951 18.0286 20.6951H17.0003V23.8801L20.5216 26.3086C20.9762 26.6222 21.0906 27.2449 20.777 27.6996C20.583 27.9808 20.2706 28.1319 19.9529 28.1319C19.7571 28.1319 19.5594 28.0746 19.386 27.955L17.0003 26.3097V28.5034L17.9995 30.5459C18.2422 31.042 18.0368 31.6409 17.5408 31.8836C17.3993 31.9528 17.2495 31.9856 17.102 31.9856C16.7321 31.9856 16.3766 31.7795 16.203 31.4248L16.0003 31.0104L15.7975 31.4248C15.624 31.7795 15.2685 31.9856 14.8985 31.9856C14.751 31.9856 14.6012 31.9528 14.4598 31.8836C13.9636 31.6409 13.7583 31.042 14.001 30.5459L15.0003 28.5035V26.3097L12.6145 27.9551C12.4411 28.0747 12.2433 28.132 12.0476 28.132C11.7299 28.132 11.4175 27.9809 11.2235 27.6997C10.9099 27.2451 11.0243 26.6223 11.4789 26.3087L15.0003 23.8801V20.6951H13.972C13.6029 20.6951 13.251 20.6196 12.931 20.4834L11.0577 22.3567C10.8625 22.5521 10.6065 22.6497 10.3506 22.6497C10.0948 22.6497 9.83883 22.5521 9.64358 22.3567C9.25302 21.9662 9.25302 21.3331 9.64358 20.9426L11.5169 19.0692C11.3807 18.7492 11.3052 18.3974 11.3052 18.0282V17H8.12021L5.69165 20.5213C5.49765 20.8026 5.18521 20.9536 4.86752 20.9536C4.67177 20.9536 4.47402 20.8963 4.30065 20.7767C3.84602 20.4632 3.73165 19.8404 4.04521 19.3858L5.69058 17H3.49683L1.4544 17.9992C1.31302 18.0684 1.16315 18.1012 1.01565 18.1012C0.645708 18.1012 0.290208 17.8951 0.116646 17.5404C-0.126042 17.0443 0.0793334 16.4454 0.575458 16.2027L0.989833 16L0.575396 15.7972C0.0792709 15.5546 -0.126104 14.9556 0.116646 14.4595C0.359333 13.9634 0.958271 13.7579 1.4544 14.0007L3.49683 15H5.69058L4.04515 12.6142C3.73158 12.1596 3.84596 11.5368 4.30058 11.2232C4.75527 10.9097 5.37796 11.0241 5.69152 11.4787L8.12014 15H11.3051V13.9717C11.3051 13.6026 11.3806 13.2507 11.5168 12.9307L9.64352 11.0574C9.25296 10.6669 9.25296 10.0337 9.64352 9.64324C10.0341 9.25268 10.6672 9.25268 11.0577 9.64324L12.9311 11.5166C13.2511 11.3804 13.6029 11.3049 13.972 11.3049H15.0003V8.11993L11.479 5.69137C11.0243 5.3778 10.91 4.75505 11.2235 4.30043C11.5371 3.8458 12.1598 3.73143 12.6145 4.04499L15.0003 5.6903V3.49655L14.001 1.45412C13.7583 0.957992 13.9637 0.359117 14.4598 0.116429C14.9559 -0.126258 15.5549 0.0791166 15.7975 0.575242L16.0003 0.989617L16.203 0.575179C16.4457 0.0790541 17.0445 -0.126383 17.5408 0.116429C18.0369 0.359117 18.2423 0.958054 17.9995 1.45418L17.0003 3.49655V5.6903L19.3861 4.04487C19.8408 3.73137 20.4635 3.84574 20.777 4.3003C21.0906 4.75493 20.9762 5.37768 20.5216 5.69124L17.0003 8.11987V11.3049H18.0285C18.3976 11.3049 18.7495 11.3804 19.0695 11.5166L20.9428 9.64324C21.3333 9.25268 21.9665 9.25268 22.357 9.64324C22.7476 10.0337 22.7476 10.6669 22.357 11.0574L20.4837 12.9307C20.6199 13.2507 20.6954 13.6026 20.6954 13.9717V15H23.8805L26.309 11.4787C26.6226 11.0241 27.2452 10.9097 27.7 11.2232C28.1546 11.5368 28.269 12.1596 27.9554 12.6142L26.31 15H28.5037L30.5461 14.0007C31.0423 13.7581 31.6412 13.9635 31.8839 14.4595C32.1266 14.9556 31.9212 15.5546 31.4251 15.7972L31.0107 16L31.4251 16.2027C31.9212 16.4454 32.1266 17.0443 31.8839 17.5404ZM18.0285 18.6951C18.3962 18.6951 18.6954 18.3959 18.6954 18.0282V13.9717C18.6954 13.6041 18.3962 13.3049 18.0285 13.3049H13.972C13.6043 13.3049 13.3051 13.6041 13.3051 13.9717V18.0282C13.3051 18.3959 13.6043 18.6951 13.972 18.6951H18.0285ZM7.37865 8.79255L7.4439 8.8578C7.63915 9.05312 7.89508 9.15074 8.15096 9.15074C8.40683 9.15074 8.66277 9.05312 8.85802 8.8578C9.24858 8.4673 9.24858 7.83412 8.85802 7.44362L8.79277 7.37837C8.40227 6.9878 7.76908 6.9878 7.37858 7.37837C6.98815 7.76887 6.98815 8.40205 7.37865 8.79255ZM23.8495 9.15074C24.1055 9.15074 24.3613 9.05312 24.5566 8.8578L24.6218 8.79255C25.0124 8.40205 25.0124 7.76887 24.6218 7.37837C24.2313 6.9878 23.5981 6.9878 23.2076 7.37837L23.1424 7.44362C22.7518 7.83412 22.7518 8.4673 23.1424 8.8578C23.3376 9.05312 23.5936 9.15074 23.8495 9.15074ZM24.6219 23.2074L24.5566 23.1422C24.1661 22.7516 23.533 22.7516 23.1425 23.1422C22.7519 23.5327 22.7519 24.1659 23.1425 24.5564L23.2077 24.6216C23.403 24.8169 23.6589 24.9146 23.9148 24.9146C24.1706 24.9146 24.4266 24.8169 24.6218 24.6216C25.0124 24.2311 25.0124 23.5979 24.6219 23.2074ZM7.44396 23.1421L7.37871 23.2074C6.98815 23.5979 6.98815 24.2311 7.37871 24.6216C7.57396 24.8169 7.8299 24.9145 8.08577 24.9145C8.34165 24.9145 8.59758 24.8169 8.79283 24.6216L8.85808 24.5563C9.24865 24.1658 9.24865 23.5326 8.85808 23.1421C8.46765 22.7516 7.83446 22.7516 7.44396 23.1421Z" fill="#424242"/>
</svg>
