<svg width="22" height="32" viewBox="0 0 22 32" fill="none" xmlns="http://www.w3.org/2000/svg">
<path fill-rule="evenodd" clip-rule="evenodd" d="M15.6457 15.431H6.35397C5.17791 15.431 4.22109 16.3878 4.22109 17.5639V25.7097C4.22109 26.8858 5.17791 27.8426 6.35397 27.8426H15.6458C16.8218 27.8426 17.7787 26.8858 17.7787 25.7097V17.5639C17.7787 16.3878 16.8218 15.431 15.6457 15.431ZM6.22103 25.7097V17.5639C6.22103 17.4907 6.28066 17.431 6.35391 17.431H9.99234V25.8425H6.35391C6.28066 25.8426 6.22103 25.783 6.22103 25.7097ZM15.7787 25.7097C15.7787 25.783 15.719 25.8426 15.6458 25.8426H12.0073V17.431H15.6457C15.719 17.431 15.7786 17.4907 15.7786 17.5639V25.7097H15.7787ZM17.9418 11.2737H4.05791C2.17147 11.2737 0.636719 12.8085 0.636719 14.6951V28.5787C0.636719 30.4652 2.17147 32 4.05791 32H17.9418C19.8282 32 21.363 30.4652 21.363 28.5787V14.6951C21.363 12.8085 19.8282 11.2737 17.9418 11.2737ZM19.363 28.5787C19.363 29.3624 18.7254 30 17.9418 30H4.05791C3.27422 30 2.63672 29.3624 2.63672 28.5787V14.6951C2.63672 13.9113 3.27428 13.2737 4.05791 13.2737H17.9418C18.7255 13.2737 19.363 13.9113 19.363 14.6951V28.5787ZM9.35984 19.0283C9.35984 19.5806 8.91209 20.0284 8.35984 20.0284H7.86834C7.31609 20.0284 6.86834 19.5806 6.86834 19.0283C6.86834 18.4761 7.31609 18.0283 7.86834 18.0283H8.35984C8.91209 18.0283 9.35984 18.4761 9.35984 19.0283ZM15.1312 19.0283C15.1312 19.5806 14.6834 20.0284 14.1312 20.0284H13.6397C13.0874 20.0284 12.6397 19.5806 12.6397 19.0283C12.6397 18.4761 13.0874 18.0283 13.6397 18.0283H14.1312C14.6834 18.0283 15.1312 18.4761 15.1312 19.0283ZM4.79309 3.98146C4.40259 3.59096 4.40259 2.95777 4.79309 2.56727C8.21553 -0.855106 13.7842 -0.855106 17.2065 2.56727C17.5971 2.95777 17.5971 3.59096 17.2065 3.98146C16.816 4.37202 16.1828 4.37202 15.7923 3.98146C13.1497 1.3389 8.84991 1.33883 6.20728 3.98146C6.01203 4.17671 5.75609 4.27434 5.50022 4.27434C5.24428 4.2744 4.98841 4.17677 4.79309 3.98146ZM13.0775 6.69628C12.5225 6.14128 11.7847 5.83559 10.9999 5.83559C10.2151 5.83559 9.47722 6.14128 8.92209 6.69628C8.53159 7.08684 7.89841 7.08684 7.50791 6.69628C7.11734 6.30578 7.11734 5.67259 7.50791 5.28209C8.44072 4.34927 9.68084 3.83559 10.9998 3.83559H11C12.319 3.83559 13.559 4.34934 14.4918 5.28215C14.8823 5.67271 14.8823 6.30584 14.4918 6.69634C14.2965 6.89159 14.0406 6.98921 13.7847 6.98921C13.5287 6.98921 13.2728 6.89159 13.0775 6.69628ZM10.9999 7.59246C11.612 7.59246 12.1113 8.09171 12.1113 8.70384C12.1113 9.31597 11.612 9.81528 10.9999 9.81528C10.3878 9.81528 9.88847 9.31603 9.88847 8.70384C9.88847 8.09178 10.3878 7.59246 10.9999 7.59246Z" fill="#424242"/>
</svg>
