<svg width="30" height="32" viewBox="0 0 30 32" fill="none" xmlns="http://www.w3.org/2000/svg">
<path fill-rule="evenodd" clip-rule="evenodd" d="M19.7678 0.476312L28.3709 15.6343C29.3254 17.3159 29.8299 19.2269 29.8299 21.1605C29.8299 27.2387 24.9122 32 18.6343 32C15.6231 32 12.82 30.9331 10.7416 28.9957C8.61177 27.0104 7.43878 24.2802 7.43878 21.3082C7.43878 21.0582 7.44887 20.7964 7.46756 20.5314L7.4606 20.5314C3.44054 20.5314 0.169922 17.2608 0.169922 13.2407C0.169922 11.815 0.589196 10.8282 1.21883 9.78511L6.85078 0.454555C7.02333 0.168644 7.3367 -0.00622577 7.66857 0.000169619C8.00251 0.00462131 8.30905 0.185887 8.47389 0.476312L13.1559 8.72567L18.1445 0.454806C18.317 0.16877 18.6268 -0.00346697 18.9623 0.000169619C19.2963 0.00455861 19.6029 0.185824 19.7678 0.476312ZM2.05092 13.2407C2.05092 16.2236 4.47765 18.6504 7.46054 18.6504C10.4434 18.6504 12.8702 16.2236 12.8703 13.2407C12.8703 12.4816 12.7099 11.8382 12.3261 11.0889C12.3032 11.0516 12.283 11.0131 12.2657 10.9733C12.2335 10.9132 12.2003 10.8526 12.1653 10.7909L7.63102 2.80191L2.82921 10.7571C2.25457 11.7091 2.05092 12.3589 2.05092 13.2407ZM18.6343 30.119C21.154 30.119 23.499 29.2076 25.2373 27.5527C26.9859 25.8879 27.9489 23.6178 27.9488 21.1605C27.9488 19.5517 27.5291 17.9619 26.735 16.5627L18.9251 2.80248L14.1967 10.6422C14.5807 11.5051 14.7512 12.3181 14.7512 13.2407C14.7512 16.5973 12.471 19.4308 9.3784 20.2749C9.3404 20.6277 9.31971 20.9849 9.31971 21.3081C9.31971 23.7526 10.2801 25.9941 12.0241 27.6198C13.7531 29.2314 16.1006 30.119 18.6343 30.119ZM15.4208 23.1769C15.0535 22.8096 15.0535 22.2142 15.4208 21.8469C17.1928 20.075 20.0759 20.075 21.8478 21.8469C22.2151 22.2142 22.2151 22.8096 21.8478 23.1769C21.6642 23.3606 21.4235 23.4524 21.1828 23.4524C20.9422 23.4524 20.7015 23.3606 20.5178 23.1769C19.4793 22.1384 17.7894 22.1384 16.7509 23.1769C16.3836 23.5442 15.7881 23.5442 15.4208 23.1769ZM18.6344 17.0951C16.5067 17.0951 14.5065 17.9237 13.002 19.4281C12.6347 19.7954 12.6347 20.3908 13.002 20.7581C13.3693 21.1254 13.9648 21.1254 14.3321 20.7581C15.4813 19.609 17.0092 18.9761 18.6344 18.9761C20.2595 18.9761 21.7875 19.609 22.9366 20.7581C23.1203 20.9418 23.3609 21.0336 23.6016 21.0336C23.8423 21.0336 24.083 20.9418 24.2666 20.7581C24.6339 20.3909 24.6339 19.7954 24.2666 19.4281C22.7622 17.9237 20.762 17.0951 18.6344 17.0951ZM19.5748 25.0604C19.5748 25.5798 19.1537 26.0009 18.6343 26.0009C18.1149 26.0009 17.6938 25.5798 17.6938 25.0604C17.6938 24.541 18.1149 24.1199 18.6343 24.1199C19.1537 24.1199 19.5748 24.541 19.5748 25.0604Z" fill="#424242"/>
</svg>
