<svg width="33" height="32" viewBox="0 0 33 32" fill="none" xmlns="http://www.w3.org/2000/svg">
<path d="M31.9616 7.28949L30.7163 6.04424L31.3113 5.4493C31.8431 4.91749 32.1419 4.19619 32.1419 3.44408C32.1419 2.69197 31.8431 1.97066 31.3113 1.43884C30.7795 0.90701 30.0582 0.608231 29.3061 0.608225C28.554 0.608219 27.8326 0.906987 27.3008 1.4388L26.7058 2.03374L25.4606 0.788429C24.9541 0.283075 24.2678 -0.000732422 23.5523 -0.000732422C22.8368 -0.000732422 22.1505 0.283075 21.6439 0.788429L20.5088 1.92368C20.3139 2.11831 20.1502 2.34176 20.0232 2.58618C19.5116 2.31219 18.9256 2.20972 18.3514 2.29388C17.7772 2.37803 17.2452 2.64435 16.8338 3.05362L15.6986 4.18868C15.1937 4.69542 14.9102 5.38161 14.9102 6.09696C14.9102 6.81231 15.1937 7.4985 15.6986 8.00524L18.1703 10.4769L11.2268 17.4202L8.7552 14.9486C8.24846 14.4437 7.56228 14.1602 6.84695 14.1602C6.13161 14.1602 5.44544 14.4437 4.9387 14.9486L3.80338 16.0838C3.39412 16.4952 3.1278 17.0272 3.04364 17.6014C2.95949 18.1756 3.06196 18.7616 3.33595 19.2732C3.09158 19.4002 2.86815 19.564 2.67345 19.7589L1.53838 20.8938C1.03349 21.4006 0.75 22.0867 0.75 22.8021C0.75 23.5174 1.03349 24.2036 1.53838 24.7104L2.7837 25.9556L2.1887 26.5506C1.65685 27.0824 1.35805 27.8038 1.35804 28.5559C1.35803 29.3081 1.6568 30.0294 2.18863 30.5612C2.72047 31.0931 3.4418 31.3919 4.19393 31.3919C4.94607 31.3919 5.66741 31.0931 6.19926 30.5613L6.7942 29.9664L8.03945 31.2116C8.54597 31.717 9.23225 32.0008 9.94776 32.0008C10.6633 32.0008 11.3496 31.717 11.8561 31.2116L12.9912 30.0764C13.1861 29.8817 13.3499 29.6582 13.4769 29.4139C13.9885 29.6879 14.5745 29.7903 15.1487 29.7062C15.7228 29.622 16.2548 29.3557 16.6662 28.9464L17.8014 27.8111C18.3064 27.3044 18.5899 26.6182 18.5899 25.9029C18.5899 25.1875 18.3064 24.5013 17.8014 23.9946L15.3298 21.523L22.2732 14.5799L24.7448 17.0515C25.2516 17.5564 25.9377 17.8399 26.6531 17.8399C27.3684 17.8399 28.0546 17.5564 28.5613 17.0515L29.6966 15.9162C30.1059 15.5048 30.3722 14.9728 30.4564 14.3987C30.5405 13.8245 30.4381 13.2385 30.1641 12.7269C30.4084 12.5999 30.6319 12.4361 30.8266 12.2412L31.9616 11.1063C32.4671 10.5998 32.7509 9.91346 32.7509 9.1979C32.7509 8.48234 32.4671 7.796 31.9616 7.28949ZM28.7149 2.85299C28.8718 2.69647 29.0844 2.60857 29.306 2.60857C29.5276 2.60857 29.7402 2.69647 29.8971 2.85299C30.0508 3.01131 30.1368 3.22332 30.1368 3.44402C30.1368 3.66472 30.0508 3.87674 29.8971 4.03505L29.3021 4.62999L28.12 3.44793L28.7149 2.85299ZM4.78507 29.1471C4.62832 29.3039 4.41571 29.392 4.19402 29.392C3.97233 29.392 3.75971 29.3039 3.60295 29.1472C3.44618 28.9904 3.3581 28.7778 3.35809 28.5561C3.35808 28.3344 3.44613 28.1218 3.60288 27.9651L4.19788 27.3701L5.38001 28.5522L4.78507 29.1471ZM11.5769 28.6622L10.4419 29.7974C10.3097 29.9263 10.1324 29.9983 9.94779 29.9983C9.7632 29.9983 9.58591 29.9263 9.4537 29.7974L2.95257 23.2964C2.82277 23.1647 2.75001 22.9872 2.75001 22.8023C2.75001 22.6174 2.82277 22.4399 2.95257 22.3082L4.08782 21.173C4.21902 21.0423 4.39669 20.9688 4.58191 20.9688C4.76714 20.9688 4.94481 21.0423 5.07601 21.173L11.5771 27.6741C11.7069 27.8057 11.7798 27.9832 11.7798 28.1681C11.7798 28.3531 11.7069 28.5306 11.5771 28.6622H11.5769ZM16.3875 26.3972L15.2522 27.5325C15.1205 27.6623 14.9431 27.735 14.7582 27.735C14.5733 27.735 14.3958 27.6623 14.2641 27.5325L5.21757 18.4862C5.08777 18.3545 5.01501 18.177 5.01501 17.9921C5.01501 17.8072 5.08777 17.6297 5.21757 17.4981L6.35288 16.3626C6.48402 16.2317 6.6617 16.1582 6.84695 16.1582C7.03219 16.1582 7.20987 16.2317 7.34101 16.3626L16.3875 25.4091C16.5183 25.5402 16.5918 25.7179 16.5918 25.9031C16.5918 26.0884 16.5183 26.266 16.3875 26.3972ZM13.9156 20.109L12.641 18.8344L19.5844 11.8911L20.859 13.1657L13.9156 20.109ZM28.2824 14.5021L27.1471 15.6376C27.016 15.7684 26.8383 15.8418 26.6531 15.8418C26.4678 15.8418 26.2902 15.7684 26.159 15.6376L17.1125 6.59105C16.9827 6.45937 16.91 6.28189 16.91 6.09699C16.91 5.91209 16.9827 5.73462 17.1125 5.60293L18.2478 4.46762C18.3789 4.33681 18.5566 4.26335 18.7418 4.26335C18.9271 4.26335 19.1047 4.33681 19.2359 4.46762L20.508 5.73968L20.5085 5.74024L27.0098 12.2413L27.0106 12.242L28.2825 13.5139C28.4133 13.6451 28.4868 13.8228 28.4867 14.008C28.4867 14.1932 28.4133 14.3709 28.2824 14.5021ZM30.5474 9.69187L29.4125 10.8271C29.2808 10.9569 29.1033 11.0297 28.9184 11.0297C28.7335 11.0297 28.556 10.9569 28.4243 10.8271L21.9229 4.32605C21.7921 4.19493 21.7185 4.01723 21.7185 3.83196C21.7185 3.64669 21.7921 3.46899 21.9229 3.33787L23.0581 2.20268C23.1903 2.07388 23.3676 2.0018 23.5521 2.0018C23.7367 2.0018 23.914 2.07388 24.0462 2.20268L30.5474 8.70368C30.6782 8.83488 30.7516 9.01255 30.7516 9.19777C30.7516 9.38299 30.6782 9.56066 30.5474 9.69187Z" fill="#424242"/>
</svg>
