<svg width="14" height="14" viewBox="0 0 14 14" fill="none" xmlns="http://www.w3.org/2000/svg">
<path fill-rule="evenodd" clip-rule="evenodd" d="M7 12.5C10.0376 12.5 12.5 10.0376 12.5 7C12.5 3.96243 10.0376 1.5 7 1.5C3.96243 1.5 1.5 3.96243 1.5 7C1.5 10.0376 3.96243 12.5 7 12.5ZM7 14C10.866 14 14 10.866 14 7C14 3.13401 10.866 0 7 0C3.13401 0 0 3.13401 0 7C0 10.866 3.13401 14 7 14ZM8 4C8 4.55228 7.55228 5 7 5C6.44772 5 6 4.55228 6 4C6 3.44772 6.44772 3 7 3C7.55228 3 8 3.44772 8 4ZM5.75374 5.5017C5.33953 5.5017 5.00374 5.83749 5.00374 6.2517C5.00374 6.66591 5.33953 7.0017 5.75374 7.0017H6.50051V10.2486C6.50051 10.6628 6.8363 10.9986 7.25051 10.9986C7.66473 10.9986 8.00051 10.6628 8.00051 10.2486L8.00051 7.00009C8.00051 6.17255 7.32966 5.5017 6.50213 5.5017H5.75374Z" fill="#0D47A1"/>
</svg>
