<svg width="28" height="32" viewBox="0 0 28 32" fill="none" xmlns="http://www.w3.org/2000/svg">
<path fill-rule="evenodd" clip-rule="evenodd" d="M10.1556 23.1685V10.8344C10.1556 10.2821 10.6034 9.83444 11.1556 9.83444C11.7079 9.83444 12.1556 10.2821 12.1556 10.8344V23.1686C12.1556 23.7209 11.7079 24.1686 11.1556 24.1686C10.6034 24.1686 10.1556 23.7208 10.1556 23.1685ZM22.3349 12.418C23.849 15.4777 23.7532 20.32 22.1377 22.382C21.9405 22.6338 21.6466 22.7653 21.3499 22.7654C21.1341 22.7654 20.9168 22.6959 20.7338 22.5525C20.299 22.2119 20.2227 21.5833 20.5634 21.1486C21.4941 19.9606 21.9044 16.0573 20.5424 13.3051C20.0086 12.2264 19.2925 11.5487 18.4065 11.2815L18.8939 28.8221C18.914 29.5454 18.6472 30.2292 18.1428 30.7478C17.6609 31.2432 17.0222 31.526 16.3352 31.5502C14.6165 31.8487 12.8859 31.998 11.1555 31.998C9.4251 31.998 7.69454 31.8487 5.97592 31.5502C5.28898 31.526 4.65023 31.2432 4.16829 30.7478C3.66392 30.2292 3.39717 29.5454 3.41717 28.8222L3.82935 13.9881L0.435103 9.1465C0.220978 8.84106 0.194603 8.44188 0.366791 8.111C0.538916 7.78006 0.880916 7.5725 1.25392 7.5725H4.48679C4.96954 6.92238 5.74292 6.50562 6.62054 6.50562H15.6905C17.1392 6.50562 18.3054 7.64 18.3455 9.08813L18.3492 9.22087C20.0444 9.49819 21.4387 10.6069 22.3349 12.418ZM5.96485 9.14338L5.4896 26.2471C7.38267 26.4648 9.28617 26.5765 11.1557 26.5765C13.0252 26.5765 14.9287 26.4648 16.8217 26.2471L16.3464 9.1435C16.3365 8.78569 16.0484 8.5055 15.6906 8.5055H6.6206C6.26279 8.5055 5.97473 8.78569 5.96485 9.14338ZM3.92254 10.6368L3.9521 9.57238H3.17629L3.92254 10.6368ZM16.8947 28.8776L16.8774 28.2542C14.9657 28.4676 13.0442 28.5765 11.1555 28.5765C9.26698 28.5765 7.34548 28.4676 5.43373 28.2542L5.41642 28.8776C5.41148 29.0562 5.47735 29.2251 5.60198 29.3532C5.7266 29.4813 5.89367 29.5519 6.07248 29.5519C6.13067 29.5519 6.18879 29.5569 6.2461 29.5671C9.50373 30.1414 12.8073 30.1414 16.065 29.5671C16.1223 29.5569 16.1804 29.5519 16.2386 29.5519C16.4174 29.5519 16.5845 29.4813 16.7091 29.3532C16.8337 29.2252 16.8997 29.0562 16.8947 28.8776ZM20.1269 0C19.5746 0 19.1269 0.447688 19.1269 1C19.1269 1.55231 19.5746 2 20.1269 2C23.2254 2 25.7462 4.52081 25.7462 7.61931C25.7462 8.17163 26.194 8.61931 26.7462 8.61931C27.2985 8.61931 27.7462 8.17163 27.7462 7.61931C27.7462 3.418 24.3282 0 20.1269 0ZM20.1269 3.2675C19.5746 3.2675 19.1269 3.71519 19.1269 4.2675C19.1269 4.81981 19.5746 5.2675 20.1269 5.2675C21.4237 5.2675 22.4787 6.3225 22.4787 7.61931C22.4787 8.17163 22.9264 8.61931 23.4787 8.61931C24.0309 8.61931 24.4787 8.17163 24.4787 7.61931C24.4787 5.21975 22.5264 3.2675 20.1269 3.2675ZM21.3254 7.57719C21.3254 6.94037 20.8059 6.42094 20.1691 6.42094C19.5323 6.42094 19.0129 6.94037 19.0129 7.57719C19.0129 8.214 19.5323 8.73344 20.1691 8.73344C20.8059 8.73344 21.3254 8.214 21.3254 7.57719Z" fill="#424242"/>
</svg>
