<svg width="24" height="24" viewBox="0 0 24 24" fill="none" xmlns="http://www.w3.org/2000/svg">
<path fill-rule="evenodd" clip-rule="evenodd" d="M20.9309 14.864C23.6258 13.9056 23.6258 10.0944 20.9309 9.136C20.3504 8.92957 20.0757 8.26649 20.3402 7.71005C21.5682 5.12676 18.8732 2.43179 16.2899 3.65975C15.7335 3.92425 15.0704 3.64959 14.864 3.0691C13.9056 0.374142 10.0943 0.374142 9.13597 3.0691C8.92954 3.64959 8.26645 3.92425 7.71002 3.65975C5.12673 2.43179 2.43176 5.12676 3.65972 7.71005C3.92422 8.26649 3.64956 8.92957 3.06907 9.136C0.374112 10.0944 0.374112 13.9056 3.06907 14.864C3.64956 15.0704 3.92422 15.7335 3.65972 16.2899C2.43176 18.8732 5.12672 21.5682 7.71002 20.3402C8.26645 20.0757 8.92954 20.3504 9.13597 20.9309C10.0943 23.6259 13.9056 23.6259 14.864 20.9309C15.0704 20.3504 15.7335 20.0757 16.2899 20.3402C18.8732 21.5682 21.5682 18.8732 20.3402 16.2899C20.0757 15.7335 20.3504 15.0704 20.9309 14.864ZM20.2607 11.0204C21.1825 11.3482 21.1825 12.6518 20.2607 12.9796C18.5636 13.5831 17.7606 15.5218 18.5339 17.1486C18.9539 18.0322 18.0321 18.9539 17.1485 18.5339C15.5217 17.7606 13.5831 18.5636 12.9796 20.2608C12.6518 21.1826 11.3482 21.1826 11.0204 20.2608C10.4168 18.5636 8.47821 17.7606 6.85139 18.5339C5.96781 18.9539 5.04602 18.0322 5.46603 17.1486C6.23933 15.5218 5.43633 13.5831 3.73919 12.9796C2.81741 12.6518 2.81741 11.3482 3.73919 11.0204C5.43633 10.4169 6.23933 8.47824 5.46603 6.85143C5.04602 5.96784 5.96781 5.04605 6.8514 5.46606C8.47821 6.23936 10.4168 5.43636 11.0204 3.73922C11.3482 2.81744 12.6518 2.81744 12.9796 3.73922C13.5831 5.43636 15.5217 6.23937 17.1485 5.46606C18.0321 5.04605 18.9539 5.96784 18.5339 6.85143C17.7606 8.47824 18.5636 10.4169 20.2607 11.0204ZM14 12C14 13.1046 13.1045 14 12 14C10.8954 14 9.99996 13.1046 9.99996 12C9.99996 10.8954 10.8954 10 12 10C13.1045 10 14 10.8954 14 12ZM16 12C16 14.2091 14.2091 16 12 16C9.79083 16 7.99996 14.2091 7.99996 12C7.99996 9.79086 9.79083 8 12 8C14.2091 8 16 9.79086 16 12Z" fill="#C62828"/>
</svg>
