<svg width="32" height="32" viewBox="0 0 32 32" fill="none" xmlns="http://www.w3.org/2000/svg">
<path fill-rule="evenodd" clip-rule="evenodd" d="M1.88518 15.9999C1.88518 20.008 3.59887 23.8415 6.58676 26.5176C6.97454 26.865 7.00734 27.4609 6.66003 27.8486C6.47384 28.0565 6.2162 28.1624 5.95755 28.1624C5.73365 28.1624 5.50894 28.0831 5.32903 27.922C1.94236 24.8887 0 20.5433 0 15.9999C0 11.4565 1.94236 7.11106 5.32909 4.07781C5.71681 3.73056 6.31272 3.76336 6.66009 4.15114C7.00734 4.53892 6.97454 5.13483 6.58676 5.48214C3.59887 8.15816 1.88518 11.9918 1.88518 15.9999ZM30.6412 9.49619C29.7705 7.52605 28.5299 5.77623 26.9538 4.29535C26.5743 3.93887 25.9778 3.9574 25.6214 4.33689C25.2649 4.71625 25.2835 5.31279 25.6629 5.66927C27.054 6.97633 28.1489 8.52036 28.9169 10.2582C29.7117 12.0568 30.1148 13.9744 30.1148 15.958C30.1148 17.9618 29.7037 19.8974 28.8932 21.7111C28.1098 23.4639 26.9946 25.0163 25.5784 26.3254C25.1961 26.6787 25.1727 27.2751 25.526 27.6574C25.7119 27.8584 25.9647 27.9602 26.2185 27.9602C26.4473 27.9602 26.6768 27.8773 26.8581 27.7097C28.4625 26.2266 29.7262 24.4672 30.6142 22.4804C31.5337 20.4231 31.9999 18.2287 31.9999 15.958C32 13.7103 31.5428 11.5362 30.6412 9.49619ZM5.72283 15.9896C5.72283 18.9712 7.01606 21.8026 9.27093 23.7577C9.66424 24.0988 9.70665 24.694 9.36556 25.0874C9.17924 25.3023 8.91683 25.4124 8.65303 25.4124C8.43416 25.4124 8.21428 25.3366 8.03594 25.182C5.36785 22.8686 3.83765 19.5181 3.83765 15.9896C3.83765 12.474 5.35855 9.1315 8.01043 6.81932C8.40286 6.47716 8.99827 6.51795 9.34036 6.91032C9.68246 7.30275 9.64174 7.89815 9.24937 8.24025C7.00821 10.1944 5.72283 13.0189 5.72283 15.9896ZM27.1364 11.033C26.479 9.53977 25.542 8.21222 24.3513 7.08727C23.973 6.72978 23.3764 6.74669 23.0188 7.12504C22.6613 7.5034 22.6782 8.09999 23.0567 8.45755C25.1334 10.4198 26.2772 13.0733 26.2772 15.9291C26.2772 18.8153 25.0524 21.5858 22.917 23.5303C22.5321 23.8808 22.5042 24.4769 22.8546 24.8618C23.0406 25.0661 23.2958 25.1698 23.5518 25.1698C23.7783 25.1698 24.0055 25.0886 24.1862 24.9242C26.7131 22.6232 28.1623 19.3447 28.1623 15.9291C28.1624 14.2267 27.8172 12.5794 27.1364 11.033ZM9.70171 15.9315C9.70171 17.8924 10.5915 19.7073 12.1428 20.911C12.5541 21.2302 12.6288 21.8223 12.3098 22.2336C12.124 22.473 11.8457 22.5983 11.5644 22.5983C11.3625 22.5983 11.1591 22.5338 10.9872 22.4005C8.97221 20.837 7.81653 18.4792 7.81653 15.9315C7.81653 13.4804 8.90183 11.1788 10.7941 9.61712C11.1957 9.28576 11.7898 9.34263 12.1211 9.74411C12.4524 10.1457 12.3956 10.7397 11.9941 11.0711C10.5372 12.2734 9.70171 14.045 9.70171 15.9315ZM21.2059 9.68538C20.8044 9.35396 20.2102 9.4109 19.879 9.81238C19.5476 10.2139 19.6045 10.808 20.006 11.1394C21.4628 12.3417 22.2983 14.1132 22.2983 15.9998C22.2983 17.8864 21.4628 19.6579 20.006 20.8602C19.6045 21.1916 19.5476 21.7857 19.879 22.1872C20.0653 22.4131 20.3349 22.5299 20.6064 22.5299C20.8177 22.5299 21.0302 22.4592 21.2059 22.3142C23.0983 20.7525 24.1836 18.451 24.1836 15.9998C24.1836 13.5486 23.0983 11.2471 21.2059 9.68538ZM16 11.8572C13.7157 11.8572 11.8573 13.7156 11.8573 15.9999C11.8573 18.2843 13.7157 20.1427 16 20.1427C18.2844 20.1427 20.1428 18.2843 20.1428 15.9999C20.1428 13.7156 18.2843 11.8572 16 11.8572ZM16 18.2575C14.7552 18.2575 13.7425 17.2447 13.7425 15.9999C13.7425 14.7551 14.7553 13.7424 16 13.7424C17.2448 13.7424 18.2576 14.7551 18.2576 15.9999C18.2576 17.2447 17.2448 18.2575 16 18.2575Z" fill="#424242"/>
</svg>
