<svg width="16" height="14" viewBox="0 0 16 14" xmlns="http://www.w3.org/2000/svg">
<path fill-rule="evenodd" clip-rule="evenodd" d="M15.2961 3.272C13.2641 1.736 10.7361 0.824005 8.00008 0.824005C5.26408 0.824005 2.73608 1.736 0.70408 3.272C0.25608 3.624 0.176076 4.28 0.560076 4.696L0.62408 4.76C0.96008 5.144 1.53607 5.176 1.93607 4.872C3.61607 3.592 5.72808 2.84 8.00008 2.84C10.2721 2.84 12.3681 3.592 14.0641 4.872C14.4641 5.176 15.0401 5.144 15.3761 4.76L15.4401 4.696C15.8081 4.28 15.7441 3.624 15.2961 3.272ZM8.00009 4.20001C9.85609 4.20001 11.5841 4.77601 12.9921 5.76801C13.4561 6.10401 13.5361 6.79201 13.1361 7.20801L13.0881 7.27202C12.7521 7.64002 12.2081 7.70401 11.8081 7.41601C10.7361 6.66401 9.42409 6.21601 8.00009 6.21601C6.57609 6.21601 5.26409 6.66401 4.17609 7.41601C3.77609 7.70401 3.23209 7.64002 2.89609 7.27202L2.84809 7.20801C2.44809 6.77601 2.52809 6.10401 3.00809 5.76801C4.43209 4.77601 6.14409 4.20001 8.00009 4.20001ZM8.00005 7.57599C8.94405 7.57599 9.84005 7.832 10.6081 8.264C11.1521 8.568 11.2641 9.304 10.8641 9.752L10.8001 9.81599C10.4961 10.152 10.0161 10.248 9.63205 10.024C9.15205 9.752 8.60805 9.592 8.01605 9.592C7.42405 9.592 6.88005 9.752 6.40005 10.024C6.01605 10.232 5.53605 10.136 5.23205 9.81599L5.16805 9.752C4.75205 9.304 4.86405 8.568 5.39205 8.264C6.16005 7.832 7.05605 7.57599 8.00005 7.57599ZM9.10406 12.072C9.10406 12.6817 8.60978 13.176 8.00006 13.176C7.39034 13.176 6.89606 12.6817 6.89606 12.072C6.89606 11.4623 7.39034 10.968 8.00006 10.968C8.60978 10.968 9.10406 11.4623 9.10406 12.072Z" fill="#283593"/>
</svg>
