<svg width="16" height="16" viewBox="0 0 16 16" fill="none" xmlns="http://www.w3.org/2000/svg">
<path fill-rule="evenodd" clip-rule="evenodd" d="M5.90589 14.5941L14.25 6.25C15.4926 5.00736 15.4926 2.99264 14.25 1.75C13.0074 0.507362 10.9926 0.507364 9.75 1.75001L1.40589 10.0941C0.887032 10.613 0.627605 10.8724 0.442079 11.1751C0.277593 11.4436 0.15638 11.7362 0.0828902 12.0423C0 12.3876 0 12.7545 0 13.4882V14.8C0 15.22 0 15.4301 0.0817451 15.5905C0.15365 15.7316 0.268386 15.8464 0.409507 15.9183C0.569941 16 0.779961 16 1.2 16H2.51177C3.24555 16 3.61243 16 3.9577 15.9171C4.2638 15.8436 4.55644 15.7224 4.82485 15.5579C5.1276 15.3724 5.38703 15.113 5.90589 14.5941ZM2 14V13.4882C2 12.6593 2.01285 12.5707 2.02763 12.5092C2.05213 12.4072 2.09253 12.3096 2.14736 12.2201C2.18043 12.1662 2.23393 12.0945 2.8201 11.5083L11.1642 3.16422L9.75 1.75001L11.1642 3.16422C11.6258 2.70263 12.3742 2.70263 12.8358 3.16422C13.2974 3.62581 13.2974 4.3742 12.8358 4.83579L4.49167 13.1799L4.49167 13.1799C3.9055 13.7661 3.83383 13.8196 3.77986 13.8526L4.82485 15.5579L3.77986 13.8526C3.69038 13.9075 3.59284 13.9479 3.49081 13.9724C3.42926 13.9872 3.34074 14 2.51177 14H2Z" fill="#9E9E9E"/>
</svg>
