<svg width="22" height="32" viewBox="0 0 22 32" fill="none" xmlns="http://www.w3.org/2000/svg">
<path d="M17.2943 8.63681C17.6849 9.02731 17.6849 9.6605 17.2943 10.051C16.9038 10.4416 16.2707 10.4416 15.8801 10.051C14.579 8.74987 12.8459 8.03331 11.0002 8.03337C9.15451 8.03344 7.42157 8.74994 6.12057 10.051C5.92526 10.2463 5.66938 10.3439 5.41344 10.3439C5.15751 10.3439 4.90163 10.2463 4.70638 10.0511C4.31582 9.6605 4.31582 9.02738 4.70638 8.63688C6.38513 6.95813 8.62032 6.0335 11.0002 6.03344C13.3801 6.03331 15.6154 6.95787 17.2943 8.63681ZM11.0004 9.92988C11.0005 9.92988 11.0003 9.92988 11.0004 9.92988C9.66476 9.92988 8.40876 10.4501 7.46419 11.3947C7.07363 11.7852 7.07363 12.4184 7.46419 12.8089C7.85469 13.1995 8.48788 13.1995 8.87838 12.8089C9.44526 12.2421 10.1989 11.9299 11.0004 11.9299C11.8018 11.9299 12.5554 12.2421 13.1223 12.8089C13.3175 13.0042 13.5734 13.1019 13.8293 13.1019C14.0852 13.1019 14.3411 13.0042 14.5364 12.8089C14.9269 12.4184 14.9269 11.7852 14.5364 11.3947C13.5919 10.4501 12.3361 9.92988 11.0004 9.92988ZM11.0004 13.7305C10.3785 13.7305 9.87132 14.2377 9.87132 14.8596C9.87132 15.4814 10.3785 15.9886 11.0004 15.9886C11.6222 15.9886 12.1294 15.4814 12.1294 14.8596C12.1294 14.2377 11.6223 13.7305 11.0004 13.7305ZM20.5597 13.763C20.5461 13.8006 20.5301 13.8372 20.5121 13.8729C17.9234 18.9861 17.1856 21.265 16.7163 24.0228C17.2549 24.5111 17.5938 25.216 17.5938 25.9986C17.5938 27.1851 16.8148 28.1927 15.7416 28.5379C15.8201 28.7891 15.8626 29.0561 15.8626 29.3329C15.8626 30.8035 14.6661 32 13.1954 32H8.80513C7.33444 32 6.13801 30.8035 6.13801 29.3329C6.13801 29.0561 6.18044 28.7891 6.25901 28.5379C5.18576 28.1927 4.40676 27.1851 4.40676 25.9986C4.40676 25.216 4.74563 24.5111 5.28432 24.0228C4.81494 21.265 4.07713 18.9861 1.48851 13.8729C1.47044 13.8372 1.45457 13.8006 1.44088 13.763C0.851382 12.1419 0.677444 10.4646 0.923944 8.77738C1.15532 7.19344 1.76644 5.65837 2.69126 4.338C3.60476 3.03375 4.81794 1.94981 6.19963 1.20325C7.67738 0.404875 9.29257 0 11.0003 0C12.7081 0 14.3233 0.404875 15.8009 1.20325C17.1826 1.94975 18.3958 3.03375 19.3093 4.338C20.2341 5.65837 20.8453 7.1935 21.0766 8.77738C21.3231 10.4645 21.1492 12.1419 20.5597 13.763ZM7.07388 25.3315C6.71226 25.3315 6.40676 25.637 6.40676 25.9986C6.40676 26.3603 6.71226 26.6658 7.07388 26.6658H14.9268C15.2884 26.6658 15.5939 26.3603 15.5939 25.9986C15.5939 25.637 15.2884 25.3315 14.9268 25.3315H7.07388ZM13.8626 29.3329C13.8626 28.9712 13.5571 28.6657 13.1955 28.6657H8.80519C8.44357 28.6657 8.13807 28.9712 8.13807 29.3329C8.13807 29.6945 8.44351 30 8.80513 30H13.1954C13.5571 30 13.8626 29.6945 13.8626 29.3329ZM17.6712 5.48537C16.1198 3.27038 13.6883 2 11.0003 2C8.31232 2 5.88088 3.27038 4.32944 5.48537C2.78651 7.68819 2.40369 10.5023 3.30082 13.0247C5.87607 18.1173 6.69044 20.5394 7.19394 23.3314H14.8066C15.3102 20.5394 16.1245 18.1173 18.6998 13.0247C19.5969 10.5023 19.2141 7.68819 17.6712 5.48537Z" fill="#424242"/>
</svg>
