<svg width="32" height="27" viewBox="0 0 32 27" fill="none" xmlns="http://www.w3.org/2000/svg">
<path fill-rule="evenodd" clip-rule="evenodd" d="M11.8497 5.60915C11.6905 5.51013 11.5624 5.36839 11.48 5.20009L10.2 2.44009C10.0833 2.2014 10.0662 1.92612 10.1525 1.67482C10.2387 1.42352 10.4213 1.21679 10.66 1.10009C10.8987 0.983395 11.1739 0.9663 11.4252 1.05257C11.6765 1.13883 11.8833 1.3214 12 1.56009L13.28 4.42009C13.3918 4.65953 13.4064 4.93303 13.3206 5.18298C13.2348 5.43294 13.0553 5.63984 12.82 5.76009C12.6749 5.79028 12.5251 5.79028 12.38 5.76009C12.1926 5.76047 12.0088 5.70816 11.8497 5.60915ZM22 13H31C31.2652 13 31.5196 13.1054 31.7071 13.2929C31.8946 13.4804 32 13.7348 32 14C32 14.2652 31.8946 14.5196 31.7071 14.7071C31.5196 14.8946 31.2652 15 31 15H1C0.734784 15 0.48043 14.8946 0.292893 14.7071C0.105357 14.5196 0 14.2652 0 14C0 13.7348 0.105357 13.4804 0.292893 13.2929C0.48043 13.1054 0.734784 13 1 13H10C10 11.4087 10.6321 9.88258 11.7574 8.75736C12.8826 7.63214 14.4087 7 16 7C17.5913 7 19.1174 7.63214 20.2426 8.75736C21.3679 9.88258 22 11.4087 22 13ZM13.1716 10.1716C12.4214 10.9217 12 11.9391 12 13H20C20 11.9391 19.5786 10.9217 18.8284 10.1716C18.0783 9.42143 17.0609 9 16 9C14.9391 9 13.9217 9.42143 13.1716 10.1716ZM19.18 5.66009C19.4217 5.75358 19.6887 5.7587 19.9339 5.67454C20.1791 5.59038 20.3866 5.42235 20.52 5.20009L22 2.44009C22.1167 2.2014 22.1338 1.92612 22.0475 1.67482C21.9612 1.42352 21.7787 1.21679 21.54 1.10009C21.3013 0.983395 21.026 0.9663 20.7747 1.05257C20.5234 1.13883 20.3167 1.3214 20.2 1.56009L18.72 4.32009C18.662 4.43824 18.6278 4.56667 18.6196 4.69804C18.6113 4.8294 18.629 4.96111 18.6718 5.0856C18.7145 5.2101 18.7814 5.32493 18.8686 5.42351C18.9558 5.5221 19.0616 5.60249 19.18 5.66009ZM27.44 9.00019L24.68 10.2802C24.4515 10.3956 24.1884 10.4227 23.9411 10.3563C23.6939 10.2899 23.4798 10.1346 23.34 9.92019C23.2819 9.80204 23.2478 9.6736 23.2395 9.54224C23.2313 9.41088 23.249 9.27917 23.2917 9.15468C23.3345 9.03018 23.4014 8.91535 23.4886 8.81677C23.5758 8.71818 23.6816 8.63779 23.8 8.58019L26.56 7.20019C26.7987 7.08349 27.0739 7.0664 27.3252 7.15266C27.5765 7.23893 27.7833 7.42149 27.9 7.66019C28.0167 7.89888 28.0338 8.17416 27.9475 8.42546C27.8612 8.67676 27.6787 8.88349 27.44 9.00019ZM4.56003 8.79999L7.32003 10.18C7.55946 10.2919 7.83297 10.3064 8.08292 10.2206C8.33288 10.1348 8.53978 9.95533 8.66003 9.72C8.77188 9.48056 8.78644 9.20706 8.70063 8.9571C8.61483 8.70714 8.43536 8.50025 8.20003 8.37999L5.44003 6.99999C5.20133 6.8833 4.92606 6.8662 4.67476 6.95247C4.42346 7.03874 4.21672 7.2213 4.10003 7.45999C3.98333 7.69869 3.96624 7.97396 4.05251 8.22526C4.13877 8.47656 4.32133 8.6833 4.56003 8.79999ZM8.29289 17.2929C8.48043 17.1054 8.73478 17 9 17H23C23.2652 17 23.5196 17.1054 23.7071 17.2929C23.8946 17.4804 24 17.7348 24 18C24 18.2652 23.8946 18.5196 23.7071 18.7071C23.5196 18.8946 23.2652 19 23 19H9C8.73478 19 8.48043 18.8946 8.29289 18.7071C8.10536 18.5196 8 18.2652 8 18C8 17.7348 8.10536 17.4804 8.29289 17.2929ZM11 21C10.7348 21 10.4804 21.1054 10.2929 21.2929C10.1054 21.4804 10 21.7348 10 22C10 22.2652 10.1054 22.5196 10.2929 22.7071C10.4804 22.8946 10.7348 23 11 23H21C21.2652 23 21.5196 22.8946 21.7071 22.7071C21.8946 22.5196 22 22.2652 22 22C22 21.7348 21.8946 21.4804 21.7071 21.2929C21.5196 21.1054 21.2652 21 21 21H11ZM14.2929 25.2929C14.4804 25.1054 14.7348 25 15 25H17C17.2652 25 17.5196 25.1054 17.7071 25.2929C17.8946 25.4804 18 25.7348 18 26C18 26.2652 17.8946 26.5196 17.7071 26.7071C17.5196 26.8946 17.2652 27 17 27H15C14.7348 27 14.4804 26.8946 14.2929 26.7071C14.1054 26.5196 14 26.2652 14 26C14 25.7348 14.1054 25.4804 14.2929 25.2929Z" fill="#424242"/>
</svg>
