<svg width="28" height="28" viewBox="0 0 28 28" fill="none" xmlns="http://www.w3.org/2000/svg">
<path fill-rule="evenodd" clip-rule="evenodd" d="M5.62368 24.8289C8.22349 26.8805 11.4381 27.9973 14.7498 27.9998C17.472 28.0067 20.1424 27.2566 22.4629 25.8333C24.7833 24.41 26.6622 22.3695 27.8898 19.9398C27.9827 19.7523 28.0144 19.5404 27.9805 19.3339C27.9466 19.1274 27.8488 18.9367 27.7009 18.7888C27.5529 18.6408 27.3622 18.543 27.1557 18.5091C26.9492 18.4752 26.7373 18.5069 26.5498 18.5998C24.1506 19.823 21.4256 20.255 18.7657 19.8341C16.1058 19.4131 13.6474 18.1607 11.7432 16.2564C9.83892 14.3522 8.58651 11.8938 8.16554 9.2339C7.74456 6.57396 8.17663 3.84904 9.3998 1.44981C9.4927 1.2623 9.52444 1.05037 9.49054 0.843878C9.45664 0.637382 9.35882 0.446722 9.21085 0.298754C9.06288 0.150785 8.87222 0.0529632 8.66573 0.0190668C8.45923 -0.0148296 8.24731 0.0169072 8.0598 0.109807C5.10954 1.61434 2.75143 4.06796 1.36517 7.07561C-0.0210962 10.0833 -0.354858 13.4699 0.417621 16.6903C1.1901 19.9107 3.02387 22.7774 5.62368 24.8289ZM3.33801 7.66628C4.09352 6.08572 5.16639 4.67766 6.4898 3.52981C6.17224 4.74117 6.00762 5.98753 5.9998 7.23981C5.9998 9.18027 6.38217 11.1017 7.12505 12.8944C7.86794 14.687 8.95679 16.3157 10.3294 17.6873C11.7019 19.059 13.3314 20.1467 15.1245 20.8884C16.9176 21.6301 18.8393 22.0111 20.7798 22.0098C22.0317 22.0052 23.278 21.844 24.4898 21.5298C23.342 22.8532 21.9339 23.9261 20.3533 24.6816C18.7728 25.4371 17.0536 25.8591 15.3028 25.9212C13.5521 25.9833 11.8073 25.6842 10.1772 25.0426C8.54703 24.401 7.06648 23.4306 5.82774 22.1919C4.589 20.9531 3.6186 19.4726 2.977 17.8424C2.3354 16.2123 2.03634 14.4675 2.09845 12.7168C2.16056 10.966 2.58251 9.24684 3.33801 7.66628ZM24.9998 8H21.9998C21.814 8 21.632 7.94829 21.474 7.85065C21.316 7.75302 21.1884 7.61332 21.1053 7.44721C21.0223 7.28111 20.9871 7.09516 21.0038 6.91019C21.0205 6.72523 21.0883 6.54857 21.1998 6.4L22.9998 4H21.9998C21.7345 4 21.4802 3.89464 21.2927 3.70711C21.1051 3.51957 20.9998 3.26522 20.9998 3C20.9998 2.73478 21.1051 2.48043 21.2927 2.29289C21.4802 2.10536 21.7345 2 21.9998 2H24.9998C25.1855 2 25.3675 2.05171 25.5255 2.14935C25.6835 2.24698 25.8111 2.38668 25.8942 2.55279C25.9772 2.71889 26.0124 2.90484 25.9957 3.08981C25.979 3.27477 25.9112 3.45143 25.7998 3.6L23.9998 6H24.9998C25.265 6 25.5193 6.10536 25.7069 6.29289C25.8944 6.48043 25.9998 6.73478 25.9998 7C25.9998 7.26522 25.8944 7.51957 25.7069 7.70711C25.5193 7.89464 25.265 8 24.9998 8ZM14.9998 15H17.9998C18.265 15 18.5193 14.8946 18.7069 14.7071C18.8944 14.5196 18.9997 14.2652 18.9997 14C18.9997 13.7348 18.8944 13.4804 18.7069 13.2929C18.5193 13.1054 18.265 13 17.9998 13H16.9998L18.7997 10.6C18.9112 10.4514 18.979 10.2748 18.9957 10.0898C19.0124 9.90484 18.9772 9.71889 18.8942 9.55279C18.8111 9.38668 18.6835 9.24698 18.5255 9.14935C18.3675 9.05171 18.1855 9 17.9998 9H14.9998C14.7345 9 14.4802 9.10536 14.2926 9.29289C14.1051 9.48043 13.9998 9.73478 13.9998 10C13.9998 10.2652 14.1051 10.5196 14.2926 10.7071C14.4802 10.8946 14.7345 11 14.9998 11H15.9998L14.1998 13.45C14.0979 13.594 14.036 13.7623 14.0202 13.9379C14.0043 14.1135 14.0353 14.2902 14.1098 14.45C14.1929 14.6149 14.32 14.7536 14.4771 14.8507C14.6342 14.9478 14.8151 14.9994 14.9998 15Z" fill="#424242"/>
</svg>
