<svg width="31" height="30" viewBox="0 0 31 30" fill="none" xmlns="http://www.w3.org/2000/svg">
<path fill-rule="evenodd" clip-rule="evenodd" d="M28.5257 18.0769L28.532 18.082L28.5341 18.0837C29.2987 18.6994 30.25 19.4654 30.25 21C30.25 22.4541 29.087 23.6719 27.9624 24.8494L27.958 24.854L27.9571 24.855C27.2343 25.6107 26.4199 26.4623 26.25 27.108V29C26.25 29.321 26.096 29.623 25.835 29.81C25.573 29.998 25.236 30.049 24.934 29.948C23.752 29.555 21.828 29 21.251 29C20.9899 29 20.5979 29.1946 20.2138 29.3852L20.2138 29.3852L20.192 29.396L20.1917 29.3961C19.6248 29.6791 18.9819 30 18.25 30H18.249C17.5183 30 16.8763 29.6801 16.309 29.3975L16.309 29.3975L16.3089 29.3975L16.306 29.396C15.917 29.201 15.514 29 15.25 29C14.986 29 14.583 29.201 14.193 29.396L14.1927 29.3962L14.1927 29.3962C13.6258 29.6791 12.9829 30 12.25 30C11.5171 30 10.8742 29.6791 10.3073 29.3962L10.3073 29.3962L10.307 29.396C9.917 29.201 9.515 29 9.25 29C8.672 29 6.748 29.555 5.567 29.949C5.261 30.049 4.927 29.999 4.666 29.811C4.404 29.623 4.25 29.321 4.25 29V27.108C4.08 26.463 3.265 25.61 2.542 24.854L2.53764 24.8494C1.41299 23.6719 0.25 22.4541 0.25 21C0.25 19.4666 1.19975 18.7006 1.96409 18.0842L1.968 18.081C2.504 17.65 3.011 17.242 3.356 16.552C3.734 15.796 4.108 12.805 4.253 10.923C4.25 4.935 9.185 0 15.25 0C21.315 0 26.25 4.935 26.25 11C26.392 12.806 26.767 15.797 27.144 16.553C27.4876 17.2403 27.992 17.6468 28.5257 18.0769ZM26.5093 23.4748L26.511 23.473L26.5113 23.4727C27.3262 22.6198 28.25 21.6529 28.25 21C28.25 20.467 28.013 20.231 27.279 19.641L27.2773 19.6397C26.6616 19.1439 25.8955 18.527 25.356 17.448C24.667 16.071 24.316 11.899 24.253 11.077C24.25 6.038 20.212 2 15.25 2C10.288 2 6.25 6.038 6.25 11C6.184 11.899 5.833 16.07 5.145 17.447C4.60549 18.526 3.83939 19.1429 3.22368 19.6386L3.222 19.64C2.487 20.231 2.25 20.467 2.25 21C2.25 21.6529 3.17376 22.6198 3.98869 23.4727L3.989 23.473L3.99073 23.4748C4.97919 24.5093 6.00114 25.5787 6.233 26.816C6.244 26.876 6.25 26.938 6.25 27V27.638C7.26 27.34 8.561 27 9.25 27C9.98474 27 10.6288 27.3209 11.1981 27.6045L11.201 27.606C11.588 27.8 11.989 28 12.25 28C12.511 28 12.913 27.8 13.3 27.606L13.3003 27.6058C13.8692 27.3219 14.5141 27 15.25 27C15.9859 27 16.629 27.321 17.1974 27.6047L17.2 27.606C17.587 27.8 17.988 28 18.249 28C18.511 28 18.912 27.8 19.3 27.606L19.3003 27.6058C19.8692 27.3219 20.5141 27 21.25 27C21.939 27 23.24 27.34 24.25 27.638V27C24.25 26.938 24.256 26.876 24.267 26.816C24.4989 25.5787 25.5208 24.5093 26.5093 23.4748L26.5093 23.4748ZM11.25 6C12.904 6 14.25 7.346 14.25 9C14.25 10.654 12.904 12 11.25 12C9.596 12 8.25 10.654 8.25 9C8.25 7.346 9.596 6 11.25 6ZM11.25 8C10.699 8 10.25 8.449 10.25 9C10.25 9.551 10.699 10 11.25 10C11.801 10 12.25 9.551 12.25 9C12.25 8.449 11.801 8 11.25 8ZM19.25 6C17.596 6 16.25 7.346 16.25 9C16.25 10.654 17.596 12 19.25 12C20.904 12 22.25 10.654 22.25 9C22.25 7.346 20.904 6 19.25 6ZM19.25 10C18.699 10 18.25 9.551 18.25 9C18.25 8.449 18.699 8 19.25 8C19.801 8 20.25 8.449 20.25 9C20.25 9.551 19.801 10 19.25 10ZM10.25 17C10.25 14.243 12.493 12 15.25 12C17.932 12 20.128 14.124 20.245 16.777C20.261 16.849 20.27 16.923 20.27 17C20.27 17.552 19.822 18 19.27 18H19.25H11.25C10.698 18 10.25 17.552 10.25 17ZM15.25 14C13.946 14 12.834 14.836 12.421 16H18.079C17.666 14.836 16.554 14 15.25 14Z" fill="#424242"/>
</svg>
