<svg width="26" height="29" viewBox="0 0 26 29" fill="none" xmlns="http://www.w3.org/2000/svg">
<path fill-rule="evenodd" clip-rule="evenodd" d="M18.3 2.59997C21.6 0.599974 25.6 4.59997 23.3 7.99997C24.6 9.09997 25.1 10.7 25 11.2L22 28.2C21.9 28.7 21.5 29 21 29H4.99996C4.49996 29 4.09996 28.7 3.99996 28.2L0.999964 11.2C0.899964 10.4 1.89996 7.99997 4.19996 6.99997C4.19996 3.19997 7.99996 1.09997 11.1 2.49997C13.1 0.399974 16.4 0.399974 18.3 2.59997ZM6.29996 7.49997C6.39996 7.99997 5.99996 8.49997 5.49996 8.69997C4.69996 8.89997 3.99996 9.29997 3.49996 9.99997H22.4C22.2 9.59997 21.9 9.29997 21.5 9.09997C20.9 8.69997 20.8 7.69997 21.4 7.19997C23.3 5.49997 20.5 2.79997 18.9 4.69997C18.4 5.19997 17.5 5.09997 17.2 4.49997C16.2 2.49997 13.4 2.39997 12.2 4.29997C11.9 4.79997 11.3 4.89997 10.8 4.59997C8.79996 3.19997 5.79996 4.79997 6.29996 7.49997ZM12 27V12H8.99996V27H12ZM17 12H14V27H17V12ZM6.99996 12H3.19996L5.79996 27H6.99996V12ZM19 27H20.2L22.8 12H19V27ZM13.9999 5C13.3999 5 12.9999 5.4 12.9999 6C12.9999 6.6 13.3999 7 13.9999 7C14.5999 7 14.9999 6.6 14.9999 6C14.9999 5.4 14.5999 5 13.9999 5ZM16.9999 8C16.9999 7.4 17.3999 7 17.9999 7C18.5999 7 18.9999 7.4 18.9999 8C18.9999 8.6 18.5999 9 17.9999 9C17.3999 9 16.9999 8.6 16.9999 8ZM8.99988 6C8.39988 6 7.99988 6.4 7.99988 7C7.99988 7.6 8.39988 8 8.99988 8C9.59988 8 9.99988 7.6 9.99988 7C9.99988 6.4 9.59988 6 8.99988 6Z" fill="#424242"/>
</svg>
