<svg width="17" height="16" viewBox="0 0 17 16" xmlns="http://www.w3.org/2000/svg">
<g clip-path="url(#clip0)">
<path d="M11.1082 9.26394C10.3402 8.83194 9.44417 8.57593 8.50017 8.57593C7.55617 8.57593 6.66018 8.83194 5.89218 9.26394C5.36418 9.56794 5.25217 10.3039 5.66817 10.7519L5.73218 10.8159C6.03618 11.1359 6.51617 11.2319 6.90017 11.0239C7.38017 10.7519 7.92417 10.5919 8.51617 10.5919C9.10817 10.5919 9.65218 10.7519 10.1322 11.0239C10.5162 11.2479 10.9962 11.1519 11.3002 10.8159L11.3642 10.7519C11.7642 10.3039 11.6522 9.56794 11.1082 9.26394Z" fill="#C5CAE9"/>
<path d="M13.4919 6.76795C12.0839 5.77595 10.3559 5.19995 8.49991 5.19995C6.64391 5.19995 4.93191 5.77595 3.50791 6.76795C3.02791 7.10395 2.94791 7.77595 3.34791 8.20795L3.39591 8.27195C3.73191 8.63995 4.27591 8.70395 4.67591 8.41595C5.76391 7.66395 7.07591 7.21595 8.49991 7.21595C9.92391 7.21595 11.2359 7.66395 12.3079 8.41595C12.7079 8.70395 13.2519 8.63995 13.5879 8.27195L13.6359 8.20795C14.0359 7.79195 13.9559 7.10395 13.4919 6.76795Z" fill="#C5CAE9"/>
<path d="M15.7961 4.27197C13.7641 2.73597 11.2361 1.82397 8.50008 1.82397C5.76408 1.82397 3.23608 2.73597 1.20408 4.27197C0.75608 4.62397 0.676076 5.27997 1.06008 5.69596L1.12408 5.75997C1.46008 6.14397 2.03607 6.17597 2.43607 5.87197C4.11607 4.59197 6.22808 3.83997 8.50008 3.83997C10.7721 3.83997 12.8681 4.59197 14.5641 5.87197C14.9641 6.17597 15.5401 6.14397 15.8761 5.75997L15.9401 5.69596C16.3081 5.27997 16.2441 4.62397 15.7961 4.27197Z" fill="#C5CAE9"/>
<path d="M8.5 14.176C9.10972 14.176 9.604 13.6817 9.604 13.072C9.604 12.4623 9.10972 11.968 8.5 11.968C7.89028 11.968 7.396 12.4623 7.396 13.072C7.396 13.6817 7.89028 14.176 8.5 14.176Z" fill="#283593"/>
</g>
<defs>
<clipPath id="clip0">
<rect width="16" height="16" fill="white" transform="translate(0.5)"/>
</clipPath>
</defs>
</svg>
