<svg width="27" height="23" viewBox="0 0 27 23" fill="none" xmlns="http://www.w3.org/2000/svg">
<path d="M13.5 23C13.248 23 12.996 22.905 12.802 22.717L2.562 12.742C1.232 11.447 0.5 9.71699 0.5 7.87099C0.5 6.02399 1.231 4.29299 2.562 2.99799C5.3 0.331992 9.752 0.329992 12.491 2.99799L13.5 3.98099L14.51 2.99799C17.248 0.331992 21.701 0.330992 24.438 2.99699C25.769 4.29299 26.5 6.02399 26.5 7.87099C26.5 9.71699 25.768 11.447 24.437 12.742L14.198 22.717C14.004 22.905 13.752 23 13.5 23ZM7.526 2.99299C6.233 2.99299 4.941 3.47199 3.957 4.43099C3.018 5.34599 2.5 6.56799 2.5 7.86999C2.5 9.17299 3.018 10.393 3.957 11.308L13.5 20.604L23.042 11.309H23.043C23.982 10.394 24.5 9.17299 24.5 7.86999C24.5 6.56799 23.982 5.34599 23.042 4.42999C21.075 2.51399 17.873 2.51399 15.906 4.42999L14.198 6.09399C13.809 6.47299 13.19 6.47299 12.802 6.09399L11.094 4.42999C10.11 3.47199 8.818 2.99299 7.526 2.99299Z" fill="#424242"/>
</svg>
