<svg width="32" height="26" viewBox="0 0 32 26" fill="none" xmlns="http://www.w3.org/2000/svg">
<path d="M15.4514 11.2889C15.1757 11.2889 14.4973 11.3888 14.1545 12.3141C14.041 12.6203 13.975 12.9696 13.9051 13.3393C13.8401 13.6828 13.7666 14.0721 13.6651 14.3146C13.5388 14.6169 13.3615 14.815 13.1563 15.0444C12.7977 15.4453 12.3065 15.9944 12.3429 16.971C12.4013 18.5373 13.613 19.8252 15.1613 19.9669C15.2563 19.9756 15.351 19.9799 15.4456 19.9799C16.2203 19.9799 16.9737 19.6915 17.5477 19.1677C18.1921 18.5796 18.5618 17.742 18.5618 16.8699C18.5618 16.1078 18.2805 14.8394 17.8778 13.7854C17.2448 12.1288 16.4285 11.2889 15.4514 11.2889ZM16.1995 17.6903C15.9662 17.9032 15.6621 18.0043 15.3436 17.9752C14.8024 17.9257 14.3623 17.4519 14.3416 16.8965C14.3361 16.7505 14.3438 16.7166 14.647 16.3778C14.9031 16.0914 15.254 15.6993 15.5103 15.0861C15.6502 14.7515 15.7383 14.3801 15.8093 14.0266C15.907 14.2334 16.0116 14.488 16.1174 14.7981C16.406 15.6444 16.5617 16.4972 16.5617 16.8698C16.5617 17.1858 16.4331 17.4771 16.1995 17.6903ZM1.56402 5.01888H2.53377V21.7083C2.53377 22.2606 2.98146 22.7083 3.53377 22.7083H28.4664C29.0187 22.7083 29.4664 22.2606 29.4664 21.7083V5.01888H30.4361C30.9885 5.01888 31.4361 4.57113 31.4361 4.01888V1.02832C31.4361 0.47607 30.9885 0.0283203 30.4361 0.0283203H1.56402C1.01171 0.0283203 0.564023 0.47607 0.564023 1.02832V4.01888C0.564023 4.57113 1.01177 5.01888 1.56402 5.01888ZM10.4635 5.01888V7.45613H4.53377V5.01882H10.4635V5.01888ZM19.5367 5.01888V6.77326C18.441 6.34044 17.2478 6.10257 16.0001 6.10257C14.7524 6.10257 13.5591 6.34044 12.4635 6.77326V5.01888H19.5367ZM7.10927 11.9928H4.53377V9.45613H8.69065C8.04027 10.2095 7.50402 11.0641 7.10927 11.9928ZM4.53377 13.9928H6.50702C6.40084 14.5653 6.34477 15.1551 6.34477 15.7579V16.5294H4.53377V13.9928ZM8.34477 15.7579C8.34477 11.5367 11.7789 8.10251 16.0001 8.10251C20.2213 8.10251 23.6554 11.5367 23.6554 15.7579V20.7083H8.34477V15.7579ZM25.4931 13.9928H27.4664V16.5294H25.6554V15.7579C25.6554 15.1551 25.5993 14.5653 25.4931 13.9928ZM27.4664 11.9928H24.8909C24.4961 11.0641 23.9599 10.2096 23.3095 9.45619H27.4664V11.9928ZM4.53377 18.5294H6.34477V20.7083H4.53377V18.5294ZM25.6554 20.7083V18.5294H27.4664V20.7083H25.6554ZM27.4664 7.45613H21.5367V5.01882H27.4664V7.45613ZM2.56402 2.02832H29.4361V3.01888H20.5373C20.5371 3.01888 20.537 3.01888 20.5367 3.01888C20.5365 3.01888 20.5363 3.01888 20.5361 3.01888H11.4641C11.4639 3.01888 11.4637 3.01888 11.4635 3.01888C11.4632 3.01888 11.4631 3.01888 11.4628 3.01888H2.56402V2.02832ZM31.9855 24.9715C31.9855 25.5238 31.5378 25.9715 30.9855 25.9715H1.01465C0.462336 25.9715 0.0146484 25.5238 0.0146484 24.9715C0.0146484 24.4192 0.462336 23.9715 1.01465 23.9715H30.9855C31.5378 23.9715 31.9855 24.4192 31.9855 24.9715Z" fill="#424242"/>
</svg>
