<svg width="32" height="22" viewBox="0 0 32 22" fill="none" xmlns="http://www.w3.org/2000/svg">
<path fill-rule="evenodd" clip-rule="evenodd" d="M27.0458 0.020752H4.95419C2.22244 0.020752 0 2.24319 0 4.97494V17.0249C0 19.7567 2.22244 21.9791 4.95419 21.9791H27.0459C29.7776 21.9791 32.0001 19.7567 32.0001 17.0249V4.97494C32 2.24319 29.7776 0.020752 27.0458 0.020752ZM30.125 17.0249C30.125 18.7228 28.7437 20.1041 27.0458 20.1041H4.95419C3.25631 20.1041 1.875 18.7228 1.875 17.0249V4.97494C1.875 3.27706 3.25631 1.89575 4.95419 1.89575H27.0459C28.7438 1.89575 30.1251 3.27706 30.1251 4.97494V17.0249H30.125ZM23.0292 7.92084H25.5396C26.0574 7.92084 26.4771 7.50109 26.4771 6.98334C26.4771 6.46559 26.0574 6.04584 25.5396 6.04584H23.0292C22.5114 6.04584 22.0917 6.46559 22.0917 6.98334C22.0917 7.50109 22.5114 7.92084 23.0292 7.92084ZM23.0291 14.079H25.5396C26.0573 14.079 26.4771 14.4988 26.4771 15.0165C26.4771 15.5343 26.0573 15.954 25.5396 15.954H23.0291C22.5114 15.954 22.0916 15.5343 22.0916 15.0165C22.0916 14.4988 22.5114 14.079 23.0291 14.079ZM27.0458 10.0624H21.5229C21.0051 10.0624 20.5854 10.4822 20.5854 10.9999C20.5854 11.5177 21.0051 11.9374 21.5229 11.9374H27.0458C27.5636 11.9374 27.9833 11.5177 27.9833 10.9999C27.9833 10.4822 27.5636 10.0624 27.0458 10.0624ZM4.95416 4.03735H18.0083C18.526 4.03735 18.9458 4.4571 18.9459 4.97485V17.0249C18.9459 17.5426 18.5261 17.9624 18.0084 17.9624H4.95416C4.43641 17.9624 4.01666 17.5426 4.01666 17.0249V4.97485C4.01666 4.4571 4.43641 4.03735 4.95416 4.03735ZM9.90835 16.0874H13.0542H13.0542V15.5186C13.0542 14.6487 12.3506 13.9457 11.4813 13.9457C10.6114 13.9457 9.90835 14.6494 9.90835 15.5186V16.0874ZM11.4812 9.92904C10.8908 9.92904 10.4104 10.4094 10.4104 10.9999C10.4104 11.5903 10.8908 12.0707 11.4812 12.0707C12.0717 12.0707 12.552 11.5903 12.552 10.9999C12.552 10.4094 12.0717 9.92904 11.4812 9.92904ZM14.9291 16.0874H17.0708H17.0709V5.91235H5.89166V16.0874H8.03335V15.5186C8.03335 13.9361 9.05406 13.0592 9.22877 12.9091C9.23119 12.907 9.23345 12.9051 9.23554 12.9033C8.79935 12.3894 8.53541 11.725 8.53541 10.9999C8.53541 9.37554 9.85691 8.0541 11.4812 8.0541C13.1055 8.0541 14.427 9.3756 14.427 10.9999C14.427 11.7251 14.1631 12.3895 13.7269 12.9033C13.729 12.9051 13.7312 12.907 13.7336 12.909C13.9076 13.0585 14.9291 13.9358 14.9291 15.5186V16.0874Z" fill="#424242"/>
</svg>
