<svg width="17" height="12" viewBox="0 0 17 12" fill="none" xmlns="http://www.w3.org/2000/svg">
<path d="M15.7299 5.78422C15.495 5.47655 15.2146 5.20874 14.8966 4.98814C14.7473 4.8845 14.5912 4.79242 14.4293 4.71233C14.4333 4.63777 14.4353 4.56314 14.4353 4.48856C14.4353 3.92099 14.3239 3.36982 14.1042 2.85034C13.8922 2.34915 13.589 1.89926 13.2029 1.51319C12.8168 1.12712 12.3669 0.823861 11.8658 0.611889C11.3463 0.392158 10.7951 0.280762 10.2275 0.280762C9.51682 0.280762 8.81389 0.461698 8.19474 0.804015C7.7941 1.02551 7.43106 1.31275 7.12226 1.65029C6.70616 1.47395 6.25925 1.37564 5.80271 1.3621C5.76693 1.36102 5.73051 1.36049 5.69454 1.36049C5.20565 1.36047 4.72919 1.45706 4.27822 1.64765C3.84509 1.83073 3.4549 2.09202 3.11852 2.42434C2.78146 2.75731 2.51522 3.14497 2.32719 3.57654C2.13097 4.0269 2.02929 4.50434 2.02496 4.99555C2.02446 5.05174 2.02525 5.10801 2.02731 5.16422C1.64031 5.44077 1.30979 5.79214 1.05684 6.19879C0.703672 6.76649 0.515689 7.42114 0.513208 8.09195C0.511414 8.57783 0.606738 9.05097 0.796594 9.49816C0.978137 9.92583 1.2379 10.311 1.56863 10.643C1.90348 10.9791 2.29383 11.2435 2.72888 11.429C3.18109 11.6218 3.65948 11.7195 4.15078 11.7195H12.7681C13.2717 11.7195 13.7618 11.6193 14.2248 11.4217C14.6705 11.2314 15.0702 10.96 15.4126 10.6151C15.751 10.2743 16.0163 9.87885 16.2011 9.43976C16.3942 8.98106 16.4902 8.49589 16.4867 7.99768C16.4838 7.59113 16.4149 7.19146 16.282 6.80988C16.1536 6.44083 15.9678 6.09571 15.7299 5.78422ZM12.7681 10.5889H4.15078C2.77974 10.5889 1.63868 9.46718 1.6438 8.09614C1.64736 7.14188 2.18919 6.31455 2.9815 5.90184C3.13731 5.82069 3.22575 5.64902 3.1949 5.47605C3.16766 5.32349 3.1541 5.1662 3.15549 5.0055C3.16777 3.61985 4.31714 2.49092 5.69433 2.49105C5.71913 2.49105 5.74423 2.49142 5.76917 2.49216C6.25841 2.50668 6.71265 2.65998 7.09442 2.91376C7.16409 2.96007 7.243 2.98245 7.32088 2.98245C7.45001 2.98245 7.57619 2.92088 7.65219 2.80482C8.2017 1.96577 9.14966 1.41132 10.2275 1.41132C11.927 1.41132 13.3047 2.78903 13.3047 4.48853C13.3047 4.69871 13.2834 4.90382 13.243 5.10207C13.2016 5.30523 13.3229 5.50746 13.5217 5.56636C14.5766 5.87896 15.3478 6.85142 15.3561 8.00578C15.3663 9.42646 14.1888 10.5889 12.7681 10.5889Z" fill="#F44336"/>
<path d="M12.7681 11.7327H4.15081C3.6577 11.7327 3.17757 11.6346 2.72373 11.4411C2.28709 11.2549 1.89531 10.9895 1.55928 10.6522C1.22736 10.3191 0.966643 9.93252 0.784441 9.50327C0.593898 9.05444 0.498205 8.57956 0.500026 8.09186C0.502533 7.41863 0.691201 6.7616 1.04563 6.19177C1.29872 5.78488 1.62444 5.43697 2.01386 5.15757C2.01199 5.1037 2.01128 5.04921 2.01175 4.99539C2.01611 4.50239 2.11816 4.02323 2.31509 3.57124C2.50378 3.13811 2.77099 2.74908 3.10924 2.41495C3.44684 2.08147 3.8384 1.81923 4.27308 1.6355C4.72556 1.44427 5.20368 1.34731 5.69423 1.34731C5.73063 1.34731 5.76718 1.34786 5.8031 1.34894C6.25787 1.36243 6.70047 1.45849 7.11879 1.63455C7.42954 1.29632 7.78936 1.01304 8.18831 0.792492C8.80945 0.449094 9.51456 0.267578 10.2275 0.267578C10.7968 0.267578 11.3497 0.379343 11.8709 0.59976C12.3737 0.812417 12.825 1.1166 13.2122 1.50388C13.5995 1.89117 13.9037 2.34245 14.1163 2.84523C14.3367 3.36634 14.4485 3.91923 14.4485 4.48858C14.4485 4.55995 14.4467 4.63249 14.443 4.70441C14.6023 4.78374 14.7574 4.87553 14.9042 4.97734C15.2233 5.19879 15.5047 5.46758 15.7404 5.77625C15.9792 6.0889 16.1656 6.4352 16.2946 6.80557C16.4279 7.1885 16.497 7.58956 16.4999 7.99759C16.5035 8.49757 16.4071 8.9845 16.2133 9.44489C16.0278 9.88551 15.7616 10.2824 15.422 10.6244C15.0783 10.9705 14.6773 11.2429 14.23 11.4338C13.7654 11.6321 13.2735 11.7327 12.7681 11.7327ZM5.69455 1.37367C5.20724 1.37367 4.73255 1.46992 4.28338 1.65978C3.85178 1.84219 3.46301 2.10256 3.1278 2.43369C2.79195 2.76547 2.52664 3.15173 2.33929 3.58177C2.14378 4.03049 2.04247 4.50619 2.03814 4.99563C2.03764 5.0514 2.03843 5.10795 2.04049 5.16369L2.04075 5.17079L2.03497 5.1749C1.64584 5.45299 1.32052 5.79981 1.06804 6.20571C0.716194 6.77139 0.528897 7.42364 0.526416 8.09199C0.524622 8.57611 0.619603 9.04747 0.808747 9.493C0.98963 9.91911 1.24845 10.3029 1.57799 10.6337C1.9116 10.9685 2.30057 11.232 2.7341 11.4169C3.18462 11.6089 3.66126 11.7063 4.15081 11.7063H12.7681C13.2699 11.7063 13.7583 11.6065 14.2197 11.4095C14.6638 11.2199 15.062 10.9495 15.4033 10.6058C15.7405 10.2662 16.0048 9.87213 16.189 9.43463C16.3813 8.97759 16.4771 8.49416 16.4735 7.9978C16.4706 7.59265 16.402 7.19447 16.2696 6.81423C16.1416 6.44652 15.9565 6.10268 15.7194 5.79224C15.4854 5.48574 15.206 5.21885 14.8891 4.99898C14.741 4.89627 14.5844 4.8038 14.4235 4.72418L14.4157 4.72032L14.4161 4.71164C14.4201 4.63738 14.4221 4.56232 14.4221 4.48856C14.4221 3.92276 14.3111 3.37333 14.092 2.85549C13.8807 2.35586 13.5784 1.9074 13.1935 1.52254C12.8087 1.13768 12.3602 0.835404 11.8606 0.624066C11.3427 0.405022 10.7933 0.293969 10.2275 0.293969C9.51902 0.293969 8.81831 0.474324 8.20108 0.815584C7.80192 1.03626 7.44224 1.3201 7.13196 1.65922L7.12565 1.66611L7.11707 1.66247C6.69925 1.48541 6.25689 1.38879 5.80231 1.37531C5.76665 1.3742 5.73039 1.37367 5.69455 1.37367ZM12.7681 10.6021H4.15081C3.47658 10.6021 2.84066 10.3365 2.36024 9.85432C1.88729 9.3796 1.62818 8.75517 1.63064 8.09606C1.6341 7.16565 2.14941 6.32037 2.97544 5.89012C3.12864 5.81032 3.21164 5.64485 3.18195 5.47835C3.15427 5.32327 3.14094 5.16414 3.14236 5.00537C3.14833 4.3328 3.41873 3.69847 3.9038 3.21929C4.38775 2.74117 5.02361 2.47784 5.69418 2.47784H5.69439C5.71933 2.47784 5.74456 2.47821 5.76963 2.47895C6.2453 2.49307 6.70596 2.63961 7.10179 2.90276C7.16722 2.94625 7.24301 2.96926 7.32095 2.96926C7.45111 2.96926 7.57082 2.90508 7.6412 2.79759C8.2151 1.92128 9.18195 1.39814 10.2276 1.39814C11.9316 1.39814 13.318 2.78447 13.318 4.48853C13.318 4.69544 13.2971 4.90274 13.2559 5.10471C13.2162 5.29992 13.3346 5.49714 13.5255 5.55372C14.0443 5.70747 14.5118 6.03015 14.8419 6.46241C15.1829 6.90892 15.3653 7.44259 15.3693 8.00569C15.3743 8.68885 15.108 9.33595 14.6197 9.82782C14.1239 10.3271 13.4664 10.6021 12.7681 10.6021ZM5.69416 2.50423C5.03056 2.50423 4.40132 2.76484 3.9223 3.23805C3.44224 3.71232 3.17459 4.34003 3.1687 5.00561C3.1673 5.16277 3.1805 5.32024 3.20789 5.47373C3.23964 5.65163 3.1511 5.82837 2.98761 5.91353C2.17031 6.33924 1.66043 7.17557 1.65703 8.09616C1.6546 8.7482 1.91099 9.36596 2.37895 9.83569C2.85439 10.3129 3.48363 10.5757 4.15081 10.5757H12.7681C13.4593 10.5757 14.1102 10.3035 14.601 9.80917C15.0843 9.32233 15.3478 8.68191 15.3429 8.00585C15.3389 7.4485 15.1584 6.92032 14.8209 6.47838C14.4942 6.05055 14.0314 5.73115 13.518 5.57898C13.314 5.51854 13.1876 5.30789 13.23 5.0994C13.2709 4.89917 13.2915 4.69364 13.2915 4.48851C13.2915 2.79899 11.917 1.4245 10.2275 1.4245C9.19087 1.4245 8.23225 1.94319 7.66324 2.81203C7.58794 2.92698 7.45997 2.99565 7.32089 2.99565C7.23773 2.99565 7.1569 2.97114 7.08712 2.92474C6.6954 2.66432 6.23952 2.5193 5.76879 2.50534C5.74398 2.5046 5.71902 2.50423 5.69431 2.50423H5.69416Z" fill="#F44336"/>
<path d="M10.7504 4.66044C10.5297 4.43968 10.1717 4.43968 9.95099 4.66044L8.64527 5.96615L7.33952 4.66044C7.11876 4.43968 6.76082 4.43968 6.54008 4.66044C6.31932 4.88123 6.31932 5.23914 6.54008 5.4599L7.8458 6.76561L6.54008 8.07131C6.31932 8.29207 6.31932 8.65001 6.54008 8.87077C6.65048 8.98116 6.79513 9.03632 6.9398 9.03632C7.08445 9.03632 7.22915 8.98113 7.33952 8.87077L8.64524 7.56506L9.95099 8.87077C10.0614 8.98116 10.206 9.03632 10.3507 9.03632C10.4954 9.03632 10.6401 8.98113 10.7504 8.87077C10.9712 8.65001 10.9712 8.29207 10.7504 8.07131L9.4447 6.76561L10.7504 5.4599C10.9712 5.23914 10.9712 4.88123 10.7504 4.66044Z" fill="#F44336"/>
<path d="M10.3509 9.04958C10.1964 9.04958 10.0511 8.98941 9.94187 8.88015L8.64546 7.58377L7.34909 8.88015C7.23983 8.98941 7.09455 9.04958 6.94003 9.04958C6.78551 9.04958 6.64023 8.98941 6.53097 8.88015C6.30543 8.65458 6.30543 8.28759 6.53097 8.06203L7.82737 6.76565L6.53097 5.46924C6.30543 5.2437 6.30543 4.87668 6.53097 4.65112C6.64023 4.54186 6.78548 4.48169 6.94003 4.48169C7.09455 4.48169 7.2398 4.54186 7.34909 4.65112L8.64549 5.94753L9.94187 4.65112C10.0511 4.54186 10.1964 4.48169 10.3509 4.48169C10.5054 4.48169 10.6507 4.54186 10.76 4.65112C10.9855 4.87668 10.9855 5.24368 10.76 5.46924L9.46361 6.76565L10.76 8.06203C10.8693 8.17131 10.9294 8.31657 10.9294 8.47109C10.9294 8.62561 10.8693 8.77086 10.76 8.88015C10.6507 8.98941 10.5054 9.04958 10.3509 9.04958ZM8.64546 7.54645L9.96052 8.86149C10.0648 8.96576 10.2034 9.02319 10.3509 9.02319C10.4984 9.02319 10.6371 8.96576 10.7413 8.86149C10.8456 8.75722 10.903 8.61856 10.903 8.47109C10.903 8.32361 10.8456 8.18496 10.7413 8.08068L9.42627 6.76565L10.7413 5.45058C10.9565 5.23531 10.9565 4.88505 10.7413 4.66978C10.637 4.56551 10.4983 4.50808 10.3509 4.50808C10.2034 4.50808 10.0648 4.56551 9.9605 4.66978L8.64546 5.98484L7.3304 4.66978C7.22613 4.56551 7.08747 4.50808 6.94003 4.50808C6.79256 4.50808 6.65392 4.56551 6.54965 4.66978C6.33441 4.88505 6.33441 5.23531 6.54965 5.45058L7.86471 6.76565L6.54965 8.08068C6.33441 8.29596 6.33441 8.64622 6.54965 8.86149C6.65392 8.96576 6.79258 9.02319 6.94005 9.02319C7.08753 9.02319 7.22619 8.96576 7.33046 8.86149L8.64546 7.54645Z" fill="#F44336"/>
</svg>
