<svg width="18" height="20" viewBox="0 0 18 20" fill="none" xmlns="http://www.w3.org/2000/svg">
<path fill-rule="evenodd" clip-rule="evenodd" d="M5.96823 1.50073C6.61006 0.69754 7.62524 0 8.99552 0C10.3652 0 11.3821 0.696915 12.0259 1.49903C12.3944 1.95814 12.6696 2.48623 12.8318 3H17C17.5523 3 18 3.44772 18 4C18 4.55228 17.5523 5 17 5H12H6H1C0.447715 5 0 4.55228 0 4C0 3.44772 0.447715 3 1 3H5.16723C5.32823 2.48733 5.60131 1.9599 5.96823 1.50073ZM10.4662 2.75097C10.532 2.83295 10.5909 2.91655 10.6434 3H7.35333C7.40578 2.91594 7.46474 2.83175 7.53065 2.74927C7.8877 2.30246 8.37028 2 8.99552 2C9.62136 2 10.1067 2.30309 10.4662 2.75097ZM4.88874 6L4.8534 6H4.85338C4.55906 5.99997 4.27769 5.99993 4.04253 6.0203C3.78864 6.04229 3.48304 6.09438 3.18534 6.26514C2.77971 6.49781 2.46843 6.86526 2.30561 7.30363C2.18611 7.62535 2.18497 7.93535 2.20502 8.1894C2.22359 8.42471 2.26988 8.70226 2.3183 8.99257L2.3183 8.99259L2.32411 9.02744L3.56795 16.4905L3.57365 16.5247L3.57366 16.5247C3.64794 16.9705 3.7126 17.3586 3.79091 17.6777C3.87421 18.0171 3.98837 18.3487 4.19618 18.6612C4.50958 19.1325 4.94992 19.5055 5.46633 19.7372C5.80873 19.8908 6.15458 19.9489 6.50312 19.9753C6.83074 20 7.22413 20 7.676 20H7.67611H7.71081H10.2892H10.3239H10.324C10.7759 20 11.1693 20 11.4969 19.9753C11.8454 19.9489 12.1913 19.8908 12.5337 19.7372C13.0501 19.5055 13.4904 19.1325 13.8038 18.6612C14.0116 18.3487 14.1258 18.0171 14.2091 17.6777C14.2874 17.3586 14.3521 16.9705 14.4263 16.5247L14.432 16.4905L15.6759 9.02744L15.6817 8.9926L15.6817 8.99249C15.7301 8.70221 15.7764 8.42469 15.795 8.1894C15.815 7.93535 15.8139 7.62535 15.6944 7.30363C15.5316 6.86526 15.2203 6.49781 14.8147 6.26514C14.517 6.09438 14.2114 6.04229 13.9575 6.0203C13.7223 5.99993 13.4409 5.99997 13.1466 6H13.1466L13.1113 6H4.88874ZM4.19882 8.03205L4.19754 8.01447L4.21509 8.01284C4.35322 8.00088 4.54603 8 4.88874 8H13.1113C13.454 8 13.6468 8.00088 13.7849 8.01284L13.8025 8.01447L13.8012 8.03205C13.7903 8.17026 13.7594 8.3606 13.7031 8.69864L12.4593 16.1617C12.3776 16.6515 12.3248 16.9642 12.2667 17.201C12.2116 17.4257 12.1677 17.5098 12.1384 17.5537C12.034 17.7108 11.8872 17.8352 11.7151 17.9124C11.6669 17.934 11.5767 17.9635 11.3461 17.9809C11.1029 17.9993 10.7858 18 10.2892 18H7.71081C7.21424 18 6.89712 17.9993 6.65394 17.9809C6.4233 17.9635 6.3331 17.934 6.28495 17.9124C6.11281 17.8352 5.96603 17.7108 5.86156 17.5537C5.83233 17.5098 5.7884 17.4257 5.73328 17.201C5.67516 16.9642 5.62238 16.6515 5.54074 16.1617L4.2969 8.69864C4.24056 8.3606 4.20973 8.17026 4.19882 8.03205Z" fill="#424242"/>
</svg>
