<svg width="32" height="32" viewBox="0 0 32 32" fill="none" xmlns="http://www.w3.org/2000/svg">
<path fill-rule="evenodd" clip-rule="evenodd" d="M18.1361 13.5321C17.77 13.166 17.77 12.5725 18.1361 12.2064C18.8749 11.4675 19.9182 11.612 20.6641 11.7511C20.5249 11.0053 20.3803 9.96218 21.1192 9.22328C21.858 8.48439 22.9011 8.62901 23.647 8.76819C23.5078 8.02242 23.3632 6.9793 24.1021 6.2404C24.8409 5.50145 25.8841 5.64613 26.6299 5.78524C26.4907 5.03948 26.3461 3.99635 27.085 3.25746C27.8239 2.51863 28.867 2.66318 29.6128 2.80236C29.4736 2.05659 29.329 1.01347 30.0679 0.274577C30.434 -0.0915257 31.0276 -0.0915257 31.3936 0.274577C31.7579 0.638868 31.7598 1.22827 31.3992 1.59475C31.3112 1.77173 31.3774 2.08691 31.4551 2.45627L31.4551 2.45631L31.4551 2.45635L31.4551 2.45637C31.5888 3.09245 31.7563 3.88919 31.228 4.41751C30.7025 4.94285 29.9142 4.77897 29.2777 4.64666C28.914 4.57105 28.5999 4.50574 28.4128 4.58532C28.333 4.77314 28.3985 5.0876 28.4743 5.4515C28.6068 6.08763 28.7708 6.8748 28.245 7.40052C27.7196 7.92591 26.9335 7.76216 26.2977 7.62968C25.9333 7.55379 25.6183 7.48816 25.4298 7.56826C25.35 7.75608 25.4155 8.07055 25.4913 8.43444C25.6238 9.07057 25.7878 9.85775 25.262 10.3835C24.7366 10.9089 23.9501 10.7451 23.3141 10.6126C22.9499 10.5367 22.635 10.4711 22.4468 10.5512C22.367 10.739 22.4325 11.0535 22.5083 11.4174C22.6408 12.0535 22.8048 12.8406 22.2791 13.3663C21.7513 13.894 20.9569 13.7269 20.3213 13.5932C19.951 13.5154 19.6346 13.4488 19.4563 13.5376C19.0883 13.8996 18.4989 13.8949 18.1361 13.5321ZM14.8218 10.2177C15.1878 10.5838 15.7814 10.5838 16.1475 10.2177C20.4846 5.88061 19.0871 1.48875 19.0255 1.30389C18.8618 0.812731 18.3308 0.547185 17.8397 0.710987C17.3486 0.874727 17.0832 1.40563 17.2468 1.89679C17.2583 1.9311 18.3486 5.36521 14.8218 8.89199C14.4557 9.25803 14.4557 9.85162 14.8218 10.2177ZM8.34706 9.5195C8.58661 8.88079 9.40688 8.70499 9.88766 9.18583L23.1451 22.4433C23.6284 22.9266 23.4472 23.7456 22.8114 23.9839L1.59947 31.9384C0.846645 32.2208 0.110752 31.4829 0.392547 30.7315L8.34706 9.5195ZM13.4436 15.3933L9.5913 11.541L8.69936 13.9195C8.29163 18.245 9.82241 22.6073 12.822 25.7275L16.8322 24.2237C14.897 21.6767 13.7102 18.597 13.4436 15.3933ZM4.77053 24.3964C5.36993 25.666 6.13907 26.8365 7.06383 27.8868L10.9287 26.4374C8.98353 24.2095 7.59667 21.4472 7.03439 18.3593L4.77053 24.3964ZM5.20088 28.5855C4.72416 27.9959 4.28856 27.3759 3.89633 26.7276L2.87221 29.4587L5.20088 28.5855ZM15.7183 17.668C16.2598 19.8102 17.2689 21.8222 18.6748 23.5327L20.7899 22.7396L15.7183 17.668ZM23.4391 17.5093C23.073 17.8755 22.4794 17.8755 22.1133 17.5093C21.7472 17.1433 21.7472 16.5497 22.1134 16.1836C26.4505 11.8465 30.8423 13.244 31.0272 13.3056C31.5183 13.4693 31.7839 14.0004 31.6201 14.4914C31.4563 14.9826 30.9254 15.248 30.4343 15.0843C30.4 15.0729 26.9659 13.9826 23.4391 17.5093ZM23.4391 4.25192C23.8052 3.88582 23.8052 3.29229 23.4391 2.92619C23.0729 2.56009 22.4794 2.56009 22.1133 2.92619C21.7472 3.29229 21.7472 3.88582 22.1133 4.25192C22.4794 4.61802 23.0729 4.61802 23.4391 4.25192ZM30.3423 10.2177C30.3423 10.7355 29.9226 11.1552 29.4049 11.1552C28.8871 11.1552 28.4674 10.7355 28.4674 10.2177C28.4674 9.69998 28.8871 9.28027 29.4049 9.28027C29.9226 9.28027 30.3423 9.69998 30.3423 10.2177ZM27.4162 18.8351C27.0501 19.2012 27.0501 19.7948 27.4162 20.1609C27.7823 20.527 28.3758 20.527 28.7419 20.1609C29.108 19.7948 29.108 19.2012 28.7419 18.8351C28.3759 18.469 27.7823 18.469 27.4162 18.8351ZM14.1587 4.25187C14.5248 4.61798 14.5248 5.2115 14.1587 5.57761C13.7927 5.94371 13.1991 5.94371 12.833 5.57761C12.4669 5.2115 12.4669 4.61791 12.833 4.25187C13.1991 3.88577 13.7926 3.88577 14.1587 4.25187Z" fill="#424242"/>
</svg>
