<svg width="32" height="32" viewBox="0 0 32 32" fill="none" xmlns="http://www.w3.org/2000/svg">
<path fill-rule="evenodd" clip-rule="evenodd" d="M19.0954 12.2422H12.9044C10.7257 12.2422 8.95325 14.0146 8.95325 16.1933V28.0488C8.95325 30.2275 10.7257 32 12.9044 32H19.0954C21.2741 32 23.0466 30.2275 23.0466 28.0488V16.1933C23.0466 14.0146 21.2741 12.2422 19.0954 12.2422ZM21.0466 28.0488C21.0466 29.1247 20.1714 30 19.0955 30H12.9044C11.8286 30 10.9533 29.1247 10.9533 28.0488V16.1933C10.9533 15.1175 11.8286 14.2422 12.9044 14.2422H19.0955C20.1714 14.2422 21.0466 15.1174 21.0466 16.1933V28.0488ZM19.7383 16.6915C19.7383 17.2438 19.2905 17.6915 18.7383 17.6915H18.0737C17.5214 17.6915 17.0737 17.2438 17.0737 16.6915C17.0737 16.1392 17.5214 15.6915 18.0737 15.6915H18.7383C19.2906 15.6915 19.7383 16.1393 19.7383 16.6915ZM13.2616 17.6915C12.7094 17.6915 12.2616 17.2438 12.2616 16.6915C12.2616 16.1392 12.7094 15.6915 13.2616 15.6915H13.9262C14.4784 15.6915 14.9262 16.1392 14.9262 16.6915C14.9262 17.2438 14.4784 17.6915 13.9262 17.6915H13.2616ZM15.9999 20.5461C14.2439 20.5461 12.8153 21.9747 12.8153 23.7307C12.8153 25.4867 14.2439 26.9153 15.9999 26.9153C17.7559 26.9153 19.1846 25.4867 19.1846 23.7307C19.1846 21.9747 17.7559 20.5461 15.9999 20.5461ZM15.9999 24.9154C15.3467 24.9154 14.8153 24.384 14.8153 23.7308C14.8153 23.0776 15.3467 22.5462 15.9999 22.5462C16.6531 22.5462 17.1846 23.0776 17.1846 23.7308C17.1846 24.384 16.6531 24.9154 15.9999 24.9154ZM9.79319 3.98165C9.40262 3.59109 9.40262 2.95797 9.79319 2.56747C11.4487 0.911904 13.6529 0.000154056 15.9998 9.15559e-05C18.3467 2.90559e-05 20.551 0.911779 22.2066 2.5674C22.5972 2.9579 22.5972 3.59109 22.2066 3.98159C21.8161 4.37215 21.1829 4.37215 20.7924 3.98159C19.5146 2.70378 17.8125 2.00003 15.9998 2.00009C14.1872 2.00015 12.4852 2.70384 11.2074 3.98159C11.0121 4.1769 10.7562 4.27453 10.5003 4.27453C10.2444 4.27453 9.98844 4.1769 9.79319 3.98165ZM18.0776 6.6964C16.9319 5.55078 15.0679 5.55072 13.9222 6.6964C13.5317 7.0869 12.8985 7.0869 12.508 6.6964C12.1175 6.30584 12.1175 5.67272 12.508 5.28222C14.4335 3.35684 17.5664 3.35672 19.4918 5.28222C19.8824 5.67272 19.8824 6.3059 19.4918 6.6964C19.2966 6.89172 19.0406 6.98934 18.7848 6.98934C18.5289 6.98934 18.2729 6.89165 18.0776 6.6964ZM16 7.59259C16.6121 7.59259 17.1114 8.09184 17.1114 8.70403C17.1114 9.31615 16.6121 9.8154 16 9.8154C15.3879 9.8154 14.8886 9.31615 14.8886 8.70403C14.8886 8.09184 15.3879 7.59259 16 7.59259Z" fill="black"/>
</svg>
